<svg width="321" height="244" viewBox="0 0 321 244" fill="none" xmlns="http://www.w3.org/2000/svg">
<path d="M2.3391 106.734C1.90931 106.734 1.47952 106.734 1.07234 106.734C1.0271 106.43 0.963765 106.281 0.99091 106.154C1.02258 106.027 1.12662 105.841 1.2352 105.814C2.321 105.547 2.37077 104.01 3.67373 103.902C3.49729 101.767 5.18932 100.825 6.62801 100.073C7.97168 99.3659 8.9851 98.4098 10.0528 97.4356C10.9124 96.6517 11.8217 95.9177 12.627 95.2334C12.4687 94.1369 12.3149 93.072 12.1746 92.0661C11.6951 91.0284 11.2291 90.0134 10.754 88.9848C11.4417 88.3777 12.0027 87.8837 12.7039 87.272C14.4231 87.6572 16.0066 85.9534 17.9248 86.3839C19.4359 84.4038 19.4495 84.1817 18.2279 81.9977C19.7209 81.2183 21.3406 81.3633 22.9195 81.3723C23.0959 81.1956 23.2543 81.037 23.4172 80.8739C24.046 79.9767 23.1502 79.2381 23.1683 78.4225C23.1864 77.6023 23.1005 76.8366 22.4354 76.0028C22.2725 75.9711 21.8201 75.9711 21.4582 75.7898C21.146 75.6312 20.9334 75.2642 20.7253 75.0377C18.7437 74.947 16.9476 75.3911 15.1244 75.885C13.6721 76.2792 12.0887 76.397 10.5776 76.3336C9.50085 76.2883 8.60959 76.7958 7.6007 76.8592C6.67777 76.9181 5.76389 77.1447 4.84549 77.2942C4.47451 75.3639 4.47451 75.3639 5.33862 73.5786C6.14844 73.1164 6.99446 72.627 7.89929 72.1105C7.64594 71.5984 7.46045 71.2269 7.28853 70.8825C7.94906 69.4733 9.51894 69.65 10.6228 68.7891C11.2426 67.8511 11.8534 66.8452 10.9667 65.5583C10.7631 65.2637 10.935 64.7019 10.935 64.3348C11.8986 63.7186 11.8987 63.7186 12.8352 63.6416C13.9345 62.7852 14.8982 62.033 15.8482 61.2944C16.2328 61.5617 16.4635 61.7203 16.7485 61.9152C17.21 61.6795 17.7031 61.4348 18.1465 61.2083C17.9474 60.4108 17.762 59.6541 17.5584 58.8158C17.4136 58.7569 17.1557 58.6572 16.8979 58.553C17.0245 57.7963 17.3186 57.0169 17.2281 56.2873C17.1376 55.5578 16.6626 54.8736 16.3188 54.0852C17.1648 52.7031 18.9292 53.2106 19.9743 52.3814C20.4267 52.8844 20.8746 53.3783 21.1822 53.7181C22.5892 53.7453 23.6524 53.6547 24.6025 54.4431C25.5299 55.218 26.6022 55.2633 27.7739 54.6652C28.7014 54.1939 29.8912 54.2619 30.5744 53.3012C31.8909 53.12 32.9948 53.4372 34.0037 54.3344C34.438 54.7195 35.1528 54.792 35.8812 55.0594C36.302 54.8419 36.8584 54.5519 37.4556 54.2437C38.0438 54.2437 38.6998 54.2437 39.582 54.2437C39.3603 54.6742 39.2743 55.0231 39.0527 55.2316C36.9218 57.2616 36.0531 59.7402 36.3201 62.7036C36.5825 62.7353 36.7906 62.7625 37.0032 62.7806C37.148 62.7942 37.2973 62.7987 37.442 62.8078C37.8673 63.2338 38.2926 63.6642 38.8445 64.2125C40.0932 64.0177 41.4414 63.8092 42.8077 63.5962C43.4049 64.4073 43.9568 65.1641 44.4997 65.9027C45.2145 65.9072 45.771 65.9752 46.4406 65.6036C47.4631 65.0327 48.5308 64.2805 49.8609 64.5841C49.9694 64.6112 50.1413 64.5116 50.2364 64.4255C51.2724 63.4694 52.5573 63.773 53.7788 63.6733C55.2627 63.5555 56.6199 64.0358 58.0134 64.3756C58.502 64.4934 59.1852 64.7653 59.4792 64.5478C60.7053 63.6416 62.1032 63.2202 63.5057 62.7716C63.6369 62.7308 63.8134 62.6583 63.8586 62.5495C64.5598 60.9002 66.3107 60.4697 67.4915 59.4456C67.4915 59.0741 67.4915 58.775 67.4915 58.5077C66.9441 58.1406 66.4102 57.7827 65.7768 57.3567C65.2882 57.3703 64.5825 57.1075 64.0124 57.8914C63.4831 56.097 65.1435 55.3811 65.5099 53.8586C66.2564 54.5428 66.7903 55.0322 67.3467 55.5442C67.772 55.5442 68.2199 55.5442 68.5502 55.5442C69.0252 56.1922 69.455 56.7677 69.8577 57.3159C70.3915 57.3159 70.8394 57.3159 71.337 57.3159C72.1423 56.5003 72.9838 55.6484 73.8751 54.7513C73.5674 53.4417 73.0879 52.2002 72.0247 51.2259C72.916 50.3514 73.5855 51.8241 74.6532 51.3302C74.9383 50.868 75.3364 50.2155 75.7752 49.4995C75.1916 49.1959 74.7166 48.9422 74.0515 48.5933C73.8344 48.9558 73.6036 49.3455 73.1829 50.0433C72.7848 49.1234 72.5586 48.5978 72.3007 48.0087C74.2823 47.03 75.549 45.3852 77.4401 44.6284C78.5983 44.1662 78.6798 42.7978 79.7429 41.8961C80.2361 41.8961 81.0459 41.8961 81.9281 41.8961C81.9281 41.162 81.9281 40.5005 81.9281 39.7528C82.7153 39.7528 83.4256 39.7528 84.1585 39.7528C84.2038 40.147 84.2445 40.5005 84.2942 40.94C84.8009 40.94 85.3076 40.94 85.9863 40.94C86.4477 40.3147 87.0042 39.558 87.5607 38.8058C88.9812 38.8058 90.3928 38.8058 91.6731 38.8058C92.026 39.8842 92.3472 40.8811 92.7499 42.1181C92.5418 42.4761 92.1934 43.0878 91.931 43.5455C90.6416 43.7947 89.5242 44.0122 88.3298 44.2478C88.8184 45.2673 89.2527 46.1102 90.3702 46.5678C91.0759 46.8578 91.56 47.6916 91.9174 48.0541C94.2066 48.8969 95.9213 47.3608 97.8803 47.3653C98.6765 46.6041 100.129 47.2339 100.717 46.0286C101.785 46.1419 102.608 45.5981 103.522 45.145C104.368 44.7236 105.187 44.343 105.843 43.6406C106.069 43.4005 106.445 43.3008 106.739 43.1422C107.055 41.9912 107.367 40.8448 107.693 39.6622C108.77 39.6622 109.666 39.712 110.552 39.6486C111.552 39.5806 112.552 39.8706 113.57 39.277C114.045 39.0006 114.977 38.9644 115.647 39.5897C116.027 39.9477 116.651 40.0428 117.108 40.2286C117.293 41.4702 117.479 42.68 117.655 43.8672C118.719 45.0544 119.736 46.228 121.578 45.9923C121.953 45.5845 122.36 45.1405 122.704 44.7689C122.949 44.71 123.089 44.6511 123.225 44.6511C124.505 44.642 125.79 44.5877 127.066 44.6602C129.491 44.8006 131.811 44.4834 134.046 43.4866C134.49 43.2917 135.263 43.1105 135.503 43.3325C136.25 44.0258 137.069 43.6089 137.901 43.7675C138.824 42.6845 138.652 40.9128 140.367 40.0564C140.738 40.0564 141.394 40.0564 141.914 40.0564C142.846 39.4945 142.339 38.0944 143.362 37.895C144.167 37.7409 144.864 37.5325 145.502 37.0114C145.687 36.8573 146.076 36.9525 146.311 36.9389C147.583 35.8831 148.822 34.8545 150.112 33.7852C150.487 33.7852 150.94 33.7852 151.492 33.7852C151.731 34.1477 152.003 34.5555 152.369 35.1128C153.478 34.9814 154.772 34.628 156.025 34.7458C157.251 34.8591 158.436 35.4481 159.925 35.9194C160.16 36.5764 160.486 37.4962 160.816 38.4161C160.734 38.4659 160.657 38.5203 160.576 38.5702C161.286 39.2362 161.956 39.9567 162.725 40.5458C163.39 41.0578 164.123 41.5653 164.91 41.8009C165.67 42.0275 166.534 41.8734 167.349 41.9414C167.969 41.9913 168.584 42.1227 169.534 42.2722C169.661 42.2314 170.145 42.1227 170.583 41.9187C170.973 41.742 171.312 41.4611 171.877 41.0941C172.28 41.0941 172.941 41.0941 173.818 41.0941C173.94 41.4384 174.366 42.1589 174.216 42.313C173.334 43.2056 174.094 44.4155 173.425 45.4259C172.832 46.3186 171.99 46.8986 171.43 47.7595C171.045 47.8003 170.688 47.8411 170.393 47.8728C170.163 48.4302 169.846 48.9286 169.76 49.4633C169.661 50.0705 169.33 50.3061 168.842 50.5553C167.91 51.0266 167.204 51.7516 166.86 52.7575C166.702 53.2242 166.417 53.8994 166.611 54.1939C167.263 55.1545 166.86 56.2012 167.109 57.3431C167.362 57.3431 167.643 57.3431 167.923 57.3431C168.163 58.1678 167.34 58.4216 167.154 58.7841C167.539 59.5906 167.864 60.2748 168.195 60.9681C168.38 60.9681 168.606 60.9681 168.828 60.9681C169.081 61.9695 169.864 61.9106 170.638 61.8744C170.787 62.0239 170.941 62.178 171.09 62.3275C171.144 62.9845 171.068 63.6053 170.638 64.14C169.588 64.4345 170.647 65.513 169.846 66.0159C169.466 66.0159 168.968 66.0159 168.281 66.0159C168.679 66.5325 168.982 66.9222 169.281 67.3119C169.281 67.765 169.281 68.2181 169.281 68.6712C168.706 68.6712 168.127 68.635 167.561 68.6939C167.367 68.712 167.199 68.9748 167.018 69.1244C166.901 70.1258 167.629 70.7692 168.326 70.8734C169.471 71.0411 170.181 71.8159 171.09 72.2962C171.158 72.6406 170.864 73.1617 171.543 73.2025C171.715 73.6466 171.122 74.3489 171.995 74.5619C171.742 76.3653 172.61 78.06 172.538 79.8498C172.538 79.8952 172.773 79.9495 172.9 79.9994C173.09 80.7198 173.284 81.4403 173.502 82.265C174.185 82.265 174.9 82.265 175.614 82.265C175.108 83.4839 174.605 84.7028 174.112 85.89C172.809 85.7858 172.054 86.6195 171.249 87.2131C170.552 87.2539 169.909 87.2947 169.091 87.34C169.751 88.6495 170.312 89.7642 170.841 90.82C171.108 90.888 171.307 90.9423 171.466 90.9786C171.651 92.1114 171.805 93.1762 172.013 94.2275C172.063 94.4858 172.298 94.7078 172.452 94.948C172.52 95.2923 172.226 95.8134 172.904 95.8542C173.054 95.8542 173.207 95.8542 173.357 95.8542C173.583 96.8012 173.601 97.8344 174.443 98.5322C175.723 98.6228 176.917 98.8403 177.971 99.7375C178.519 100.204 179.302 100.558 180.139 100.39C180.139 100.54 180.139 100.694 180.139 100.843C180.139 101.364 180.139 101.89 180.139 102.483C180.591 102.864 181.08 103.276 181.668 103.77C182.319 102.891 182.812 102.094 183.441 101.423C184.124 100.694 184.934 100.082 185.608 99.4883C186.893 99.4883 188.02 99.3931 189.123 99.52C189.915 99.6106 190.879 99.7919 191.399 100.304C191.974 100.87 192.494 101.237 193.263 101.301C193.335 102.048 193.915 101.668 194.281 101.749C194.602 101.822 195.068 101.6 195.073 102.207C195.222 102.357 195.376 102.511 195.525 102.66C195.593 103.005 195.299 103.526 195.978 103.566C196.127 103.566 196.281 103.566 196.43 103.566C196.43 103.716 196.43 103.87 196.43 104.02C195.557 104.232 196.15 104.935 195.978 105.379C196.045 105.723 195.751 106.244 196.43 106.285C196.43 106.512 196.43 106.738 196.43 107.155C198.054 107.613 199.733 108.08 201.407 108.551C201.597 108.7 201.773 108.954 201.986 108.986C202.542 109.067 203.112 109.058 203.669 109.085C203.669 109.466 203.669 109.688 203.669 109.915C202.732 110.789 202.755 111.94 202.764 113.087C202.085 113.127 202.379 113.648 202.311 113.993C201.633 114.034 201.927 114.555 201.859 114.899C201.28 114.899 200.705 114.899 200.045 114.899C200.257 115.601 199.547 116.345 200.502 116.712C200.502 116.861 200.502 117.015 200.502 117.165C200.352 117.165 200.199 117.165 200.049 117.165C199.9 117.165 199.746 117.165 199.597 117.165C199.448 116.974 199.23 116.807 199.158 116.589C199.054 116.281 199.294 115.805 198.692 115.805C198.692 115.429 198.692 115.058 198.692 114.668C198.167 114.151 197.633 113.626 196.977 112.982C195.647 113.88 194.756 111.659 193.313 112.298C193.313 113.019 193.313 113.671 193.313 114.5C195.064 115.117 196.489 116.281 197.787 117.618C197.787 117.767 197.787 117.921 197.787 118.071C196.914 118.071 196.041 118.044 195.172 118.094C194.982 118.103 194.801 118.375 194.62 118.524C193.847 118.488 193.064 118.429 192.811 119.43C192.548 119.43 192.281 119.43 191.906 119.43C191.906 119.806 191.906 120.074 191.906 120.337C191.63 120.337 191.349 120.337 191.087 120.337C191.01 119.625 190.951 119.068 190.892 118.524C190.544 118.524 190.322 118.524 190.096 118.524C189.25 117.885 188.228 117.885 187.382 118.524C186.626 118.524 185.875 118.524 185.12 118.524C184.617 117.795 184.056 117.115 183.572 116.363C182.672 114.958 182.6 113.735 183.78 112.38C183.373 110.526 185.07 108.936 184.581 106.765C184.093 106.43 183.491 105.846 182.776 105.569C181.858 105.22 180.826 105.279 179.858 104.985C179.442 104.858 178.84 105.343 178.551 105.456C178.27 105.954 178.103 106.253 177.971 106.489C178.804 108.147 179.211 109.815 178.256 111.6C178.858 111.695 179.274 111.763 179.605 111.818C179.478 112.76 179.36 113.599 179.247 114.441C178.854 114.405 178.311 114.641 178.32 113.88C178.32 113.766 178.039 113.648 177.854 113.503C177.297 113.055 177.297 113.055 176.546 113.476C177.053 113.476 177.469 113.476 177.854 113.503C177.89 114.133 177.89 114.74 177.89 115.343C177.655 115.647 177.419 115.946 177.175 116.254C176.736 116.254 176.288 116.254 175.881 116.254C175.112 117.509 173.633 118.021 172.886 119.385C172.886 119.865 172.886 120.459 172.886 120.799C172.153 121.845 171.547 122.711 171.009 123.472C171.267 123.916 171.411 124.161 171.552 124.401C171.552 124.777 171.552 125.149 171.552 125.407C170.502 126.63 169.507 127.781 168.498 128.955C167.471 128.502 166.543 128.067 165.991 126.866C165.562 125.928 164.548 125.253 163.191 125.321C163.037 125.529 162.82 125.815 162.603 126.1C163.042 126.54 163.517 127.147 164.118 127.582C164.738 128.031 165.39 128.393 165.666 129.662C165.666 129.916 165.376 130.858 165.72 131.375C166.733 132.897 165.467 133.504 164.937 134.492C164.091 133.944 163.395 133.491 162.657 133.015C162.445 133.332 162.245 133.631 162.046 133.926C160.323 134.121 158.594 134.315 156.721 134.524C156.337 134.882 155.808 135.376 155.251 135.897C154.762 135.453 154.392 135.117 153.944 134.705C153.306 134.963 152.677 135.222 152.025 135.489C152.505 136.808 150.867 137.981 152.179 139.363C151.297 139.363 150.564 139.363 149.836 139.363C149.723 139.214 149.614 138.942 149.492 138.933C148.913 138.887 148.329 138.91 147.727 138.91C147.515 139.232 147.32 139.522 147.126 139.816C146.664 139.966 146.203 140.229 145.737 140.247C144.818 140.283 144.411 140.668 144.389 141.597C144.38 141.914 144.108 142.222 143.959 142.54C143.81 142.689 143.656 142.843 143.506 142.993C143.38 143.043 143.258 143.093 143.131 143.142C143.258 143.242 143.38 143.346 143.506 143.446C143.656 143.595 143.81 143.75 143.959 143.899C144.108 144.049 144.262 144.203 144.411 144.352C144.561 144.502 144.714 144.656 144.864 144.805C144.425 145.258 144 145.73 143.538 146.16C142.787 146.858 141.769 147.397 141.326 148.245C140.973 148.92 140.466 149.228 140.059 149.903C139.607 148.317 138.593 148 137.503 147.973C137.164 148.607 136.955 149.228 136.557 149.685C136.146 150.166 136.336 150.66 136.268 151.149C135.567 151.077 135.087 151.339 134.911 152.055C134.178 152.513 133.997 153.215 134.001 154.022C134.01 155.286 134.006 156.55 134.006 157.719C132.911 158.83 132.911 158.83 132.648 159.758C132.35 159.958 132.056 160.157 131.992 160.198C131.291 161.625 131.857 162.853 132.413 163.696C133.277 165.001 133.594 166.27 133.54 167.752C133.246 167.865 132.983 167.965 132.685 168.078C132.685 168.721 132.685 169.374 132.685 170.081C133.843 171.132 135.268 170.398 136.218 170.606C137.046 171.177 137.607 171.644 138.24 171.979C139.037 172.401 140.005 172.564 140.692 173.103C141.412 173.665 141.887 174.544 142.484 175.269C142.615 175.428 142.81 175.536 142.615 175.382C143.728 175.695 144.407 175.885 145.054 176.066C146.434 175.165 147.8 174.272 149.189 173.361C150.745 173.366 152.763 173.878 154.595 174.784C154.812 174.453 155.061 174.082 155.183 173.896C155.943 174.109 156.468 174.258 157.016 174.412C157.052 174.761 157.092 175.115 157.138 175.554C158.246 175.767 159.355 175.985 160.237 176.152C161.951 174.68 163.462 173.384 165.059 172.015C166.05 171.821 167.163 171.599 168.43 171.349C168.57 171.182 168.805 170.901 168.968 170.71C170.312 171.222 171.23 172.097 171.742 173.284C172.276 173.284 172.782 173.284 173.343 173.284C173.583 172.981 173.814 172.691 173.986 172.473C174.7 172.473 175.298 172.473 175.936 172.473C176.13 172.763 176.329 173.062 176.528 173.361C176.773 174.213 175.922 174.467 175.623 175.02C175.637 176.347 175.447 177.729 176.528 178.799C176.528 179.225 176.528 179.651 176.528 179.827C176.053 180.235 175.782 180.466 175.474 180.729C176.089 181.11 176.564 181.4 176.981 181.658C176.981 182.6 176.981 183.416 176.981 184.236C175.94 184.141 174.89 184.413 173.841 183.851C173.456 183.647 172.434 183.276 172.004 184.236C171.325 184.277 171.62 184.798 171.552 185.142C171.552 185.292 171.552 185.446 171.552 185.596C170.941 186.171 170.941 186.833 171.552 187.408C171.701 187.408 171.855 187.408 172.004 187.408C172.004 187.558 172.004 187.712 172.004 187.861C171.877 187.911 171.647 187.952 171.638 188.02C171.565 188.65 171.371 189.275 171.914 189.86C172.099 190.059 171.991 190.535 172.013 190.856C171.66 190.988 171.402 191.083 171.149 191.174C171.108 191.554 171.068 191.908 171.072 191.88C170.502 192.587 170.163 193.063 169.769 193.48C169.312 193.965 168.805 194.4 168.385 194.799C168.385 195.737 168.385 196.557 168.385 197.377C168.235 197.554 167.987 197.717 167.955 197.912C167.887 198.328 167.932 198.763 167.932 199.189C167.281 199.928 167.281 200.716 167.932 201.455C167.932 201.908 167.932 202.361 167.932 202.814C167.629 203.267 167.331 203.721 167.028 204.174C166.032 204.106 165.616 204.804 165.218 205.533C165.069 205.683 164.915 205.837 164.765 205.986C163.87 206.013 163.168 206.439 162.558 207.06C161.761 207.871 161.01 208.719 159.703 208.746C159.422 208.75 159.155 209.308 158.884 209.607C157.613 209.561 156.4 209.643 155.717 210.966C154.989 210.966 154.26 210.957 153.527 210.971C152.641 210.984 151.826 211.202 151.193 211.872C150.591 211.872 149.985 211.872 149.383 211.872C148.84 211.134 148.293 210.391 147.682 209.561C146.515 209.72 145.235 209.892 143.954 210.06C143.737 209.135 142.936 209.181 142.398 209.086C142.054 208.569 141.783 208.161 141.701 208.039C140.448 207.681 139.493 207.436 138.552 207.137C137.363 206.757 136.774 206.784 135.811 207.346C135.209 207.346 134.603 207.346 134.001 207.346C133.173 205.859 131.594 205.932 130.242 205.533C129.527 206.272 128.608 205.878 127.78 206.004C127.572 206.036 127.4 206.29 127.215 206.439C126.437 206.892 125.636 207.314 124.889 207.812C124.559 208.034 124.329 208.401 124.048 208.705C123.777 208.705 123.505 208.705 123.143 208.705C123.143 209.702 123.143 210.563 123.143 211.424C123.143 212.18 123.143 212.933 123.143 213.689C123.143 214.142 123.143 214.596 123.143 215.049C122.424 214.573 121.677 214.405 120.881 214.754C120.881 215.071 120.881 215.284 120.881 215.502C120.293 215.733 120.225 216.567 119.528 216.703C119.488 216.712 119.524 217.101 119.524 217.314C118.357 217.197 117.321 218.071 116.126 217.772C114.366 219.145 112.159 218.628 110.032 219.344C109.969 219.44 109.77 219.739 109.571 220.033C109.154 220.033 108.743 220.033 108.634 220.033C108.055 220.627 107.684 221.007 107.309 221.392C106.897 221.392 106.485 221.392 105.951 221.392C105.951 221.764 105.951 222.031 105.951 222.299C105.54 222.299 105.128 222.299 104.784 222.299C104.535 222.824 104.341 223.241 104.142 223.658C102.766 223.776 102.269 224.859 101.635 225.91C100.617 225.72 100.133 226.372 99.8709 227.247C98.2603 227.333 97.1609 228.448 95.8489 229.186C95.2653 228.516 94.6908 227.908 93.7362 228.189C93.5823 227.659 93.2159 227.464 92.7001 227.247C91.741 226.839 90.6552 227.016 89.7368 226.3C88.9496 225.688 87.8864 225.43 86.9454 225.017C86.873 224.075 86.873 224.075 86.0406 224.347C86.0406 224.569 86.0406 224.791 86.0406 225.017C85.8913 225.167 85.7374 225.321 85.5881 225.471C85.4388 225.62 85.285 225.774 85.1357 225.924C84.9864 226.073 84.8326 226.227 84.6833 226.377C84.4164 226.377 84.1449 226.377 83.9142 226.377C83.697 227.22 83.5116 227.931 83.3261 228.643C83.1768 228.792 83.0229 228.946 82.8736 229.096C81.1409 229.29 79.4036 229.485 77.5578 229.694C77.0013 229.979 76.3181 230.333 75.635 230.682C75.635 230.908 75.635 231.135 75.635 231.361C75.4088 231.361 75.1826 231.361 74.9338 231.361C74.7166 232.014 74.4994 232.68 74.2823 233.341C75.1871 233.949 76.101 234.556 77.0601 235.199C76.2458 235.598 75.5671 235.929 74.8976 236.255C73.6806 235.186 72.7305 236.45 71.8166 236.676C71.4909 236.522 71.3008 236.432 71.1108 236.346C71.1108 235.77 71.1108 235.195 71.1108 234.529C70.0069 234.556 68.998 234.361 68.3963 235.439C68.247 235.439 68.0932 235.439 67.9439 235.439C67.7449 235.14 67.5458 234.846 67.3105 234.497C66.7948 234.551 66.2609 234.51 65.7949 234.674C64.863 234.995 63.9672 235.353 62.9583 235.489C62.0128 235.616 61.2663 236.45 60.1624 236.418C59.8095 236.409 59.0901 236.663 58.7825 237.469C58.5201 238.154 57.8098 238.924 56.8281 239.137C56.5657 239.196 56.3937 239.681 56.1811 239.971C55.421 240.002 54.6972 240.125 53.9416 240.329C53.263 240.51 52.512 241.548 51.657 240.632C51.657 240.41 51.657 240.193 51.657 239.975C51.657 239.218 51.657 238.466 51.657 237.71C51.5077 237.56 51.3538 237.406 51.2045 237.256C51.1502 236.944 51.1005 236.631 51.0552 236.368C50.0011 236.717 49.0827 236.975 48.2141 237.343C47.9381 237.46 47.7933 237.882 47.5852 238.163C47.2414 238.231 46.7211 237.936 46.6804 238.616C46.3365 238.684 45.8163 238.389 45.7755 239.069C45.5041 239.069 45.2281 239.069 45.0426 239.069C44.7802 240.51 44.545 241.797 44.3414 242.898C43.9704 243.21 43.7397 243.405 43.5089 243.6C42.7851 243.6 42.0612 243.6 41.2966 243.6C41.2966 242.526 41.2966 241.579 41.2966 240.533C41.6902 240.274 42.1472 239.971 42.6946 239.613C42.396 239.092 42.1426 238.507 41.7536 238.036C41.5681 237.814 41.1247 237.814 40.7944 237.71C40.6451 237.211 40.5185 236.699 40.3285 236.214C40.2742 236.074 40.0434 236.001 39.8896 235.897C39.7403 235.897 39.5865 235.897 39.4372 235.897C39.2879 235.748 39.1341 235.593 38.9848 235.444C38.6681 234.461 39.4327 233.654 39.4372 232.725C39.7132 232.725 39.9937 232.725 40.3556 232.725C40.3104 231.411 40.4099 230.247 40.2877 229.1C39.8851 229.1 39.6634 229.1 39.4372 229.1C39.4372 228.52 39.4372 227.94 39.4372 227.351C40.2923 227.297 41.0026 227.251 41.6993 227.206C41.6993 226.83 41.6993 226.603 41.6993 226.381C41.9707 225.992 42.5679 223.898 42.6041 223.21C42.6041 222.457 42.8937 221.506 42.5408 220.994C41.8531 219.997 42.5951 219.231 42.5453 218.393C42.491 217.505 43.4818 218.003 43.5813 217.233C43.6899 216.39 44.364 215.615 44.83 214.741C45.1467 212.557 44.5043 210.463 43.5587 208.433C44.278 208.048 47.4766 205.189 47.8793 204.509C48.3769 204.69 48.9017 204.881 49.4356 205.075C50.1866 204.754 50.9557 204.427 51.657 204.124C51.657 203.567 51.657 203.19 51.657 202.814C51.9284 202.814 52.1999 202.814 52.3808 202.814C52.6161 202.094 52.8061 201.523 52.9237 201.165C52.7789 200.368 52.6704 199.778 52.5618 199.189C52.5618 198.763 52.607 198.328 52.5392 197.912C52.5075 197.717 52.2587 197.554 52.1094 197.377C51.9601 196.856 51.8062 196.33 51.6931 195.94C52.1637 195.483 52.5889 195.07 53.0142 194.658C53.6928 194.617 53.3988 194.096 53.4666 193.752C53.6159 193.602 53.7697 193.448 53.919 193.299C53.9643 192.914 53.7064 192.347 54.6067 192.402C54.8917 192.973 55.2129 193.607 55.507 194.196C56.6381 194.314 57.1312 193.639 57.5384 192.846C57.6877 192.696 57.8415 192.542 57.9908 192.392C58.7373 192.415 59.4973 192.474 59.8593 191.364C59.5833 191.069 59.2394 190.702 58.8956 190.335C58.8956 189.216 58.8956 188.088 58.8956 186.955C59.2394 186.656 59.5788 186.357 59.9452 186.04C59.6421 185.328 59.4023 184.766 59.1625 184.209C58.4296 184.06 57.7555 183.924 57.0859 183.788C57.0859 183.57 57.0859 183.348 57.0859 183.09C56.7919 182.958 56.4888 182.822 56.1314 182.659C56.1314 182.17 56.1314 181.676 56.1314 181.191C55.0501 180.992 54.0321 180.802 53.0142 180.616C52.8649 180.466 52.7111 180.312 52.5618 180.163C52.1094 180.163 51.657 180.163 51.2045 180.163C51.0552 180.163 50.9014 180.163 50.7521 180.163C50.6028 180.013 50.449 179.859 50.2997 179.71C50.2997 179.56 50.2997 179.406 50.2997 179.256C50.2997 178.803 50.2997 178.35 50.2997 177.897C50.2997 177.747 50.2997 177.593 50.2997 177.444C51.1729 177.231 50.5802 176.529 50.7521 176.085C50.9014 175.903 51.1638 175.736 51.1819 175.541C51.2407 174.974 51.2045 174.394 51.2045 173.819C51.4805 173.819 51.761 173.819 52.1094 173.819C52.1094 172.55 52.132 171.435 52.0868 170.321C52.0777 170.121 51.8062 169.936 51.657 169.741C51.5891 169.396 51.8832 168.875 51.2045 168.835C52.0777 167.724 52.9463 166.628 53.2902 165.191C53.4485 164.53 53.548 163.809 54.186 163.288C54.4257 163.093 54.3217 162.468 54.3714 162.038C54.2221 161.888 54.0683 161.734 53.919 161.585C53.7697 161.435 53.6159 161.281 53.4666 161.131C53.5345 160.787 53.2404 160.266 53.919 160.225C54.471 160.379 55.0275 160.538 55.7287 160.737C55.7287 160.157 55.7287 159.74 55.7287 159.319C55.9911 159.319 56.258 159.319 56.6335 159.319C56.6335 158.943 56.6335 158.675 56.6335 158.413C56.8552 158.413 57.0769 158.413 57.3167 158.413C57.5519 157.937 57.7917 157.448 57.8641 157.298C57.6831 156.147 57.5564 155.327 57.4117 154.398C57.2171 154.267 56.9231 154.072 56.6335 153.877C56.4842 153.727 56.3304 153.573 56.1811 153.424C56.0318 153.274 55.878 153.12 55.7287 152.971C55.6111 152.821 55.4934 152.536 55.3758 152.54C54.2538 152.554 53.5028 151.915 52.7201 151.086C51.8741 151.253 50.9693 151.421 50.0735 151.616C48.7343 151.91 47.5309 151.108 46.228 151.158C45.9927 150.836 45.7574 150.51 45.5991 150.293C44.3369 150.134 43.1651 150.574 42.1562 149.799C42.1019 149.486 42.0476 149.173 42.0024 148.902C40.8714 148.843 40.9935 149.885 40.4597 150.261C39.9711 149.944 39.9711 149.944 39.8941 149.346C39.8941 148.892 39.8941 148.439 39.8941 147.986C40.609 147.81 40.8714 147.329 40.799 146.627C40.6542 145.943 40.1701 145.027 40.4416 144.62C40.8849 143.953 40.7221 143.346 40.7899 142.721C40.8397 142.277 40.6813 141.778 40.8216 141.38C41.2242 140.238 40.6994 138.498 42.8394 138.403C43.4004 138.38 43.794 137.524 43.3958 136.767C43.1334 136.676 42.871 136.586 42.6267 136.5C42.6041 135.045 42.6041 135.045 41.0387 132.136C40.7447 132.136 40.4506 132.136 39.9484 132.136C39.6182 132.539 39.1974 133.056 38.9531 133.355C38.3288 133.518 37.9623 133.554 37.6547 133.708C36.967 134.044 36.1119 134.288 35.6776 134.846C35.0126 135.702 33.8363 134.814 33.3251 135.756C31.5245 136.06 29.9636 137.138 28.1313 137.351C28.1223 137.351 28.1313 137.492 28.1313 137.569C26.5841 137.438 24.978 137.918 23.4805 137.138C23.4534 137.125 23.2679 137.419 23.1548 137.569C21.9287 136.672 21.8337 135.208 21.3451 133.944C21.6754 132.458 22.0056 130.971 22.3314 129.53C23.3493 129.005 23.3493 129.005 23.6072 128.053C24.4441 127.963 25.5118 128.438 25.8693 127.147C26.471 127.147 27.0772 127.147 27.6789 127.147C28.0047 127.247 28.3304 127.365 28.6652 127.446C28.9366 127.514 29.2171 127.55 29.4886 127.6C30.0631 128.511 30.9137 127.79 31.5063 128.071C31.8819 127.695 32.1035 127.287 32.4202 127.188C34.1304 126.653 35.4378 125.579 36.6639 124.32C37.1253 123.844 37.8764 123.653 38.4962 123.332C38.7269 122.24 39.22 121.225 39.5186 120.137C39.9349 118.628 40.5728 116.997 41.6178 115.896C42.491 114.976 42.6313 114.224 42.5815 113.141C42.1155 113.141 41.7581 113.141 41.2695 113.141C40.5411 114.074 39.8806 115.162 38.9848 116C38.098 116.834 36.9761 117.45 36.2205 118.415C35.3564 119.521 34.0896 119.829 32.9224 120.282C31.7371 120.744 31.0901 121.75 30.2667 122.566C29.2714 123.549 28.2082 124.165 26.7831 123.98C26.7831 123.708 26.7831 123.431 26.7831 123.178C27.3215 123.087 27.7242 123.019 28.1087 122.956C28.2173 121.809 28.2128 120.767 27.4391 119.902C27.222 119.902 27.0003 119.902 26.7831 119.902C26.7831 119.485 26.7831 119.068 26.7831 118.791C25.8421 117.727 24.7789 117.523 23.6162 117.636C23.4669 117.486 23.3131 117.332 23.1638 117.183C22.7476 116.78 22.3314 116.376 21.5939 115.665C21.5396 115.574 22.3268 114.763 21.3541 114.464C20.481 113.957 18.4542 113.277 18.056 113.594C17.3095 114.183 16.5133 113.916 15.7397 114.02C15.3234 114.074 14.9208 114.215 14.5046 114.301C12.7854 114.659 11.3738 115.869 9.59132 116.059C9.58228 116.059 9.59132 116.2 9.59132 116.277C9.24749 116.345 8.72721 116.05 8.68649 116.73C8.27479 116.73 7.8631 116.73 7.32925 116.73C7.32925 117.101 7.32925 117.369 7.32925 117.636C6.61895 117.767 5.90866 117.899 5.06717 118.053C5.06717 117.722 5.06717 117.45 5.06717 117.183C5.36124 116.988 5.65078 116.793 5.88604 116.635C6.23892 114.315 5.71865 112.189 5.0898 110.064C4.92693 109.511 4.68714 109.176 4.16234 109.027C4.18043 107.885 3.94065 106.874 2.80509 106.308C2.64222 106.43 2.4884 106.584 2.3391 106.734ZM129.92 175.609C129.803 175.459 129.685 175.178 129.563 175.174C127.486 175.119 125.613 175.704 124.084 177.158C122.994 178.192 121.935 179.261 120.899 180.348C120.171 181.114 119.27 181.463 118.361 181.599C117.597 183.348 115.796 183.819 114.574 184.934C114.95 185.129 115.321 185.319 115.819 185.577C116.864 185.577 118.063 185.577 119.212 185.577C120.564 184.558 121.876 183.552 123.202 182.569C124.233 181.807 125.233 180.983 126.346 180.362C127.409 179.768 128.522 179.288 129.12 178.468C130.608 177.979 131.875 177.589 133.119 177.136C133.336 177.054 133.463 176.719 133.698 176.411C133.413 176.252 133.25 176.157 133.083 176.066C132.897 175.917 132.721 175.645 132.531 175.636C131.667 175.582 130.794 175.609 129.92 175.609ZM100.414 191.06C101.251 191.015 102.753 191.214 104.038 190.784C105.368 190.34 106.653 190.068 108.032 190.118C107.897 189.964 107.761 189.814 107.625 189.66C108.209 189.434 108.788 189.202 109.53 188.912C108.114 187.943 107.078 187.236 105.942 186.457C103.97 186.457 101.871 186.457 99.6356 186.457C99.1923 185.781 98.7172 185.065 98.2513 184.345C98.0612 184.05 97.9527 183.643 97.6857 183.461C96.8714 182.913 96.0118 182.428 95.1522 181.957C94.356 181.522 93.4376 181.259 92.7499 180.702C91.2026 179.451 89.773 178.06 88.2845 176.737C88.1352 176.606 87.9136 176.551 87.7416 176.47C87.2666 176.905 86.8368 177.294 86.5292 177.575C86.5292 178.667 86.5292 179.56 86.5292 180.181C87.4611 181.481 88.2574 182.587 89.0763 183.733C89.8273 184.023 90.6552 184.413 91.5238 184.653C92.4965 184.92 92.9851 185.777 93.7135 186.33C94.4057 186.855 94.7948 187.78 95.4644 188.74C96.7719 189.352 98.3508 190.091 100.414 191.06ZM149.329 112.357C147.257 109.965 144.122 109.24 141.873 107.155C141.217 108.243 141.217 108.243 141.308 109.933C142.249 111.233 143.049 112.334 143.905 113.517C144.076 113.553 144.461 113.553 144.778 113.703C145.723 114.147 146.682 114.595 147.569 115.148C148.338 115.629 148.804 115.284 149.329 114.704C149.329 114.015 149.329 113.272 149.329 112.357ZM153.337 94.9298C153.645 94.0055 153.274 93.2352 153.812 92.4195C154.17 91.8803 154.002 90.7747 153.708 90.0769C153.346 89.2114 153.125 88.3731 152.912 87.4669C152.699 86.547 152.546 85.6544 152.541 85.233C152.152 83.8237 151.523 83.1712 150.551 82.478C150.351 82.8903 150.189 83.2302 150.026 83.5745C149.664 85.0653 150.433 86.5923 150.646 88.1873C150.867 89.8503 151.406 91.3184 152.102 92.7548C151.93 93.0222 151.777 93.2623 151.6 93.5342C151.84 94.0055 152.089 94.4903 152.315 94.9298C152.677 94.9298 152.966 94.9298 153.337 94.9298ZM155.419 99.4022C155.007 100.934 155.346 102.103 156.369 103.1C156.731 103.449 157.047 103.761 157.111 104.382C157.197 105.211 157.848 105.696 158.794 105.882C159.151 103.621 158.043 101.944 157.169 100.168C156.572 99.9052 156.02 99.665 155.419 99.4022ZM173.465 108.546C173.542 108.546 173.615 108.546 173.692 108.546C173.692 107.79 173.692 107.037 173.692 106.281C173.615 106.281 173.542 106.281 173.465 106.281C173.465 107.037 173.465 107.79 173.465 108.546ZM61.4563 107.64C61.4065 107.64 61.3567 107.64 61.307 107.64C61.307 107.79 61.307 107.944 61.307 108.093C61.3567 108.093 61.4065 108.093 61.4563 108.093C61.4563 107.944 61.4563 107.79 61.4563 107.64ZM175.614 113.68C175.614 113.73 175.614 113.78 175.614 113.83C175.764 113.83 175.917 113.83 176.067 113.83C176.067 113.78 176.067 113.73 176.067 113.68C175.917 113.68 175.764 113.68 175.614 113.68ZM172.9 105.678C172.9 105.628 172.9 105.578 172.9 105.528C172.751 105.528 172.597 105.528 172.447 105.528C172.447 105.578 172.447 105.628 172.447 105.678C172.597 105.678 172.751 105.678 172.9 105.678ZM59.0404 104.921C59.0901 104.921 59.1399 104.921 59.1897 104.921C59.1897 104.772 59.1897 104.618 59.1897 104.468C59.1399 104.468 59.0901 104.468 59.0404 104.468C59.0404 104.618 59.0404 104.772 59.0404 104.921Z" fill="#D9D9D9"/>
<path d="M274.246 36.1405C274.622 36.1405 274.925 37.8579 275.147 37.8579C276.006 38.311 276.821 38.891 277.73 39.1855C278.97 39.5934 279.847 40.2277 280.123 41.5509C279.404 43.1187 279.571 44.3557 281.015 45.262C282.675 46.3041 283.819 47.8357 285.222 49.118C285.444 49.322 285.448 49.7615 285.552 50.0923C284.394 50.8626 283.489 52.086 282.218 52.0045C281.729 53.0466 281.349 53.8623 281.037 54.5284C280.458 54.3788 280.064 54.2746 279.671 54.1704C279.512 53.8623 279.35 53.5541 279.246 53.3502C279.44 52.734 279.607 52.2084 279.798 51.5966C278.626 51.3202 277.599 51.0846 276.608 50.849C276.929 50.1059 277.25 49.3582 277.649 48.4293C276.911 48.1257 276.341 47.8946 275.685 47.6227C275.472 46.0368 273.866 46.5488 272.898 45.8691C272.45 46.2588 272.12 46.7527 271.686 46.8751C271.116 47.0382 270.79 47.2874 270.627 47.8221C270.066 47.8221 269.505 47.8221 268.777 47.8221C268.632 48.3024 268.496 48.742 268.365 49.1815C268.062 49.4851 267.763 49.7841 267.46 50.0877C267.297 50.4865 267.134 50.8898 266.908 51.4471C267.854 51.4471 268.564 51.4471 269.27 51.4471C269.573 51.4471 269.871 51.4471 270.175 51.4471C270.478 51.5966 270.776 51.7507 271.079 51.9002C271.229 52.0498 271.383 52.2038 271.532 52.3534C271.681 52.8065 271.835 53.2596 271.984 53.7127C271.835 53.8623 271.681 54.0163 271.532 54.1659C270.704 54.9996 269.849 54.5102 269.035 54.0752C268.763 54.483 268.564 54.7776 268.365 55.0721C268.216 55.2216 268.062 55.3757 267.913 55.5252C267.03 55.5252 266.148 55.5252 265.501 55.5252C264.212 53.5043 262.366 54.4377 260.814 54.0979C260.737 53.8804 260.647 53.6221 260.592 53.4771C258.792 52.5301 257.073 51.6284 255.313 50.704C255.218 50.7991 255.001 51.0076 254.792 51.2115C254.792 51.7507 254.792 52.2763 254.792 52.802C254.792 53.1055 254.792 53.4046 254.792 53.7082C253.354 53.6448 252.119 54.4921 250.721 54.6145C250.54 54.4649 250.363 54.1976 250.173 54.184C249.454 54.1341 248.73 54.1613 248.006 54.1613C247.857 54.1613 247.703 54.1613 247.554 54.1613C247.604 52.9923 246.83 52.6298 245.744 52.231C245.744 52.8609 245.744 53.2823 245.744 53.7082C244.432 54.0209 243.428 53.1418 242.677 52.8609C241.175 53.0874 240.057 53.2596 238.958 53.4273C238.958 53.7082 238.958 53.9348 238.958 54.1613C238.519 54.3743 238.08 54.5827 237.655 54.7912C237.655 55.4573 237.655 56.1098 237.655 56.572C238.012 57.0795 238.257 57.4329 238.506 57.7863C238.076 57.7863 237.65 57.7863 237.189 57.7863C237.189 58.1398 237.189 58.3437 237.189 58.6926C237.949 58.6926 238.682 58.6926 239.41 58.6926C240.252 58.8013 239.677 59.5082 240.012 59.7801C240.351 60.1335 240.695 60.4869 241.116 60.9265C241.351 60.9582 241.749 61.008 242.125 61.0579C242.125 61.4295 242.125 61.647 242.125 61.8645C240.677 62.4943 239.089 62.1998 237.601 62.4218C237.601 62.9429 237.601 63.3099 237.601 63.677C236.022 65.6888 234.094 67.5104 233.633 70.0162C233.352 70.5418 233.067 71.0674 232.751 71.6565C231.783 70.8998 231.059 70.3379 230.339 69.7624C229.887 69.4044 229.453 69.0284 229.005 68.6568C229.005 67.4741 229.005 66.296 229.005 65.136C229.53 64.8188 229.946 64.5696 230.394 64.2977C230.19 62.961 229.982 61.6152 229.765 60.1879C228.91 59.7529 228.109 59.1502 227.607 58.0854C227.277 57.3876 226.453 56.9254 226.743 55.9693C227.019 55.9693 227.295 55.9693 227.512 55.9693C227.399 54.1976 227.29 52.5709 227.2 50.9441C227.168 50.3551 227.195 49.7615 227.195 49.1724C227.874 49.1316 227.58 48.6105 227.648 48.2662C227.467 48.1166 227.29 47.8493 227.1 47.8357C226.381 47.7859 225.657 47.813 224.933 47.813C224.567 47.5276 224.2 47.2376 223.73 46.866C223.037 46.866 222.228 46.866 221.463 46.866C221.273 45.9643 221.106 45.1487 220.961 44.4599C221.291 43.5265 222.77 43.8573 222.671 42.5976C222.142 42.0674 221.648 41.4784 221.06 41.0162C220.572 40.6355 219.988 40.3365 219.405 40.1235C218.694 39.8698 217.939 39.7429 217.694 39.684C216.948 38.669 216.5 38.0663 216.075 37.4909C216.229 37.432 216.486 37.3368 216.64 37.2824C216.889 36.2266 217.115 35.266 217.301 34.464C217.663 34.1649 217.907 33.961 218.147 33.7616C218.147 33.6121 218.147 33.458 218.147 33.3085C218.296 33.159 218.45 33.0049 218.599 32.8554C218.599 32.4023 218.599 31.9491 218.599 31.496C219.278 31.4552 218.984 30.9341 219.052 30.5898C219.662 30.0143 219.662 29.3527 219.052 28.7773C218.902 28.6277 218.749 28.4737 218.599 28.3241C218.749 27.282 217.925 27.0509 217.151 26.6702C217.364 26.054 218.083 25.4876 217.509 24.7399C216.419 24.7399 215.324 24.7399 214.356 24.7399C214.039 25.0027 213.817 25.193 213.627 25.3516C213.627 26.0857 213.627 26.7518 213.627 27.4179C212.763 27.3726 211.867 27.3635 211.161 27.8982C210.777 28.1882 210.456 28.3377 209.99 28.3332C208.519 28.3105 207.049 28.3241 205.719 28.3241C205.162 27.8121 204.859 27.2185 204.126 27.4179C203.977 27.2684 203.823 27.1143 203.674 26.9648C203.502 26.5207 204.095 25.8184 203.222 25.6054C203.258 24.8305 203.317 24.0466 202.317 23.7929C202.317 23.4893 202.317 23.1902 202.317 22.8866C202.823 22.4335 203.33 21.9804 203.878 21.491C204.516 21.491 205.167 21.491 205.809 21.491C205.927 19.819 205.927 19.819 205.244 18.2874C203.977 18.5185 202.683 18.7541 201.371 18.9898C201.588 19.6241 201.769 20.1498 201.919 20.5848C201.593 21.278 201.19 21.6405 200.507 21.5318C200.055 21.3823 199.602 21.2282 199.15 21.0787C198.706 21.2509 198.005 20.6573 197.793 21.5318C197.526 21.5318 197.259 21.5318 196.96 21.5318C196.928 21.849 196.901 22.0484 196.892 22.2523C196.883 22.4652 196.892 22.6782 196.892 22.8912C196.214 22.932 196.508 23.453 196.44 23.7974C196.291 23.947 196.137 24.101 195.987 24.2505C195.761 24.2505 195.535 24.2505 195.255 24.2505C195.169 24.4952 195.083 24.758 194.956 25.1251C194.639 25.1432 194.282 25.1613 193.924 25.184C193.499 25.6099 193.074 26.0359 192.617 26.489C192.047 26.489 191.454 26.489 190.717 26.489C190.513 26.2307 190.237 25.8773 189.925 25.483C188.568 26.0857 187.301 26.6521 186.03 27.2185C186.206 27.8076 186.383 28.4012 186.604 29.1398C185.342 29.1398 184.238 29.1398 183.216 29.1398C182.754 29.5657 182.388 29.9101 181.89 30.3723C181.61 29.8829 181.42 29.5521 181.13 29.0446C180.8 29.4615 180.533 29.8013 180.198 30.2273C179.501 29.824 178.904 29.3573 178.71 28.383C177.325 28.3876 176.335 27.572 175.452 26.5388C175.013 26.5388 174.57 26.5388 174.104 26.5388C173.588 25.9498 172.688 25.6145 172.959 24.5405C173.398 24.2188 173.882 23.8563 174.561 23.3579C173.824 22.7235 173.245 22.2251 172.308 21.423C171.865 20.6527 173.575 20.3491 173.416 19.3205C173.919 19.3205 174.353 19.3205 174.873 19.3205C176.031 18.3645 177.217 17.3948 178.488 16.348C178.067 15.6865 177.701 15.1065 177.267 14.4177C179.203 12.3515 179.673 9.22039 182.904 7.97883C183.451 7.97883 184.347 7.97883 184.949 7.97883C186.052 7.37164 187.043 7.03633 187.744 6.38836C188.767 5.44133 189.636 7.27195 190.613 6.30227C190.102 5.43227 189.572 4.53508 189.002 3.56539C189.351 3.13039 189.613 2.80414 189.961 2.36914C190.396 2.68633 190.798 2.97633 191.382 3.40227C192.418 3.40227 193.676 3.40227 194.856 3.40227C195.096 3.64242 195.255 3.80102 195.494 4.04117C195.494 5.06977 195.494 6.17992 195.494 6.98648C195.983 7.94258 196.336 8.62227 196.612 9.16148C196.987 9.33367 197.241 9.45148 197.367 9.51039C197.675 9.19773 198.014 8.85789 198.679 8.18727C198.584 7.17227 199.055 5.5682 198.136 3.95055C198.815 3.95055 199.317 3.95055 199.928 3.95055C201 5.22383 202.629 6.13461 203.71 7.88367C203.71 8.6268 203.71 9.58289 203.71 10.5118C204.945 11.0057 205.348 10.2671 205.678 9.22039C206.072 9.4107 206.416 9.65992 206.796 9.73695C207.212 9.82305 207.664 9.75508 208.117 9.75508C208.171 10.2263 208.212 10.5843 208.243 10.8335C208.75 11.196 209.198 11.5177 209.564 11.776C209.564 12.569 208.664 13.217 207.406 13.4798C207.189 14.0507 206.968 14.6398 206.8 15.0929C207.547 15.8315 208.18 16.4568 208.809 17.0776C208.569 18.4641 208.357 19.6695 208.144 20.902C209.831 21.2101 211.338 21.7266 212.713 22.6374C213.487 23.1495 214.31 23.6343 215.419 23.2265C215.437 22.9138 215.455 22.5559 215.473 22.1526C215.717 22.0665 215.98 21.9759 216.242 21.8807C216.939 20.6935 215.278 20.3582 215.383 19.3205C214.69 19.3205 214.034 19.3205 213.279 19.3205C213.279 18.446 213.279 17.6395 213.279 16.6063C213.835 16.2891 214.564 15.8768 215.392 15.4055C215.414 15.1835 215.455 14.8255 215.5 14.3815C216.048 14.3815 216.609 14.3815 217.246 14.3815C217.246 15.0884 217.246 15.7454 217.246 16.4523C217.518 16.5066 217.726 16.552 218.034 16.6109C218.097 16.9598 218.174 17.3721 218.283 17.9521C218.88 17.7618 219.454 17.5805 220.201 17.3404C220.427 17.7029 220.667 18.0835 220.861 18.3962C221.712 18.3962 222.368 18.3962 222.911 18.3962C223.748 19.0034 223.657 19.7329 223.512 20.553C223.019 20.553 222.513 20.553 222.019 20.553C221.694 22.651 221.866 23.0362 223.436 23.879C224.082 24.9891 224.517 26.1673 224.734 27.427C224.734 27.4405 224.874 27.427 224.951 27.427C225.218 27.7713 225.417 28.2245 225.765 28.4329C226.571 28.9087 227.376 29.8466 228.408 28.7863C229.421 28.9359 230.068 27.939 230.973 27.9027C232.565 27.8438 233.764 26.8968 234.986 26.131C235.936 25.5329 236.818 25.0299 237.84 25.1659C238.211 24.7943 238.478 24.527 238.75 24.2551C240.555 24.2551 242.365 24.2188 244.174 24.2732C244.943 24.2959 245.703 24.5134 246.459 24.6402C246.672 24.4907 246.902 24.3321 247.029 24.246C247.581 24.7988 248.051 25.2701 248.395 25.6145C249.278 25.6145 249.884 25.6734 250.472 25.5963C251.024 25.5238 251.558 25.3109 252.096 25.1613C252.752 25.1613 253.408 25.1613 254.254 25.1613C254.806 25.7549 255.426 26.4709 256.114 27.1143C256.335 27.3227 256.747 27.3273 257.073 27.427C257.932 27.7034 258.638 28.2743 259.597 28.4374C260.62 28.6141 261.678 29.0809 262.208 30.1548C263.325 30.0234 264.203 30.3632 265.035 31.0565C265.727 31.6365 266.555 32.067 267.356 32.502C269.125 33.4626 270.889 34.4323 272.197 36.0182C272.523 36.4124 272.88 36.5574 273.36 36.4895" fill="#D9D9D9"/>
<path d="M273.34 36.4991C272.861 36.5716 272.503 36.4221 272.178 36.0279C270.866 34.4419 269.106 33.4722 267.337 32.5116C266.536 32.0766 265.708 31.6461 265.016 31.0661C264.183 30.3729 263.306 30.033 262.188 30.1644C261.664 29.0905 260.6 28.6238 259.578 28.4471C258.619 28.2839 257.918 27.7085 257.053 27.4366C257.053 26.7614 257.053 26.0818 257.053 25.2888C258.117 25.0033 259.148 25.0894 260.071 25.8914C260.555 25.4655 260.863 25.1891 261.093 24.9852C260.899 24.1877 260.732 23.4989 260.514 22.5927C260.22 22.2257 259.768 21.6593 259.315 21.0929C259.166 20.9433 259.012 20.7893 258.863 20.6397C258.863 20.4902 258.863 20.3361 258.863 20.1866C259.148 20.1368 259.438 20.0824 259.723 20.0325C259.714 19.9329 259.705 19.8332 259.691 19.7335C259.415 19.7335 259.139 19.7335 258.863 19.7335C258.863 19.4299 258.863 19.1308 258.859 18.6505C258.859 18.6052 258.868 18.7366 258.877 18.8635C259.171 18.8046 259.465 18.7502 259.759 18.6913C259.745 18.5916 259.732 18.4964 259.718 18.3968C259.429 18.4194 259.144 18.4466 258.859 18.646C258.587 18.8227 258.311 18.8227 258.053 18.8227C257.949 17.8802 257.949 17.8802 257.51 17.4633C257.51 17.0374 257.556 16.6024 257.488 16.1855C257.456 15.9907 257.207 15.8275 257.058 15.6508C256.194 15.5466 256.836 14.7763 256.483 14.4863C254.828 13.1632 252.579 12.9049 251.054 11.2827C250.48 10.671 249.272 10.7888 248.914 9.75567C248.702 8.88113 248.001 9.47473 247.557 9.30254C247.408 9.15301 247.254 8.99895 247.105 8.84942C246.955 8.69989 246.802 8.54582 246.652 8.39629C246.612 7.7166 246.091 8.01114 245.748 7.94317C245.598 7.79364 245.444 7.63957 245.295 7.49004C245.082 7.49004 244.874 7.49004 244.675 7.49004C244.277 6.88285 243.884 6.2802 243.485 5.67754C243.612 5.6277 243.734 5.57785 243.861 5.52801C243.734 5.42832 243.612 5.3241 243.485 5.22442C243.336 5.07488 243.182 4.92082 243.033 4.77129C242.884 4.62176 242.73 4.4677 242.581 4.31817C242.431 4.16863 242.277 4.01457 242.128 3.86504C241.979 3.86504 241.825 3.86504 241.676 3.86504C241.676 3.26239 241.676 2.6552 241.676 2.05254C241.676 1.67645 241.676 1.30035 241.676 0.928791C242.563 0.0587911 243.237 1.56317 244.033 1.09192C245.607 2.56004 247.263 3.8152 249.127 4.72145C250.24 5.26067 250.955 6.09895 251.629 7.04145C251.697 7.38582 251.403 7.90692 252.081 7.9477C252.081 8.21504 252.081 8.48238 252.081 8.85395C252.615 8.85395 253.027 8.85395 253.439 8.85395C253.896 9.47473 254.339 9.47473 254.796 8.85395C256.221 9.61973 257.823 10.091 258.926 11.396C259.311 11.8491 260.175 11.251 260.46 12.0258C262.482 12.71 262.899 13.2493 262.935 15.2113C262.939 15.5874 262.935 15.9635 262.935 16.0677C263.722 18.1747 265.156 19.3438 266.853 20.2863C267.414 20.5989 267.862 21.12 268.364 21.5414C268.513 21.691 268.667 21.845 268.816 21.9946C268.857 22.6743 269.377 22.3797 269.721 22.4477C269.87 22.5972 270.024 22.7513 270.173 22.9008C270.323 23.0504 270.477 23.2044 270.626 23.3539C270.775 23.5035 270.929 23.6575 271.078 23.8071C271.228 23.8071 271.381 23.8071 271.531 23.8071C271.571 24.4868 272.092 24.1922 272.436 24.2602C273.209 24.2239 273.992 24.165 274.245 25.1664C274.286 25.8461 274.806 25.5516 275.15 25.6196C275.299 25.6196 275.453 25.6196 275.602 25.6196C276.34 26.2721 277.127 26.2721 277.865 25.6196C277.941 24.8629 278.539 25.2888 278.896 25.1664C279.747 24.8719 280.579 24.455 281.457 24.2964C282.217 24.1605 283.054 24.1197 283.741 24.7133C284.827 25.6468 286.162 26.0908 287.487 26.5394C287.682 26.6074 287.84 26.7886 288.148 27.0197C291.048 26.4805 293.097 27.926 294.613 30.7036C294.613 31.0163 294.613 31.6144 294.613 32.2035C295.595 33.0735 296.151 34.1157 295.984 35.1669C297.033 36.1864 297.907 37.0293 298.893 37.9854C300.236 37.7814 301.585 37.5775 302.91 37.3782C303.625 38.2391 304.335 39.0593 304.996 39.9157C305.104 40.0561 305.009 40.3552 305.009 40.5818C305.186 40.7313 305.349 40.9805 305.543 41.0122C305.96 41.0802 306.394 41.0349 306.819 41.0349C306.86 41.7146 307.38 41.42 307.724 41.488C307.873 41.6375 308.027 41.7916 308.176 41.9411C308.86 42.0907 309.538 42.3399 310.226 42.3671C310.959 42.3943 311.624 42.4668 312.284 42.8293C312.759 43.0875 313.338 43.1646 313.863 43.3368C314.388 43.5135 314.908 43.7083 315.881 44.0572C317.487 45.2852 319.573 46.7352 320.839 49.1911C320.111 49.6669 320.808 51.126 319.487 51.4522C319.31 51.3027 319.147 51.0535 318.953 51.0218C318.537 50.9538 318.102 50.9991 317.677 50.9991C317.528 50.9991 317.374 50.9991 317.225 50.9991C317.17 50.8722 317.13 50.6366 317.066 50.6321C315.754 50.4871 314.451 50.5505 313.153 50.5641C313.153 51.1577 313.153 51.5338 313.153 51.9054C313.153 52.2633 313.153 52.6258 313.153 53.0654C312.818 53.3554 312.443 53.6816 311.882 54.171C311.56 54.171 310.999 54.171 310.438 54.171C310.262 54.0214 310.099 53.7722 309.905 53.7405C309.488 53.6725 309.054 53.7178 308.629 53.7178C308.479 53.5683 308.326 53.4143 308.176 53.2647C308.176 52.8116 308.176 52.3585 308.176 51.9054C309.022 51.6244 308.543 51.0716 308.48 50.3511C308.136 50.6411 307.932 50.8179 307.724 50.9991C307.724 51.3027 307.724 51.6018 307.724 51.9054C307.244 51.8329 306.91 52.0141 306.557 52.3675C305.896 53.0291 305.15 53.6 304.779 53.9172C301.906 54.905 301.11 52.7029 299.58 51.2302C299.58 51.8057 299.58 52.0821 299.58 52.363C299.368 52.363 299.155 52.363 298.961 52.363C298.653 52.8071 298.314 53.2239 298.056 53.6816C297.897 53.9625 297.861 54.3114 297.771 54.6286C297.318 54.7782 296.866 54.9322 296.414 55.0818C295.056 55.0818 293.699 55.0818 292.342 55.0818C291.5 55.3174 291.238 54.4972 290.636 54.1347C290.347 54.2027 289.998 54.2616 289.664 54.3704C289.406 54.4519 289.166 54.5969 288.899 54.7193C288.107 54.325 287.365 53.9535 286.456 53.5004C286.456 53.0608 286.456 52.4854 286.456 51.9054C286.605 51.9054 286.759 51.9054 286.908 51.9054C287.854 51.996 286.985 52.9974 287.56 53.2466C287.8 52.9475 288.03 52.653 288.302 52.3857C288.858 52.8343 288.858 52.8343 289.609 52.4129C289.103 52.4129 288.686 52.4129 288.302 52.3857C288.089 51.6425 287.614 51.3797 286.908 51.4522C286.759 51.6018 286.605 51.7558 286.456 51.9054C286.307 51.9054 286.153 51.9054 286.003 51.9054C286.058 51.2483 285.981 50.6275 285.551 50.0929C285.447 49.7621 285.442 49.3225 285.221 49.1186C283.818 47.8363 282.674 46.3002 281.013 45.2625C279.57 44.3563 279.403 43.1193 280.122 41.5514C279.846 40.2329 278.968 39.5939 277.729 39.1861C276.819 38.8871 276.005 38.3116 275.145 37.8585C274.915 37.2694 274.082 37.2015 273.947 36.5036C273.947 36.4674 273.553 36.4991 273.34 36.4991Z" fill="#C8E4E6"/>
<path d="M100.416 191.059C98.3529 190.094 96.7739 189.356 95.4665 188.739C94.7969 187.779 94.4078 186.854 93.7156 186.329C92.9918 185.78 92.4986 184.92 91.5259 184.652C90.6573 184.412 89.8294 184.022 89.0784 183.732C88.2595 182.586 87.4632 181.485 86.5312 180.18C86.5312 179.559 86.5312 178.662 86.5312 177.574C86.8344 177.298 87.2687 176.904 87.7437 176.469C87.9156 176.55 88.1373 176.605 88.2866 176.736C89.7751 178.059 91.2092 179.45 92.752 180.701C93.4396 181.258 94.3626 181.521 95.1543 181.956C96.0139 182.427 96.878 182.908 97.6878 183.46C97.9547 183.642 98.0588 184.05 98.2533 184.344C98.7193 185.065 99.1944 185.78 99.6377 186.456C101.873 186.456 103.972 186.456 105.944 186.456C107.08 187.235 108.116 187.942 109.532 188.912C108.795 189.202 108.211 189.433 107.627 189.659C107.763 189.813 107.899 189.963 108.035 190.117C106.65 190.067 105.37 190.339 104.04 190.783C102.75 191.213 101.253 191.01 100.416 191.059Z" fill="#BEDEDE"/>
<path d="M26.7703 123.952C28.1999 124.138 29.2631 123.522 30.2539 122.538C31.0773 121.727 31.7197 120.717 32.9096 120.255C34.0813 119.801 35.3436 119.493 36.2077 118.388C36.9632 117.423 38.0852 116.806 38.9719 115.972C39.8632 115.134 40.5237 114.051 41.2566 113.113C41.7452 113.113 42.1026 113.113 42.5686 113.113C42.6184 114.201 42.4781 114.948 41.605 115.868C40.5599 116.969 39.922 118.601 39.5058 120.11C39.2072 121.197 38.714 122.212 38.4833 123.304C37.8635 123.626 37.1125 123.821 36.651 124.292C35.425 125.556 34.122 126.625 32.4074 127.16C32.0907 127.26 31.869 127.668 31.4935 128.044C30.9008 127.763 30.0503 128.479 29.4757 127.573C29.5752 127.246 29.6295 126.902 29.7788 126.607C29.9327 126.304 30.177 126.041 30.3805 125.76C31.5433 125.529 31.9595 125.112 32.2038 123.766C32.5883 123.209 33.1539 122.643 33.5565 122.235C32.3033 122.289 32.3033 122.289 32.2038 123.766C31.5885 124.555 30.9868 125.157 30.3805 125.76C29.2767 125.81 28.4442 126.417 27.6661 127.119C27.0643 127.119 26.4581 127.119 25.8564 127.119C25.7207 126.884 25.5849 126.648 25.4492 126.408C26.0509 126.041 25.8202 125.411 25.8564 124.854C26.1188 124.854 26.3857 124.854 26.7612 124.854C26.7703 124.482 26.7703 124.215 26.7703 123.952Z" fill="#BEDEDE"/>
<path d="M133.09 176.062C133.258 176.153 133.421 176.248 133.706 176.406C133.47 176.715 133.344 177.05 133.127 177.131C131.882 177.585 130.616 177.979 129.127 178.464C128.53 179.284 127.417 179.764 126.354 180.358C125.241 180.978 124.241 181.803 123.21 182.564C121.88 183.548 120.572 184.554 119.219 185.573C118.075 185.573 116.871 185.573 115.826 185.573C115.329 185.315 114.958 185.125 114.582 184.93C115.804 183.815 117.604 183.344 118.369 181.595C119.283 181.459 120.178 181.11 120.907 180.344C121.943 179.257 123.001 178.187 124.092 177.154C125.621 175.704 127.489 175.115 129.571 175.169C129.693 175.174 129.81 175.45 129.928 175.604C130.113 175.754 130.29 176.026 130.48 176.035C131.344 176.089 132.217 176.062 133.09 176.062Z" fill="#BEDEDE"/>
<path d="M149.333 112.356C149.333 113.271 149.333 114.015 149.333 114.703C148.808 115.283 148.342 115.623 147.573 115.147C146.687 114.595 145.732 114.151 144.782 113.702C144.465 113.552 144.085 113.552 143.909 113.516C143.049 112.334 142.253 111.232 141.312 109.932C141.221 108.237 141.221 108.237 141.877 107.154C144.126 109.239 147.261 109.964 149.333 112.356Z" fill="#BEDEDE"/>
<path d="M153.34 94.9304C152.969 94.9304 152.675 94.9304 152.322 94.9304C152.096 94.4863 151.847 94.0015 151.607 93.5348C151.784 93.2629 151.938 93.0273 152.11 92.7554C151.413 91.319 150.87 89.8509 150.653 88.1879C150.44 86.5929 149.671 85.0704 150.033 83.5751C150.196 83.2352 150.359 82.8909 150.558 82.4785C151.53 83.1718 152.159 83.8243 152.548 85.2335C152.553 85.6549 152.702 86.5476 152.919 87.4674C153.132 88.3691 153.354 89.212 153.716 90.0774C154.01 90.7752 154.173 91.8763 153.82 92.4201C153.281 93.2357 153.648 94.006 153.34 94.9304Z" fill="#BEDEDE"/>
<path d="M197.787 117.608C196.488 116.271 195.063 115.106 193.312 114.49C193.312 113.656 193.312 113.004 193.312 112.288C194.756 111.654 195.647 113.869 196.977 112.972C197.633 113.616 198.162 114.141 198.692 114.658C198.692 115.047 198.692 115.419 198.692 115.795C198.692 116.552 198.692 117.304 198.692 118.061C198.389 117.911 198.09 117.757 197.787 117.608Z" fill="#BEDEDE"/>
<path d="M155.421 99.4023C156.022 99.6652 156.574 99.9053 157.172 100.168C158.045 101.944 159.153 103.621 158.796 105.882C157.855 105.696 157.199 105.211 157.113 104.382C157.049 103.761 156.728 103.449 156.371 103.1C155.348 102.103 155.009 100.934 155.421 99.4023Z" fill="#A8D1D8"/>
<path d="M30.3903 125.766C30.1867 126.047 29.9424 126.305 29.7886 126.613C29.6393 126.912 29.5805 127.256 29.4854 127.578C29.2095 127.528 28.929 127.497 28.6621 127.424C28.3318 127.338 28.006 127.225 27.6758 127.125C28.4539 126.423 29.2864 125.815 30.3903 125.766Z" fill="#B4B4B4"/>
<path d="M183.76 133.467C183.004 133.617 182.253 133.771 181.497 133.921C181.497 133.544 181.497 133.173 181.497 132.851C180.235 130.998 178.091 130.558 176.191 129.421C175.069 129.33 173.766 129.19 172.689 130.277C172.485 130.087 172.282 129.897 172.078 129.706C172.616 128.102 174.051 127.255 175.182 125.927C175.453 125.579 174.652 124.709 175.616 124.4C176.209 124.854 176.77 125.352 177.399 125.751C178.561 126.485 179.661 127.273 180.633 128.266C181.697 129.349 182.886 130.305 184.207 131.487C184.207 131.85 184.207 132.43 184.207 133.01C184.063 133.164 183.909 133.318 183.76 133.467Z" fill="#D9D9D9"/>
<path d="M161.593 139.812C161.593 139.59 161.593 139.363 161.593 139.11C161.019 138.919 160.431 138.729 159.725 138.498C158.372 139.939 157.314 137.65 155.879 138.022C155.807 138.24 155.721 138.502 155.59 138.91C155.214 138.91 154.785 138.91 154.359 138.91C154.21 138.375 154.065 137.845 153.902 137.27C154.427 137.365 154.988 137.646 155.418 137.51C156.264 137.243 157.038 136.749 157.929 136.305C159.512 136.128 161.231 135.933 162.955 135.738C163.512 136.373 163.38 137.202 163.43 137.94C163.923 137.995 164.276 138.031 164.398 138.045C164.122 138.321 163.742 138.702 163.086 139.359C162.924 139.4 162.258 139.608 161.593 139.812Z" fill="#D9D9D9"/>
</svg>
