<svg width="321" height="243" viewBox="0 0 321 243" fill="none" xmlns="http://www.w3.org/2000/svg">
<path d="M1.35473 105.544C0.92493 105.544 0.495141 105.544 0.0879667 105.544C0.0427251 105.241 -0.0206098 105.091 0.00653514 104.964C0.0382042 104.837 0.14225 104.652 0.25083 104.624C1.33663 104.357 1.3864 102.821 2.68936 102.712C2.51292 100.578 4.20495 99.6355 5.64363 98.8834C6.98731 98.1765 8.00072 97.2204 9.06842 96.2462C9.92801 95.4623 10.8374 94.7282 11.6427 94.044C11.4843 92.9474 11.3305 91.8826 11.1903 90.8766C10.7107 89.839 10.2447 88.824 9.76966 87.7954C10.4573 87.1882 11.0183 86.6943 11.7196 86.0826C13.4388 86.4677 15.0222 84.764 16.9405 85.1945C18.4515 83.2143 18.4651 82.9923 17.2436 80.8082C18.7365 80.0288 20.3562 80.1738 21.9351 80.1829C22.1116 80.0062 22.2699 79.8476 22.4328 79.6844C23.0616 78.7873 22.1659 78.0487 22.184 77.233C22.202 76.4129 22.1161 75.6471 21.451 74.8134C21.2882 74.7816 20.8358 74.7816 20.4738 74.6004C20.1617 74.4418 19.949 74.0748 19.7409 73.8482C17.7593 73.7576 15.9632 74.2016 14.14 74.6955C12.6877 75.0898 11.1043 75.2076 9.59323 75.1441C8.51648 75.0988 7.62521 75.6063 6.61632 75.6698C5.6934 75.7287 4.77952 75.9552 3.86111 76.1048C3.49013 74.1745 3.49013 74.1744 4.35424 72.3891C5.16407 71.9269 6.01009 71.4376 6.91492 70.921C6.66157 70.409 6.47607 70.0374 6.30416 69.693C6.96468 68.2838 8.53456 68.4605 9.63846 67.5996C10.2583 66.6616 10.869 65.6557 9.9823 64.3688C9.77871 64.0743 9.95063 63.5124 9.95063 63.1454C10.9143 62.5291 10.9143 62.5291 11.8508 62.4521C12.9501 61.5957 13.9138 60.8435 14.8639 60.1049C15.2484 60.3723 15.4792 60.5309 15.7642 60.7257C16.2256 60.4901 16.7188 60.2454 17.1621 60.0188C16.9631 59.2213 16.7776 58.4646 16.574 57.6263C16.4292 57.5674 16.1714 57.4677 15.9135 57.3635C16.0402 56.6068 16.3342 55.8274 16.2437 55.0979C16.1532 54.3684 15.6782 53.6841 15.3344 52.8957C16.1804 51.5137 17.9448 52.0212 18.9899 51.1919C19.4423 51.6949 19.8902 52.1888 20.1979 52.5287C21.6049 52.5559 22.668 52.4652 23.6181 53.2537C24.5456 54.0285 25.6178 54.0738 26.7895 53.4757C27.717 53.0045 28.9068 53.0724 29.59 52.1118C30.9065 51.9305 32.0104 52.2477 33.0193 53.1449C33.4536 53.5301 34.1684 53.6026 34.8968 53.8699C35.3176 53.6524 35.874 53.3624 36.4712 53.0543C37.0594 53.0543 37.7154 53.0543 38.5976 53.0543C38.3759 53.4848 38.29 53.8337 38.0683 54.0421C35.9374 56.0721 35.0688 58.5507 35.3357 61.5141C35.5981 61.5459 35.8062 61.573 36.0188 61.5912C36.1636 61.6048 36.3129 61.6093 36.4577 61.6184C36.8829 62.0443 37.3082 62.4748 37.8602 63.023C39.1088 62.8282 40.457 62.6198 41.8233 62.4068C42.4205 63.2179 42.9725 63.9746 43.5154 64.7132C44.2302 64.7177 44.7866 64.7857 45.4562 64.4141C46.4787 63.8432 47.5464 63.091 48.8765 63.3946C48.9851 63.4218 49.157 63.3221 49.252 63.236C50.288 62.2799 51.5729 62.5835 52.7944 62.4838C54.2783 62.366 55.6356 62.8463 57.029 63.1862C57.5176 63.304 58.2008 63.5759 58.4949 63.3584C59.7209 62.4521 61.1189 62.0307 62.5214 61.5821C62.6526 61.5413 62.829 61.4688 62.8742 61.3601C63.5755 59.7107 65.3263 59.2802 66.5071 58.2562C66.5071 57.8846 66.5071 57.5855 66.5071 57.3182C65.9597 56.9512 65.4259 56.5932 64.7925 56.1673C64.3039 56.1809 63.5981 55.918 63.028 56.702C62.4987 54.9076 64.1591 54.1916 64.5255 52.6691C65.272 53.3534 65.8059 53.8427 66.3624 54.3548C66.7876 54.3548 67.2355 54.3548 67.5658 54.3548C68.0408 55.0027 68.4706 55.5782 68.8733 56.1265C69.4071 56.1265 69.855 56.1265 70.3527 56.1265C71.158 55.3109 71.9995 54.459 72.8907 53.5618C72.5831 52.2523 72.1035 51.0107 71.0403 50.0365C71.9316 49.162 72.6012 50.6346 73.6689 50.1407C73.9539 49.6785 74.352 49.026 74.7909 48.3101C74.2072 48.0065 73.7322 47.7527 73.0672 47.4038C72.85 47.7663 72.6193 48.156 72.1985 48.8538C71.8004 47.934 71.5742 47.4084 71.3163 46.8193C73.2979 45.8405 74.5647 44.1957 76.4557 43.439C77.6139 42.9768 77.6954 41.6084 78.7586 40.7066C79.2517 40.7066 80.0615 40.7066 80.9437 40.7066C80.9437 39.9726 80.9437 39.311 80.9437 38.5634C81.7309 38.5634 82.4412 38.5634 83.1741 38.5634C83.2194 38.9576 83.2601 39.311 83.3099 39.7505C83.8166 39.7505 84.3233 39.7505 85.0019 39.7505C85.4634 39.1252 86.0198 38.3685 86.5763 37.6163C87.9969 37.6163 89.4084 37.6163 90.6888 37.6163C91.0416 38.6948 91.3629 39.6916 91.7655 40.9287C91.5574 41.2866 91.209 41.8984 90.9466 42.356C89.6573 42.6052 88.5398 42.8227 87.3454 43.0584C87.834 44.0779 88.2683 44.9207 89.3858 45.3784C90.0916 45.6684 90.5756 46.5021 90.9331 46.8646C93.2223 47.7074 94.9369 46.1713 96.8959 46.1759C97.6921 45.4146 99.1444 46.0445 99.7325 44.8391C100.8 44.9524 101.624 44.4087 102.538 43.9555C103.384 43.5341 104.202 43.1535 104.858 42.4512C105.085 42.211 105.46 42.1113 105.754 41.9527C106.071 40.8018 106.383 39.6554 106.709 38.4727C107.786 38.4727 108.681 38.5226 109.568 38.4591C110.568 38.3912 111.568 38.6812 112.586 38.0876C113.061 37.8112 113.993 37.7749 114.662 38.4002C115.042 38.7582 115.667 38.8534 116.124 39.0391C116.309 40.2807 116.495 41.4905 116.671 42.6777C117.734 43.8649 118.752 45.0385 120.593 44.8029C120.969 44.3951 121.376 43.951 121.72 43.5795C121.964 43.5205 122.105 43.4616 122.24 43.4616C123.521 43.4526 124.805 43.3982 126.081 43.4707C128.506 43.6112 130.827 43.294 133.062 42.2971C133.505 42.1023 134.279 41.921 134.519 42.143C135.265 42.8363 136.084 42.4195 136.917 42.578C137.84 41.4951 137.668 39.7234 139.382 38.867C139.753 38.867 140.409 38.867 140.93 38.867C141.861 38.3051 141.355 36.9049 142.377 36.7055C143.183 36.5515 143.879 36.343 144.517 35.822C144.703 35.6679 145.092 35.763 145.327 35.7495C146.598 34.6937 147.838 33.6651 149.127 32.5957C149.503 32.5957 149.955 32.5957 150.507 32.5957C150.747 32.9582 151.018 33.366 151.385 33.9234C152.493 33.792 153.787 33.4385 155.04 33.5563C156.266 33.6696 157.452 34.2587 158.94 34.7299C159.175 35.387 159.501 36.3068 159.831 37.2266C159.75 37.2765 159.673 37.3309 159.592 37.3807C160.302 38.0468 160.972 38.7673 161.741 39.3563C162.406 39.8684 163.139 40.3759 163.926 40.6115C164.686 40.838 165.55 40.684 166.364 40.752C166.984 40.8018 167.599 40.9332 168.55 41.0827C168.676 41.042 169.16 40.9332 169.599 40.7293C169.988 40.5526 170.328 40.2716 170.893 39.9046C171.296 39.9046 171.956 39.9046 172.834 39.9046C172.956 40.249 173.381 40.9695 173.232 41.1235C172.35 42.0162 173.11 43.226 172.44 44.2365C171.848 45.1291 171.006 45.7091 170.445 46.5701C170.061 46.6109 169.703 46.6516 169.409 46.6834C169.178 47.2407 168.862 47.7391 168.776 48.2738C168.676 48.881 168.346 49.1166 167.857 49.3659C166.925 49.8371 166.22 50.5621 165.876 51.568C165.717 52.0348 165.432 52.7099 165.627 53.0044C166.278 53.9651 165.876 55.0118 166.125 56.1537C166.378 56.1537 166.658 56.1537 166.939 56.1537C167.179 56.9784 166.355 57.2321 166.17 57.5946C166.554 58.4012 166.88 59.0854 167.21 59.7787C167.396 59.7787 167.622 59.7787 167.844 59.7787C168.097 60.7801 168.88 60.7212 169.653 60.6849C169.803 60.8344 169.957 60.9885 170.106 61.138C170.16 61.7951 170.083 62.4159 169.653 62.9505C168.604 63.2451 169.662 64.3235 168.862 64.8265C168.482 64.8265 167.984 64.8265 167.296 64.8265C167.694 65.343 167.998 65.7327 168.296 66.1224C168.296 66.5755 168.296 67.0287 168.296 67.4818C167.722 67.4818 167.143 67.4455 166.577 67.5044C166.382 67.5226 166.215 67.7854 166.034 67.9349C165.916 68.9363 166.645 69.5798 167.342 69.684C168.486 69.8516 169.196 70.6265 170.106 71.1068C170.174 71.4512 169.88 71.9723 170.558 72.013C170.73 72.4571 170.137 73.1594 171.011 73.3724C170.757 75.1759 171.626 76.8705 171.554 78.6604C171.554 78.7057 171.789 78.7601 171.915 78.8099C172.105 79.5304 172.3 80.2509 172.517 81.0755C173.2 81.0755 173.915 81.0755 174.63 81.0755C174.123 82.2944 173.621 83.5134 173.128 84.7005C171.825 84.5963 171.069 85.4301 170.264 86.0237C169.567 86.0644 168.925 86.1052 168.106 86.1505C168.767 87.4601 169.328 88.5748 169.857 89.6305C170.124 89.6985 170.323 89.7529 170.481 89.7891C170.667 90.922 170.821 91.9868 171.029 93.038C171.079 93.2963 171.314 93.5184 171.468 93.7585C171.535 94.1029 171.241 94.624 171.92 94.6648C172.069 94.6648 172.223 94.6648 172.372 94.6648C172.599 95.6118 172.617 96.6449 173.458 97.3427C174.739 97.4333 175.933 97.6509 176.987 98.548C177.534 99.0148 178.317 99.3682 179.154 99.2005C179.154 99.3501 179.154 99.5041 179.154 99.6537C179.154 100.175 179.154 100.7 179.154 101.294C179.607 101.675 180.095 102.087 180.683 102.581C181.335 101.702 181.828 100.904 182.457 100.234C183.14 99.5041 183.95 98.8924 184.624 98.2988C185.909 98.2988 187.035 98.2037 188.139 98.3305C188.931 98.4212 189.894 98.6024 190.415 99.1145C190.989 99.6809 191.51 100.048 192.279 100.111C192.351 100.859 192.93 100.478 193.297 100.56C193.618 100.632 194.084 100.41 194.088 101.018C194.238 101.167 194.391 101.321 194.541 101.471C194.609 101.815 194.315 102.336 194.993 102.377C195.143 102.377 195.296 102.377 195.446 102.377C195.446 102.526 195.446 102.681 195.446 102.83C194.572 103.043 195.165 103.745 194.993 104.189C195.061 104.534 194.767 105.055 195.446 105.096C195.446 105.322 195.446 105.549 195.446 105.966C197.07 106.423 198.748 106.89 200.422 107.361C200.612 107.511 200.789 107.765 201.001 107.796C201.558 107.878 202.128 107.869 202.684 107.896C202.684 108.277 202.684 108.499 202.684 108.725C201.748 109.6 201.77 110.751 201.779 111.897C201.101 111.938 201.395 112.459 201.327 112.803C200.648 112.844 200.942 113.365 200.875 113.71C200.296 113.71 199.721 113.71 199.06 113.71C199.273 114.412 198.563 115.155 199.517 115.522C199.517 115.672 199.517 115.826 199.517 115.975C199.368 115.975 199.214 115.975 199.065 115.975C198.916 115.975 198.762 115.975 198.613 115.975C198.463 115.785 198.246 115.617 198.174 115.4C198.07 115.092 198.309 114.616 197.708 114.616C197.708 114.24 197.708 113.868 197.708 113.479C197.183 112.962 196.649 112.436 195.993 111.793C194.663 112.69 193.772 110.47 192.328 111.109C192.328 111.829 192.328 112.482 192.328 113.311C194.079 113.927 195.504 115.092 196.803 116.428C196.803 116.578 196.803 116.732 196.803 116.881C195.93 116.881 195.057 116.854 194.188 116.904C193.998 116.913 193.817 117.185 193.636 117.335C192.862 117.298 192.08 117.239 191.826 118.241C191.564 118.241 191.297 118.241 190.921 118.241C190.921 118.617 190.921 118.884 190.921 119.147C190.646 119.147 190.365 119.147 190.103 119.147C190.026 118.436 189.967 117.878 189.908 117.335C189.56 117.335 189.338 117.335 189.112 117.335C188.266 116.696 187.243 116.696 186.397 117.335C185.642 117.335 184.891 117.335 184.135 117.335C183.633 116.605 183.072 115.925 182.588 115.173C181.688 113.769 181.615 112.545 182.796 111.19C182.389 109.337 184.085 107.746 183.597 105.576C183.108 105.241 182.507 104.656 181.792 104.38C180.873 104.031 179.842 104.09 178.874 103.795C178.457 103.668 177.856 104.153 177.566 104.266C177.286 104.765 177.118 105.064 176.987 105.3C177.82 106.958 178.227 108.626 177.272 110.411C177.874 110.506 178.29 110.574 178.62 110.628C178.494 111.571 178.376 112.409 178.263 113.252C177.869 113.216 177.326 113.451 177.335 112.69C177.335 112.577 177.055 112.459 176.869 112.314C176.313 111.865 176.313 111.865 175.562 112.287C176.069 112.287 176.485 112.287 176.869 112.314C176.906 112.944 176.906 113.551 176.906 114.154C176.67 114.457 176.435 114.756 176.191 115.064C175.752 115.064 175.304 115.064 174.897 115.064C174.128 116.32 172.648 116.832 171.902 118.196C171.902 118.676 171.902 119.269 171.902 119.609C171.169 120.656 170.563 121.521 170.024 122.283C170.282 122.727 170.427 122.971 170.567 123.212C170.567 123.588 170.567 123.959 170.567 124.218C169.518 125.441 168.522 126.592 167.513 127.766C166.486 127.312 165.559 126.877 165.007 125.677C164.577 124.739 163.564 124.064 162.207 124.131C162.053 124.34 161.836 124.625 161.618 124.911C162.057 125.35 162.532 125.958 163.134 126.393C163.754 126.841 164.405 127.204 164.681 128.472C164.681 128.726 164.392 129.669 164.736 130.185C165.749 131.708 164.482 132.315 163.953 133.303C163.107 132.754 162.41 132.301 161.673 131.826C161.46 132.143 161.261 132.442 161.062 132.736C159.338 132.931 157.61 133.126 155.737 133.334C155.353 133.692 154.823 134.186 154.267 134.707C153.778 134.263 153.407 133.928 152.959 133.516C152.321 133.774 151.692 134.032 151.041 134.3C151.521 135.618 149.883 136.792 151.195 138.174C150.313 138.174 149.58 138.174 148.851 138.174C148.738 138.024 148.63 137.752 148.507 137.743C147.928 137.698 147.345 137.721 146.743 137.721C146.53 138.042 146.336 138.332 146.141 138.627C145.68 138.776 145.218 139.039 144.752 139.057C143.834 139.094 143.427 139.479 143.404 140.408C143.395 140.725 143.124 141.033 142.974 141.35C142.825 141.5 142.671 141.654 142.522 141.803C142.395 141.853 142.273 141.903 142.147 141.953C142.273 142.053 142.395 142.157 142.522 142.256C142.671 142.406 142.825 142.56 142.974 142.71C143.124 142.859 143.278 143.013 143.427 143.163C143.576 143.312 143.73 143.466 143.879 143.616C143.44 144.069 143.015 144.54 142.554 144.971C141.803 145.669 140.785 146.208 140.341 147.055C139.989 147.73 139.482 148.038 139.075 148.714C138.622 147.128 137.609 146.81 136.518 146.783C136.179 147.418 135.971 148.038 135.573 148.496C135.161 148.976 135.351 149.47 135.283 149.96C134.582 149.887 134.103 150.15 133.926 150.866C133.193 151.324 133.012 152.026 133.017 152.832C133.026 154.097 133.021 155.361 133.021 156.53C131.926 157.64 131.926 157.64 131.664 158.569C131.365 158.768 131.071 158.968 131.008 159.008C130.307 160.436 130.872 161.664 131.429 162.507C132.293 163.812 132.61 165.08 132.555 166.562C132.261 166.675 131.999 166.775 131.7 166.888C131.7 167.532 131.7 168.184 131.7 168.891C132.858 169.942 134.284 169.208 135.234 169.417C136.062 169.988 136.623 170.454 137.256 170.79C138.052 171.211 139.02 171.374 139.708 171.914C140.427 172.475 140.902 173.354 141.5 174.079C141.631 174.238 141.825 174.347 141.631 174.193C142.744 174.505 143.422 174.696 144.069 174.877C145.449 173.975 146.815 173.083 148.204 172.172C149.761 172.176 151.778 172.688 153.611 173.595C153.828 173.264 154.077 172.892 154.199 172.706C154.959 172.919 155.484 173.069 156.031 173.223C156.067 173.572 156.108 173.925 156.153 174.365C157.262 174.578 158.37 174.795 159.252 174.963C160.967 173.49 162.478 172.194 164.075 170.826C165.066 170.631 166.179 170.409 167.446 170.16C167.586 169.992 167.821 169.711 167.984 169.521C169.328 170.033 170.246 170.908 170.757 172.095C171.291 172.095 171.798 172.095 172.359 172.095C172.599 171.791 172.829 171.501 173.001 171.284C173.716 171.284 174.313 171.284 174.951 171.284C175.146 171.574 175.345 171.873 175.544 172.172C175.788 173.024 174.938 173.277 174.639 173.83C174.653 175.158 174.463 176.54 175.544 177.609C175.544 178.035 175.544 178.461 175.544 178.638C175.069 179.046 174.797 179.277 174.49 179.54C175.105 179.92 175.58 180.21 175.996 180.469C175.996 181.411 175.996 182.227 175.996 183.047C174.956 182.952 173.906 183.224 172.857 182.662C172.472 182.458 171.45 182.086 171.02 183.047C170.341 183.088 170.635 183.609 170.567 183.953C170.567 184.103 170.567 184.257 170.567 184.406C169.957 184.982 169.957 185.643 170.567 186.219C170.717 186.219 170.87 186.219 171.02 186.219C171.02 186.368 171.02 186.522 171.02 186.672C170.893 186.722 170.662 186.762 170.653 186.83C170.581 187.46 170.386 188.086 170.929 188.67C171.115 188.869 171.006 189.345 171.029 189.667C170.676 189.798 170.418 189.894 170.165 189.984C170.124 190.365 170.083 190.718 170.088 190.691C169.518 191.398 169.178 191.874 168.785 192.291C168.328 192.775 167.821 193.21 167.4 193.609C167.4 194.547 167.4 195.367 167.4 196.187C167.251 196.364 167.002 196.527 166.971 196.722C166.903 197.139 166.948 197.574 166.948 198C166.296 198.738 166.296 199.527 166.948 200.266C166.948 200.719 166.948 201.172 166.948 201.625C166.645 202.078 166.346 202.531 166.043 202.984C165.048 202.916 164.632 203.614 164.233 204.344C164.084 204.493 163.93 204.647 163.781 204.797C162.885 204.824 162.184 205.25 161.573 205.871C160.777 206.682 160.026 207.529 158.719 207.556C158.438 207.561 158.171 208.118 157.9 208.417C156.628 208.372 155.416 208.454 154.733 209.777C154.004 209.777 153.276 209.768 152.543 209.781C151.656 209.795 150.842 210.012 150.209 210.683C149.607 210.683 149.001 210.683 148.399 210.683C147.856 209.944 147.309 209.201 146.698 208.372C145.531 208.531 144.25 208.703 142.97 208.87C142.753 207.946 141.952 207.991 141.414 207.896C141.07 207.38 140.798 206.972 140.717 206.849C139.464 206.491 138.509 206.247 137.568 205.948C136.378 205.567 135.79 205.594 134.826 206.156C134.225 206.156 133.618 206.156 133.017 206.156C132.189 204.67 130.61 204.742 129.257 204.344C128.542 205.082 127.624 204.688 126.796 204.815C126.588 204.847 126.416 205.1 126.231 205.25C125.452 205.703 124.652 206.124 123.905 206.623C123.575 206.845 123.344 207.212 123.064 207.516C122.792 207.516 122.521 207.516 122.159 207.516C122.159 208.512 122.159 209.373 122.159 210.234C122.159 210.991 122.159 211.743 122.159 212.5C122.159 212.953 122.159 213.406 122.159 213.859C121.439 213.383 120.693 213.216 119.897 213.565C119.897 213.882 119.897 214.095 119.897 214.312C119.309 214.543 119.241 215.377 118.544 215.513C118.503 215.522 118.539 215.912 118.539 216.125C117.372 216.007 116.336 216.882 115.142 216.583C113.382 217.956 111.174 217.439 109.048 218.155C108.984 218.25 108.785 218.549 108.586 218.844C108.17 218.844 107.758 218.844 107.65 218.844C107.071 219.437 106.7 219.818 106.324 220.203C105.913 220.203 105.501 220.203 104.967 220.203C104.967 220.575 104.967 220.842 104.967 221.109C104.555 221.109 104.144 221.109 103.8 221.109C103.551 221.635 103.356 222.052 103.157 222.469C101.782 222.586 101.284 223.669 100.651 224.721C99.633 224.53 99.1489 225.183 98.8865 226.057C97.2759 226.144 96.1766 227.258 94.8645 227.997C94.2809 227.326 93.7064 226.719 92.7518 227C92.598 226.47 92.2315 226.275 91.7157 226.057C90.7566 225.65 89.6708 225.826 88.7524 225.11C87.9652 224.499 86.902 224.24 85.961 223.828C85.8886 222.886 85.8886 222.886 85.0562 223.157C85.0562 223.379 85.0562 223.601 85.0562 223.828C84.9069 223.978 84.7531 224.132 84.6038 224.281C84.4545 224.431 84.3006 224.585 84.1513 224.734C84.002 224.884 83.8482 225.038 83.6989 225.187C83.432 225.187 83.1605 225.187 82.9298 225.187C82.7127 226.03 82.5272 226.742 82.3417 227.453C82.1924 227.603 82.0386 227.757 81.8893 227.906C80.1565 228.101 78.4192 228.296 76.5734 228.504C76.0169 228.79 75.3338 229.143 74.6506 229.492C74.6506 229.719 74.6506 229.945 74.6506 230.172C74.4244 230.172 74.1982 230.172 73.9494 230.172C73.7322 230.824 73.5151 231.49 73.2979 232.152C74.2027 232.759 75.1166 233.366 76.0757 234.01C75.2614 234.409 74.5828 234.739 73.9132 235.066C72.6962 233.996 71.7461 235.26 70.8322 235.487C70.5065 235.333 70.3165 235.242 70.1265 235.156C70.1265 234.581 70.1265 234.005 70.1265 233.339C69.0226 233.366 68.0137 233.171 67.412 234.25C67.2627 234.25 67.1088 234.25 66.9595 234.25C66.7605 233.951 66.5614 233.656 66.3262 233.307C65.8104 233.362 65.2766 233.321 64.8106 233.484C63.8786 233.806 62.9828 234.164 61.9739 234.3C61.0284 234.427 60.2819 235.26 59.178 235.229C58.8251 235.22 58.1058 235.473 57.7981 236.28C57.5357 236.964 56.8254 237.734 55.8437 237.947C55.5813 238.006 55.4094 238.491 55.1967 238.781C54.4367 238.813 53.7128 238.935 52.9573 239.139C52.2786 239.32 51.5276 240.358 50.6726 239.443C50.6726 239.221 50.6726 239.003 50.6726 238.786C50.6726 238.029 50.6726 237.277 50.6726 236.52C50.5233 236.371 50.3695 236.216 50.2202 236.067C50.1659 235.754 50.1161 235.442 50.0709 235.179C49.0167 235.528 48.0983 235.786 47.2297 236.153C46.9537 236.271 46.8089 236.692 46.6008 236.973C46.257 237.041 45.7367 236.747 45.696 237.426C45.3522 237.494 44.8319 237.2 44.7912 237.879C44.5197 237.879 44.2437 237.879 44.0583 237.879C43.7959 239.32 43.5606 240.607 43.357 241.708C42.986 242.021 42.7553 242.216 42.5246 242.411C41.8007 242.411 41.0768 242.411 40.3123 242.411C40.3123 241.337 40.3123 240.39 40.3123 239.343C40.7059 239.085 41.1628 238.781 41.7102 238.423C41.4116 237.902 41.1583 237.318 40.7692 236.846C40.5837 236.624 40.1403 236.624 39.8101 236.52C39.6608 236.022 39.5341 235.51 39.3441 235.025C39.2898 234.884 39.0591 234.812 38.9052 234.708C38.7559 234.708 38.6021 234.708 38.4528 234.708C38.3035 234.558 38.1497 234.404 38.0004 234.254C37.6837 233.271 38.4483 232.465 38.4528 231.536C38.7288 231.536 39.0093 231.536 39.3712 231.536C39.326 230.222 39.4255 229.057 39.3034 227.911C38.9007 227.911 38.679 227.911 38.4528 227.911C38.4528 227.331 38.4528 226.751 38.4528 226.162C39.3079 226.107 40.0182 226.062 40.7149 226.017C40.7149 225.641 40.7149 225.414 40.7149 225.192C40.9863 224.802 41.5835 222.709 41.6197 222.02C41.6197 221.268 41.9093 220.316 41.5564 219.804C40.8687 218.807 41.6107 218.042 41.5609 217.203C41.5066 216.315 42.4974 216.814 42.597 216.043C42.7055 215.201 43.3796 214.426 43.8456 213.551C44.1623 211.367 43.5199 209.274 42.5743 207.244C43.2937 206.859 46.4923 203.999 46.8949 203.32C47.3926 203.501 47.9174 203.691 48.4512 203.886C49.2022 203.564 49.9713 203.238 50.6726 202.934C50.6726 202.377 50.6726 202.001 50.6726 201.625C50.944 201.625 51.2155 201.625 51.3964 201.625C51.6317 200.904 51.8217 200.334 51.9393 199.976C51.7946 199.178 51.686 198.589 51.5774 198C51.5774 197.574 51.6227 197.139 51.5548 196.722C51.5231 196.527 51.2743 196.364 51.125 196.187C50.9757 195.666 50.8219 195.141 50.7088 194.751C51.1793 194.293 51.6046 193.881 52.0298 193.469C52.7084 193.428 52.4144 192.907 52.4822 192.562C52.6315 192.413 52.7854 192.259 52.9347 192.109C52.9799 191.724 52.722 191.158 53.6223 191.212C53.9073 191.783 54.2286 192.417 54.5226 193.006C55.6537 193.124 56.1468 192.449 56.554 191.656C56.7033 191.507 56.8571 191.353 57.0064 191.203C57.7529 191.226 58.5129 191.285 58.8749 190.174C58.5989 189.88 58.2551 189.513 57.9112 189.146C57.9112 188.027 57.9112 186.898 57.9112 185.766C58.2551 185.466 58.5944 185.167 58.9608 184.85C58.6577 184.139 58.4179 183.577 58.1782 183.02C57.4452 182.87 56.7711 182.734 56.1016 182.598C56.1016 182.381 56.1016 182.159 56.1016 181.9C55.8075 181.769 55.5044 181.633 55.147 181.47C55.147 180.981 55.147 180.487 55.147 180.002C54.0657 179.802 53.0478 179.612 52.0298 179.426C51.8805 179.277 51.7267 179.123 51.5774 178.973C51.125 178.973 50.6726 178.973 50.2202 178.973C50.0709 178.973 49.917 178.973 49.7677 178.973C49.6184 178.824 49.4646 178.67 49.3153 178.52C49.3153 178.371 49.3153 178.216 49.3153 178.067C49.3153 177.614 49.3153 177.161 49.3153 176.708C49.3153 176.558 49.3153 176.404 49.3153 176.254C50.1885 176.041 49.5958 175.339 49.7677 174.895C49.917 174.714 50.1794 174.546 50.1975 174.351C50.2564 173.785 50.2202 173.205 50.2202 172.629C50.4961 172.629 50.7766 172.629 51.125 172.629C51.125 171.361 51.1476 170.246 51.1024 169.131C51.0933 168.932 50.8219 168.746 50.6726 168.551C50.6047 168.207 50.8988 167.686 50.2202 167.645C51.0933 166.535 51.962 165.438 52.3058 164.002C52.4641 163.34 52.5637 162.62 53.2016 162.099C53.4414 161.904 53.3373 161.279 53.3871 160.848C53.2378 160.699 53.084 160.545 52.9347 160.395C52.7854 160.246 52.6315 160.091 52.4822 159.942C52.5501 159.598 52.256 159.076 52.9347 159.036C53.4866 159.19 54.0431 159.348 54.7443 159.548C54.7443 158.968 54.7443 158.551 54.7443 158.129C55.0067 158.129 55.2736 158.129 55.6491 158.129C55.6491 157.753 55.6491 157.486 55.6491 157.223C55.8708 157.223 56.0925 157.223 56.3323 157.223C56.5676 156.747 56.8073 156.258 56.8797 156.109C56.6988 154.958 56.5721 154.137 56.4273 153.209C56.2328 153.077 55.9387 152.882 55.6491 152.687C55.4998 152.538 55.346 152.384 55.1967 152.234C55.0474 152.085 54.8936 151.931 54.7443 151.781C54.6267 151.632 54.5091 151.346 54.3914 151.351C53.2694 151.364 52.5184 150.725 51.7358 149.896C50.8897 150.064 49.9849 150.231 49.0891 150.426C47.75 150.721 46.5465 149.919 45.2436 149.969C45.0083 149.647 44.7731 149.321 44.6147 149.103C43.3525 148.945 42.1807 149.384 41.1718 148.609C41.1176 148.297 41.0633 147.984 41.018 147.712C39.887 147.653 40.0091 148.695 39.4753 149.071C38.9867 148.754 38.9867 148.754 38.9098 148.156C38.9098 147.703 38.9098 147.25 38.9098 146.797C39.6246 146.62 39.887 146.14 39.8146 145.437C39.6698 144.753 39.1857 143.838 39.4572 143.43C39.9006 142.764 39.7377 142.157 39.8056 141.531C39.8553 141.087 39.697 140.589 39.8372 140.19C40.2399 139.048 39.7151 137.308 41.855 137.213C42.416 137.191 42.8096 136.334 42.4115 135.577C42.1491 135.487 41.8867 135.396 41.6424 135.31C41.6197 133.856 41.6197 133.856 40.0544 130.946C39.7603 130.946 39.4662 130.946 38.9641 130.946C38.6338 131.35 38.2131 131.866 37.9687 132.165C37.3444 132.329 36.9779 132.365 36.6703 132.519C35.9826 132.854 35.1276 133.099 34.6932 133.656C34.0282 134.513 32.8519 133.624 32.3407 134.567C30.5401 134.871 28.9792 135.949 27.147 136.162C27.1379 136.162 27.147 136.302 27.147 136.379C25.5997 136.248 23.9936 136.728 22.4961 135.949C22.469 135.935 22.2835 136.23 22.1704 136.379C20.9443 135.482 20.8493 134.019 20.3607 132.754C20.691 131.268 21.0212 129.782 21.347 128.341C22.3649 127.815 22.3649 127.815 22.6228 126.864C23.4598 126.773 24.5275 127.249 24.8849 125.958C25.4866 125.958 26.0928 125.958 26.6945 125.958C27.0203 126.057 27.346 126.175 27.6808 126.257C27.9523 126.325 28.2328 126.361 28.5042 126.411C29.0788 127.321 29.9293 126.601 30.522 126.882C30.8975 126.506 31.1192 126.098 31.4359 125.998C33.146 125.464 34.4535 124.39 35.6795 123.13C36.141 122.654 36.892 122.464 37.5118 122.142C37.7425 121.05 38.2357 120.035 38.5343 118.948C38.9505 117.439 39.5884 115.808 40.6335 114.706C41.5066 113.787 41.6469 113.034 41.5971 111.951C41.1311 111.951 40.7737 111.951 40.2851 111.951C39.5567 112.885 38.8962 113.972 38.0004 114.811C37.1137 115.644 35.9917 116.261 35.2361 117.226C34.372 118.331 33.1053 118.64 31.938 119.093C30.7527 119.555 30.1058 120.561 29.2824 121.376C28.287 122.36 27.2239 122.976 25.7988 122.79C25.7988 122.518 25.7988 122.242 25.7988 121.988C26.3371 121.898 26.7398 121.83 27.1243 121.766C27.2329 120.62 27.2284 119.578 26.4548 118.712C26.2376 118.712 26.0159 118.712 25.7988 118.712C25.7988 118.295 25.7988 117.878 25.7988 117.602C24.8577 116.537 23.7945 116.333 22.6318 116.446C22.4825 116.297 22.3287 116.143 22.1794 115.993C21.7632 115.59 21.347 115.187 20.6095 114.475C20.5553 114.385 21.3425 113.574 20.3698 113.275C19.4966 112.767 17.4698 112.087 17.0717 112.405C16.3252 112.994 15.5289 112.726 14.7553 112.831C14.3391 112.885 13.9364 113.025 13.5202 113.111C11.801 113.469 10.3895 114.679 8.60695 114.87C8.5979 114.87 8.60695 115.01 8.60695 115.087C8.26311 115.155 7.74284 114.861 7.70212 115.54C7.29042 115.54 6.87872 115.54 6.34487 115.54C6.34487 115.912 6.34487 116.179 6.34487 116.446C5.63458 116.578 4.92429 116.709 4.08279 116.863C4.08279 116.533 4.08279 116.261 4.08279 115.993C4.37686 115.799 4.66641 115.604 4.90166 115.445C5.25455 113.125 4.73428 111 4.10542 108.875C3.94255 108.322 3.70276 107.987 3.17796 107.837C3.19606 106.695 2.95628 105.685 1.82071 105.118C1.65784 105.241 1.50402 105.395 1.35473 105.544ZM128.936 174.419C128.818 174.27 128.701 173.989 128.579 173.984C126.502 173.93 124.629 174.514 123.1 175.969C122.01 177.002 120.951 178.071 119.915 179.159C119.186 179.925 118.286 180.274 117.377 180.41C116.612 182.159 114.812 182.63 113.59 183.745C113.966 183.939 114.337 184.13 114.834 184.388C115.879 184.388 117.078 184.388 118.227 184.388C119.58 183.369 120.892 182.363 122.218 181.379C123.249 180.618 124.249 179.793 125.362 179.173C126.425 178.579 127.538 178.099 128.135 177.279C129.624 176.789 130.89 176.399 132.135 175.946C132.352 175.865 132.478 175.529 132.714 175.221C132.429 175.063 132.266 174.968 132.098 174.877C131.913 174.727 131.736 174.456 131.546 174.446C130.682 174.392 129.809 174.419 128.936 174.419ZM99.4294 189.871C100.266 189.826 101.768 190.025 103.053 189.594C104.383 189.15 105.668 188.879 107.048 188.928C106.912 188.774 106.777 188.625 106.641 188.471C107.225 188.244 107.804 188.013 108.546 187.723C107.13 186.753 106.094 186.046 104.958 185.267C102.985 185.267 100.886 185.267 98.6513 185.267C98.2079 184.592 97.7329 183.876 97.2669 183.156C97.0769 182.861 96.9683 182.453 96.7014 182.272C95.887 181.724 95.0274 181.239 94.1678 180.768C93.3716 180.333 92.4532 180.07 91.7655 179.512C90.2182 178.262 88.7886 176.871 87.3002 175.548C87.1509 175.416 86.9292 175.362 86.7573 175.28C86.2822 175.715 85.8524 176.105 85.5448 176.386C85.5448 177.478 85.5448 178.371 85.5448 178.991C86.4768 180.292 87.273 181.397 88.0919 182.544C88.8429 182.834 89.6708 183.224 90.5395 183.464C91.5122 183.731 92.0008 184.587 92.7292 185.14C93.4214 185.666 93.8104 186.59 94.48 187.551C95.7875 188.163 97.3664 188.901 99.4294 189.871ZM148.345 111.168C146.273 108.775 143.137 108.05 140.889 105.966C140.233 107.053 140.233 107.053 140.323 108.743C141.264 110.044 142.065 111.145 142.92 112.328C143.092 112.364 143.477 112.364 143.793 112.513C144.739 112.957 145.698 113.406 146.585 113.959C147.354 114.439 147.82 114.095 148.345 113.515C148.345 112.826 148.345 112.083 148.345 111.168ZM152.353 93.7404C152.661 92.816 152.29 92.0457 152.828 91.2301C153.185 90.6909 153.018 89.5852 152.724 88.8874C152.362 88.0219 152.14 87.1837 151.928 86.2774C151.715 85.3576 151.561 84.4649 151.557 84.0435C151.168 82.6343 150.539 81.9818 149.566 81.2885C149.367 81.7009 149.204 82.0407 149.041 82.3851C148.679 83.8759 149.449 85.4029 149.661 86.9979C149.883 88.6609 150.421 90.129 151.118 91.5654C150.946 91.8327 150.792 92.0729 150.616 92.3448C150.856 92.816 151.104 93.3009 151.331 93.7404C151.692 93.7404 151.982 93.7404 152.353 93.7404ZM154.434 98.2127C154.022 99.7443 154.362 100.913 155.384 101.91C155.746 102.259 156.063 102.572 156.126 103.193C156.212 104.022 156.864 104.507 157.809 104.692C158.167 102.431 157.058 100.755 156.185 98.9785C155.588 98.7157 155.036 98.4755 154.434 98.2127ZM172.481 107.357C172.558 107.357 172.63 107.357 172.707 107.357C172.707 106.6 172.707 105.848 172.707 105.091C172.63 105.091 172.558 105.091 172.481 105.091C172.481 105.848 172.481 106.6 172.481 107.357ZM60.4719 106.451C60.4221 106.451 60.3724 106.451 60.3226 106.451C60.3226 106.6 60.3226 106.754 60.3226 106.904C60.3724 106.904 60.4221 106.904 60.4719 106.904C60.4719 106.754 60.4719 106.6 60.4719 106.451ZM174.63 112.491C174.63 112.541 174.63 112.59 174.63 112.64C174.779 112.64 174.933 112.64 175.082 112.64C175.082 112.59 175.082 112.541 175.082 112.491C174.933 112.491 174.779 112.491 174.63 112.491ZM171.915 104.489C171.915 104.439 171.915 104.389 171.915 104.339C171.766 104.339 171.612 104.339 171.463 104.339C171.463 104.389 171.463 104.439 171.463 104.489C171.612 104.489 171.766 104.489 171.915 104.489ZM58.056 103.732C58.1058 103.732 58.1555 103.732 58.2053 103.732C58.2053 103.582 58.2053 103.428 58.2053 103.279C58.1555 103.279 58.1058 103.279 58.056 103.279C58.056 103.428 58.056 103.582 58.056 103.732Z" fill="#E10B17"/>
<path d="M273.461 35.4882C273.837 35.4882 274.14 37.2055 274.361 37.2055C275.221 37.6587 276.035 38.2387 276.945 38.5332C278.184 38.941 279.062 39.5754 279.338 40.8985C278.619 42.4663 278.786 43.7034 280.229 44.6096C281.89 45.6518 283.034 47.1834 284.437 48.4657C284.658 48.6696 284.663 49.1091 284.767 49.4399C283.609 50.2102 282.704 51.4337 281.433 51.3521C280.944 52.3943 280.564 53.2099 280.252 53.876C279.673 53.7265 279.279 53.6223 278.886 53.518C278.727 53.2099 278.564 52.9018 278.46 52.6979C278.655 52.0816 278.822 51.556 279.012 50.9443C277.841 50.6679 276.814 50.4323 275.823 50.1966C276.144 49.4535 276.465 48.7059 276.863 47.777C276.126 47.4734 275.556 47.2423 274.9 46.9704C274.687 45.3845 273.081 45.8965 272.113 45.2168C271.665 45.6065 271.335 46.1004 270.901 46.2227C270.33 46.3859 270.005 46.6351 269.842 47.1698C269.281 47.1698 268.72 47.1698 267.991 47.1698C267.847 47.6501 267.711 48.0896 267.58 48.5291C267.277 48.8327 266.978 49.1318 266.675 49.4354C266.512 49.8341 266.349 50.2374 266.123 50.7948C267.069 50.7948 267.779 50.7948 268.485 50.7948C268.788 50.7948 269.086 50.7948 269.389 50.7948C269.693 50.9443 269.991 51.0984 270.294 51.2479C270.444 51.3974 270.597 51.5515 270.747 51.701C270.896 52.1541 271.05 52.6073 271.199 53.0604C271.05 53.2099 270.896 53.364 270.747 53.5135C269.919 54.3473 269.064 53.8579 268.249 53.4229C267.978 53.8307 267.779 54.1252 267.58 54.4198C267.43 54.5693 267.277 54.7234 267.127 54.8729C266.245 54.8729 265.363 54.8729 264.716 54.8729C263.427 52.852 261.581 53.7854 260.029 53.4455C259.952 53.228 259.862 52.9698 259.807 52.8248C258.007 51.8777 256.287 50.976 254.528 50.0516C254.433 50.1468 254.215 50.3552 254.007 50.5591C254.007 51.0984 254.007 51.624 254.007 52.1496C254.007 52.4532 254.007 52.7523 254.007 53.0559C252.569 52.9924 251.334 53.8398 249.936 53.9621C249.755 53.8126 249.578 53.5452 249.388 53.5316C248.669 53.4818 247.945 53.509 247.221 53.509C247.072 53.509 246.918 53.509 246.769 53.509C246.818 52.3399 246.045 51.9774 244.959 51.5787C244.959 52.2085 244.959 52.6299 244.959 53.0559C243.647 53.3685 242.643 52.4894 241.892 52.2085C240.39 52.4351 239.272 52.6073 238.173 52.7749C238.173 53.0559 238.173 53.2824 238.173 53.509C237.734 53.722 237.295 53.9304 236.87 54.1388C236.87 54.8049 236.87 55.4574 236.87 55.9196C237.227 56.4271 237.472 56.7805 237.72 57.134C237.291 57.134 236.865 57.134 236.404 57.134C236.404 57.4874 236.404 57.6913 236.404 58.0402C237.164 58.0402 237.897 58.0402 238.625 58.0402C239.467 58.149 238.892 58.8559 239.227 59.1277C239.566 59.4812 239.91 59.8346 240.331 60.2741C240.566 60.3059 240.964 60.3557 241.34 60.4055C241.34 60.7771 241.34 60.9946 241.34 61.2121C239.892 61.842 238.304 61.5474 236.816 61.7695C236.816 62.2905 236.816 62.6576 236.816 63.0246C235.237 65.0365 233.309 66.858 232.848 69.3638C232.567 69.8895 232.282 70.4151 231.966 71.0041C230.997 70.2474 230.274 69.6855 229.554 69.1101C229.102 68.7521 228.668 68.376 228.22 68.0045C228.22 66.8218 228.22 65.6437 228.22 64.4837C228.744 64.1665 229.161 63.9173 229.609 63.6454C229.405 62.3087 229.197 60.9629 228.98 59.5355C228.125 59.1005 227.324 58.4979 226.822 57.433C226.491 56.7352 225.668 56.273 225.958 55.317C226.234 55.317 226.509 55.317 226.727 55.317C226.614 53.5452 226.505 51.9185 226.414 50.2918C226.383 49.7027 226.41 49.1091 226.41 48.5201C227.089 48.4793 226.795 47.9582 226.862 47.6138C226.681 47.4643 226.505 47.197 226.315 47.1834C225.596 47.1335 224.872 47.1607 224.148 47.1607C223.781 46.8752 223.415 46.5852 222.944 46.2137C222.252 46.2137 221.442 46.2137 220.678 46.2137C220.488 45.312 220.32 44.4963 220.176 43.8076C220.506 42.8741 221.985 43.2049 221.886 41.9452C221.356 41.4151 220.863 40.826 220.275 40.3638C219.787 39.9832 219.203 39.6841 218.619 39.4712C217.909 39.2174 217.154 39.0905 216.909 39.0316C216.163 38.0166 215.715 37.414 215.29 36.8385C215.443 36.7796 215.701 36.6845 215.855 36.6301C216.104 35.5743 216.33 34.6137 216.516 33.8116C216.878 33.5126 217.122 33.3087 217.362 33.1093C217.362 32.9598 217.362 32.8057 217.362 32.6562C217.511 32.5066 217.665 32.3526 217.814 32.203C217.814 31.7499 217.814 31.2968 217.814 30.8437C218.493 30.8029 218.199 30.2818 218.266 29.9374C218.877 29.362 218.877 28.7004 218.266 28.1249C218.117 27.9754 217.963 27.8213 217.814 27.6718C217.963 26.6296 217.14 26.3985 216.366 26.0179C216.579 25.4016 217.298 24.8352 216.724 24.0876C215.633 24.0876 214.539 24.0876 213.57 24.0876C213.254 24.3504 213.032 24.5407 212.842 24.6993C212.842 25.4334 212.842 26.0995 212.842 26.7655C211.978 26.7202 211.082 26.7112 210.376 27.2459C209.992 27.5359 209.671 27.6854 209.205 27.6809C207.734 27.6582 206.264 27.6718 204.934 27.6718C204.377 27.1598 204.074 26.5662 203.341 26.7655C203.192 26.616 203.038 26.462 202.889 26.3124C202.717 25.8684 203.31 25.166 202.436 24.953C202.473 24.1782 202.531 23.3943 201.532 23.1405C201.532 22.837 201.532 22.5379 201.532 22.2343C202.038 21.7812 202.545 21.328 203.092 20.8387C203.73 20.8387 204.382 20.8387 205.024 20.8387C205.142 19.1666 205.142 19.1666 204.459 17.6351C203.192 17.8662 201.898 18.1018 200.586 18.3374C200.803 18.9718 200.984 19.4974 201.133 19.9324C200.808 20.6257 200.405 20.9882 199.722 20.8795C199.27 20.7299 198.817 20.5759 198.365 20.4263C197.921 20.5985 197.22 20.0049 197.007 20.8795C196.741 20.8795 196.474 20.8795 196.175 20.8795C196.143 21.1966 196.116 21.396 196.107 21.5999C196.098 21.8129 196.107 22.0259 196.107 22.2388C195.429 22.2796 195.723 22.8007 195.655 23.1451C195.505 23.2946 195.352 23.4487 195.202 23.5982C194.976 23.5982 194.75 23.5982 194.469 23.5982C194.383 23.8429 194.297 24.1057 194.171 24.4727C193.854 24.4909 193.497 24.509 193.139 24.5316C192.714 24.9576 192.289 25.3835 191.832 25.8366C191.262 25.8366 190.669 25.8366 189.932 25.8366C189.728 25.5784 189.452 25.2249 189.14 24.8307C187.783 25.4334 186.516 25.9998 185.245 26.5662C185.421 27.1552 185.598 27.7488 185.819 28.4874C184.557 28.4874 183.453 28.4874 182.431 28.4874C181.969 28.9134 181.603 29.2577 181.105 29.7199C180.825 29.2305 180.635 28.8998 180.345 28.3923C180.015 28.8091 179.748 29.149 179.413 29.5749C178.716 29.1716 178.119 28.7049 177.925 27.7307C176.54 27.7352 175.549 26.9196 174.667 25.8865C174.228 25.8865 173.785 25.8865 173.319 25.8865C172.803 25.2974 171.903 24.9621 172.174 23.8882C172.613 23.5665 173.097 23.204 173.776 22.7055C173.038 22.0712 172.459 21.5727 171.523 20.7707C171.079 20.0004 172.79 19.6968 172.631 18.6682C173.133 18.6682 173.568 18.6682 174.088 18.6682C175.246 17.7121 176.432 16.7424 177.703 15.6957C177.282 15.0341 176.916 14.4541 176.481 13.7654C178.418 11.6991 178.888 8.56805 182.118 7.32648C182.666 7.32648 183.562 7.32648 184.163 7.32648C185.267 6.7193 186.258 6.38398 186.959 5.73602C187.982 4.78898 188.85 6.61961 189.828 5.64992C189.316 4.77992 188.787 3.88274 188.217 2.91305C188.565 2.47805 188.828 2.1518 189.176 1.7168C189.61 2.03398 190.013 2.32398 190.597 2.74992C191.633 2.74992 192.89 2.74992 194.071 2.74992C194.311 2.99008 194.469 3.14867 194.709 3.38883C194.709 4.41742 194.709 5.52758 194.709 6.33414C195.198 7.29023 195.551 7.96992 195.827 8.50914C196.202 8.68133 196.456 8.79914 196.582 8.85805C196.89 8.54539 197.229 8.20555 197.894 7.53492C197.799 6.51992 198.27 4.91586 197.351 3.2982C198.03 3.2982 198.532 3.2982 199.143 3.2982C200.215 4.57148 201.844 5.48227 202.925 7.23133C202.925 7.97445 202.925 8.93055 202.925 9.85945C204.16 10.3534 204.563 9.61477 204.893 8.56805C205.287 8.75836 205.63 9.00758 206.011 9.08461C206.427 9.1707 206.879 9.10273 207.332 9.10273C207.386 9.57398 207.427 9.93195 207.458 10.1812C207.965 10.5437 208.413 10.8654 208.779 11.1237C208.779 11.9166 207.879 12.5646 206.621 12.8274C206.404 13.3984 206.182 13.9874 206.015 14.4405C206.762 15.1791 207.395 15.8045 208.024 16.4252C207.784 17.8118 207.571 19.0171 207.359 20.2496C209.046 20.5577 210.553 21.0743 211.928 21.9851C212.702 22.4971 213.525 22.982 214.634 22.5741C214.652 22.2615 214.67 21.9035 214.688 21.5002C214.932 21.4141 215.195 21.3235 215.457 21.2284C216.154 20.0412 214.493 19.7059 214.597 18.6682C213.905 18.6682 213.249 18.6682 212.494 18.6682C212.494 17.7937 212.494 16.9871 212.494 15.954C213.05 15.6368 213.778 15.2245 214.606 14.7532C214.629 14.5312 214.67 14.1732 214.715 13.7291C215.262 13.7291 215.823 13.7291 216.461 13.7291C216.461 14.436 216.461 15.093 216.461 15.7999C216.733 15.8543 216.941 15.8996 217.249 15.9585C217.312 16.3074 217.389 16.7198 217.497 17.2998C218.095 17.1095 218.669 16.9282 219.416 16.688C219.642 17.0505 219.882 17.4312 220.076 17.7438C220.927 17.7438 221.583 17.7438 222.126 17.7438C222.963 18.351 222.872 19.0805 222.727 19.9007C222.234 19.9007 221.727 19.9007 221.234 19.9007C220.909 21.9987 221.08 22.3838 222.65 23.2266C223.297 24.3368 223.732 25.5149 223.949 26.7746C223.949 26.7882 224.089 26.7746 224.166 26.7746C224.433 27.119 224.632 27.5721 224.98 27.7805C225.786 28.2563 226.591 29.1943 227.622 28.134C228.636 28.2835 229.283 27.2866 230.188 27.2504C231.78 27.1915 232.979 26.2445 234.201 25.4787C235.151 24.8805 236.033 24.3776 237.055 24.5135C237.426 24.142 237.693 23.8746 237.965 23.6027C239.77 23.6027 241.579 23.5665 243.389 23.6209C244.158 23.6435 244.918 23.861 245.674 23.9879C245.886 23.8384 246.117 23.6798 246.244 23.5937C246.796 24.1465 247.266 24.6177 247.61 24.9621C248.492 24.9621 249.099 25.021 249.687 24.944C250.239 24.8715 250.773 24.6585 251.311 24.509C251.967 24.509 252.623 24.509 253.469 24.509C254.021 25.1026 254.641 25.8185 255.328 26.462C255.55 26.6704 255.962 26.6749 256.287 26.7746C257.147 27.051 257.853 27.622 258.812 27.7851C259.834 27.9618 260.893 28.4285 261.422 29.5024C262.54 29.371 263.418 29.7109 264.25 30.4041C264.942 30.9841 265.77 31.4146 266.571 31.8496C268.34 32.8102 270.104 33.7799 271.412 35.3659C271.737 35.7601 272.095 35.9051 272.574 35.8371" fill="#E10B17"/>
<path d="M272.555 35.8468C272.076 35.9193 271.718 35.7697 271.392 35.3755C270.08 33.7896 268.321 32.8199 266.552 31.8593C265.751 31.4243 264.923 30.9938 264.231 30.4138C263.398 29.7205 262.521 29.3807 261.403 29.5121C260.878 28.4382 259.815 27.9714 258.793 27.7947C257.834 27.6316 257.132 27.0561 256.268 26.7843C256.268 26.1091 256.268 25.4294 256.268 24.6364C257.331 24.351 258.363 24.4371 259.286 25.2391C259.77 24.8132 260.078 24.5368 260.308 24.3329C260.114 23.5354 259.946 22.8466 259.729 21.9404C259.435 21.5733 258.983 21.0069 258.53 20.4405C258.381 20.291 258.227 20.1369 258.078 19.9874C258.078 19.8379 258.078 19.6838 258.078 19.5343C258.363 19.4844 258.652 19.43 258.937 19.3802C258.928 19.2805 258.919 19.1808 258.906 19.0811C258.63 19.0811 258.354 19.0811 258.078 19.0811C258.078 18.7775 258.078 18.4785 258.073 17.9982C258.073 17.9529 258.082 18.0843 258.091 18.2111C258.386 18.1522 258.68 18.0979 258.974 18.0389C258.96 17.9393 258.947 17.8441 258.933 17.7444C258.643 17.7671 258.358 17.7943 258.073 17.9936C257.802 18.1704 257.526 18.1704 257.268 18.1704C257.164 17.2279 257.164 17.2279 256.725 16.811C256.725 16.385 256.77 15.95 256.703 15.5332C256.671 15.3383 256.422 15.1752 256.273 14.9985C255.409 14.8943 256.051 14.1239 255.698 13.8339C254.042 12.5108 251.794 12.2525 250.269 10.6304C249.695 10.0186 248.487 10.1364 248.129 9.10332C247.917 8.22879 247.215 8.82239 246.772 8.6502C246.623 8.50067 246.469 8.3466 246.32 8.19707C246.17 8.04754 246.016 7.89348 245.867 7.74395C245.826 7.06426 245.306 7.35879 244.962 7.29082C244.813 7.14129 244.659 6.98723 244.51 6.8377C244.297 6.8377 244.089 6.8377 243.89 6.8377C243.492 6.23051 243.098 5.62785 242.7 5.0252C242.827 4.97535 242.949 4.92551 243.076 4.87567C242.949 4.77598 242.827 4.67176 242.7 4.57207C242.551 4.42254 242.397 4.26848 242.248 4.11895C242.099 3.96942 241.945 3.81535 241.795 3.66582C241.646 3.51629 241.492 3.36223 241.343 3.2127C241.194 3.2127 241.04 3.2127 240.891 3.2127C240.891 2.61004 240.891 2.00285 240.891 1.4002C240.891 1.0241 240.891 0.64801 240.891 0.276447C241.777 -0.593553 242.451 0.910822 243.248 0.439572C244.822 1.9077 246.478 3.16285 248.342 4.0691C249.455 4.60832 250.17 5.4466 250.844 6.3891C250.912 6.73348 250.618 7.25457 251.296 7.29535C251.296 7.5627 251.296 7.83004 251.296 8.2016C251.83 8.2016 252.242 8.2016 252.653 8.2016C253.11 8.82238 253.554 8.82238 254.011 8.2016C255.436 8.96738 257.037 9.43863 258.141 10.7436C258.526 11.1968 259.39 10.5986 259.675 11.3735C261.697 12.0577 262.113 12.5969 262.15 14.5589C262.154 14.935 262.15 15.3111 262.15 15.4154C262.937 17.5224 264.371 18.6914 266.068 19.6339C266.629 19.9466 267.076 20.4677 267.579 20.8891C267.728 21.0386 267.882 21.1927 268.031 21.3422C268.072 22.0219 268.592 21.7274 268.936 21.7954C269.085 21.9449 269.239 22.0989 269.388 22.2485C269.538 22.398 269.691 22.5521 269.841 22.7016C269.99 22.8511 270.144 23.0052 270.293 23.1547C270.442 23.1547 270.596 23.1547 270.746 23.1547C270.786 23.8344 271.307 23.5399 271.65 23.6079C272.424 23.5716 273.207 23.5127 273.46 24.5141C273.501 25.1938 274.021 24.8993 274.365 24.9672C274.514 24.9672 274.668 24.9672 274.817 24.9672C275.555 25.6197 276.342 25.6197 277.079 24.9672C277.156 24.2105 277.753 24.6364 278.111 24.5141C278.961 24.2196 279.794 23.8027 280.672 23.6441C281.432 23.5082 282.269 23.4674 282.956 24.061C284.042 24.9944 285.377 25.4385 286.702 25.8871C286.897 25.955 287.055 26.1363 287.363 26.3674C290.263 25.8282 292.312 27.2736 293.828 30.0513C293.828 30.3639 293.828 30.9621 293.828 31.5511C294.81 32.4211 295.366 33.4633 295.199 34.5146C296.248 35.5341 297.121 36.3769 298.108 37.333C299.451 37.1291 300.8 36.9252 302.125 36.7258C302.84 37.5868 303.55 38.4069 304.211 39.2633C304.319 39.4038 304.224 39.7029 304.224 39.9294C304.401 40.0789 304.564 40.3282 304.758 40.3599C305.174 40.4279 305.609 40.3825 306.034 40.3825C306.075 41.0622 306.595 40.7677 306.939 40.8357C307.088 40.9852 307.242 41.1393 307.391 41.2888C308.074 41.4383 308.753 41.6875 309.441 41.7147C310.174 41.7419 310.839 41.8144 311.499 42.1769C311.974 42.4352 312.553 42.5122 313.078 42.6844C313.603 42.8611 314.123 43.056 315.096 43.4049C316.702 44.6329 318.788 46.0829 320.054 48.5388C319.326 49.0146 320.023 50.4736 318.702 50.7999C318.525 50.6504 318.362 50.4011 318.168 50.3694C317.752 50.3014 317.317 50.3468 316.892 50.3468C316.743 50.3468 316.589 50.3468 316.44 50.3468C316.385 50.2199 316.345 49.9843 316.281 49.9797C314.969 49.8347 313.666 49.8982 312.368 49.9118C312.368 50.5054 312.368 50.8814 312.368 51.253C312.368 51.611 312.368 51.9735 312.368 52.413C312.033 52.703 311.658 53.0293 311.097 53.5186C310.775 53.5186 310.214 53.5186 309.653 53.5186C309.477 53.3691 309.314 53.1199 309.119 53.0882C308.703 53.0202 308.269 53.0655 307.844 53.0655C307.694 52.916 307.541 52.7619 307.391 52.6124C307.391 52.1593 307.391 51.7061 307.391 51.253C308.237 50.9721 307.758 50.4193 307.694 49.6988C307.351 49.9888 307.147 50.1655 306.939 50.3468C306.939 50.6504 306.939 50.9494 306.939 51.253C306.459 51.1805 306.124 51.3618 305.772 51.7152C305.111 52.3768 304.365 52.9477 303.994 53.2649C301.121 54.2527 300.324 52.0505 298.795 50.5779C298.795 51.1533 298.795 51.4297 298.795 51.7107C298.583 51.7107 298.37 51.7107 298.176 51.7107C297.868 52.1547 297.529 52.5716 297.271 53.0293C297.112 53.3102 297.076 53.6591 296.986 53.9763C296.533 54.1258 296.081 54.2799 295.628 54.4294C294.271 54.4294 292.914 54.4294 291.557 54.4294C290.715 54.665 290.453 53.8449 289.851 53.4824C289.562 53.5504 289.213 53.6093 288.878 53.718C288.62 53.7996 288.381 53.9446 288.114 54.0669C287.322 53.6727 286.58 53.3011 285.671 52.848C285.671 52.4085 285.671 51.833 285.671 51.253C285.82 51.253 285.974 51.253 286.123 51.253C287.069 51.3436 286.2 52.345 286.775 52.5943C287.014 52.2952 287.245 52.0007 287.517 51.7333C288.073 52.1819 288.073 52.1819 288.824 51.7605C288.317 51.7605 287.901 51.7605 287.517 51.7333C287.304 50.9902 286.829 50.7274 286.123 50.7999C285.974 50.9494 285.82 51.1035 285.671 51.253C285.521 51.253 285.368 51.253 285.218 51.253C285.273 50.596 285.196 49.9752 284.766 49.4405C284.662 49.1097 284.657 48.6702 284.436 48.4663C283.033 47.1839 281.889 45.6479 280.228 44.6102C278.785 43.7039 278.618 42.4669 279.337 40.8991C279.061 39.5805 278.183 38.9416 276.944 38.5338C276.034 38.2347 275.22 37.6593 274.36 37.2061C274.13 36.6171 273.297 36.5491 273.161 35.8513C273.161 35.815 272.768 35.8468 272.555 35.8468Z" fill="#C8E4E6"/>
<path d="M99.6307 190.407C97.5677 189.442 95.9888 188.703 94.6813 188.087C94.0117 187.126 93.6227 186.202 92.9305 185.676C92.2066 185.128 91.7134 184.267 90.7408 184C89.8721 183.76 89.0442 183.37 88.2932 183.08C87.4743 181.934 86.6781 180.833 85.7461 179.528C85.7461 178.907 85.7461 178.01 85.7461 176.922C86.0492 176.646 86.4835 176.251 86.9586 175.816C87.1305 175.898 87.3522 175.952 87.5015 176.084C88.9899 177.407 90.4241 178.798 91.9668 180.049C92.6545 180.606 93.5774 180.869 94.3691 181.304C95.2287 181.775 96.0928 182.255 96.9027 182.808C97.1696 182.989 97.2736 183.397 97.4682 183.692C97.9342 184.412 98.4092 185.128 98.8526 185.803C101.088 185.803 103.187 185.803 105.159 185.803C106.295 186.583 107.331 187.29 108.747 188.259C108.009 188.549 107.426 188.78 106.842 189.007C106.978 189.161 107.114 189.31 107.249 189.465C105.865 189.415 104.585 189.687 103.255 190.131C101.965 190.561 100.468 190.357 99.6307 190.407Z" fill="#BEDEDE"/>
<path d="M25.9851 123.3C27.4147 123.485 28.4779 122.869 29.4687 121.886C30.2921 121.075 30.9345 120.064 32.1244 119.602C33.2962 119.149 34.5584 118.841 35.4225 117.735C36.178 116.77 37.3 116.154 38.1868 115.32C39.078 114.482 39.7386 113.399 40.4715 112.461C40.9601 112.461 41.3175 112.461 41.7835 112.461C41.8332 113.548 41.693 114.296 40.8198 115.216C39.7747 116.317 39.1368 117.948 38.7206 119.457C38.422 120.545 37.9289 121.56 37.6982 122.652C37.0784 122.973 36.3273 123.168 35.8659 123.64C34.6398 124.904 33.3369 125.973 31.6222 126.508C31.3055 126.607 31.0838 127.015 30.7083 127.391C30.1157 127.11 29.2651 127.826 28.6906 126.92C28.7901 126.594 28.8444 126.25 28.9937 125.955C29.1475 125.651 29.3918 125.389 29.5954 125.108C30.7581 124.877 31.1743 124.46 31.4186 123.114C31.8032 122.557 32.3687 121.99 32.7713 121.582C31.5182 121.637 31.5182 121.637 31.4186 123.114C30.8033 123.902 30.2016 124.505 29.5954 125.108C28.4915 125.158 27.6591 125.765 26.8809 126.467C26.2792 126.467 25.6729 126.467 25.0712 126.467C24.9355 126.231 24.7998 125.996 24.6641 125.756C25.2658 125.389 25.035 124.759 25.0712 124.201C25.3336 124.201 25.6006 124.201 25.9761 124.201C25.9851 123.83 25.9851 123.563 25.9851 123.3Z" fill="#BEDEDE"/>
<path d="M132.305 175.41C132.473 175.5 132.635 175.596 132.92 175.754C132.685 176.062 132.559 176.398 132.341 176.479C131.097 176.932 129.83 177.326 128.342 177.811C127.745 178.631 126.632 179.112 125.569 179.705C124.456 180.326 123.456 181.151 122.424 181.912C121.094 182.895 119.787 183.901 118.434 184.921C117.29 184.921 116.086 184.921 115.041 184.921C114.543 184.663 114.172 184.472 113.797 184.277C115.018 183.163 116.819 182.691 117.584 180.942C118.497 180.806 119.393 180.458 120.122 179.692C121.158 178.604 122.216 177.535 123.307 176.502C124.836 175.052 126.704 174.463 128.785 174.517C128.908 174.522 129.025 174.798 129.143 174.952C129.328 175.102 129.505 175.374 129.695 175.383C130.559 175.437 131.432 175.41 132.305 175.41Z" fill="#BEDEDE"/>
<path d="M148.548 111.704C148.548 112.619 148.548 113.362 148.548 114.051C148.023 114.631 147.557 114.971 146.788 114.495C145.901 113.942 144.947 113.498 143.997 113.05C143.68 112.9 143.3 112.9 143.124 112.864C142.264 111.681 141.468 110.58 140.527 109.28C140.436 107.585 140.436 107.585 141.092 106.502C143.341 108.586 146.476 109.311 148.548 111.704Z" fill="#BEDEDE"/>
<path d="M152.555 94.2781C152.184 94.2781 151.89 94.2781 151.537 94.2781C151.311 93.834 151.062 93.3491 150.822 92.8824C150.999 92.6106 151.152 92.3749 151.324 92.103C150.628 90.6666 150.085 89.1985 149.868 87.5355C149.655 85.9405 148.886 84.418 149.248 82.9227C149.411 82.5829 149.574 82.2385 149.773 81.8262C150.745 82.5195 151.374 83.172 151.763 84.5812C151.768 85.0026 151.917 85.8952 152.134 86.8151C152.347 87.7168 152.569 88.5596 152.93 89.4251C153.225 90.1229 153.387 91.224 153.034 91.7677C152.496 92.5834 152.863 93.3537 152.555 94.2781Z" fill="#BEDEDE"/>
<path d="M197.002 116.955C195.703 115.619 194.278 114.454 192.527 113.838C192.527 113.004 192.527 112.351 192.527 111.636C193.971 111.001 194.862 113.217 196.192 112.32C196.848 112.963 197.377 113.489 197.907 114.005C197.907 114.395 197.907 114.767 197.907 115.143C197.907 115.899 197.907 116.652 197.907 117.408C197.603 117.259 197.305 117.105 197.002 116.955Z" fill="#BEDEDE"/>
<path d="M154.636 98.75C155.237 99.0128 155.789 99.253 156.386 99.5158C157.26 101.292 158.368 102.969 158.011 105.23C157.07 105.044 156.414 104.559 156.328 103.73C156.264 103.109 155.943 102.796 155.586 102.448C154.563 101.451 154.224 100.282 154.636 98.75Z" fill="#A8D1D8"/>
<path d="M29.6051 125.113C29.4015 125.394 29.1572 125.652 29.0034 125.961C28.8541 126.26 28.7953 126.604 28.7003 126.926C28.4243 126.876 28.1438 126.844 27.8769 126.772C27.5466 126.686 27.2209 126.572 26.8906 126.473C27.6688 125.77 28.5012 125.163 29.6051 125.113Z" fill="#B4B4B4"/>
<path d="M182.974 132.815C182.219 132.965 181.468 133.119 180.712 133.268C180.712 132.892 180.712 132.521 180.712 132.199C179.45 130.346 177.306 129.906 175.405 128.769C174.283 128.678 172.98 128.538 171.904 129.625C171.7 129.435 171.497 129.244 171.293 129.054C171.831 127.45 173.266 126.603 174.397 125.275C174.668 124.926 173.867 124.056 174.831 123.748C175.424 124.201 175.985 124.7 176.613 125.098C177.776 125.832 178.875 126.621 179.848 127.613C180.911 128.696 182.101 129.652 183.422 130.835C183.422 131.197 183.422 131.777 183.422 132.357C183.277 132.511 183.124 132.666 182.974 132.815Z" fill="#E10B17"/>
<path d="M160.808 139.16C160.808 138.938 160.808 138.711 160.808 138.457C160.234 138.267 159.646 138.077 158.94 137.845C157.587 139.286 156.528 136.998 155.094 137.37C155.022 137.587 154.936 137.85 154.805 138.258C154.429 138.258 153.999 138.258 153.574 138.258C153.425 137.723 153.28 137.193 153.117 136.618C153.642 136.713 154.203 136.994 154.633 136.858C155.479 136.59 156.252 136.096 157.144 135.652C158.727 135.476 160.446 135.281 162.17 135.086C162.727 135.72 162.595 136.55 162.645 137.288C163.138 137.343 163.491 137.379 163.613 137.392C163.337 137.669 162.957 138.049 162.301 138.706C162.138 138.747 161.473 138.956 160.808 139.16Z" fill="#E10B17"/>
</svg>
