<svg width="276" height="246" viewBox="0 0 276 246" fill="none" xmlns="http://www.w3.org/2000/svg">
<path d="M271.301 134.801C272.206 135.113 272.721 135.29 273.377 135.517C272.834 136.84 274.246 137.896 273.427 139.287C272.929 138.897 272.482 138.548 272.083 138.24C271.844 137.193 271.627 136.233 271.301 134.801Z" fill="#A8D1D8"/>
<path d="M274.841 140.723C274.981 141.085 275.117 141.448 275.257 141.815C275.338 141.738 275.424 141.661 275.506 141.588C275.506 142.186 275.506 142.784 275.506 143.478C275.243 143.7 274.922 143.967 274.384 144.416C274.058 143.337 273.8 142.494 273.547 141.652C273.692 141.706 273.836 141.76 273.981 141.815C274.121 141.452 274.257 141.09 274.397 140.727C274.547 140.723 274.691 140.723 274.841 140.723Z" fill="#BEDEDE"/>
<path d="M275.446 149.02C274.826 148.544 274.555 148.336 274.238 148.091C274.238 147.402 274.238 146.7 274.238 145.789C274.731 146.043 275.075 146.224 275.446 146.414C275.446 147.176 275.446 147.873 275.446 149.02Z" fill="#A8D1D8"/>
<path d="M21.7181 131.883C21.7181 132.25 21.7181 132.617 21.7181 132.884C20.406 134.416 19.1438 135.888 17.9178 137.32C17.4789 137.32 17.1079 137.32 16.7415 137.32C16.5922 137.171 16.4384 137.017 16.2891 136.867C16.2891 136.11 16.2891 135.358 16.2891 134.601C16.4067 133.695 17.3251 133.709 17.859 133.301C18.9312 132.481 20.112 131.815 20.6684 130.469C20.7589 130.251 21.0847 130.138 21.5145 129.816C21.6095 130.351 21.6638 130.664 21.7226 130.976C21.7181 131.28 21.7181 131.579 21.7181 131.883Z" fill="#BEDEDE"/>
<path d="M11.7667 145.022C11.8029 143.826 12.5539 143.046 13.2732 142.385C13.7121 142.385 14.0649 142.385 14.6531 142.385C13.5311 144.224 12.7665 146.073 11.0428 147.242C10.4909 146.554 11.1152 146.046 11.3143 145.475C11.4635 145.326 11.6174 145.171 11.7667 145.022Z" fill="#A8D1D8"/>
<path d="M55.1999 20.4138C55.0687 19.6526 55.6252 18.7554 54.6797 18.3023C55.3221 16.8205 55.6795 15.366 57.0096 14.5232C57.5208 14.3737 58.0321 14.2241 58.6926 14.0293C58.7379 14.5141 58.7786 14.9718 58.8193 15.4295C58.67 15.579 58.5162 15.733 58.3669 15.8826C58.2176 16.0593 57.9687 16.2224 57.9371 16.4173C57.8692 16.8341 57.9144 17.2691 57.9144 17.6951C57.0413 17.908 57.6339 18.6104 57.462 19.0545C57.3127 19.204 57.1589 19.358 57.0096 19.5076C56.7744 19.8066 56.5391 20.1057 56.2993 20.4138C55.9419 20.4138 55.5709 20.4138 55.1999 20.4138Z" fill="#D9D9D9"/>
<path d="M35.7454 111.491C35.4694 111.541 35.0713 111.491 34.9356 111.659C34.2615 112.479 33.6779 113.367 33.0219 114.205C32.4201 114.971 32.5876 115.846 32.5876 116.58C31.2303 117.441 29.9319 118.265 28.4661 119.199C28.1856 119.199 27.6653 119.199 27.1495 119.199C26.7242 119.199 26.2899 119.244 25.8737 119.176C25.6792 119.144 25.5163 118.895 25.3398 118.746C25.3398 118.596 25.3398 118.442 25.3398 118.293C25.4484 118.143 25.5208 117.912 25.6656 117.853C26.4528 117.522 27.2581 117.237 28.0543 116.933C28.7194 116.729 29.3845 116.521 29.5428 116.471C30.1988 115.814 30.5788 115.433 30.8548 115.157C30.7326 115.143 30.3798 115.107 29.8866 115.053C29.8369 114.319 29.9681 113.489 29.4116 112.851C29.1085 112.248 28.8099 111.641 28.5068 111.038C28.7058 110.744 28.9049 110.444 29.1175 110.127C29.855 110.603 30.5517 111.056 31.3977 111.604C31.9315 110.617 33.1938 110.005 32.1804 108.487C31.8365 107.97 32.1261 107.028 32.1261 106.774C31.8501 105.51 31.1941 105.143 30.5788 104.694C29.9816 104.259 29.5066 103.657 29.0632 103.213C29.2804 102.927 29.493 102.642 29.6514 102.433C31.0086 102.37 32.022 103.045 32.4518 103.978C33.0038 105.184 33.9267 105.614 34.9582 106.067C35.9671 104.898 36.9579 103.743 38.012 102.519C38.012 102.266 38.012 101.889 38.012 101.513C38.4644 101.21 38.9168 100.911 39.3693 100.607C40.0705 100.68 40.5501 100.417 40.7265 99.7009C41.2785 99.2704 41.8259 98.8399 42.5362 98.2871C42.5362 98.994 42.5362 99.574 42.5362 100.154C42.3869 100.607 42.2331 101.06 42.0838 101.513C41.1246 101.817 41.9209 102.687 41.6494 103.04C40.5184 104.368 39.0842 105.22 38.5459 106.819C38.7495 107.01 38.9531 107.2 39.1566 107.39C40.2334 106.303 41.5363 106.443 42.6583 106.534C44.5585 107.671 46.7029 108.106 47.9652 109.964C47.9652 110.281 47.9652 110.657 47.9652 111.034C47.6801 111.428 47.3951 111.822 47.1146 112.216C48.7162 112.724 50.3539 112.977 52.0369 112.846C52.5029 112.996 53.0186 113.363 53.4213 113.263C54.9776 112.869 56.733 112.864 57.8278 111.364C57.9455 111.201 58.1536 111.106 58.4205 110.907C59.5696 111.736 61.1124 111.845 62.0081 113.136C62.0081 114.319 62.0081 115.524 62.0081 116.711C63.2116 117.83 62.8316 119.294 62.9085 120.59C62.5556 121.261 62.2298 121.877 61.9041 122.498C62.4379 124.079 63.7997 125.357 63.2975 127.192C62.8361 127.935 61.4426 127.795 61.4698 129.245C60.8726 129.095 60.3568 128.964 59.8139 128.823C59.8139 127.219 59.8139 125.81 59.8139 124.473C59.3118 123.97 58.8865 123.544 58.4657 123.123C57.9319 121.451 59.1398 120.105 59.3208 118.555C59.5018 117.015 59.9542 115.506 60.3161 113.856C59.5334 113.856 58.882 113.856 57.8912 113.856C57.8097 113.961 57.5835 114.382 57.2352 114.64C56.733 115.012 56.1675 115.325 55.5839 115.547C55.0002 115.773 54.3533 115.846 53.7471 116.022C53.2132 116.176 52.5391 116.235 52.1952 116.598C51.0597 117.799 49.6889 117.975 48.1642 117.794C47.6982 117.078 46.5491 117.341 46.16 116.471C45.9791 116.321 45.8026 116.054 45.6126 116.041C44.8933 115.991 44.1694 116.018 43.4455 116.018C42.4955 116.095 41.5589 116.022 40.8034 115.384C40.5048 115.13 40.3691 114.69 40.1565 114.337C40.5455 113.77 40.8622 113.308 41.1789 112.846C41.3282 112.846 41.482 112.846 41.6313 112.846C43.0836 112.733 44.5811 112.212 45.1512 111.614C45.0969 111.573 45.038 111.491 44.9837 111.491C44.1694 111.482 43.3505 111.487 42.5362 111.487C42.2331 111.487 41.9345 111.487 41.6313 111.487C41.3554 111.437 41.0749 111.405 40.8079 111.333C40.4777 111.246 40.1519 111.133 39.8217 111.034C38.9757 110.395 37.9532 110.395 37.1072 111.034C37.0891 111.378 37.0077 111.586 36.6548 111.26C36.3019 110.934 36.2204 111.142 36.2024 111.487C36.0485 111.491 35.8947 111.491 35.7454 111.491Z" fill="#BEDEDE"/>
<path d="M52.0315 97.444C52.7328 98.3457 52.4342 99.3969 52.4704 100.285C52.1944 100.779 51.9637 101.191 51.6379 101.776C49.5523 99.9135 47.5933 98.1644 45.6751 96.4471C45.856 95.79 46.0053 95.2599 46.1501 94.7252C46.8106 94.3899 47.3807 93.973 47.5436 93.2707C47.2676 92.5185 46.227 93.4111 46.1501 92.4596C46.1501 92.3101 46.1501 92.156 46.1501 92.0065C46.0008 91.8569 45.847 91.7029 45.6977 91.5533C45.8108 90.7105 45.9284 89.8722 46.0551 88.9297C45.7249 88.8754 45.3086 88.8074 44.7069 88.7122C45.6615 86.9269 45.2588 85.2594 44.4219 83.601C44.5576 83.3654 44.7205 83.0663 45.001 82.5679C45.2905 82.4501 45.8922 81.9652 46.3085 82.0966C47.2766 82.3911 48.3126 82.3322 49.2265 82.6811C49.9459 82.953 50.5431 83.5376 51.0317 83.8774C51.5203 86.0524 49.8283 87.6383 50.2309 89.4916C49.0501 90.8465 49.1225 92.0699 50.0228 93.4746C50.5069 94.2268 51.0724 94.9064 51.57 95.636C51.57 95.7855 51.57 95.9396 51.57 96.0891C51.7193 96.2386 51.8732 96.3927 52.0225 96.5422C52.0315 96.8413 52.0315 97.1404 52.0315 97.444Z" fill="#BEDEDE"/>
<path d="M187.471 205.76C186.603 205.47 185.906 206.743 184.879 205.864C185.399 205.343 185.802 204.668 186.385 204.428C187.263 204.065 187.29 203.413 187.385 202.679C188.367 202.756 188.77 200.966 190.027 201.868C189.869 202.045 189.724 202.199 189.543 202.398C189.837 202.502 190.1 202.593 190.362 202.683C190.765 203.449 190.308 204.319 189.792 204.301C188.571 204.26 188.218 205.303 187.471 205.76Z" fill="#A8D1D8"/>
<path d="M195.9 196.678C195.9 197.503 195.9 198.328 195.9 199.37C195.385 199.547 194.728 199.642 194.24 199.977C193.774 200.294 193.484 200.865 192.865 201.636C192.783 200.734 192.738 200.244 192.684 199.624C193.43 198.962 194.213 198.273 194.995 197.58C195.869 197.367 195.276 196.665 195.448 196.221C195.597 196.375 195.751 196.529 195.9 196.678Z" fill="#A8D1D8"/>
<path d="M229.969 224.94C229.72 225.33 229.431 225.774 229.114 226.263C228.793 226.077 228.562 226.018 228.449 225.864C227.992 225.239 227.571 224.591 227.105 223.907C227.295 223.046 227.902 222.842 228.675 222.978C229.083 223.594 229.467 224.174 229.969 224.94Z" fill="#A8D1D8"/>
<path d="M198.293 192.482C198.877 191.771 199.279 191.277 199.619 190.855C200.225 190.855 200.736 190.855 201.22 190.855C201.265 191.059 201.369 191.241 201.315 191.331C200.709 192.396 199.777 192.682 198.293 192.482Z" fill="#B4B4B4"/>
<path d="M195.445 196.679C195.296 196.53 195.142 196.376 194.993 196.226C194.884 195.406 195.336 195.03 196.142 194.799C196.558 195.71 196.39 196.326 195.445 196.679Z" fill="#B4B4B4"/>
<path d="M12.6722 122.819C13.4549 122.61 13.6358 122.035 13.5679 121.179C13.301 120.975 12.9527 120.703 12.6812 120.499C12.6812 119.901 12.6812 119.457 12.6812 118.99C13.3915 118.618 14.1199 118.238 14.8528 117.853C16.5675 118.709 18.4088 118.093 20.0285 118.288C20.9288 117.83 20.8202 117.132 20.8111 116.471C20.8111 116.321 20.8111 116.167 20.8111 116.017C21.2364 116.017 21.6662 116.017 22.0417 116.017C22.1774 115.61 22.2589 115.351 22.3313 115.129C23.7699 114.758 24.8286 117.046 26.1768 115.605C26.8826 115.836 27.4662 116.027 28.0453 116.217C28.0453 116.471 28.0453 116.697 28.0453 116.919C27.249 117.223 26.4437 117.508 25.6565 117.839C25.5117 117.898 25.4393 118.129 25.3308 118.279C25.2041 118.328 25.0819 118.378 24.9553 118.428C25.0819 118.528 25.2041 118.632 25.3308 118.732C25.5072 118.881 25.6701 119.13 25.8646 119.162C26.2809 119.23 26.7151 119.185 27.1404 119.185C27.2083 120.064 27.2083 121.011 26.6337 121.668C26.0863 122.293 26.299 122.896 26.2628 123.526C26.8057 123.698 27.3304 123.87 28.2579 124.169C28.8687 124.169 29.9183 124.169 31.0131 124.169C31.8275 125.175 32.6463 126.099 31.7189 127.599C31.3841 128.143 31.6646 129.072 31.6646 129.82C30.5652 131.075 30.0042 132.294 29.9409 133.549C30.2033 133.639 30.4657 133.735 30.701 133.816C30.7281 133.934 30.7552 134.002 30.7552 134.074C30.7598 134.75 30.7552 135.429 30.7597 136.109C30.434 136.49 30.1083 136.87 29.7192 137.323C30.2847 137.736 30.7733 138.094 31.2484 138.443C30.3254 140.273 30.9905 142.14 30.6828 144.052C32.3296 143.871 32.9766 145.557 34.3791 145.548C34.3791 145.924 34.3791 146.146 34.3791 146.372C33.4788 147.011 32.3161 146.78 31.3751 147.279C30.7598 147.605 30.0902 147.868 29.5473 148.294C28.285 149.277 27.0861 150.342 25.8691 151.37C25.1046 151.316 24.8964 150.142 23.978 150.45C23.978 150.224 23.978 149.997 23.978 149.793C23.4578 149.571 22.9556 149.336 22.4353 149.145C22.2362 149.073 21.9874 149.055 21.7793 149.105C21.1323 149.259 20.594 150.024 19.8158 149.263C19.2956 148.756 18.4857 149.182 17.7709 148.729C17.1285 148.321 16.0291 148.642 15.165 148.642C14.1697 149.263 13.197 149.834 12.256 150.464C11.4642 150.99 10.5956 150.913 9.72694 150.908C9.19761 148.366 7.11652 148.022 5.04898 147.605C5.00826 147.256 4.96755 146.902 4.91326 146.458C4.34321 146.286 3.75053 146.042 3.13977 145.946C2.57425 145.856 1.98612 145.928 1.1763 145.928C1.61062 145.017 1.94087 144.342 2.24399 143.708C2.03136 143.078 1.82778 142.484 1.62871 141.891C1.4206 141.85 1.21701 141.809 1.08128 141.778C0.737444 140.717 0.416223 139.725 0 138.443C0.592665 137.672 1.33917 136.712 2.22591 135.565C2.56522 133.812 1.71467 131.677 2.80951 129.752C3.33884 129.589 3.86817 129.425 4.50607 129.226C4.50607 128.546 4.50607 127.989 4.50607 127.318C4.773 127.472 4.96754 127.54 4.95849 127.586C4.82276 128.764 5.28876 129.702 6.09406 130.517C6.39717 130.517 6.70027 130.517 7.12102 130.517C8.09824 129.099 8.49638 127.382 9.26097 125.674C10.5232 125.279 11.8759 124.686 12.6631 123.267C12.6722 123.122 12.6722 122.968 12.6722 122.819ZM16.2915 136.866C16.4408 137.015 16.5946 137.169 16.7439 137.319C17.1104 137.319 17.4768 137.319 17.9202 137.319C19.1508 135.882 20.4085 134.414 21.7205 132.883C21.7205 132.62 21.7205 132.248 21.7205 131.881C21.8698 131.768 22.0236 131.655 22.1729 131.537C22.0236 131.351 21.8698 131.161 21.7205 130.975C21.6662 130.662 21.6074 130.35 21.5124 129.815C21.0826 130.137 20.7568 130.25 20.6664 130.468C20.1144 131.809 18.9291 132.475 17.8569 133.3C17.323 133.707 16.4091 133.694 16.287 134.6C15.64 135.339 15.64 136.127 16.2915 136.866ZM11.7673 145.022C11.618 145.172 11.4642 145.326 11.3149 145.475C11.1159 146.046 10.4915 146.554 11.0435 147.242C12.7627 146.073 13.5272 144.224 14.6538 142.385C14.0656 142.385 13.7127 142.385 13.2739 142.385C12.5546 143.051 11.8035 143.826 11.7673 145.022Z" fill="#D9D9D9"/>
<path d="M96.822 74.3345C96.9713 74.3345 97.1252 74.3345 97.2745 74.3345C97.4237 74.484 97.5776 74.638 97.7269 74.7876C97.8762 74.9371 98.03 75.0912 98.1793 75.2407C98.1793 75.3902 98.1793 75.5443 98.1793 75.6938C98.03 75.8434 97.8762 75.9974 97.7269 76.147C97.7269 76.4505 97.7269 76.7496 97.7269 77.0532C96.4601 76.8493 95.32 77.3296 94.1528 77.6876C92.5784 78.1679 91.0175 78.1588 89.4703 77.5018C88.7419 78.0138 88.0542 78.553 88.2035 79.6451C86.0545 80.216 84.3218 79.0968 82.5031 78.3265C82.3312 77.9821 82.1502 77.6105 81.9602 77.2254C82.0552 77.1121 82.1909 76.9581 82.3764 76.7406C82.1095 76.6726 81.9104 76.6227 81.648 76.5548C81.5485 76.8402 81.4625 77.0985 81.3177 77.5109C80.0419 77.5109 78.7073 77.5109 77.3727 77.5109C76.6352 76.8584 75.848 76.8584 75.1106 77.5109C74.9115 77.8099 74.7125 78.1045 74.5179 78.3945C74.0293 78.3945 73.586 78.3945 72.9978 78.3945C71.9482 77.0034 70.5412 75.8705 69.0663 74.7604C67.8041 73.8088 66.8812 72.3951 65.7908 71.1671C65.0851 71.1671 64.3295 71.1671 64.0174 71.1671C62.8637 70.714 62.0855 70.4059 61.0767 70.0116C60.3664 69.1598 59.1222 68.403 58.5431 67.0527C58.4346 66.7945 57.9821 66.6449 57.9459 66.4048C57.6202 64.3476 55.9146 62.7888 55.7427 60.786C55.6115 59.2635 54.6207 58.3618 54.0823 57.1565C53.8244 56.581 53.3584 56.1007 52.9648 55.5479C52.9648 54.832 52.9648 54.0843 52.9648 53.3774C53.3449 52.8427 53.7159 52.3216 54.114 51.7598C54.2588 51.8912 54.4578 52.077 54.7338 52.3307C54.7338 52.9288 54.7338 53.5859 54.7338 54.1341C55.8332 55.3938 57.1723 56.2729 57.8962 57.8634C57.6881 59.8118 58.8463 61.3706 59.9094 62.9701C60.303 63.5591 60.8866 64.1029 61.054 64.7509C61.5517 66.7084 63.1623 67.3473 64.7186 67.9681C65.9492 68.4574 67.2974 68.6523 68.6365 68.9876C69.184 69.5359 69.7721 70.1249 70.3602 70.714C70.6543 70.714 70.9529 70.714 71.2696 70.714C71.8351 71.3031 72.4097 71.8966 72.7037 72.2002C73.8981 72.6941 74.7306 73.0385 75.6082 73.4056C77.1419 72.5356 78.8838 73.1835 80.5441 72.9887C80.8472 72.8391 81.1458 72.6851 81.449 72.5356C81.5168 72.6851 81.5802 72.8301 81.6254 72.9298C81.9059 72.7757 82.1321 72.6534 82.3538 72.5356C82.6569 72.5356 82.9555 72.5356 83.2586 72.5356C83.3401 73.4871 84.3806 72.5945 84.6702 73.392C84.4078 73.759 84.091 74.1985 83.7789 74.6426C83.9056 74.697 84.0368 74.7468 84.1634 74.8012C84.2042 75.4809 84.7244 75.1863 85.0683 75.2543C85.679 75.3676 86.2853 75.4809 86.8779 75.5941C87.4706 75.4854 88.0768 75.3676 88.6876 75.2543C88.8369 75.2543 88.9907 75.2543 89.14 75.2543C90.1127 76.002 91.2438 75.6168 92.3069 75.7074C92.6508 75.6395 93.171 75.934 93.2118 75.2543C93.6642 75.1048 94.1166 74.9507 94.569 74.8012C95.1436 74.8012 95.7227 74.8374 96.2882 74.7785C96.4737 74.7468 96.6411 74.484 96.822 74.3345Z" fill="#BEDEDE"/>
<path d="M70.2344 58.852C69.7322 56.1605 67.7868 54.5791 66.0586 52.8119C66.2396 52.2319 66.425 51.6337 66.6739 50.8362C67.0539 50.8181 67.6058 50.7864 67.8547 50.7773C69.0536 52.0008 70.0625 53.0248 71.0126 53.9945C71.0126 54.7331 71.0126 55.3267 71.0126 55.9792C71.5962 56.5139 72.1979 57.0667 72.7905 57.6105C72.6051 58.0591 72.4557 58.417 72.2748 58.852C71.6685 58.852 71.0125 58.852 70.2344 58.852Z" fill="#BEDEDE"/>
<path d="M81.9595 55.6115C81.308 56.0012 80.7063 56.3637 79.8602 56.8712C79.72 56.5178 79.5752 56.1598 79.4304 55.8064C79.3807 55.8744 79.3309 55.9423 79.2811 56.0148C79.1499 55.1811 79.0188 54.3473 78.8242 53.1148C79.0866 52.4351 79.9462 52.5167 80.7243 52.6255C81.1225 53.5861 81.4889 54.4787 81.9595 55.6115Z" fill="#A8D1D8"/>
<path d="M57.957 104.423C58.1651 104.215 58.3461 103.952 58.5995 103.811C58.7668 103.716 59.0338 103.793 59.4817 103.793C60.3594 104.654 61.2913 105.814 62.8793 105.655C62.8793 106.118 62.8793 106.412 62.8793 106.802C61.7754 107.282 60.9384 106.371 59.9974 106.226C58.7352 106.032 58.414 105.266 57.957 104.423Z" fill="#A8D1D8"/>
<path d="M105.361 105.189C105.361 105.62 105.361 105.973 105.361 106.381C104.366 107.115 103.298 107.754 101.887 107.962C101.887 107.324 101.887 106.825 101.887 106.154C103.072 106.327 103.932 104.945 105.361 105.189Z" fill="#A8D1D8"/>
<path d="M270.426 171.163C270.734 170.569 270.797 169.849 270.942 169.296C269.16 167.864 267.458 166.5 265.522 164.946C264.224 164.792 262.785 165.535 261.265 165.866C260.894 165.49 260.518 165.118 260.175 164.774C260.075 162.581 258.799 160.582 259.32 158.308C259.704 157.923 260.129 157.497 260.636 156.989C260.636 156.409 260.636 155.752 260.636 155.412C261.215 154.492 261.627 153.831 262.048 153.165C261.387 152.059 260.772 151.03 260.08 149.88C261.355 148.289 263.301 147.791 265.115 147.066C265.115 146.01 265.115 144.95 265.115 144.016C264.509 143.169 263.957 142.408 263.36 141.574C263.36 141.021 263.36 140.364 263.36 139.548C263.975 139.548 264.531 139.548 265.043 139.548C266.146 137.863 266.649 136.182 266.454 134.328C266.78 134.201 267.038 134.102 267.377 133.975C267.377 130.78 267.377 127.554 267.377 124.409C267.721 124.065 267.988 123.798 268.214 123.571C268.277 121.505 269.784 119.706 269.06 117.554C267.82 116.792 266.499 115.977 265.02 115.07C264.31 115.07 263.414 115.07 262.894 115.07C262.229 114.586 261.808 114.278 261.36 113.951C261.582 113.299 261.767 112.769 261.934 112.279C260.632 110.766 259.342 109.275 257.858 107.553C256.881 109.026 255.533 109.397 253.832 109.184C252.931 110.594 252.008 112.035 251.049 113.539C251.049 114.155 251.049 114.812 251.049 115.406C250.393 115.705 249.823 115.963 249.457 116.131C248.62 117.708 250.719 118.65 250.054 120.1C249.203 120.1 248.448 120.1 247.729 120.1C246.24 118.759 244.281 119.43 242.562 118.614C242.562 119.633 242.562 120.445 242.562 121.174C242.055 121.682 241.63 122.108 241.313 122.425C241.141 122.955 240.956 123.349 240.897 123.761C240.82 124.314 240.603 125.057 240.861 125.406C241.843 126.734 241.562 128.143 241.576 129.648C240.151 129.648 238.893 129.648 237.816 129.648C236.694 130.653 235.717 131.533 234.83 132.326C233.695 132.344 232.749 132.248 231.881 132.774C231.044 133.282 230.089 133.286 229.134 133.245C228.456 133.214 227.777 133.25 227.098 133.232C226.972 133.227 226.845 133.128 226.519 132.983C226.397 132.584 226.234 132.054 226.058 131.487C224.664 131.27 223.244 131.048 221.633 130.794C222.19 129.122 220.638 128.22 220.045 126.893C218.444 126.951 218.421 125.012 217.172 124.609C214.874 126.018 213.874 124.183 212.789 122.683C212.259 122.878 211.87 123.023 211.205 123.263C210.454 123.263 209.4 123.263 208.332 123.263C207.296 122.524 206.342 121.441 205.174 121.124C203.88 120.771 202.826 119.665 201.32 120.123C201.32 118.106 201.338 116.303 201.311 114.495C201.297 113.571 201.542 112.778 202.234 112.161C202.568 111.862 202.939 111.609 203.401 111.251C202.41 110.199 202.727 108.487 201.012 108.219C200.944 108.21 200.913 107.975 200.822 107.743C201.152 107.354 201.514 106.928 201.994 106.366C201.582 106.081 201.284 105.872 200.904 105.609C200.447 105.609 199.849 105.609 198.963 105.609C198.669 105.981 198.248 106.502 197.927 106.901C197.329 106.901 196.891 106.901 196.33 106.901C195.814 106.325 195.267 105.709 194.728 105.102C193.38 105.324 192.43 104.703 191.593 103.783C190.779 103.783 189.951 103.81 189.127 103.77C188.788 103.751 188.39 103.67 188.132 103.47C187.245 102.795 186.227 102.872 185.236 102.881C184.404 102.256 183.599 101.653 183.106 101.286C180.608 100.584 178.468 99.7594 176.025 100.276C175.84 100.575 175.577 100.996 175.279 101.477C174.863 101.477 174.356 101.477 173.894 101.477C173.582 101.164 173.315 100.897 172.985 100.566C172.243 100.625 171.266 100.43 170.664 100.811C169.37 101.635 168.04 101.536 166.565 101.486C166.172 100.956 165.746 100.376 165.176 99.6008C164.154 99.7685 162.95 99.9588 161.489 100.199C161.2 100.561 160.783 101.083 160.494 101.445C159.919 101.644 159.322 101.223 159.241 101.975C159.241 102.501 159.241 103.031 159.241 103.575C159.765 104.096 160.326 104.599 160.82 105.165C161.191 105.591 161.693 106.071 161.742 106.57C161.91 108.169 162.842 109.438 163.389 110.87C164.869 111.482 165.611 112.587 165.574 114.21C165.574 114.359 165.574 114.513 165.574 114.663C165.403 115.632 164.077 114.64 163.796 115.632C163.796 116.475 163.796 117.318 163.796 118.288C163.249 118.288 162.828 118.288 162.408 118.288C162.258 118.437 162.104 118.591 161.955 118.741C161.914 119.421 161.394 119.126 161.05 119.194C161.367 120.177 160.847 121.079 160.53 121.885C160.195 122.746 160.182 123.553 160.145 124.278C159.544 125.116 159.005 125.873 158.345 126.793C158.345 127.391 158.345 128.193 158.345 128.818C157.879 129.729 157.182 129.62 156.526 129.616C156.377 129.765 156.223 129.919 156.074 130.069C156.074 130.291 156.074 130.508 156.074 130.862C154.418 131.252 153.282 130.563 152.454 129.163C152.305 129.013 152.151 128.859 152.002 128.71C151.278 128.71 150.554 128.741 149.835 128.687C149.645 128.673 149.468 128.406 149.287 128.256C148.944 128.188 148.423 128.483 148.383 127.803C147.93 127.803 147.478 127.803 147.025 127.803C146.876 127.803 146.722 127.803 146.573 127.803C146.424 127.654 146.27 127.5 146.121 127.35C145.229 127.414 144.284 127.119 143.478 127.781C143.442 127.808 143.135 127.5 142.954 127.35C142.61 127.282 142.09 127.577 142.049 126.897C140.995 126.897 139.936 126.897 138.882 126.897C138.43 126.748 137.977 126.593 137.525 126.444C136.923 126.444 136.317 126.444 135.715 126.444C135.258 127.065 134.815 127.065 134.358 126.444C134.208 126.294 134.055 126.14 133.905 125.991C133.756 125.841 133.602 125.687 133.453 125.538C133.322 125.538 133.195 125.538 133.064 125.538C132.548 124.994 131.711 124.323 131.661 123.929C131.584 123.34 131.643 122.737 131.643 122.153C130.503 121.002 129.874 119.846 130.598 118.115C130.969 117.227 130.729 116.067 130.734 115.034C130.738 114.173 130.784 113.349 131.643 112.85C131.643 112.093 131.643 111.341 131.643 110.585C130.892 109.606 130.906 109.601 130.711 108.432C129.978 107.825 129.146 107.132 128.39 106.506C127.653 106.506 127.051 106.506 126.431 106.506C126.02 106.928 125.599 107.358 125.092 107.879C123.749 107.685 122.337 107.485 121.224 107.322C120.527 106.751 120.016 106.33 119.469 105.881C119.469 105.247 119.469 104.59 119.469 103.901C121.079 103.199 122.672 102.501 124.405 101.744C124.409 100.901 124.264 99.841 125.309 99.2474C125.309 97.7385 125.309 96.225 125.309 94.7161C125.309 94.1135 125.309 93.5063 125.309 92.9036C123.645 92.3372 122.124 91.2588 120.215 91.5171C119.84 91.5669 119.424 91.2905 118.935 91.1364C117.858 91.6031 117.858 91.6032 115.809 91.0866C115.809 91.1591 115.822 91.2996 115.809 91.2996C114.66 91.5488 113.506 91.7889 112.189 92.0608C112.189 91.6394 112.189 91.363 112.189 91.0866C112.04 90.9371 111.886 90.783 111.737 90.6335C111.588 90.4839 111.434 90.3299 111.285 90.1803C111.022 90.1803 110.755 90.1803 110.38 90.1803C110.38 89.8042 110.38 89.5369 110.38 89.2741C110.054 89.1744 109.611 89.1744 109.416 88.9524C108.525 87.9283 107.701 86.8408 106.756 85.6536C106.756 85.5539 106.756 85.2594 106.756 84.8788C106.362 84.8108 105.955 84.7383 105.548 84.6658C105.53 83.8819 104.231 83.8819 104.494 82.9303C103.707 82.9122 102.87 83.1207 102.223 82.3594C101.72 82.7763 101.291 83.1388 100.644 83.678C100.535 83.1025 100.481 82.7899 100.422 82.4772C100.051 82.4772 99.6756 82.4772 99.2096 82.4772C98.626 80.6149 99.9334 78.97 99.9787 77.0397C99.1643 77.0397 98.436 77.0397 97.7076 77.0397C96.4408 76.8358 95.3007 77.3161 94.1335 77.6741C92.5591 78.1544 90.9982 78.1453 89.451 77.4883C88.7226 78.0003 88.0349 78.5396 88.1842 79.6316C86.0352 80.2025 84.3025 79.0833 82.4838 78.313C82.3118 77.9686 82.1309 77.5971 81.9409 77.2119C82.0359 77.0986 82.1716 76.9446 82.3571 76.7271C82.0902 76.6591 81.8911 76.6092 81.6287 76.5413C81.5292 76.8267 81.4432 77.085 81.2984 77.4974C80.0226 77.4974 78.688 77.4974 77.3534 77.4974C76.5978 77.4974 75.8468 77.4974 75.0913 77.4974C74.8922 77.7964 74.6932 78.091 74.4986 78.381C74.01 78.381 73.5666 78.381 72.9785 78.381C71.9289 76.9899 70.5219 75.8571 69.047 74.7469C67.7848 73.7953 66.8618 72.3816 65.7715 71.1536C65.0658 71.1536 64.3102 71.1536 63.9981 71.1536C62.8444 70.7005 62.0662 70.3924 61.0574 69.9982C60.3471 69.1463 59.1029 68.3896 58.5238 67.0392C58.4153 66.781 57.9628 66.6314 57.9266 66.3913C57.6009 64.3341 55.8953 62.7753 55.7234 60.7725C55.5922 59.25 54.6014 58.3483 54.063 57.143C53.8051 56.5675 53.3391 56.0872 52.9455 55.5344C52.9455 54.8185 52.9455 54.0708 52.9455 53.3639C53.3256 52.8292 53.6965 52.3082 54.0947 51.7463C54.2394 51.8777 54.4385 52.0635 54.7145 52.3172C54.7145 52.9153 54.7145 53.5724 54.7145 54.1207C55.8138 55.3803 57.153 56.2594 57.8769 57.8499C57.6687 59.7983 58.8269 61.3571 59.8901 62.9566C60.2837 63.5456 60.8673 64.0894 61.0347 64.7374C61.5324 66.6949 63.143 67.3338 64.6993 67.9546C65.9299 68.4439 67.2781 68.6388 68.6172 68.9741C69.1647 69.5224 69.7528 70.1114 70.3409 70.7005C70.635 70.7005 70.9336 70.7005 71.2503 70.7005C71.8158 71.2896 72.3904 71.8832 72.6844 72.1867C73.8788 72.6807 74.7113 73.025 75.5889 73.3921C77.1226 72.5221 78.8644 73.17 80.5248 72.9752C80.5248 72.7124 80.5248 72.445 80.5248 72.0689C80.9003 72.0689 81.1672 72.0689 81.4296 72.0689C81.4296 71.8469 81.4296 71.6203 81.4296 71.3938C82.8909 70.628 84.402 70.1024 86.1031 70.2292C86.6324 70.27 87.1844 70.0299 87.9399 69.8758C88.9488 70.995 90.1025 69.7942 91.2968 69.6492C91.6361 69.6085 91.9573 69.4499 92.2876 69.3456C92.74 69.3456 93.1924 69.3456 93.6449 69.3456C94.6221 68.3397 95.9115 68.4258 97.2778 68.4439C97.1466 67.3338 97.5447 66.3414 96.8615 65.3581C96.6942 65.118 96.3865 64.18 97.2597 63.9081C97.9338 63.3508 98.6938 62.8886 99.0196 61.9733C99.0874 61.7739 99.6439 61.7513 99.9742 61.6425C100.196 60.7363 100.969 60.7499 101.725 60.6366C101.725 59.8255 101.725 59.0235 101.725 58.5205C101.304 57.4285 100.979 56.5902 100.644 55.7338C98.8431 54.7913 98.1012 53.228 98.1645 51.2206C97.3004 50.6905 97.219 49.8477 97.2597 48.955C96.9158 48.8871 96.3956 49.1816 96.3548 48.5019C96.2055 48.3524 96.0517 48.1983 95.9024 48.0488C95.2238 48.008 95.5179 47.4869 95.45 47.1425C95.3007 46.993 95.1469 46.8389 94.9976 46.6894C94.8483 46.5399 94.6945 46.3858 94.5452 46.2363C94.319 46.2363 94.0928 46.2363 93.8666 46.2363C93.7896 46.1185 93.6494 45.9961 93.6494 45.8783C93.6358 44.0658 93.6222 42.2578 93.6449 40.4453C93.6675 38.7371 93.2513 37.1647 92.1021 35.8824C91.2652 34.9535 91.1113 33.7708 91.4371 32.8011C92.1021 30.8164 91.6452 28.8589 91.8397 27.0238C90.9485 25.8185 89.7993 26.4891 88.8266 26.2942C87.9218 26.113 87.0305 25.8774 86.085 25.6553C85.8814 24.0558 85.6597 22.3385 85.4154 20.4172C85.7276 20.2314 86.0986 20.0139 86.5691 19.7421C85.7231 19.4656 85.1259 19.2663 84.5377 19.0714C84.1803 19.2346 83.8184 19.4022 83.2348 19.6741C83.2348 19.1575 83.2348 18.8766 83.2348 18.5957C83.0086 18.5957 82.7869 18.5957 82.4521 18.5957C82.2168 17.9069 81.9725 17.1819 81.7146 16.4161C81.131 16.1397 80.4072 16.4478 79.724 15.9267C78.9595 15.3467 77.9234 15.0567 76.9779 15.8633C76.8467 15.9766 76.5435 15.8769 76.2857 15.8769C74.9556 13.7789 74.6706 11.5677 75.7971 9.05284C76.5255 9.23409 77.376 9.45159 78.2039 9.65549C78.2627 9.92284 78.308 10.1267 78.3668 10.3896C78.8825 10.4167 79.3892 10.4439 79.9457 10.4756C80.1312 10.7521 80.3303 11.0466 80.5248 11.3411C80.8686 11.4091 81.3889 11.1146 81.4296 11.7942C81.8232 11.758 82.3661 11.9936 82.3571 11.2324C82.3571 11.1191 82.6376 11.0013 82.7869 10.888C83.2076 10.1358 83.9632 9.51049 83.7143 8.4819C83.6963 8.41393 83.9948 8.27346 84.1441 8.16924C84.1079 7.24487 84.3568 6.27065 83.6917 5.45049C83.2483 5.2783 82.5471 5.8719 82.3345 4.99737C81.882 4.99737 81.4296 4.99737 80.9772 4.99737C80.8279 5.1469 80.6741 5.30096 80.5248 5.45049C80.3755 5.60002 80.2217 5.75409 80.0724 5.90362C79.7919 6.20721 79.5657 6.61049 79.2173 6.78721C78.6699 7.06815 77.9506 7.07721 77.4755 7.43065C76.9733 7.80221 76.4169 7.83846 76.0278 7.6708C75.4125 7.40799 74.8379 7.22674 74.1729 7.25393C73.4988 7.28112 72.8247 7.25846 72.3768 7.25846C71.6303 6.89596 71.0693 6.61956 70.5038 6.35221C69.9202 6.08034 69.5582 5.68159 69.6668 4.99284C69.5175 4.84331 69.3637 4.68924 69.2144 4.53971C68.9972 4.53971 68.7801 4.53971 68.4498 4.53971C68.2553 3.50206 68.0562 2.43268 67.8572 1.36784C67.3685 1.3769 66.8618 1.46299 66.9116 0.670025C66.9252 0.461587 66.6447 0.230492 66.4999 0.00846062C65.7172 0.0220544 64.9029 -0.132006 64.2378 0.461587C64.2152 1.97502 64.1338 2.08831 62.8806 2.27409C62.5277 3.76487 63.4144 5.12424 63.333 6.64221C62.867 7.0319 62.3739 7.43971 61.9034 7.83393C60.9352 6.9594 62.1431 6.31143 61.926 5.51846C61.5324 5.51846 61.1795 5.51846 60.7769 5.51846C60.6095 5.68612 60.4013 5.89456 60.1208 6.17549C60.3471 7.24034 60.0213 8.35956 60.5507 9.54221C61.0121 10.5708 60.5235 11.8124 60.0439 13.0086C60.4104 13.285 60.7587 13.5433 61.1614 13.8424C60.7542 14.1142 60.4602 14.3136 60.1661 14.513C60.0982 14.8574 60.3923 15.3785 59.7137 15.4192C59.6458 15.7636 59.9399 16.2847 59.2612 16.3255C59.2612 17.1547 59.2612 17.9794 59.2612 18.8086C58.474 19.511 58.6505 20.9111 57.4516 21.3099C57.0082 22.4291 55.9812 22.4925 54.9633 22.7327C53.692 21.2963 53.4613 19.443 52.9591 17.7302C52.6922 16.8103 53.1129 15.9222 53.8096 15.1882C54.5018 14.4632 55.1036 13.6521 55.8953 12.7005C56.1396 12.7005 56.5694 12.7005 56.9947 12.7005C56.9947 12.0208 56.9947 11.3456 56.9947 10.5255C55.4655 9.44252 53.8368 8.45924 51.8688 8.63143C49.7153 10.3035 48.4123 12.8319 45.725 13.7744C45.725 14.4224 45.725 15.0749 45.725 15.7772C46.0417 15.9675 46.3312 16.2711 46.6524 16.3028C47.3944 16.3799 48.1545 16.3164 48.9055 16.3346C49.0322 16.3391 49.1498 16.4569 49.2357 16.5022C49.2357 16.8783 49.2357 17.2317 49.2357 17.4719C46.9691 18.0655 44.793 18.6319 42.445 19.2482C42.3454 19.5246 42.1826 19.9097 42.0694 20.3085C41.7663 21.3869 41.8252 22.6239 41.133 23.5257C39.8481 25.2067 38.4185 26.7791 37.025 28.3786C36.7988 28.6414 36.4505 28.7955 36.1654 29.013C35.704 29.371 35.2516 29.738 34.9032 30.0144C34.9032 31.1019 34.9032 32.0625 34.9032 32.9733C35.9845 33.5488 35.9845 33.5488 36.6133 35.8053C36.2921 35.8053 36.0116 35.8053 35.7311 35.8053C35.7311 36.1089 35.7311 36.408 35.7311 36.7116C35.7311 36.8611 35.7311 37.0152 35.7311 37.1647C36.0342 37.1647 36.3328 37.1647 36.636 37.1647C36.9798 37.2327 37.5001 36.9382 37.5408 37.6178C37.5408 37.7674 37.5408 37.9214 37.5408 38.071C37.6901 38.2205 37.8439 38.3746 37.9932 38.5241C38.6718 38.5649 38.3778 39.086 38.4456 39.4303C38.5949 39.5799 38.7487 39.7339 38.898 39.8835C39.0473 40.033 39.2012 40.1871 39.3505 40.3366C39.5721 40.3366 39.7983 40.3366 40.1286 40.3366C40.1738 40.5677 40.2236 40.8214 40.305 41.2428C39.7486 41.2428 39.3233 41.2428 38.898 41.2428C38.8483 41.5192 38.8528 41.8228 38.7351 42.0675C38.527 42.5025 37.9887 42.9375 38.0384 43.3136C38.2239 44.7999 37.4005 46.1321 37.5408 47.5866C38.4366 47.5503 38.8709 47.9264 38.9207 48.8735C38.9614 49.7163 39.8481 50.8808 40.7484 51.3974C40.5629 52.8655 40.3684 54.4197 40.2055 55.7157C40.7122 56.4769 41.0696 57.0116 41.4316 57.5553C41.6216 57.5553 41.8432 57.5553 42.0694 57.5553C42.4404 57.5553 42.8069 57.5553 43.1326 57.5553C43.8248 57.1475 44.1144 56.2413 45.1368 56.1597C45.1368 57.22 45.1368 58.2169 45.1368 59.3678C44.879 59.3678 44.603 59.3678 44.3315 59.3678C44.3315 59.7439 44.3315 60.12 44.3315 60.4961C43.2231 60.8767 42.9969 61.7921 42.9426 62.7074C41.8749 64.4836 39.7983 64.7374 38.2782 66.0197C40.0019 67.9002 40.771 70.0616 40.7122 72.513C41.0922 72.871 41.4768 73.2289 42.1373 73.8497C42.2323 73.8542 42.739 73.8814 43.2955 73.9132C43.481 74.185 43.6755 74.4841 43.8746 74.7786C45.259 74.8103 46.0507 75.8752 47.0415 76.5911C47.1908 76.7407 47.3446 76.8947 47.4939 77.0442C47.6432 77.0442 47.7971 77.0442 47.9464 77.0442C48.6566 77.23 48.9869 76.6817 49.3805 76.2785C50.1089 75.5353 50.9549 75.123 52.0181 75.2318C52.2081 75.0822 52.3981 74.8013 52.5926 74.7967C54.149 74.7605 55.7098 74.7786 57.2933 74.7786C57.5059 75.0958 57.7004 75.3903 57.8995 75.6849C58.2433 75.7528 58.7636 75.4583 58.8043 76.138C59.3699 76.3283 60.1661 76.351 60.4466 76.7407C60.8809 77.3478 61.8536 76.5322 61.9712 77.4974C62.1205 77.6469 62.2744 77.801 62.4237 77.9505C62.6589 78.1091 63.0887 78.2586 63.0978 78.4308C63.1701 79.9488 64.4143 81.145 64.2288 82.8261C65.3327 82.8261 66.432 82.8261 67.4636 82.8261C67.8481 83.3971 68.1558 83.8592 68.4634 84.3169C69.9247 84.2082 71.3136 84.2036 72.4085 85.4769C72.4401 86.8635 70.9019 87.9691 71.5534 89.546C71.2684 89.6411 71.0693 89.7046 70.7436 89.8133C70.4947 90.6244 70.2142 91.5442 69.9338 92.4505C69.6623 92.4505 69.4361 92.4505 69.2099 92.4505C69.1601 92.7269 69.1873 93.0577 69.0425 93.2707C68.6127 93.9232 68.0969 94.5167 67.6445 95.1557C67.3505 95.5725 66.9659 95.6858 66.4954 95.6224C66.3461 95.7719 66.1923 95.926 66.043 96.0755C66.1516 96.7733 65.7851 97.1721 65.5091 97.2989C63.989 97.1766 62.7584 96.9455 61.555 97.0407C60.9714 97.086 60.3787 97.5164 59.7092 97.4349C59.5599 97.5844 59.406 97.7385 59.2567 97.888C59.1075 98.0375 58.9536 98.1916 58.8043 98.3411C58.8043 98.5631 58.8043 98.7852 58.8043 99.125C57.9674 99.125 57.1259 99.125 56.1305 99.125C56.1305 98.5042 56.1305 97.8064 56.1305 97.0724C54.624 96.7189 53.3844 97.82 52.0181 97.4349C52.7193 98.3366 52.4207 99.3878 52.4569 100.276C52.181 100.77 51.9502 101.182 51.6245 101.767C49.5389 99.9044 47.5799 98.1553 45.6616 96.438C45.8426 95.781 45.9919 95.2508 46.1367 94.7161C45.8969 94.5756 45.6571 94.4352 45.2861 94.2222C43.9787 95.0424 42.255 95.3731 41.2642 96.6464C41.0606 97.7611 40.8841 98.7308 40.7077 99.7005C41.2596 99.27 41.8071 98.8396 42.5174 98.2867C42.5174 98.9936 42.5174 99.5736 42.5174 100.154C42.9924 100.081 43.3 100.33 43.6846 100.584C45.6073 101.871 47.8875 102.714 48.9598 105.02C48.9779 105.061 51.3802 106.534 51.4028 106.57C51.4707 106.688 51.5114 106.824 51.5657 106.95C51.5657 107.1 51.5657 107.254 51.5657 107.404C51.7919 107.404 52.0136 107.404 52.3529 107.404C52.3529 108.337 52.3529 109.284 52.3529 110.421C51.715 110.72 51.6471 111.858 50.6789 112.143C50.9187 112.773 51.9412 111.899 52.0181 112.841C52.4841 112.991 52.9998 113.358 53.4025 113.258C54.9588 112.864 56.7142 112.859 57.809 111.359C57.9266 111.196 58.1348 111.101 58.4017 110.902C59.5508 111.731 61.0935 111.84 61.9893 113.131C61.9893 114.314 61.9893 115.519 61.9893 116.706C63.1928 117.825 62.8127 119.289 62.8896 120.585C62.5367 121.256 62.211 121.872 61.8853 122.493C62.4191 124.074 63.7809 125.352 63.2787 127.187C62.8172 127.93 61.4238 127.79 61.451 129.24C60.8538 129.09 60.338 128.959 59.7951 128.818C59.7951 127.214 59.7951 125.805 59.7951 124.468C59.2929 123.965 58.8677 123.539 58.4469 123.118C57.9131 121.446 59.121 120.1 59.302 118.55C59.4829 117.01 59.9354 115.501 60.2973 113.852C59.5146 113.852 58.8631 113.852 57.8724 113.852C57.7909 113.956 57.5647 114.377 57.2164 114.636C56.7142 115.007 56.1486 115.32 55.565 115.542C54.9814 115.768 54.3344 115.841 53.7282 116.018C53.1944 116.172 52.5203 116.23 52.1764 116.593C51.0409 117.794 49.6701 117.97 48.1454 117.789C47.6794 117.073 46.5303 117.336 46.1412 116.466C45.4173 116.466 44.6935 116.498 43.9741 116.443C43.7841 116.43 43.6077 116.163 43.4267 116.013C42.4766 116.09 41.5401 116.018 40.7846 115.379C40.486 115.125 40.3503 114.685 40.1377 114.332C40.5267 113.765 40.8434 113.303 41.1601 112.841C39.6898 112.841 38.2194 112.859 36.7491 112.823C36.559 112.818 36.3736 112.542 36.1835 112.388C35.5049 112.347 35.799 111.826 35.7311 111.482C35.4552 111.532 35.057 111.482 34.9213 111.649C34.2472 112.47 33.6636 113.358 33.0076 114.196C32.4059 114.962 32.5732 115.836 32.5732 116.57C31.216 117.431 29.9176 118.256 28.4517 119.189C28.1712 119.189 27.651 119.189 27.1352 119.189C27.2031 120.068 27.2031 121.016 26.6285 121.673C26.0811 122.298 26.2937 122.9 26.2575 123.53C26.8004 123.703 27.3252 123.875 28.2527 124.174C28.8634 124.174 29.9131 124.174 31.0079 124.174C31.8223 125.18 32.6411 126.104 31.7137 127.604C31.3789 128.148 31.6594 129.077 31.6594 129.824C30.56 131.079 29.999 132.298 29.9357 133.553C30.1981 133.644 30.4605 133.739 30.6957 133.821C30.7229 133.939 30.75 134.007 30.75 134.079C30.7545 134.754 30.75 135.434 30.7546 136.114C30.4288 136.494 30.1031 136.875 29.714 137.328C30.2795 137.74 30.7681 138.098 31.2431 138.447C30.3202 140.278 30.9853 142.145 30.6776 144.057C32.3244 143.876 32.9714 145.561 34.3739 145.552C34.3739 145.928 34.3739 146.15 34.3739 146.377C34.7675 146.268 35.1611 146.164 35.7673 145.996C36.1111 146.11 36.7038 146.3 37.4005 146.526C37.3915 147.582 38.5497 147.623 39.2419 148.212C40.952 147.229 42.6395 147.754 44.3044 148.411C44.7704 148.597 44.8383 149.073 44.7749 149.544C44.603 149.988 45.1957 150.691 44.3225 150.904C44.2727 151.33 44.3632 151.851 44.1461 152.163C43.7072 152.798 43.7117 153.468 44.0556 153.98C44.4899 154.628 44.2003 155.263 44.3225 155.888C44.5487 155.888 44.7704 155.888 44.9966 155.888C45.0735 156.006 45.2137 156.124 45.2183 156.241C45.2318 158.036 45.2273 159.83 45.2273 161.779C44.879 161.779 44.603 161.779 44.3225 161.779C44.1777 162.232 44.033 162.685 43.8475 163.251C42.2776 163.106 40.8751 162.979 39.3459 162.839C39.3459 163.65 39.3459 164.525 39.3459 165.404C39.5631 165.404 39.7802 165.404 40.0698 165.404C40.2779 166.296 40.4905 167.207 40.7032 168.122C40.9294 168.122 41.1556 168.122 41.4813 168.122C41.5899 169.459 42.2097 170.714 42.074 172.133C41.9654 173.274 42.0016 174.353 41.3908 175.477C40.8072 176.55 40.8208 177.951 40.6263 178.943C41.6442 181.109 42.5445 182.998 43.4041 184.902C43.5172 185.151 43.4177 185.495 43.4177 185.799C44.5759 185.799 45.7386 185.799 47.037 185.799C47.037 186.157 47.037 186.433 47.037 186.705C48.0187 187.022 48.824 186.256 49.7515 186.252C50.1632 185.917 50.5749 185.577 51.0544 185.187C51.0544 184.14 51.0544 183.039 51.0544 181.902C52.086 181.589 51.8145 180.135 52.9184 179.908C53.2713 179.455 53.6196 178.997 53.9816 178.531C54.7733 178.68 55.5967 178.245 56.307 178.938C56.4744 179.102 57.0851 179.043 57.3113 178.861C57.8633 178.413 58.3293 178.449 58.8586 178.825C58.931 178.875 59.8675 179.795 60.0123 180.044C60.4964 179.854 61.0076 179.654 61.5188 179.455C62.6725 179.437 63.8578 179.659 64.8984 178.948C65.301 179.768 65.672 180.515 66.043 181.268C66.7668 180.733 67.4907 180.198 68.2734 179.623C68.3005 179.373 68.3322 179.025 68.382 178.549C68.8208 178.549 69.2416 178.549 69.6623 178.549L69.6804 178.648H70.1328L72.8428 178.241C72.8428 178.467 72.8428 178.739 72.8428 179.006C73.7702 179.052 74.6027 179.881 75.6749 179.07C76.0776 178.762 77.0231 179.17 77.7062 179.36C78.3442 179.378 78.7966 178.721 79.6924 179.197C80.5248 179.641 81.5473 179.718 82.3752 180.343C83.0629 180.864 83.8048 181.1 84.764 180.524C85.5602 180.044 86.6324 180.021 87.5553 179.804C87.7273 180.253 87.8268 180.511 87.9218 180.76C88.0892 180.783 88.2792 180.869 88.3652 180.81C89.7043 179.886 91.1249 179.133 92.7265 178.821C93.7308 178.626 94.423 177.846 95.4138 177.516C95.4545 176.682 95.6129 175.866 95.0654 175.023C94.8981 174.765 94.5859 173.845 95.4636 173.573C95.5314 173.229 95.2374 172.708 95.916 172.667C95.9567 171.988 96.477 172.282 96.8208 172.214C97.0515 171.892 97.2823 171.571 97.4271 171.371C98.2278 171.521 98.8838 171.639 99.5353 171.761C99.5353 171.186 99.5353 170.61 99.5353 170.053C100.585 169.781 101.245 170.17 101.797 170.855C102.06 170.855 102.327 170.855 102.702 170.855C102.702 171.231 102.702 171.498 102.702 171.761C102.702 172.667 102.702 173.573 102.702 174.48C102.702 174.629 102.702 174.783 102.702 174.933C103.005 174.933 103.304 174.933 103.607 174.933C103.607 174.711 103.607 174.489 103.607 174.267C104.919 173.211 106.466 173.682 107.977 173.555C108.484 174.167 108.986 174.774 109.488 175.386C109.638 175.536 109.792 175.69 109.941 175.839C110.163 175.839 110.38 175.839 110.579 175.839C110.927 176.365 111.266 176.886 111.723 177.579C111.719 178.186 112.036 179.124 110.846 179.464C110.696 179.614 110.543 179.768 110.393 179.917C110.705 180.914 109.982 181.73 109.927 182.672C109.882 183.529 109.841 184.353 109.593 185.232C109.303 186.256 109.194 187.539 109.823 188.69C110.081 189.161 109.932 189.854 109.973 190.502C110.814 191.282 111.126 192.365 111.298 193.506C111.447 193.656 111.601 193.81 111.751 193.96C111.9 194.109 112.054 194.263 112.203 194.413C112.352 194.562 112.506 194.716 112.655 194.866C113.411 194.716 114.162 194.562 114.917 194.413C115.596 194.453 115.302 194.975 115.37 195.319C115.583 195.319 115.8 195.319 116.017 195.319C116.429 196.017 116.863 196.71 116.727 197.585C116.953 197.585 117.18 197.585 117.627 197.585C117.627 198.6 117.682 199.633 117.618 200.652C117.532 202.125 117.949 203.493 118.338 204.88C118.492 205.433 118.745 206.275 118.487 206.561C117.65 207.485 118.501 208.727 117.691 209.669C117.392 210.018 117.641 210.961 117.836 211.573C118.229 212.805 118.184 214.006 117.885 215.225C117.6 216.385 117.094 217.359 115.84 217.735C115.714 217.771 115.623 217.939 115.442 218.12C115.442 219.149 115.442 220.263 115.442 221.351C115.596 221.65 115.754 221.963 115.953 222.352C115.284 223.463 114.632 224.541 113.999 225.588C114.162 226.403 114.311 227.174 114.465 227.939C114.682 227.939 114.904 227.939 115.27 227.939C115.32 228.32 115.37 228.719 115.429 229.167C115.659 229.244 115.913 229.331 116.275 229.457C116.275 230.133 116.275 230.848 116.275 231.569C116.953 231.61 116.659 232.131 116.727 232.475C116.727 234.301 117.496 236.059 117.18 237.913C117.953 237.876 118.532 238.225 118.989 238.819C119.763 238.783 120.342 239.132 120.799 239.725C121.021 239.725 121.247 239.725 121.627 239.725C121.591 240.695 121.876 241.542 123.038 241.696C123.038 242.013 123.038 242.303 123.038 242.584C123.495 242.874 123.839 243.187 124.151 243.649C124.396 244.012 125.165 244.057 125.323 244.705C127.241 245.185 127.241 245.19 128.635 244.329C128.757 244.252 128.843 244.116 128.779 244.184C129.019 242.625 129.227 241.27 129.435 239.911C130.802 238.515 132.363 237.256 132.697 235.262C133.154 235.171 133.521 235.135 133.856 235.017C134.181 234.904 134.48 234.705 134.742 234.569C134.923 233.549 135.177 232.57 135.258 231.573C135.349 230.45 135.281 229.312 135.281 228.22C136.303 226.784 137.308 225.375 138.457 223.762C138.457 223.304 138.457 222.556 138.457 221.437C138.796 221.192 139.343 220.794 139.642 220.576C139.846 219.081 140.008 217.862 140.198 216.462C140.081 214.976 138.199 214.776 137.448 213.412C137.574 212.356 137.71 211.21 137.837 210.127C137.222 208.623 137.71 207.037 137.516 205.483C136.959 204.925 136.371 204.341 135.615 203.584C135.787 202.306 135.982 200.888 136.172 199.451C136.688 199.016 137.145 198.631 137.57 198.273C137.57 196.533 137.57 194.879 137.57 193.126C138.886 192.523 140.221 191.916 141.795 191.196C143.022 191.196 144.519 191.196 146.302 191.196C146.419 190.951 146.618 190.538 146.799 190.167C147.532 190.561 147.998 190.81 148.532 191.096C147.469 192.496 147.989 193.611 148.885 194.675C149.821 195.786 150.97 196.579 152.341 197.027C153.477 195.967 154.612 194.907 154.287 193.28C154.961 192.605 155.422 191.957 156.047 191.567C156.712 191.155 157.395 190.403 158.232 190.896C158.444 193.035 158.648 195.052 158.838 196.991C158.377 197.15 158.123 197.236 157.852 197.331C158.662 198.803 158.634 200.43 158.245 201.731C157.834 203.09 158.114 204.332 157.879 205.496C158.263 205.881 158.53 206.149 158.802 206.42C158.802 207.925 158.802 209.434 158.802 211.174C160.082 212.424 161.48 213.784 162.602 214.88C164.014 218.469 165.977 221.283 168.167 224.024C168.791 223.775 169.239 223.598 169.791 223.381C170.931 224.659 172.542 224.256 173.94 224.337C174.618 224.799 175.215 225.203 175.921 225.683C176.663 225.683 177.568 225.683 178.319 225.683C179.767 224.845 181.106 224.074 182.332 223.367C183.852 223.562 184.743 224.99 186.218 224.763C186.386 224.124 186.417 223.435 186.734 222.914C187.263 222.049 187.34 221.161 187.318 220.205C187.286 218.927 187.309 217.649 187.309 216.281C187.897 215.927 188.503 215.565 189.091 215.211C190.489 216.036 191.819 216.815 193.059 217.545C193.882 217.209 194.601 216.942 195.294 216.62C195.674 216.444 196.185 216.244 196.321 215.918C196.728 214.953 197.47 214.799 198.216 214.817C199.112 214.151 199.922 213.553 200.741 212.946C202.311 213.358 203.573 212.606 204.862 211.953C205.174 210.68 206.179 210.399 207.427 210.236C207.721 210.653 208.038 211.106 208.377 211.586C208.952 211.586 209.608 211.586 210.314 211.586C210.716 211.138 211.119 210.693 211.4 210.381C212.209 210.381 212.865 210.381 213.526 210.381C213.526 210.925 213.526 211.373 213.526 211.903C214.571 212.751 215.652 213.625 216.761 214.522C216.761 216.122 216.761 217.69 216.761 219.185C217.417 219.484 217.982 219.742 218.53 219.992C218.331 221.564 218.136 223.073 217.946 224.555C218.385 224.845 218.715 225.239 218.982 225.198C219.774 225.08 220.403 225.502 221.032 225.76C222.19 226.236 223.276 226.897 224.379 227.504C225.732 228.248 226.117 229.349 225.452 230.735C224.999 231.682 224.452 232.584 223.959 233.481C224.683 234.057 225.402 234.632 226.076 235.167C227.641 234.514 229.184 233.871 230.727 233.227C231.22 233.671 231.591 234.007 231.939 234.324C232.396 234.147 232.772 233.916 233.174 233.857C234.346 233.694 235.056 233.037 235.55 231.99C235.817 231.415 236.174 230.645 236.672 230.463C237.803 230.056 238.092 229.172 238.431 228.243C237.092 226.725 235.627 225.289 235.627 223.046C233.993 221.627 232.378 220.218 230.881 218.913C230.532 217.49 229.953 216.267 230.356 215.007C231.102 214.028 231.808 213.109 232.541 212.148C232.546 210.97 232.365 209.688 233.658 208.496C234.31 208.31 235.242 208.043 236.147 207.784C236.147 206.538 236.147 205.338 236.147 203.987C235.658 203.688 235.007 203.443 234.59 202.986C234.183 202.542 234.02 201.88 233.695 201.201C232.975 201.037 232.166 200.852 231.347 200.661C231.007 201.25 230.763 201.681 230.55 202.048C229.252 202.048 227.99 202.048 226.809 202.048C226.66 201.554 226.646 201.06 226.397 200.761C225.406 199.583 223.968 199.148 222.461 198.704C222.837 197.983 223.158 197.363 223.561 196.597C223.398 195.369 223.217 194 223.04 192.632C222.855 191.191 222.678 189.75 222.506 188.373C223.841 187.113 223.407 185.59 223.502 184.226C223.167 183.891 222.9 183.624 222.642 183.366C222.642 182.998 222.642 182.645 222.642 182.251C223.049 182.205 223.407 182.169 223.904 182.115C224.651 181.163 225.452 180.135 226.207 179.174C226.207 178.685 226.207 178.309 226.207 177.828C228.243 176.555 228.107 174.443 228.012 172.518C228.768 171.308 229.564 171.824 230.27 172.187C231.804 171.358 233.274 170.533 234.767 169.758C237.242 168.471 237.251 168.485 239.748 169.033C239.82 169.051 239.897 169.033 239.92 169.033C240.902 168.498 241.223 167.071 242.838 167.234C243.453 168.018 244.155 168.915 244.924 169.903C243.204 172.051 242.901 174.321 244.136 176.827C244.815 176.492 245.503 176.147 246.15 175.826C247 176.274 247.81 176.696 248.629 177.126C248.919 178.087 249.199 179.016 249.475 179.931C250.611 179.931 251.66 179.931 252.429 179.931C253.37 180.352 254.071 180.66 254.646 180.919C255.108 180.456 255.42 180.144 255.65 179.913C256.578 179.913 257.591 179.6 258.035 179.972C259.505 181.204 260.962 180.787 262.495 180.375C262.695 180.32 262.925 180.393 262.934 180.393C264.061 181.249 265.034 181.988 266.047 182.754C267.11 181.997 268.087 181.299 269.25 180.47C269.354 179.917 269.562 179.156 269.617 178.386C269.693 177.303 269.517 176.206 270.358 175.277C270.558 175.055 270.485 174.448 270.349 174.085C269.978 173.084 269.911 172.16 270.426 171.163ZM80.7239 52.6253C81.1175 53.586 81.4885 54.4786 81.9544 55.616C81.303 56.0057 80.7012 56.3681 79.8552 56.8756C79.715 56.5222 79.5702 56.1643 79.4254 55.8108C79.3757 55.8788 79.3259 55.9467 79.2761 56.0192C79.1449 55.1855 79.0137 54.3517 78.8192 53.1192C79.0907 52.435 79.9457 52.5121 80.7239 52.6253ZM66.6763 50.84C67.0564 50.8219 67.6083 50.7902 67.8572 50.7811C69.0561 52.0046 70.065 53.0286 71.015 53.9983C71.015 54.7369 71.015 55.3305 71.015 55.983C71.5986 56.5177 72.2004 57.0705 72.793 57.6142C72.6075 58.0628 72.4582 58.4208 72.2773 58.8558C71.671 58.8558 71.015 58.8558 70.2369 58.8558C69.7347 56.1642 67.7893 54.5828 66.0611 52.8157C66.242 52.2311 66.4275 51.6375 66.6763 50.84ZM62.8851 106.796C61.7812 107.277 60.9442 106.366 60.0032 106.221C58.7365 106.031 58.4153 105.265 57.9583 104.422C58.1664 104.214 58.3474 103.951 58.6007 103.81C58.7681 103.715 59.0351 103.792 59.483 103.792C60.3606 104.653 61.2926 105.813 62.8806 105.655C62.8851 106.112 62.8851 106.407 62.8851 106.796ZM105.362 106.375C104.367 107.109 103.299 107.748 101.888 107.956C101.888 107.318 101.888 106.819 101.888 106.148C103.078 106.325 103.937 104.943 105.362 105.188C105.362 105.614 105.362 105.972 105.362 106.375ZM189.792 204.304C188.571 204.264 188.222 205.301 187.476 205.759C186.607 205.469 185.911 206.742 184.884 205.863C185.404 205.342 185.806 204.667 186.39 204.427C187.268 204.064 187.295 203.412 187.39 202.678C188.372 202.755 188.774 200.965 190.032 201.867C189.874 202.043 189.729 202.197 189.548 202.397C189.842 202.501 190.104 202.592 190.367 202.682C190.765 203.453 190.303 204.323 189.792 204.304ZM195.9 196.678C195.9 197.503 195.9 198.328 195.9 199.37C195.384 199.547 194.728 199.642 194.24 199.977C193.774 200.294 193.484 200.865 192.864 201.635C192.783 200.734 192.738 200.244 192.683 199.624C193.43 198.962 194.212 198.273 194.995 197.58C195.167 197.136 194.574 196.434 195.447 196.221C195.339 195.401 195.791 195.024 196.597 194.793C197.013 195.709 196.845 196.325 195.9 196.678ZM201.772 191.331C201.161 192.396 200.234 192.682 198.746 192.487C199.329 191.776 199.732 191.282 200.071 190.86C200.677 190.86 201.189 190.86 201.673 190.86C201.718 191.06 201.822 191.241 201.772 191.331ZM228.677 222.982C229.08 223.594 229.465 224.178 229.971 224.944C229.723 225.334 229.433 225.778 229.116 226.267C228.795 226.082 228.564 226.023 228.451 225.869C227.994 225.243 227.574 224.595 227.108 223.911C227.298 223.05 227.908 222.846 228.677 222.982Z" fill="#D9D9D9"/>
</svg>
