<svg width="87" height="141" viewBox="0 0 87 141" fill="none" xmlns="http://www.w3.org/2000/svg">
<path d="M34.8541 105.143C35.1843 105.143 35.4603 105.143 35.7363 105.143C36.234 104.513 36.2204 103.752 36.1661 102.845C36.6773 102.691 37.1116 102.56 37.546 102.424C38.4372 101.454 39.3375 100.494 40.2198 99.5148C41.4956 98.1056 41.5001 96.3384 40.2469 94.9338C39.6452 94.2631 39.048 93.5834 38.4508 92.9083C38.3241 92.8539 38.0843 92.8041 38.0843 92.7497C38.0617 91.4945 38.0617 90.2394 38.0843 88.9888C38.0843 88.9344 38.3241 88.8845 38.4508 88.8301C38.6815 88.01 37.8853 87.7427 37.6862 87.3983C38.3694 86.1522 38.9982 85.0012 39.6316 83.8458C40.1338 83.8458 40.6495 83.8458 41.1698 83.8458C42.043 82.4683 42.7804 81.0138 44.6127 80.5561C45.1737 80.4156 45.5809 79.6453 46.0604 79.1695C46.8838 78.3539 47.6755 77.6289 48.9649 77.4069C49.6662 77.2845 50.6615 77.135 51.2225 76.3148C51.3673 76.1064 51.8966 76.1562 52.2631 76.0883C52.625 75.5309 53.0095 74.9419 53.3805 74.3709C53.1091 72.5856 51.2044 72.3817 50.3539 70.9453C49.6028 71.3441 48.8473 71.6024 48.2863 72.0872C47.6484 72.64 46.92 72.4497 46.0378 72.5448C46.2505 73.3469 46.4269 74.0084 46.6124 74.7108C46.3093 75.7983 45.228 76.0339 44.3775 76.6275C43.6943 76.1744 42.9885 75.7031 42.3597 75.2817C41.3915 75.463 40.4821 75.6351 39.4371 75.8345C39.0751 76.197 38.5367 76.632 38.1341 77.1667C37.7179 77.7241 37.2247 78.3539 37.1433 78.9974C36.9669 80.4247 36.2837 81.5348 35.4106 82.5861C35.0667 82.9984 34.7274 83.4199 34.3881 83.8367C34.3383 84.2627 34.3609 84.7113 34.2297 85.11C33.7909 86.4558 33.7683 87.3711 34.3881 88.5855C35.302 90.3753 35.4241 92.3374 35.7454 94.2631C36.3652 94.7208 36.3652 95.1649 35.7454 95.6225C35.5961 95.6225 35.4422 95.6225 35.2929 95.6225C35.1436 95.772 34.9898 95.9261 34.8405 96.0756C34.7727 96.42 35.0667 96.9411 34.3881 96.9819C34.2117 97.1314 34.0488 97.3806 33.8543 97.4123C33.438 97.4803 33.0037 97.435 32.5784 97.435C31.8908 97.3263 31.5017 97.6933 31.2167 98.2642C30.9362 98.8216 30.6873 99.4106 30.3164 99.9045C29.2441 101.341 28.0995 102.723 27.0228 104.155C26.8282 104.418 26.8011 104.807 26.697 105.138C26.5251 105.582 27.1178 106.285 26.2446 106.498C26.0727 106.942 26.6654 107.644 25.7922 107.857C25.7922 108.124 25.7922 108.392 25.7922 108.763C25.2584 108.763 24.8467 108.763 24.435 108.763C24.2133 108.763 23.8649 108.672 23.788 108.777C22.9646 109.937 21.5621 110.258 20.7116 110.902C20.2727 111.881 19.9199 112.619 19.6077 113.376C19.5036 113.63 19.4991 113.924 19.4539 114.201C19.4539 114.473 19.4539 114.749 19.4539 115.442C18.9879 114.799 18.7662 114.5 18.549 114.201C18.3364 113.911 18.0649 113.652 17.9202 113.331C16.771 110.775 14.2692 110.721 12.2152 110.027C11.3692 110.716 10.6589 111.296 9.95312 111.872C9.99384 112.008 10.021 112.143 10.0708 112.275C10.4236 113.177 11.4823 113.403 11.9392 114.173C12.7264 115.497 13.4231 116.87 13.9615 117.862C15.8979 119.298 18.0785 119.575 19.1734 120.907C19.9198 123.068 20.9106 124.772 20.8066 126.698C19.5579 127.568 19.9515 128.986 19.4539 130.06C19.3046 130.21 19.1507 130.364 19.0014 130.513C18.8521 130.663 18.6983 130.817 18.549 130.966C18.2459 131.27 17.9473 131.569 17.6442 131.873C17.3501 132.276 17.0515 132.679 16.6534 133.218C16.8344 134.283 16.8932 135.529 17.2868 136.662C17.5537 137.432 18.3228 138.017 18.8069 138.724C19.0784 139.118 19.2367 139.589 19.4493 140.029C20.3542 140.029 21.259 140.029 22.1638 140.029C22.0598 139.635 21.9557 139.24 21.8381 138.787C21.9195 138.678 22.0824 138.452 22.3629 138.067C22.0417 137.713 21.7612 137.414 21.5214 137.151C20.9649 137.446 20.6618 137.605 20.3542 137.768C20.2049 137.591 19.956 137.428 19.9244 137.233C19.8565 136.816 19.9017 136.381 19.9017 135.955C19.2819 135.497 19.2819 135.053 19.9017 134.596C20.0737 134.152 19.481 133.449 20.3542 133.236C20.6528 133.236 21.0237 133.119 21.2364 133.255C22.666 134.161 23.7744 133.545 24.9145 132.552C24.5028 131.007 25.4484 129.883 26.2356 128.705C26.2356 128.102 26.2356 127.495 26.2356 126.893C26.2356 126.589 26.2356 126.29 26.2356 125.986C25.9641 125.986 25.6972 125.986 25.3307 125.986C25.3307 125.298 25.3307 124.736 25.3307 124.174C25.1814 124.024 25.0276 123.87 24.8783 123.721C24.729 123.544 24.4802 123.381 24.4485 123.186C24.3807 122.769 24.4259 122.334 24.4259 121.908C24.2766 121.759 24.1228 121.605 23.9735 121.455C23.8242 121.306 23.6704 121.152 23.5211 121.002C23.3718 120.816 23.218 120.626 23.0687 120.44C23.218 120.327 23.3718 120.214 23.5211 120.096C24.4666 119.715 24.064 118.813 23.8242 118.455C23.3808 117.785 23.5618 117.214 23.6296 116.353C24.3354 116.181 25.0638 116 25.9008 115.796C25.7017 115.148 25.5162 114.55 25.3307 113.942C26.5161 113.394 27.7512 113.009 28.2307 111.582C28.371 111.169 28.9681 110.902 29.3663 110.58C29.8594 110.181 30.3661 109.796 30.7597 109.488C30.7597 108.899 30.7597 108.523 30.7597 107.957C31.6057 107.363 32.5377 106.706 33.4742 106.049L34.8541 105.143Z" fill="#C4E2E5"/>
<path d="M56.552 108.41C56.0996 108.107 50.666 103.634 50.2136 103.331C50.0236 102.583 49.4988 102.375 48.7885 102.42C48.3587 102.447 47.9289 102.424 47.4991 102.424C46.8974 102.424 46.2912 102.424 45.6895 102.424C45.2371 102.424 44.7846 102.424 44.3322 102.424C44.4906 101.586 44.5449 100.712 44.8299 99.9186C45.2325 98.813 45.8116 97.7708 46.3681 96.5836C46.7391 96.5836 47.2458 96.5836 47.8384 96.5836C48.3723 95.0248 50.0417 94.0506 49.725 92.084C50.1729 92.084 50.5258 92.084 50.8108 92.084C51.4171 91.4723 51.9464 90.9422 52.4802 90.403C52.2857 89.8094 52.0912 89.2112 51.9238 88.6947C50.191 87.2401 48.4763 85.7947 46.8115 84.3945C46.255 84.68 45.694 84.97 45.0923 85.2781C43.7757 84.7978 42.4683 84.322 41.1608 83.8417C42.0339 82.4642 42.7714 81.0097 44.6037 80.552C45.1647 80.4116 45.5718 79.6413 46.0514 79.1655C46.8748 78.3498 47.6665 77.6248 48.9559 77.4028C49.6572 77.2805 50.6525 77.1309 51.2135 76.3108C51.3583 76.1023 51.8876 76.1522 52.254 76.0842C52.616 75.5269 53.0005 74.9378 53.3715 74.3669C53.1 72.5816 51.1954 72.3777 50.3448 70.9412C49.5938 71.34 48.8383 71.5983 48.2773 72.0831C47.6394 72.6359 46.911 72.4456 46.0288 72.5408C46.2414 73.3428 46.4179 74.0044 46.6034 74.7067C46.3002 75.7942 45.219 76.0298 44.3684 76.6234C43.6853 76.1703 42.9795 75.6991 42.3506 75.2777C41.3825 75.4589 40.4731 75.6311 39.4281 75.8305C39.0661 76.193 38.5277 76.628 38.1251 77.1626C37.7089 77.72 37.2157 78.3498 37.1343 78.9933C36.9579 80.4206 36.2747 81.5308 35.4015 82.582C35.0577 82.9944 34.7184 83.4158 34.3791 83.8327C32.4608 83.52 30.9226 82.5367 29.6468 81.123C28.1222 80.9191 26.6156 80.7197 25.0503 80.5158C24.5209 79.5189 23.9283 78.4042 23.123 76.8908C23.123 76.8681 23.123 76.3652 23.123 75.8531C23.3944 75.7263 23.6704 75.6039 24.3309 75.3003C23.2497 75.3003 22.5937 75.3003 21.8924 75.3003C21.82 75.0375 21.8245 74.7067 21.7069 74.6569C20.128 73.9591 19.5625 72.4864 19.0241 71.05C18.6079 69.9444 17.6442 69.2692 17.1375 68.218C16.5539 67.0081 15.631 65.9659 14.8573 64.8512C14.2013 64.8512 13.6132 64.8512 12.9119 64.8512C11.9392 63.4511 10.2608 63.4783 8.74521 62.7805C8.46471 62.2956 8.16611 61.548 7.66845 60.9816C7.20699 60.4559 6.53289 60.1206 5.85879 59.6358C6.14834 58.8111 6.43786 57.9728 6.77265 57.0258C6.40167 56.3325 5.94928 55.5441 5.55115 54.7284C5.15302 53.9174 4.80465 53.079 4.37938 52.1275C4.73227 51.7333 5.06705 51.3617 5.42446 50.9584C5.42446 50.5506 5.42446 50.102 5.42446 49.5673C5.94022 49.1505 6.49216 48.6973 7.25674 48.0765C7.84036 46.8486 8.13442 45.2808 8.21586 43.5861C8.2792 42.3083 8.97593 40.9036 8.50994 39.7345C8.08919 38.6788 7.92633 37.5686 8.23397 36.7575C8.68639 35.5658 8.44208 34.442 8.62304 33.3727C7.69107 31.8184 7.69107 31.8184 7.69107 27.3008C6.86767 26.6709 5.9176 25.9459 5.09421 25.3161C3.14882 25.8417 1.41607 26.1997 0.203593 27.695C0.104061 27.4548 0.0542899 27.328 0 27.1966C0.149297 26.4398 0.370991 25.6877 0.434329 24.9219C0.51124 24.0337 0.447896 23.132 0.456944 22.2394C0.456944 22.108 0.542892 21.9766 0.615279 21.7636C1.66036 21.7092 2.88188 22.0309 3.6148 20.8528C3.6148 20.7033 3.6148 20.5492 3.6148 20.3997C3.7641 20.3997 3.91792 20.3997 4.06721 20.3997C4.27985 21.2742 4.98109 20.6806 5.42446 20.8528C5.53757 21.0023 5.65067 21.1564 5.7683 21.3059C5.95379 21.1564 6.1438 21.0023 6.32929 20.8528C6.47859 20.7033 6.63241 20.5492 6.78171 20.3997C7.17983 19.8197 7.57797 19.2442 8.00777 18.6189C8.14801 18.5691 8.38779 18.483 8.59137 18.4105C8.59137 17.7897 8.59137 17.2822 8.59137 16.7747C8.74067 16.6251 8.89449 16.4711 9.04379 16.3216C9.32429 16.2672 9.71336 16.317 9.86266 16.1448C11.1882 14.6405 12.9527 14.1556 14.9116 13.9653C14.9116 12.3567 14.9116 10.7934 14.9116 9.28906C15.7757 8.59125 16.0427 7.34516 17.2913 7.36782C18.0559 7.5536 19.0241 7.95687 19.5579 7.63968C20.4266 7.11859 21.0102 8.08828 21.716 7.71218C21.716 7.98406 21.716 8.25594 21.716 8.50063C21.9874 8.55953 22.1231 8.63203 22.2498 8.60937C22.5167 8.56859 22.7746 8.47344 23.0415 8.42359C24.1183 8.22875 25.1091 7.66234 26.2356 7.71218C26.2356 8.29218 26.2356 8.87671 26.2356 9.29812C26.5523 9.61531 26.7106 9.7739 26.8599 9.92343C27.5295 9.92343 28.181 9.92343 28.4117 9.92343C30.5516 8.83593 31.936 7.08688 34.1619 7.26813C34.5193 7.6261 34.7817 7.8889 35.1437 8.2514C35.9037 8.13359 36.7452 8.00672 37.7858 7.84813C39.0706 8.62297 40.7446 7.91156 42.1878 8.20156C43.0383 8.63656 43.7848 9.02171 44.7349 9.51109C45.2461 9.25734 46.0921 9.90985 46.8205 9.13954C46.9698 8.98094 47.6168 9.21656 48.0013 9.36156C49.1731 9.79656 50.4353 9.67874 51.304 8.99905C52.2043 8.29218 53.195 8.08375 54.1723 7.69859C56.1222 6.93734 57.9861 6.03109 59.167 4.34547C59.167 3.76094 59.167 3.25797 59.167 2.78672C58.8638 2.72328 58.6602 2.67797 58.4612 2.63265C58.4612 1.885 58.4612 1.17812 58.4612 0.453125C59.3886 0.453125 60.2165 0.502965 61.0354 0.434996C61.5104 0.394215 61.9629 0.154062 62.4289 0C62.4289 1.03312 62.4289 2.06172 62.4289 2.99063C63.4785 3.23532 64.3652 3.44375 65.3243 3.67032C65.7451 3.17188 66.1749 2.66438 66.6228 2.13875C67.8714 2.34719 68.9979 2.53297 70.1245 2.71875C70.4276 3.17187 70.7262 3.625 71.0293 4.07812C71.1786 4.53125 71.3324 4.98437 71.4817 5.4375C70.889 5.89516 70.5407 6.47516 70.5769 7.25C69.7128 7.78016 69.6313 8.62297 69.672 9.51562C69.672 10.2723 69.672 11.0245 69.672 11.7812C69.672 11.9308 69.672 12.0848 69.672 12.2344C69.0341 13.0817 69.0341 14.1058 69.672 14.9531C69.672 15.6781 69.6404 16.4031 69.6946 17.1236C69.7082 17.3139 69.9752 17.4906 70.1245 17.6719C70.1516 18.2292 70.0204 18.773 70.5407 19.2714C70.9659 19.6792 71.1741 20.3091 71.4817 20.8437C71.5224 21.5234 72.0427 21.2289 72.3865 21.2969C72.563 22.185 72.7394 23.0777 72.9475 24.1063C73.6985 23.9114 74.3591 23.5897 75.0151 23.6033C75.6665 23.6169 76.309 23.9658 76.6935 24.0881C77.5305 25.742 77.5757 27.183 76.7614 28.6828C77.155 28.9728 77.4853 29.213 77.8155 29.4577C77.9648 29.4577 78.1186 29.4577 78.2679 29.4577C78.4172 29.6072 78.5711 29.7613 78.7204 29.9108C78.5711 29.9108 78.4172 29.9108 78.2679 29.9108C78.1186 30.092 77.82 30.2914 77.8381 30.459C77.9422 31.4876 78.1141 32.5117 78.2679 33.5358C77.9467 33.7669 77.6255 33.998 77.4265 34.143C77.5757 34.954 77.6934 35.602 77.8155 36.2545C77.4807 36.5309 77.1414 36.8073 76.8157 37.0702C77.0509 37.5006 77.2048 37.7816 77.3631 38.067C77.5124 38.3706 77.6662 38.6697 77.8155 38.9733C77.8155 40.0291 77.8155 41.0894 77.8155 42.1452C77.3179 42.2947 76.8066 42.4215 76.3226 42.6119C76.1823 42.6662 76.1099 42.8973 76.0059 43.0514C75.8566 43.2281 75.6077 43.3912 75.5761 43.5861C75.5082 44.003 75.5534 44.438 75.5534 44.8639C74.6803 45.0769 75.2729 45.7792 75.101 46.2233C74.9517 46.3366 74.7979 46.4498 74.6486 46.5677C74.7979 46.7534 74.9517 46.9438 75.101 47.1295C75.2187 48.5841 75.0558 49.9751 74.2053 51.2212C74.1374 51.3209 74.1962 51.5113 74.1962 51.6608C74.0469 51.8103 73.8931 51.9644 73.7438 52.1139C73.7438 52.4175 73.7438 52.7166 73.7438 53.0202C74.255 53.7406 74.3229 54.7284 75.101 55.2858C75.2503 55.4353 75.4041 55.5894 75.5534 55.7389C75.8566 56.7947 76.1552 57.855 76.4583 58.9108C76.3045 60.0889 76.1461 61.2716 75.9923 62.4723C76.3904 62.7759 76.6845 62.998 76.9333 63.1837C76.9333 63.8816 76.9333 64.4752 76.9333 64.9917C77.9377 66.4009 79.6252 66.6048 80.8739 67.5156C82.299 67.2845 82.2899 68.4038 82.4392 69.2239C82.783 69.3417 83.0319 69.4323 83.2671 69.5139C83.2671 69.9126 83.2671 70.2072 83.2671 70.5334C83.5341 70.6286 83.7919 70.7192 84.0634 70.8189C84.1358 71.2222 84.2082 71.6345 84.2624 71.9427C85.0587 72.1466 85.7373 72.3233 86.416 72.5C86.5743 73.1208 86.149 73.438 85.7871 73.8231C84.7782 74.8834 83.5476 75.758 82.9188 77.1445C82.8328 77.3348 82.7966 77.5478 82.7107 77.8469C82.2582 77.8469 81.7606 77.8469 81.3082 77.8469C80.6295 79.0431 80.6295 79.0431 77.526 80.2711C76.8881 81.2453 77.5395 82.2195 77.8879 82.9173C78.8968 84.9473 78.7384 86.8097 77.8336 88.7536C77.725 88.9892 77.8201 89.32 77.8201 89.7097C76.3814 89.9226 75.0332 90.1175 73.2733 90.3803C72.6354 90.7927 71.6265 91.4452 70.7397 92.0206C70.5542 93.0673 70.3914 93.9736 70.1742 95.188C70.3733 95.6003 70.7035 96.2845 71.0338 96.9733C71.0338 97.1228 71.0338 97.2769 71.0338 97.4264C70.8755 97.9566 70.5633 98.2375 69.9797 98.3644C69.5454 98.4595 70.3507 99.8778 70.1335 100.24M55.6426 105.143C55.7421 105.574 55.8417 106.004 55.9457 106.439C55.5069 106.407 54.9052 106.901 54.7378 106.049M60.6689 102.424C61.8362 102.424 62.8134 102.424 63.7861 102.424C63.5735 103.467 63.4649 104.545 63.1211 105.537C62.8632 106.28 62.6551 106.874 63.2251 107.558C63.4649 107.848 63.4558 108.27 62.8813 108.315C62.732 108.465 62.5782 108.619 62.4289 108.768C61.5557 108.981 62.1484 109.683 61.9764 110.127C61.8271 110.277 61.6733 110.431 61.524 110.581C60.6644 110.685 61.2933 111.442 60.9721 111.813C60.4201 112.031 59.8411 112.253 59.2755 112.475C58.7688 111.958 58.3254 111.51 57.7916 110.97C57.959 110.399 58.1309 109.801 58.3481 109.049C57.4885 108.261 58.0404 107.105 57.9002 106.045C58.2757 106.045 58.6512 106.045 59.0267 106.045C59.4293 105.225 60.0356 104.45 59.7279 103.738" fill="#E10B17"/>
<path d="M71.9277 100.158C71.9277 100.534 71.9277 100.91 71.9277 101.373C70.9731 101.749 70.5479 102.814 69.643 103.316C69.4711 103.412 69.1997 103.33 69.0323 103.33C68.6522 103.896 68.2903 104.427 67.8741 105.047C68.7246 105.537 69.643 106.067 70.5207 106.57C70.584 108.469 70.8193 110.227 71.4617 111.903C72.2263 111.903 72.8145 111.903 73.5428 111.903C73.7645 112.211 74.0269 112.574 74.2124 112.837C74.8503 112.837 75.2982 112.837 75.7778 112.837C76.2845 113.371 76.8002 113.915 77.3567 114.504C77.3567 114.726 77.3567 115.025 77.3567 115.324C77.9856 115.587 78.6099 115.85 79.4378 116.199C78.0625 117.889 77.3069 119.729 75.7778 121.011C75.3887 121.337 75.2258 121.786 75.0358 122.284C74.7191 123.114 74.502 123.984 73.9229 124.781C73.0633 125.968 72.9411 127.55 72.7421 129.027C72.0634 129.163 71.3758 129.303 70.385 129.503C70.2628 129.462 69.7833 129.344 69.3399 129.149C68.9599 128.982 68.616 128.732 68.1953 128.479C68.426 128.021 68.6115 127.645 68.8694 127.119C68.5663 126.951 68.236 126.77 67.6207 126.43C67.3357 126.589 66.7295 126.929 65.9558 127.359C65.5306 126.983 64.9877 126.507 64.4131 126C63.2775 125.909 62.1148 125.964 61.2597 126.947C60.7123 127.577 60.0563 127.3 59.2148 127.3C59.6492 124.999 60.7395 123.172 62.4406 121.695C62.3456 121.6 62.3003 121.519 62.2415 121.5C62.1013 121.469 61.9519 121.469 61.6624 121.446C61.4362 120.549 61.201 119.602 60.8888 118.351C60.7893 118.292 60.3866 118.07 60.2418 117.984C60.0789 116.634 60.4545 115.56 59.7215 114.663C60.7938 113.834 61.9384 113.054 61.9836 111.491C62.4451 111.346 62.9065 111.205 63.4404 111.038C63.92 111.319 64.4629 111.631 65.0736 111.985C65.3044 113.149 65.5351 114.318 65.7839 115.583C66.1549 115.555 66.5621 115.524 66.9421 115.497C67.019 113.666 66.9557 112.021 65.5984 110.779C65.5984 109.343 65.5984 107.925 65.5984 106.506C65.8699 106.506 64.3362 102.977 64.6981 102.977C64.6981 101.98 66.0554 103.838 66.0554 102.977C65.9332 101.975 67.2 102.011 67.7881 102.07C68.8287 102.17 68.9961 101.096 69.8602 101.024C70.5659 100.956 71.24 100.462 71.9277 100.158Z" fill="#E10B17"/>
<path d="M71.9277 100.16C71.24 100.464 70.5659 100.958 69.8556 101.017C68.9915 101.089 68.8242 102.163 67.7836 102.063C67.1909 102.009 66.3766 102.784 66.4987 103.785C66.3766 103.835 66.1594 103.858 66.1413 103.935C65.9423 104.787 65.7703 105.648 65.5939 106.504C65.5939 107.922 65.5939 109.34 65.5939 110.777C66.9511 112.018 67.0145 113.663 66.9376 115.494C66.553 115.521 66.1504 115.553 65.7794 115.58C65.5306 114.316 65.2953 113.147 65.0691 111.982C64.4583 111.629 63.9199 111.316 63.4359 111.035C62.902 111.203 62.4406 111.343 61.9791 111.488C61.3005 111.447 61.5945 110.926 61.5267 110.582C61.676 110.432 61.8298 110.278 61.9791 110.129C62.8523 109.916 62.2596 109.214 62.4315 108.77C62.5808 108.62 62.7346 108.466 62.8839 108.316C63.4585 108.276 63.4675 107.85 63.2278 107.56C62.6577 106.875 62.8658 106.282 63.1237 105.539C63.4721 104.546 63.5806 103.468 63.7888 102.426C64.5036 102.426 65.2184 102.426 65.603 102.426C66.8742 101.805 66.3902 100.903 66.5033 100.16C67.4262 100.178 68.2451 100.06 68.797 99.1316C69.0142 98.7691 69.539 98.4791 69.9778 98.3794C70.5569 98.2525 70.8736 97.9716 71.0319 97.4414C71.3758 97.3734 71.8961 97.668 71.9368 96.9883C72.2806 96.9203 72.8009 97.2148 72.8416 96.5352C74.692 96.5352 76.5378 96.5397 78.3882 96.5306C78.714 96.5306 79.1754 96.6892 79.1754 96.082C79.3383 95.5473 79.664 95.2936 80.2341 95.135C80.6684 95.0127 81.0032 94.5188 81.4194 94.1562C82.0663 94.4145 82.6454 94.6456 83.3422 94.922C83.1521 95.5519 82.9712 96.15 82.8536 96.5488C82.1704 97.1152 81.6456 97.6045 81.0665 98.0123C80.7951 98.2027 80.4105 98.2389 80.0803 98.3431C78.2299 98.3431 76.384 98.3386 74.5336 98.3477C74.2079 98.3477 73.7464 98.1891 73.7464 98.7963C73.1357 99.2539 72.5294 99.707 71.9277 100.16Z" fill="#BEDEDE"/>
<path d="M61.5249 110.581C61.5927 110.926 61.2987 111.447 61.9773 111.488C61.9321 113.051 60.7874 113.83 59.7152 114.66C59.0954 115.144 58.4801 115.625 57.8151 116.146C57.245 114.537 56.7157 113.042 56.2633 111.773C56.4081 110.609 56.5302 109.612 56.6705 108.456C55.734 108.184 54.8698 107.94 53.6709 107.591C53.3045 107.36 53.4447 106.222 52.4766 106.055C52.4766 105.905 52.4766 105.751 52.4766 105.602C52.929 105.602 53.3814 105.602 53.8338 105.602C53.8745 106.281 54.3948 105.987 54.7386 106.055C54.906 106.907 55.5032 106.417 55.9466 106.444C55.8471 106.009 55.7475 105.579 55.6435 105.148C56.0416 105.438 56.4352 105.728 56.8786 106.055C57.1726 106.055 57.5391 106.055 57.9056 106.055C58.0458 107.11 57.4938 108.27 58.3534 109.059C58.1363 109.811 57.9598 110.409 57.797 110.98C58.3263 111.519 58.7697 111.968 59.2809 112.485C59.8464 112.263 60.4255 112.04 60.9775 111.823C61.2942 111.442 60.6653 110.686 61.5249 110.581Z" fill="#A8D1D8"/>
</svg>
