<svg width="96" height="100" viewBox="0 0 96 100" fill="none" xmlns="http://www.w3.org/2000/svg">
<path d="M79.6252 3.64029C79.6252 3.49076 79.6252 3.3367 79.6252 3.18717C80.0776 3.03764 80.53 2.88357 80.9824 2.73404C81.0367 2.86092 81.0729 3.09202 81.1408 3.10108C82.1497 3.22342 83.1585 3.25967 84.1493 3.09654C84.1493 2.72951 84.1493 2.50748 84.1493 2.28092C85.113 3.35029 86.0766 4.41967 87.0991 5.55248C87.5063 5.34857 87.8818 5.16279 88.1125 5.04951C88.7776 5.7156 89.4019 6.34545 90.0307 6.97076C90.1031 6.86654 90.171 6.76686 90.2434 6.66264C91.3654 6.84842 92.4829 7.03873 93.6139 7.22451C93.6365 7.69576 93.6501 7.98576 93.6637 8.29389C93.2067 8.60201 92.7497 8.91467 92.1571 9.31342C92.3516 10.5051 92.3426 11.8011 92.8176 12.884C93.1615 13.668 93.3244 14.1437 92.7679 14.8189C92.6231 14.9956 92.7452 15.3898 92.7452 15.7795C93.2881 15.7795 93.7858 15.7795 94.2744 15.7795C94.6635 16.2372 95.0028 16.6359 95.4597 17.1706C95.8036 18.8925 95.2154 20.1884 93.4012 21.3076C92.7859 21.3076 92.1028 21.2261 91.4468 21.3303C90.836 21.4255 90.257 21.7155 89.5648 21.9556C88.2935 24.1397 86.3481 26.147 86.9272 29.2147C86.3119 29.7358 85.5654 30.1844 85.0858 30.8323C84.6018 31.4939 84.0091 31.8972 83.3848 32.3775C82.7061 32.8986 82.3397 33.8592 81.8963 34.6612C81.6294 35.1461 81.6113 35.8484 81.2403 36.1747C80.2133 37.0809 79.7745 38.2545 79.3447 39.478C79.1863 39.9356 78.9285 40.3615 78.7158 40.7965C77.7431 40.6017 76.7704 40.4069 75.9832 40.2528C75.1236 41.0684 74.4224 41.7345 73.7438 42.3734C73.7438 43.1664 73.7438 43.9095 73.7438 44.6119C74.2867 45.1692 74.8069 45.7039 75.3182 46.234C75.7073 46.234 76.0828 46.234 76.4537 46.234C76.4537 46.6101 76.5578 47.0225 76.4311 47.3533C76.2094 47.9333 75.6892 48.4317 75.5806 49.0208C75.3001 50.5115 75.1734 52.034 74.9924 53.5067C75.6665 54.6033 76.3271 55.6001 76.8971 56.6423C77.7205 58.1422 78.2091 59.7372 78.286 61.4817C78.3494 62.9226 78.6163 64.3545 78.7746 65.6142C77.8019 68.2242 75.3182 69.1169 73.6985 71.0019C73.8524 71.6136 74.0243 72.2933 74.1917 72.9729C74.3319 73.2086 74.4676 73.4487 74.6305 73.7206C74.3726 73.8112 74.1102 73.9019 73.7935 74.0151C73.7935 74.3505 73.7935 74.7039 73.7935 75.2069C74.9924 75.6464 75.2096 77.2097 76.4583 77.7579C76.4583 78.3561 76.4583 78.9542 76.4583 79.5931C77.6346 80.3906 77.8336 81.682 77.9105 83.0323C78.553 83.2453 79.0778 83.422 79.6523 83.6123C79.598 83.9612 79.5618 84.3192 79.4804 84.6636C79.399 85.0034 79.2723 85.3297 79.1682 85.6604C78.8968 85.6604 78.6254 85.6604 78.2227 85.6604C78.2227 86.4897 78.2227 87.183 78.2227 87.8672C77.6255 87.8944 77.3088 87.9805 77.3043 88.6103C77.3043 88.8369 76.7523 89.0589 76.4537 89.2854C76.1506 89.5256 75.852 89.7658 75.7344 89.8564C75.1463 92.0133 74.6079 93.9844 74.1012 95.8512C73.6216 96.1639 73.2099 96.4312 72.8344 96.6714C72.8344 97.7453 72.8344 98.724 72.8344 99.7073C72.6851 99.7073 72.5313 99.7073 72.382 99.7073C71.8617 99.7073 71.3279 99.7662 70.8212 99.6892C70.2783 99.6076 69.7489 99.4037 69.2151 99.2542C69.2151 99.0276 69.2151 98.8011 69.2151 98.5111C68.722 98.3117 68.2107 97.9311 67.695 97.9265C65.8808 97.9084 64.1887 97.2831 62.4289 96.9886C61.2209 96.9886 60.0175 96.9886 58.8095 96.9886C58.624 96.839 58.4431 96.5626 58.2531 96.5581C57.2351 96.5128 56.2127 96.5354 55.1902 96.5354C55.0726 96.3859 54.973 96.1276 54.8283 96.1005C54.2718 95.9872 53.7379 96.1322 53.1498 95.738C52.7833 95.4933 51.969 95.9056 51.6025 95.9781C51.0461 95.5748 50.571 95.2259 50.087 94.877C50.3267 94.2109 50.5122 93.6808 50.6525 93.282C50.3132 92.77 50.087 92.3033 49.7477 91.9408C48.7659 90.9076 49.5803 89.9108 49.7703 88.9139C49.9829 87.8173 48.8247 86.8839 49.4355 85.7601C49.4717 85.6967 49.5803 85.6559 49.5848 85.597C49.7477 84.3192 50.657 83.0414 50.1458 81.8089C49.1731 79.4572 48.5578 76.7339 45.6171 75.8412C45.5538 75.8231 45.513 75.737 45.4678 75.6872C44.5539 75.6872 43.6491 75.6872 42.7578 75.6872C41.482 76.9378 39.9574 76.5572 38.4553 76.5572C38.4553 76.2309 38.4553 76.0859 38.4553 75.9183C39.6723 75.4515 40.9074 74.9803 42.2511 74.4683C42.975 72.624 43.7758 70.7345 43.8617 68.6547C43.9296 67.0733 43.8753 65.4873 43.8753 63.9059C44.1784 63.9059 44.477 63.9059 44.7801 63.9059C44.7801 63.983 44.762 64.1189 44.7846 64.1234C46.2912 64.5131 47.7977 64.5131 49.3043 64.1234C49.3224 64.1189 49.3088 63.983 49.3088 63.9059C50.0643 63.9059 50.8153 63.9059 51.5709 63.9059C52.1454 63.9059 52.7246 63.9422 53.2901 63.8833C53.4846 63.8651 53.652 63.6023 53.833 63.4528C53.9822 63.4528 54.1361 63.4528 54.2854 63.4528C54.4347 63.3033 54.5885 63.1492 54.7378 62.9997C54.7378 62.4378 54.7378 61.8759 54.7378 61.1872C54.3713 61.1872 54.1044 61.1872 53.833 61.1872C53.7153 61.0376 53.5977 60.7567 53.4801 60.7522C51.9057 60.7204 50.3313 60.7204 48.7614 60.7522C48.6392 60.7567 48.5261 61.0331 48.4085 61.1872C46.6667 61.0694 44.9294 61.3322 43.1695 60.802C41.9978 60.4486 40.636 60.7341 39.3602 60.7341C39.3104 60.6072 39.2606 60.4848 39.2109 60.3579C39.1113 60.4848 39.0073 60.6072 38.9078 60.7341C38.1522 60.5845 37.4012 60.4305 36.6457 60.2809C36.5326 60.1314 36.4195 59.9773 36.3018 59.8278C36.1163 59.9773 35.9263 60.1314 35.7408 60.2809C35.5916 60.2809 35.4377 60.2809 35.2884 60.2809C35.1753 60.1314 35.0622 59.9773 34.9446 59.8278C34.7591 59.9773 34.5691 60.1314 34.3836 60.2809C33.7185 60.8745 32.9042 60.7205 32.1215 60.7341C31.2167 60.7341 30.3119 60.7341 29.407 60.7341C29.1039 60.5845 28.8053 60.4305 28.5022 60.2809C28.3529 60.1314 28.1991 59.9773 28.0498 59.8278C27.9005 59.6783 27.7467 59.5242 27.5974 59.3747C27.7376 58.0651 26.7423 58.0697 25.8556 57.893C25.8194 57.5486 25.7787 57.1951 25.7696 57.0773C24.8241 55.8856 24.0278 54.8389 23.1818 53.8375C22.8153 53.398 22.4579 52.8315 21.716 53.0309C21.716 52.8134 21.716 52.5959 21.716 52.3784C20.5804 51.7758 19.3724 51.5492 18.0966 51.6715C18.0966 51.2184 18.0966 50.7653 18.0966 50.3122C18.5898 49.2156 18.8114 48.0511 19.0286 46.9319C17.7256 45.9214 16.2915 46.3065 14.9297 46.234C14.7804 46.0845 14.6266 45.9304 14.4773 45.7809C14.328 45.6314 14.1742 45.4773 14.0249 45.3278C13.8756 45.3278 13.7218 45.3278 13.5725 45.3278C12.9979 45.3278 12.4188 45.2915 11.8533 45.3504C11.6588 45.3686 11.4914 45.6314 11.3104 45.7809C10.858 45.9304 10.4056 46.0845 9.95315 46.234C9.60931 46.302 9.08903 46.0075 9.04832 46.6872C7.98514 46.5965 6.8541 46.9817 5.88141 46.234C5.83164 46.1072 5.78187 45.9848 5.7321 45.858C5.63257 45.9848 5.52852 46.1072 5.42899 46.234C4.81823 46.3473 4.21199 46.4606 3.61933 46.5739C3.02666 46.4651 2.42042 46.3473 1.80966 46.234C1.76895 45.5544 1.24867 45.8489 0.904832 45.7809C0.778155 45.7265 0.646966 45.6767 0.520289 45.6223C0.83698 45.1828 1.14913 44.7387 1.41154 44.3717C1.12199 43.5697 0.0814348 44.4669 0 43.5153C1.51559 43.3431 3.10357 43.9186 4.5513 43.0622C5.62353 43.5515 8.17063 43.7147 8.56876 43.3114C8.58685 42.9534 8.60948 42.5955 8.62757 42.2465C10.668 42.1967 12.3464 40.8056 14.4275 41.304C15.0474 40.2211 15.6129 39.2378 16.3548 37.9419C16.2553 37.235 16.1105 36.1701 15.9477 34.983C17.0108 35.5176 16.5403 33.8547 17.5447 33.8139C18.3319 33.7822 19.0965 33.2475 19.7706 32.9756C21.3043 30.0167 19.5398 27.5517 18.8522 25.064C18.255 24.7831 17.7528 24.5475 17.2687 24.3209C16.9656 23.5234 16.6715 22.744 16.3684 21.933C17.2008 21.0992 18.1057 20.193 18.9969 19.3003C19.0105 17.8594 18.9743 17.8367 19.4629 16.9848C20.3768 15.3944 21.3359 13.8311 22.2905 12.2361C23.5075 12.295 24.5752 12.1772 25.5932 11.3933C26.2085 10.922 27.1857 10.922 27.8326 10.7498C28.0769 10.2061 28.3031 9.77561 28.466 9.31795C28.5293 9.14124 28.4434 8.91014 28.4208 8.6292C27.8598 8.6292 27.3531 8.6292 26.7966 8.6292C26.7423 8.35733 26.7016 8.14889 26.6518 7.91326C26.0818 7.62326 25.4665 7.31514 24.8557 7.00701C24.8557 6.66717 24.8557 6.37264 24.8557 6.20952C24.2314 5.6703 23.7066 5.21717 23.123 4.7142C23.123 4.47405 23.123 4.12061 23.123 3.68108C24.2676 3.47264 25.3805 3.27326 26.3713 3.09201C26.7876 3.50889 27.0545 3.77623 27.4752 4.19764C27.8371 4.04358 28.3484 3.94389 28.6832 3.64029C29.0496 3.30951 29.3799 3.11467 29.8594 3.18717C29.8594 3.45451 29.8594 3.72185 29.8594 4.09342C30.3933 4.09342 30.805 4.09342 31.2167 4.09342C31.8184 4.09342 32.4246 4.09342 33.0264 4.09342C33.1757 4.09342 33.3295 4.09342 33.4788 4.09342C33.5512 4.83654 34.3022 4.64624 34.456 4.5103C35.2161 3.84874 36.1164 4.21123 36.985 4.03904C37.1614 3.7717 37.356 3.47717 37.5505 3.18717C38.3241 3.22342 39.1068 3.28232 39.3602 2.28092C40.9482 2.25373 42.5814 2.13139 43.2102 4.09342C44.2056 4.09342 45.1737 4.04811 46.1329 4.11607C46.5988 4.14779 47.0467 4.39701 47.5037 4.54654C47.5037 4.82295 47.5037 5.10389 47.5037 5.45279C48.5442 5.45279 49.431 5.47092 50.3177 5.43467C50.4399 5.43014 50.5529 5.15373 50.6706 4.99967C51.4216 5.2081 51.9916 4.58279 52.6838 4.55561C53.4891 4.52389 54.2989 4.55107 55.1042 4.54654C55.24 4.54654 55.3757 4.49217 55.6607 4.43326C55.801 3.7581 55.9503 3.02405 56.1041 2.28545C56.3755 2.28545 56.6425 2.28545 57.0089 2.28545C57.0089 1.5967 57.0089 1.03483 57.0089 0.472952C57.1582 0.472952 57.312 0.472952 57.4613 0.472952C58.4974 0.663265 59.5289 0.849047 60.5016 1.02577C60.9178 1.56952 60.117 2.43498 61.0807 2.73858C62.6686 4.47858 62.9084 4.65076 64.3245 5.02232C64.8312 4.72779 65.3741 4.41061 65.8491 4.1342C66.1296 3.31405 66.3784 2.58905 66.5368 2.13592C67.1295 1.70998 67.5004 1.44264 67.9302 1.13451C67.6724 1.03029 67.5457 0.975917 67.419 0.921542C67.419 0.772011 67.419 0.617948 67.419 0.468417C67.9529 0.0379481 68.5727 -0.0390797 69.2287 0.0152953C69.378 0.0152953 69.5318 0.0152953 69.6811 0.0152953C69.6811 0.595295 69.6811 1.17076 69.6811 1.61029C70.5904 2.06342 71.3279 2.43045 72.1241 2.8292C72.391 2.70686 72.6308 2.56186 72.8887 2.48029C73.2235 2.37154 73.5719 2.31264 73.8614 2.24467C74.4631 2.60717 74.721 3.42733 75.567 3.1917C75.7525 3.34123 75.9335 3.61764 76.1235 3.62217C77.1414 3.66748 78.1639 3.64483 79.1863 3.64483M44.7892 19.0465C45.1782 19.7489 45.5085 20.4376 45.0697 21.2714Z" fill="#D9D9D9"/>
<path d="M43.8878 63.9049C43.2861 63.9049 42.6799 63.9049 42.0781 63.9049C40.4133 63.3385 38.8931 62.2601 36.9839 62.5184C36.6084 62.5682 36.1922 62.2918 35.7036 62.1377C34.6269 62.6045 34.6269 62.6045 32.5774 62.0879C32.4281 61.9384 32.2743 61.7843 32.125 61.6348C32.125 61.4852 32.125 61.3312 32.125 61.1816C32.125 61.0321 32.125 60.878 32.125 60.7285C32.9077 60.7149 33.722 60.869 34.3871 60.2754C34.6902 60.2754 34.9888 60.2754 35.2919 60.2754C35.4412 60.2754 35.595 60.2754 35.7443 60.2754C36.0474 60.2754 36.346 60.2754 36.6492 60.2754C37.4047 60.4249 38.1557 60.579 38.9112 60.7285C39.0605 60.7285 39.2144 60.7285 39.3637 60.7285C40.6395 60.7285 42.0012 60.443 43.173 60.7965C44.9329 61.3266 46.6702 61.0684 48.412 61.1816C50.2216 61.1816 52.0313 61.1816 53.841 61.1816C54.1124 61.1816 54.3793 61.1816 54.7458 61.1816C54.7458 61.8704 54.7458 62.4323 54.7458 62.9941C54.5965 63.1437 54.4427 63.2977 54.2934 63.4473C54.1441 63.4473 53.9903 63.4473 53.841 63.4473C53.2664 63.4473 52.6873 63.411 52.1218 63.4699C51.9272 63.488 51.7598 63.7509 51.5789 63.9004C50.8233 63.9004 50.0723 63.9004 49.3168 63.9004C47.8103 63.9004 46.2992 63.9004 44.7926 63.9004C44.4895 63.9049 44.1909 63.9049 43.8878 63.9049Z" fill="#BEDEDE"/>
</svg>
