<svg width="191" height="129" viewBox="0 0 191 129" fill="none" xmlns="http://www.w3.org/2000/svg">
<path d="M3.81839 40.8002C3.99936 40.7187 4.18486 40.6326 4.51964 40.4785C5.4109 40.9905 6.42431 41.5751 7.43772 42.1596C7.61868 43.5824 6.88125 44.7787 6.44241 46.1154C4.55131 46.7498 2.94523 47.9188 1.64227 49.6724C0.479563 48.5351 0.827921 47.0851 0 45.9341C0.931977 45.481 1.74181 45.0913 2.55163 44.6971C2.61497 44.7832 2.67379 44.8648 2.73712 44.9509C3.24835 44.2576 3.75506 43.5598 4.26176 42.871C3.50623 42.3001 3.93149 41.4935 3.81839 40.8002Z" fill="#D9D9D9"/>
<path d="M180.261 30.8306C180.261 31.0572 180.356 31.3653 180.247 31.4967C179.387 32.4981 178.433 33.3908 177.637 34.4738C177.125 35.1716 175.976 35.4525 175.067 35.8014C173.515 36.395 172.036 37.043 171.086 38.7014C171.932 38.9506 172.701 39.1772 173.42 39.3902C173.529 43.4048 173.529 43.4048 170.226 45.8245C170.018 45.6705 169.792 45.4983 169.52 45.2989C169.099 45.4847 168.652 45.6795 168.122 45.9106C168.122 46.5088 168.122 47.1703 168.122 47.7911C166.905 48.8242 165.602 49.4994 164.064 49.9389C164.064 50.2652 164.064 50.6186 164.064 51.0128C162.141 52.0006 162.417 54.3161 161.141 55.7117C160.377 55.7117 159.635 55.7117 158.812 55.7117C157.337 57.4698 155.776 56.473 154.342 55.6981C152.116 56.6587 152.084 56.695 151.758 58.5211C150.587 59.3594 149.541 60.1025 148.591 60.7822C148.591 61.3577 148.591 61.7338 148.591 62.1098C149.609 63.3106 149.609 63.3106 151.129 63.9405C151.668 65.0597 152.039 66.2877 153.455 66.8088C153.953 66.9945 154.613 67.5201 154.5 68.3856C154.473 68.6031 154.799 68.8523 154.907 69.1061C155.464 70.4247 156.178 71.7115 155.803 73.1661C156.138 73.5014 156.405 73.7688 156.672 74.0361C156.898 75.2414 156.604 76.2609 155.875 77.285C155.242 78.1731 155.02 79.2697 156.016 80.3527C155.328 80.8149 154.704 81.2317 154.079 81.6531C154.17 81.7709 154.26 81.8887 154.351 82.0066C153.541 82.0066 152.736 82.0066 152.025 82.0066C150.424 83.3478 151.044 85.7358 149.252 86.9955C146.836 86.8822 144.669 88.7219 142.077 88.3413C140.688 92.7094 140.706 93.525 142.321 97.1862C141.615 97.8251 140.878 98.4958 140 99.2887C140 99.9186 140 100.82 140 101.926C139.48 102.13 138.892 102.361 138.358 102.574C138.064 103.335 137.761 104.119 137.525 104.731C136.037 105.66 134.458 105.265 133.16 105.696C131.73 106.172 130.377 105.809 129.106 106.068C127.798 107.377 126.527 108.65 125.079 110.1C124.871 111.346 125.527 113.082 124.111 114.478C124.111 115.506 124.111 116.621 124.111 117.89C122.605 117.59 121.139 118.257 119.718 117.414C119.329 117.183 118.678 117.323 118.157 117.4C117.827 117.445 117.533 117.785 117.212 117.812C116.465 117.876 115.705 117.835 115.122 117.835C113.615 116.902 112.231 116.045 110.833 115.184C110.398 115.846 109.951 116.53 109.435 117.319C108.928 117.319 108.268 117.319 107.639 117.319C107.146 117.024 106.657 116.73 106.001 116.34C106.123 115.615 106.25 114.867 106.413 113.884C106.159 113.68 105.698 113.313 105.178 112.896C104.504 112.697 103.694 112.461 103.345 112.357C102.024 111.056 101.02 110.064 100.016 109.067C99.2736 109.448 98.7126 109.738 97.9028 110.155C96.2198 109.973 94.2653 109.765 92.2114 109.548C91.8494 108.963 91.4061 108.252 90.836 107.332C89.8407 107.685 88.7459 108.075 87.4429 108.537C87.556 109.362 87.6782 110.263 87.8275 111.365C87.7551 111.505 87.5696 111.881 87.3253 112.361C86.7552 112.361 85.8956 112.624 85.4839 112.307C84.6877 111.686 84.2172 112.117 83.5295 112.361C82.5975 112.697 81.5751 112.783 80.4757 113C80.159 113.272 79.7202 113.653 79.322 113.993C79.5573 114.65 79.7473 115.175 79.9916 115.864C78.752 116.136 77.6572 116.376 76.2049 116.693C75.5489 117.35 74.626 118.275 73.6985 119.204C73.7754 119.272 73.8523 119.335 73.9292 119.403C72.8118 119.997 71.6988 120.59 70.5814 121.184C68.645 121.764 66.8489 121.184 64.994 120.119C63.9535 120.119 62.7546 120.119 61.4381 120.119C61.2118 119.811 60.9449 119.448 60.7594 119.195C59.8184 119.195 59.0674 119.195 58.1942 119.195C57.2261 120.545 56.2217 121.945 55.249 123.304C54.6563 123.304 54.2039 123.264 53.7696 123.322C53.5886 123.35 53.4393 123.594 53.2312 123.78C52.6114 123.458 51.9916 123.137 51.2542 122.752C51.0823 122.892 50.7475 123.033 50.6751 123.255C50.3312 124.288 50.1593 125.43 48.6845 125.325C48.6845 126.241 48.6845 126.902 48.6845 127.6C48.0465 127.858 47.4675 128.094 46.721 128.393C46.0288 127.165 43.916 127.305 44.0924 125.13C43.5903 125.103 43.0926 125.076 42.4773 125.04C41.396 126.34 40.3917 127.854 38.3196 128.28C37.84 128.04 37.2157 127.731 36.528 127.392C36.3426 126.227 35.7725 125.303 35.0848 124.351C34.1121 123.005 33.0716 121.619 32.6644 119.974C31.6239 118.587 30.5878 117.201 29.6061 115.887C29.6061 114.564 29.6061 113.358 29.6061 111.985C28.086 112.071 26.8192 111.532 25.9415 110.182C26.403 109.253 27.0137 108.605 28.19 108.745C28.19 108.301 28.19 107.948 28.19 107.676C27.4616 106.815 26.7649 105.99 26.0275 105.12C25.7108 105.279 25.3398 105.465 24.91 105.678C24.3988 105.066 23.9192 104.491 23.2949 103.738C23.2949 103.444 23.2949 102.841 23.2949 102.343C22.2091 101.033 21.1821 99.7917 20.1234 98.5094C19.7932 97.1364 20.793 96.2256 21.5712 95.3511C22.4353 94.3769 23.417 93.4933 24.4938 92.6912C25.842 91.6853 26.7739 90.1447 27.4978 88.4681C30.0223 87.4214 31.5243 85.2781 32.8816 83.1892C32.0582 82.3645 31.4338 81.7392 31.1126 81.4175C30.8774 79.1655 30.6964 77.4209 30.5154 75.6764C31.2167 75.7489 31.6962 75.4861 31.8727 74.7702C32.2165 74.7022 32.7368 74.9967 32.7775 74.317C34.2886 74.2944 34.4017 74.2128 34.5872 72.9577C34.7365 72.8398 35.0124 72.7265 35.0215 72.5997C35.1572 70.3386 33.8904 68.6983 32.5603 66.9538C30.9633 67.1441 29.3844 67.3298 27.8009 67.5202C27.6516 67.4023 27.3711 67.2891 27.3666 67.1667C27.3304 66.1291 27.3485 65.0869 27.3485 64.0809C27.6833 63.9495 27.9367 63.8498 28.2081 63.7411C28.2081 63.3786 28.2081 63.0252 28.2081 63.0252C27.6969 62.4089 27.3757 62.0237 27.0635 61.6522C26.7649 61.6522 26.4708 61.6522 26.4211 61.6522C25.9008 62.128 25.5253 62.4723 25.1588 62.8076C25.1588 63.1112 25.1588 63.4647 25.1588 63.7955C25.4891 63.9042 25.7515 63.9903 25.9913 64.0719C25.9913 65.1911 25.9913 66.2378 25.9913 67.2709C24.9733 68.3177 24.3128 69.5184 24.1454 71.1497C25.29 71.1497 26.317 71.1497 27.3485 71.1497C27.4978 71.2992 27.6516 71.4533 27.8009 71.6028C27.9729 72.0469 27.3802 72.7492 28.2534 72.9622C28.3981 73.4289 28.5429 73.8956 28.742 74.5345C27.7783 75.3728 26.792 76.27 25.6746 77.1037C23.5527 78.6851 21.0464 79.528 18.8929 81.0459C17.8976 81.7483 17.2415 82.872 15.9748 83.2481C14.8437 83.5834 13.776 84.1181 12.3147 84.7163C10.7268 84.5033 8.59589 85.3551 6.72289 83.8462C5.7321 83.8462 4.67797 83.8462 3.75051 83.8462C3.13071 83.4203 2.60591 83.0533 2.1173 82.718C1.9861 81.8797 1.85489 81.0369 1.6875 79.963C2.39327 78.513 3.04475 76.7141 4.26628 75.2188C4.33866 75.1281 4.27532 74.9242 4.27532 74.7747C4.27532 74.1041 4.1984 73.4198 4.29793 72.7583C4.39294 72.1103 4.06268 71.6572 3.8229 71.1497C4.06268 70.3477 4.63273 69.7133 4.80465 68.8252C4.9268 68.2044 5.14848 67.2936 6.1257 67.0262C6.48311 66.9266 6.75456 66.3466 6.97624 65.9388C7.6232 64.7652 8.91711 63.9314 9.03021 62.5041C9.15237 60.9906 10.3829 59.8034 10.1432 58.2175C9.93052 58.0045 9.71788 57.7916 9.50524 57.5786C9.28808 57.7417 9.0664 57.9048 8.98497 57.9683C8.23848 57.2206 7.55986 56.541 6.88124 55.8613C6.78171 55.9383 6.68217 56.0153 6.58264 56.0923C6.5555 55.5848 6.52835 55.0773 6.49668 54.5427C5.28421 53.6908 4.05816 52.8253 2.93164 52.0369C2.93164 51.3934 2.93164 50.9449 2.93164 50.537C4.26627 49.0236 5.80901 47.8681 7.81321 46.9573C8.05752 45.4303 9.46 44.0483 9.25189 42.1497C10.2201 42.3219 11.0254 41.7645 11.8895 41.5198C13.3146 41.112 14.6809 41.0124 16.0381 41.6966C16.5765 42.6889 17.1646 43.6586 16.9475 44.9636C18.1871 45.1403 19.2458 45.2944 20.327 45.4484C20.8699 44.2612 22.0779 44.4697 22.9149 43.9667C23.693 43.4955 24.5526 43.1375 25.2629 42.5801C26.0818 41.9367 26.7468 41.0984 27.525 40.4006C28.2217 39.7753 28.9048 39.0322 29.7418 38.6878C30.7507 38.2709 30.7552 36.9659 31.8139 36.7122C32.1894 36.7122 32.5649 36.7122 32.9087 36.7122C34.2569 37.3602 34.0714 38.928 34.9582 39.9928C35.7861 39.4853 36.614 38.9733 37.4962 38.4295C38.3332 38.8283 39.143 39.2134 39.885 39.5669C40.5907 40.8447 41.4187 42.0047 41.4322 43.4592C43.45 43.7039 45.5221 42.9653 47.0603 44.3338C47.8294 44.1933 48.4492 44.08 49.069 43.9622C49.069 44.5241 49.069 45.0859 49.069 45.5844C49.5893 45.8291 50.0055 46.0284 50.4263 46.2278C50.4263 46.5314 50.4263 46.8305 50.4263 47.1341C50.4263 48.797 50.4263 50.4555 50.4263 52.1184C50.4941 52.4628 50.2 52.9839 50.8787 53.0247C52.5481 52.8797 54.3261 53.4733 55.8552 52.3269C55.8552 52.1048 55.8552 51.8874 55.8552 51.6653C56.5067 51.4795 56.6786 51.0355 56.7963 50.3739C56.9863 49.2773 57.1311 48.1445 57.6649 47.1341C58.0087 47.0661 58.529 47.3606 58.5697 46.6809C59.0131 46.5088 59.7144 47.1024 59.927 46.2278C60.203 46.2278 60.4789 46.2278 61.0083 46.2278C60.7459 46.7308 60.5151 46.9981 60.4699 47.2927C60.402 47.7186 60.0084 48.3122 60.8318 48.4934C60.8997 48.8378 60.6056 49.3589 61.2842 49.3997C61.334 49.8619 61.3838 50.3195 61.4607 51.0445C62.1574 50.5325 62.6279 50.1927 63.0939 49.8528C63.6006 49.8528 64.1661 49.9978 64.5959 49.8211C65.4826 49.4586 66.7358 49.7441 67.1656 48.4934C68.817 48.0222 69.7354 47.2927 70.423 45.9877C71.8889 45.5934 73.2778 45.3261 74.5807 44.8413C75.7072 44.4199 76.8157 44.0166 78.0281 43.9622C78.1774 44.1117 78.3313 44.2658 78.4805 44.4153C78.5529 45.3578 78.5529 45.3578 79.3854 45.0859C79.3854 44.8639 79.3854 44.6419 79.3854 44.4153C79.5347 44.4153 79.6885 44.4153 79.8378 44.4153C80.2495 45.0089 80.6567 45.6025 81.0819 46.2188C81.7651 46.2188 82.5071 46.2188 83.4119 46.2188C83.611 45.9514 83.8779 45.598 84.1584 45.2264C85.0044 45.607 85.7599 46.1916 86.624 45.5436C86.624 45.3125 86.624 45.0905 86.624 44.8684C87.7822 44.6872 88.8228 44.2295 89.8633 43.7266C89.6643 42.775 89.7412 41.9141 88.6328 41.6014C88.2844 41.5017 88.1803 40.5955 87.8184 40.4641C87.2348 40.2511 86.9724 40.0336 87.081 39.4264C89.1395 38.9098 89.1395 38.9098 90.4108 39.4762C91.1392 38.4341 92.2838 39.2406 93.4691 38.8419C93.5732 38.5247 93.7179 38.0716 93.8672 37.6139C94.0165 37.4644 94.1703 37.3103 94.3196 37.1608C94.4689 37.0113 94.6228 36.8572 94.7721 36.7077C94.9214 36.7077 95.0752 36.7077 95.2245 36.7077C95.4959 36.7077 95.7674 36.7077 96.1293 36.7077C96.1293 35.8648 96.1293 35.1534 96.1293 34.442C96.5817 34.442 97.0341 34.442 97.4866 34.442C98.129 35.525 99.2012 35.3347 100.201 35.3483C100.4 35.6247 100.577 36.1095 100.807 36.1413C101.821 36.2817 102.735 36.9886 103.82 36.7077C104.155 37.9991 105.413 38.1305 106.34 38.4613C107.422 38.8509 108.231 37.6864 109.204 37.4236C109.254 37.188 109.295 36.9841 109.335 36.7711C109.747 36.7258 110.1 36.6895 110.512 36.6442C110.552 36.4312 110.598 36.2273 110.665 35.8875C111.638 35.9555 112.38 35.5159 112.629 34.4466C112.927 34.4466 113.226 34.4466 113.57 34.4466C114.022 33.9799 114.529 33.5267 114.95 33.0011C115.108 32.8062 115.072 32.4573 115.126 32.1764C115.276 32.0269 115.429 31.8728 115.579 31.7233C115.728 31.5738 115.882 31.4197 116.031 31.2702C116.447 31.2702 116.859 31.2702 116.968 31.2702C117.547 30.6766 117.918 30.2959 118.293 29.9108C118.705 29.9108 119.117 29.9108 119.65 29.9108C119.65 29.5392 119.65 29.2719 119.65 29.0045C120.619 28.855 121.582 28.5877 122.55 28.5786C123.903 28.565 125.211 28.4653 126.437 27.8536C126.437 27.6316 126.437 27.4141 126.437 27.192C127.495 27.1377 128.572 27.3144 129.604 27.0923C129.604 26.7208 129.604 26.5033 129.604 26.2858C129.947 26.2178 130.468 26.5123 130.508 25.8327C130.784 25.7828 131.16 25.8281 131.318 25.6605C131.703 25.2572 131.943 24.7089 132.332 24.3102C132.748 23.8842 133.558 23.8888 133.675 23.1139C134.019 23.0459 134.539 23.3405 134.58 22.6608C135.327 22.4705 135.535 21.9448 135.489 21.2334C135.462 20.803 135.485 20.3725 135.485 19.942C135.485 19.1853 135.485 18.4331 135.485 17.6764C135.788 16.7248 136.729 16.7022 137.421 16.2944C137.666 16.1494 137.765 15.7552 137.86 15.5966C138.394 15.0664 139.263 15.9409 139.557 14.9577C139.706 14.9577 139.86 14.9577 140.009 14.9577C140.611 14.9577 141.217 14.9577 141.819 14.9577C141.968 14.9577 142.122 14.9577 142.271 14.9577C142.375 15.1072 142.448 15.3428 142.588 15.3972C143.072 15.5875 143.579 15.7144 144.081 15.8639C144.081 16.1403 144.081 16.4212 144.081 16.82C145.221 16.6478 146.157 16.7702 147.193 16.4167C148.076 16.1177 149.252 16.6795 150.374 16.8744C150.6 17.2686 150.84 17.6945 151.084 18.1205C152.111 18.0027 152.971 18.9361 154.034 18.5827C154.229 18.8727 154.419 19.1627 154.676 19.5523C155.789 19.5523 156.929 19.5523 158.056 19.5523C158.097 20.0281 158.128 20.377 158.169 20.8483C158.775 20.8483 159.345 20.8483 159.915 20.8483C160.49 20.8483 161.069 20.8845 161.635 20.8256C161.829 20.8075 161.997 20.5447 162.177 20.3952C162.327 20.3952 162.481 20.3952 162.63 20.3952C163.232 20.3952 163.838 20.3952 164.44 20.3952C164.589 20.2456 164.743 20.0916 164.892 19.942C165.317 19.942 165.752 19.9873 166.168 19.9194C166.362 19.8877 166.525 19.6384 166.702 19.4889C167.973 19.5342 169.185 19.4527 169.869 18.1295C170.389 18.1295 170.909 18.1295 171.515 18.1295C172.23 17.2233 172.981 16.2808 173.691 15.3791C174.261 15.3791 174.7 15.3791 175.144 15.3791C175.248 15.0981 175.293 14.7945 175.456 14.5952C175.646 14.3641 175.949 14.2281 176.202 14.0469C178.234 13.5122 178.777 12.9684 179.369 10.875C179.519 10.6847 179.799 10.4989 179.804 10.3086C179.84 8.68641 179.822 7.05969 179.822 5.4375C180.5 5.39672 180.206 4.87562 180.274 4.53125C181.238 4.23219 180.442 3.38484 180.559 3.22171C181.64 1.96202 182.464 1.00141 183.319 0C183.608 0 183.975 0 184.346 0C184.346 1.05578 184.346 2.11609 184.346 3.17188C184.346 3.47547 184.346 3.77453 184.346 4.07812C184.346 4.38172 184.346 4.68078 184.346 4.98438C183.667 5.02516 183.961 5.54625 183.893 5.89062C183.767 5.945 183.568 5.95859 183.518 6.05374C182.391 8.33749 182.98 10.5306 184.088 12.5788C184.441 13.2313 184.771 13.7614 184.853 14.5362C184.916 15.1208 185.178 15.9228 186.065 15.9862C186.146 16.4122 186.223 16.8245 186.296 17.2188C186.608 17.2188 186.834 17.2188 187.056 17.2188C187.205 17.3683 187.359 17.5223 187.508 17.6719C187.508 17.9483 187.508 18.2292 187.508 18.5238C188.522 18.5736 189.377 18.6144 190.223 18.6552C190.223 19.0358 190.223 19.2578 190.223 19.4844C190.073 19.6339 189.92 19.788 189.77 19.9375C189.544 19.9375 189.322 19.9375 189.132 19.9375C188.752 20.8347 188.372 21.7274 188.047 22.4931C186.943 22.8149 185.938 22.7922 185.246 23.5625C184.586 23.5625 183.925 23.5534 183.265 23.567C182.563 23.5806 181.862 23.6169 181.174 23.6395C181.174 24.0292 181.174 24.2467 181.174 24.4688C181.025 24.9309 180.763 25.3886 180.745 25.8553C180.686 27.2011 180.722 28.5559 180.722 29.9062C180.034 29.9652 180.328 30.4863 180.261 30.8306Z" fill="#D9D9D9"/>
<path d="M19.1716 95.9682C17.7329 96.4032 17.5248 95.3701 17.0633 94.4774C15.6427 95.8232 14.3624 97.1055 12.4396 97.4816C11.9058 97.1146 11.3357 96.7204 10.5938 96.2129C11.2317 94.6043 11.9148 92.8734 12.6251 91.079C12.0098 90.4627 11.5031 89.9507 10.9783 89.4296C11.7067 88.3783 12.3853 87.3951 13.3037 86.072C14.2855 85.6324 15.6925 85.0252 17.0769 84.3773C17.5202 84.1688 17.9862 83.9196 18.3165 83.5752C19.2304 82.6237 20.2166 81.8352 21.4608 81.3368C23.5012 80.5257 25.2475 79.1845 27.0798 78.0018C27.6634 77.6212 28.2787 77.2904 29.0433 76.8418C29.3057 78.6045 29.5364 80.1677 29.8079 82.0074C29.8486 82.0437 30.1381 82.2793 30.4412 82.5285C30.4412 83.0723 30.4412 83.5798 30.4412 84.1371C29.3871 85.2427 28.2606 86.3665 26.7586 87.0416C26.4238 87.1912 26.2292 87.6715 25.9895 88.0113C25.0303 89.3843 24.3698 90.8841 22.8135 91.9127C21.3251 92.9006 19.9723 94.2826 19.1716 95.9682Z" fill="#D9D9D9"/>
<path d="M28.7031 69.3457C29.1646 69.1962 29.617 68.9787 30.0875 68.9108C30.5987 68.8337 31.1281 68.8926 31.6891 68.8926C32.1777 69.5814 32.6753 70.2837 33.2228 71.054C33.2228 71.6204 33.2228 72.2956 33.2228 72.9707C32.8789 73.0387 32.3587 72.7442 32.3179 73.4239C31.5624 73.5734 30.8114 73.7275 30.0559 73.877C30.2685 72.7986 29.4677 72.06 29.151 71.1582C29.1013 70.8818 29.0696 70.6009 28.9972 70.3336C28.9203 69.9982 28.8027 69.6765 28.7031 69.3457Z" fill="#D9D9D9"/>
</svg>
