<svg width="65" height="74" viewBox="0 0 65 74" fill="none" xmlns="http://www.w3.org/2000/svg">
<path d="M32.4887 73.9932V74C32.4921 74 32.4954 73.9966 32.4988 73.9966C32.5022 73.9966 32.5056 74 32.509 74V73.9932C53.5508 64.5482 68.3644 47.1294 64.3385 32.8612C61.0758 21.3033 50.3219 22.7472 50.3219 22.7472C44.4822 22.7472 40.1826 24.4983 37.2678 26.3415V17.4973H45.6913V7.90553H37.2678V0H27.7771V7.90553H19.4043V17.4973H27.7771V26.3688C24.8623 24.5119 20.5492 22.7438 14.6791 22.7438C14.6791 22.7438 3.92182 21.2965 0.662532 32.8578C-3.36682 47.1294 11.4469 64.5482 32.4887 73.9932ZM32.4583 30.5128H32.5393C32.5191 30.5401 32.5056 30.5605 32.4988 30.5674C32.4921 30.5571 32.4785 30.5366 32.4583 30.5128Z" fill="#E10B17"/>
</svg>
