<svg width="86" height="33" viewBox="0 0 86 33" fill="none" xmlns="http://www.w3.org/2000/svg">
<path d="M3.68531 24L4.72531 21.6H10.2053L11.2453 24H14.7653L7.50531 8.32L0.305314 24H3.68531ZM5.94531 18.8L7.44531 15.32L8.96531 18.8H5.94531ZM31.1413 24V9H27.9413L23.5413 15.96L19.1213 9H15.9213V24H19.2813V14.9L23.5413 21.54L27.8013 14.88V24H31.1413ZM37.282 24V9H33.922V24H37.282ZM45.0473 14.68C43.7273 14.08 43.0873 13.68 43.0873 12.76C43.0873 11.86 43.6873 11.46 44.4873 11.46C45.4873 11.46 45.9673 12.12 46.0273 13.02H49.5673C49.3873 10.46 47.5673 8.66 44.5873 8.66C41.8673 8.66 39.5273 10.14 39.5273 12.92C39.5273 15.24 41.1273 16.56 42.8273 17.32L44.0073 17.84C45.6273 18.58 46.4873 19 46.4873 20.02C46.4873 20.98 45.7473 21.46 44.7273 21.46C43.6673 21.46 42.8673 20.96 42.7673 19.46H39.2273C39.2873 22.66 41.6073 24.26 44.6673 24.26C47.4673 24.26 50.0073 22.94 50.0073 19.7C50.0073 17.2 48.5073 16.28 46.2873 15.24L45.0473 14.68ZM56.9544 14.68C55.6344 14.08 54.9944 13.68 54.9944 12.76C54.9944 11.86 55.5944 11.46 56.3944 11.46C57.3944 11.46 57.8744 12.12 57.9344 13.02H61.4744C61.2944 10.46 59.4744 8.66 56.4944 8.66C53.7744 8.66 51.4344 10.14 51.4344 12.92C51.4344 15.24 53.0344 16.56 54.7344 17.32L55.9144 17.84C57.5344 18.58 58.3944 19 58.3944 20.02C58.3944 20.98 57.6544 21.46 56.6344 21.46C55.5744 21.46 54.7744 20.96 54.6744 19.46H51.1344C51.1944 22.66 53.5144 24.26 56.5744 24.26C59.3744 24.26 61.9144 22.94 61.9144 19.7C61.9144 17.2 60.4144 16.28 58.1944 15.24L56.9544 14.68ZM67.2414 12.04H73.0014V9H63.8814V24H67.2414V17.88H72.8014V14.84H67.2414V12.04ZM79.9677 14.68C78.6477 14.08 78.0077 13.68 78.0077 12.76C78.0077 11.86 78.6077 11.46 79.4077 11.46C80.4077 11.46 80.8877 12.12 80.9477 13.02H84.4877C84.3077 10.46 82.4877 8.66 79.5077 8.66C76.7877 8.66 74.4477 10.14 74.4477 12.92C74.4477 15.24 76.0477 16.56 77.7477 17.32L78.9277 17.84C80.5477 18.58 81.4077 19 81.4077 20.02C81.4077 20.98 80.6677 21.46 79.6477 21.46C78.5877 21.46 77.7877 20.96 77.6877 19.46H74.1477C74.2077 22.66 76.5277 24.26 79.5877 24.26C82.3877 24.26 84.9277 22.94 84.9277 19.7C84.9277 17.2 83.4277 16.28 81.2077 15.24L79.9677 14.68Z" fill="black"/>
</svg>
