<svg width="55" height="62" viewBox="0 0 55 62" fill="none" xmlns="http://www.w3.org/2000/svg">
<path d="M27.4904 61.6864V61.6921C27.4933 61.6921 27.4961 61.6892 27.499 61.6892C27.5019 61.6892 27.5047 61.6921 27.5076 61.6921V61.6864C45.3122 53.8123 57.8468 39.2907 54.4403 27.3956C51.6795 17.7601 42.58 18.9638 42.58 18.9638C37.6388 18.9638 34.0007 20.4236 31.5343 21.9603V14.5871H38.6619V6.59065H31.5343V0H23.5037V6.59065H16.419V14.5871H23.5037V21.9831C21.0373 20.435 17.3878 18.9609 12.4208 18.9609C12.4208 18.9609 3.31846 17.7544 0.560604 27.3928C-2.84885 39.2907 9.68582 53.8123 27.4904 61.6864ZM27.4647 25.4378H27.5333C27.5161 25.4605 27.5047 25.4776 27.499 25.4833C27.4933 25.4748 27.4819 25.4577 27.4647 25.4378Z" fill="#E10B17"/>
</svg>
