<svg width="76" height="85" viewBox="0 0 76 85" fill="none" xmlns="http://www.w3.org/2000/svg">
<path d="M37.9868 84.9921V85C37.9907 85 37.9947 84.9961 37.9986 84.9961C38.0026 84.9961 38.0065 85 38.0105 85V84.9921C62.6132 74.1432 79.9338 54.1351 75.2265 37.746C71.4117 24.47 58.8379 26.1285 58.8379 26.1285C52.0099 26.1285 46.9828 28.1399 43.5747 30.2572V20.0982H53.4237V9.08067H43.5747V0H32.4778V9.08067H22.6881V20.0982H32.4778V30.2885C29.0698 28.1556 24.0268 26.1246 17.1633 26.1246C17.1633 26.1246 4.58551 24.4622 0.774652 37.7421C-3.93659 54.1351 13.384 74.1432 37.9868 84.9921ZM37.9512 35.0484H38.046C38.0223 35.0798 38.0065 35.1033 37.9986 35.1112C37.9907 35.0994 37.9749 35.0759 37.9512 35.0484Z" fill="#E10B17"/>
</svg>
