<svg width="122" height="139" viewBox="0 0 122 139" fill="none" xmlns="http://www.w3.org/2000/svg">
<path d="M60.9788 138.987V139C60.9851 139 60.9914 138.994 60.9978 138.994C61.0041 138.994 61.0105 139 61.0168 139V138.987C100.511 121.246 128.315 88.5268 120.758 61.7258C114.635 40.0156 94.4503 42.7278 94.4503 42.7278C83.4896 42.7278 75.4197 46.017 69.9489 49.4794V32.8666H85.7591V14.8496H69.9489V0H52.1354V14.8496H36.4203V32.8666H52.1354V49.5307C46.6646 46.0427 38.5693 42.7214 27.5516 42.7214C27.5516 42.7214 7.36095 40.0028 1.24352 61.7194C-6.31927 88.5268 21.4849 121.246 60.9788 138.987ZM60.9217 57.3145H61.0738C61.0358 57.3658 61.0104 57.4043 60.9978 57.4171C60.9851 57.3978 60.9597 57.3594 60.9217 57.3145Z" fill="#E10B17"/>
</svg>
