<svg width="204" height="211" viewBox="0 0 204 211" fill="none" xmlns="http://www.w3.org/2000/svg">
<path d="M169.284 101.374C169.008 101.424 168.61 101.374 168.475 101.542C167.801 102.362 167.217 103.25 166.561 104.088C165.959 104.854 166.127 105.729 166.127 106.463C164.769 107.324 163.471 108.148 162.005 109.082C161.725 109.082 161.204 109.082 160.689 109.082C160.263 109.082 159.829 109.127 159.413 109.059C159.218 109.027 159.055 108.778 158.879 108.629C158.879 108.479 158.879 108.325 158.879 108.175C158.987 108.026 159.06 107.795 159.205 107.736C159.992 107.405 160.797 107.12 161.593 106.816C162.258 106.612 162.924 106.404 163.082 106.354C163.738 105.697 164.118 105.316 164.394 105.04C164.272 105.026 163.919 104.99 163.426 104.936C163.376 104.201 163.507 103.372 162.951 102.733C162.648 102.131 162.349 101.524 162.046 100.921C162.245 100.626 162.444 100.327 162.657 100.01C163.394 100.486 164.091 100.939 164.937 101.487C165.471 100.499 166.733 99.8877 165.719 98.3698C165.376 97.8532 165.665 96.9107 165.665 96.657C165.389 95.3927 164.733 95.0257 164.118 94.5771C163.521 94.1421 163.046 93.5395 162.602 93.0954C162.819 92.8099 163.032 92.5245 163.19 92.316C164.548 92.2526 165.561 92.9277 165.991 93.8612C166.543 95.0665 167.466 95.497 168.497 95.9501C169.506 94.781 170.497 93.6255 171.551 92.4021C171.551 92.1484 171.551 91.7723 171.551 91.3962C172.003 91.0926 172.456 90.7935 172.908 90.4899C173.61 90.5624 174.089 90.2996 174.266 89.5837C174.818 89.1532 175.365 88.7227 176.075 88.1699C176.075 88.8768 176.075 89.4568 176.075 90.0368C175.926 90.4899 175.772 90.943 175.623 91.3962C174.664 91.6998 175.46 92.5698 175.188 92.9232C174.057 94.2509 172.623 95.1027 172.085 96.7023C172.289 96.8926 172.492 97.0829 172.696 97.2732C173.772 96.1857 175.075 96.3262 176.197 96.4168C178.098 97.5541 180.242 97.9891 181.504 99.847C181.504 100.164 181.504 100.54 181.504 100.916C181.219 101.311 180.934 101.705 180.654 102.099C182.255 102.606 183.893 102.86 185.576 102.729C186.042 102.878 186.558 103.245 186.96 103.146C188.517 102.751 190.272 102.747 191.367 101.247C191.485 101.084 191.693 100.989 191.96 100.789C193.109 101.619 194.651 101.727 195.547 103.019C195.547 104.201 195.547 105.407 195.547 106.594C196.751 107.713 196.371 109.177 196.448 110.473C196.095 111.143 195.769 111.76 195.443 112.38C195.977 113.962 197.339 115.24 196.837 117.075C196.375 117.818 194.982 117.677 195.009 119.127C194.412 118.978 193.896 118.846 193.353 118.706C193.353 117.102 193.353 115.693 193.353 114.356C192.851 113.853 192.426 113.427 192.005 113.006C191.471 111.334 192.679 109.988 192.86 108.438C193.041 106.898 193.493 105.389 193.855 103.739C193.072 103.739 192.421 103.739 191.43 103.739C191.349 103.844 191.123 104.265 190.774 104.523C190.272 104.895 189.707 105.207 189.123 105.429C188.539 105.656 187.892 105.729 187.286 105.905C186.752 106.059 186.078 106.118 185.734 106.481C184.599 107.681 183.228 107.858 181.703 107.677C181.237 106.961 180.088 107.224 179.699 106.354C179.518 106.204 179.342 105.937 179.152 105.923C178.432 105.874 177.708 105.901 176.985 105.901C176.035 105.978 175.098 105.905 174.342 105.266C174.044 105.013 173.908 104.573 173.696 104.22C174.085 103.653 174.401 103.191 174.718 102.729C174.867 102.729 175.021 102.729 175.17 102.729C176.623 102.616 178.12 102.094 178.69 101.496C178.636 101.456 178.577 101.374 178.523 101.374C177.708 101.365 176.89 101.369 176.075 101.369C175.772 101.369 175.474 101.369 175.17 101.369C174.894 101.32 174.614 101.288 174.347 101.215C174.017 101.129 173.691 101.016 173.361 100.916C172.515 100.277 171.492 100.277 170.646 100.916C170.628 101.261 170.547 101.469 170.194 101.143C169.841 100.817 169.76 101.025 169.741 101.369C169.588 101.374 169.434 101.374 169.284 101.374Z" fill="#BEDEDE"/>
<path d="M185.571 87.3268C186.272 88.2285 185.973 89.2797 186.009 90.1679C185.733 90.6618 185.503 91.0741 185.177 91.6586C183.091 89.7963 181.132 88.0472 179.214 86.3299C179.395 85.6729 179.544 85.1427 179.689 84.608C180.35 84.2727 180.92 83.8558 181.083 83.1535C180.807 82.4013 179.766 83.294 179.689 82.3424C179.689 82.1929 179.689 82.0388 179.689 81.8893C179.54 81.7397 179.386 81.5857 179.237 81.4361C179.35 80.5933 179.468 79.755 179.594 78.8125C179.264 78.7582 178.848 78.6902 178.246 78.595C179.201 76.8097 178.798 75.1422 177.961 73.4838C178.097 73.2482 178.26 72.9491 178.54 72.4507C178.83 72.3329 179.431 71.848 179.848 71.9794C180.816 72.274 181.852 72.2151 182.766 72.564C183.485 72.8358 184.082 73.4204 184.571 73.7602C185.059 75.9352 183.367 77.5211 183.77 79.3744C182.589 80.7293 182.662 81.9527 183.562 83.3574C184.046 84.1096 184.611 84.7893 185.109 85.5188C185.109 85.6683 185.109 85.8224 185.109 85.9719C185.258 86.1214 185.412 86.2755 185.562 86.425C185.571 86.7241 185.571 87.0232 185.571 87.3268Z" fill="#BEDEDE"/>
<path d="M2.3391 73.7337C1.90931 73.7337 1.47952 73.7337 1.07234 73.7337C1.0271 73.4302 0.963765 73.2806 0.99091 73.1537C1.02258 73.0269 1.12662 72.8411 1.2352 72.8139C2.321 72.5466 2.37077 71.0105 3.67373 70.9017C3.49729 68.7675 5.18932 67.825 6.62801 67.0728C7.97168 66.3659 8.9851 65.4098 10.0528 64.4356C10.9124 63.6517 11.8217 62.9177 12.627 62.2334C12.4687 61.1369 12.3149 60.072 12.1746 59.0661C11.6951 58.0284 11.2291 57.0134 10.754 55.9848C11.4417 55.3777 12.0027 54.8837 12.7039 54.272C14.4231 54.6572 16.0066 52.9534 17.9248 53.3839C19.4359 51.4038 19.4495 51.1817 18.2279 48.9977C19.7209 48.2183 21.3406 48.3633 22.9195 48.3723C23.0959 48.1956 23.2543 48.037 23.4172 47.8739C24.046 46.9767 23.1502 46.2381 23.1683 45.4225C23.1864 44.6023 23.1005 43.8366 22.4354 43.0028C22.2725 42.9711 21.8201 42.9711 21.4582 42.7898C21.146 42.6312 20.9334 42.2642 20.7253 42.0377C18.7437 41.947 16.9476 42.3911 15.1244 42.885C13.6721 43.2792 12.0887 43.397 10.5776 43.3336C9.50085 43.2883 8.60959 43.7958 7.6007 43.8592C6.67777 43.9181 5.76389 44.1447 4.84549 44.2942C4.47451 42.3639 4.47451 42.3639 5.33862 40.5786C6.14844 40.1164 6.99446 39.627 7.89929 39.1105C7.64594 38.5984 7.46045 38.2269 7.28853 37.8825C7.94906 36.4733 9.51894 36.65 10.6228 35.7891C11.2426 34.8511 11.8534 33.8452 10.9667 32.5583C10.7631 32.2637 10.935 31.7019 10.935 31.3348C11.8986 30.7186 11.8987 30.7186 12.8352 30.6416C13.9345 29.7852 14.8982 29.033 15.8482 28.2944C16.2328 28.5617 16.4635 28.7203 16.7485 28.9152C17.21 28.6795 17.7031 28.4348 18.1465 28.2083C17.9474 27.4108 17.762 26.6541 17.5584 25.8158C17.4136 25.7569 17.1557 25.6572 16.8979 25.553C17.0245 24.7963 17.3186 24.0169 17.2281 23.2873C17.1376 22.5578 16.6626 21.8736 16.3188 21.0852C17.1648 19.7031 18.9292 20.2106 19.9743 19.3814C20.4267 19.8844 20.8746 20.3783 21.1822 20.7181C22.5892 20.7453 23.6524 20.6547 24.6025 21.4431C25.5299 22.218 26.6022 22.2633 27.7739 21.6652C28.7014 21.1939 29.8912 21.2619 30.5744 20.3012C31.8909 20.12 32.9948 20.4372 34.0037 21.3344C34.438 21.7195 35.1528 21.792 35.8812 22.0594C36.302 21.8419 36.8584 21.5519 37.4556 21.2437C38.0438 21.2437 38.6998 21.2437 39.582 21.2437C39.3603 21.6742 39.2743 22.0231 39.0527 22.2316C36.9218 24.2616 36.0531 26.7402 36.3201 29.7036C36.5825 29.7353 36.7906 29.7625 37.0032 29.7806C37.148 29.7942 37.2973 29.7987 37.442 29.8078C37.8673 30.2338 38.2926 30.6642 38.8445 31.2125C40.0932 31.0177 41.4414 30.8092 42.8077 30.5962C43.4049 31.4073 43.9568 32.1641 44.4997 32.9027C45.2145 32.9072 45.771 32.9752 46.4406 32.6036C47.4631 32.0327 48.5308 31.2805 49.8609 31.5841C49.9694 31.6112 50.1413 31.5116 50.2364 31.4255C51.2724 30.4694 52.5573 30.773 53.7788 30.6733C55.2627 30.5555 56.6199 31.0358 58.0134 31.3756C58.502 31.4934 59.1852 31.7653 59.4792 31.5478C60.7053 30.6416 62.1032 30.2202 63.5057 29.7716C63.6369 29.7308 63.8134 29.6583 63.8586 29.5495C64.5598 27.9002 66.3107 27.4697 67.4915 26.4456C67.4915 26.0741 67.4915 25.775 67.4915 25.5077C66.9441 25.1406 66.4102 24.7827 65.7768 24.3567C65.2882 24.3703 64.5825 24.1075 64.0124 24.8914C63.4831 23.097 65.1435 22.3811 65.5099 20.8586C66.2564 21.5428 66.7903 22.0322 67.3467 22.5442C67.772 22.5442 68.2199 22.5442 68.5502 22.5442C69.0252 23.1922 69.455 23.7677 69.8577 24.3159C70.3915 24.3159 70.8394 24.3159 71.337 24.3159C72.1423 23.5003 72.9838 22.6484 73.8751 21.7513C73.5674 20.4417 73.0879 19.2002 72.0247 18.2259C72.916 17.3514 73.5855 18.8241 74.6532 18.3302C74.9383 17.868 75.3364 17.2155 75.7752 16.4995C75.1916 16.1959 74.7166 15.9422 74.0515 15.5933C73.8344 15.9558 73.6036 16.3455 73.1829 17.0433C72.7848 16.1234 72.5586 15.5978 72.3007 15.0087C74.2823 14.03 75.549 12.3852 77.4401 11.6284C78.5983 11.1662 78.6798 9.79781 79.7429 8.89609C80.2361 8.89609 81.0459 8.89609 81.9281 8.89609C81.9281 8.16203 81.9281 7.50047 81.9281 6.75281C82.7153 6.75281 83.4256 6.75281 84.1585 6.75281C84.2038 7.14703 84.2445 7.50047 84.2942 7.94C84.8009 7.94 85.3076 7.94 85.9863 7.94C86.4477 7.31468 87.0042 6.55797 87.5607 5.80578C88.9812 5.80578 90.3928 5.80578 91.6731 5.80578C92.026 6.88422 92.3472 7.88109 92.7499 9.11812C92.5418 9.47609 92.1934 10.0878 91.931 10.5455C90.6416 10.7947 89.5242 11.0122 88.3298 11.2478C88.8184 12.2673 89.2527 13.1102 90.3702 13.5678C91.0759 13.8578 91.56 14.6916 91.9174 15.0541C94.2066 15.8969 95.9213 14.3608 97.8803 14.3653C98.6765 13.6041 100.129 14.2339 100.717 13.0286C101.785 13.1419 102.608 12.5981 103.522 12.145C104.368 11.7236 105.187 11.343 105.843 10.6406C106.069 10.4005 106.445 10.3008 106.739 10.1422C107.055 8.99125 107.367 7.84484 107.693 6.66218C108.77 6.66218 109.666 6.71203 110.552 6.64859C111.552 6.58062 112.552 6.87062 113.57 6.27703C114.045 6.00062 114.977 5.96437 115.647 6.58969C116.027 6.94765 116.651 7.04281 117.108 7.22859C117.293 8.47015 117.479 9.68 117.655 10.8672C118.719 12.0544 119.736 13.228 121.578 12.9923C121.953 12.5845 122.36 12.1405 122.704 11.7689C122.949 11.71 123.089 11.6511 123.225 11.6511C124.505 11.642 125.79 11.5877 127.066 11.6602C129.491 11.8006 131.811 11.4834 134.046 10.4866C134.49 10.2917 135.263 10.1105 135.503 10.3325C136.25 11.0258 137.069 10.6089 137.901 10.7675C138.824 9.68453 138.652 7.91281 140.367 7.0564C140.738 7.0564 141.394 7.0564 141.914 7.0564C142.846 6.49453 142.339 5.09437 143.362 4.895C144.167 4.74094 144.864 4.5325 145.502 4.0114C145.687 3.85734 146.076 3.9525 146.311 3.93891C147.583 2.88312 148.822 1.85453 150.112 0.785156C150.487 0.785156 150.94 0.785156 151.492 0.785156C151.731 1.14766 152.003 1.55547 152.369 2.11281C153.478 1.98141 154.772 1.62797 156.025 1.74578C157.251 1.85906 158.436 2.44812 159.925 2.91937C160.16 3.57641 160.486 4.49625 160.816 5.41609C160.734 5.46593 160.657 5.52031 160.576 5.57016C161.286 6.23625 161.956 6.95672 162.725 7.54578C163.39 8.05781 164.123 8.56531 164.91 8.80093C165.67 9.0275 166.534 8.87344 167.349 8.94141C167.969 8.99125 168.584 9.12265 169.534 9.27219C169.661 9.2314 170.145 9.12265 170.583 8.91875C170.973 8.74203 171.312 8.46109 171.877 8.09406C172.28 8.09406 172.941 8.09406 173.818 8.09406C173.94 8.43844 174.366 9.15891 174.216 9.31297C173.334 10.2056 174.094 11.4155 173.425 12.4259C172.832 13.3186 171.99 13.8986 171.43 14.7595C171.045 14.8003 170.688 14.8411 170.393 14.8728C170.163 15.4302 169.846 15.9286 169.76 16.4633C169.661 17.0705 169.33 17.3061 168.842 17.5553C167.91 18.0266 167.204 18.7516 166.86 19.7575C166.702 20.2242 166.417 20.8994 166.611 21.1939C167.263 22.1545 166.86 23.2012 167.109 24.3431C167.362 24.3431 167.643 24.3431 167.923 24.3431C168.163 25.1678 167.34 25.4216 167.154 25.7841C167.539 26.5906 167.864 27.2748 168.195 27.9681C168.38 27.9681 168.606 27.9681 168.828 27.9681C169.081 28.9695 169.864 28.9106 170.638 28.8744C170.787 29.0239 170.941 29.178 171.09 29.3275C171.144 29.9845 171.068 30.6053 170.638 31.14C169.588 31.4345 170.647 32.513 169.846 33.0159C169.466 33.0159 168.968 33.0159 168.281 33.0159C168.679 33.5325 168.982 33.9222 169.281 34.3119C169.281 34.765 169.281 35.2181 169.281 35.6712C168.706 35.6712 168.127 35.635 167.561 35.6939C167.367 35.712 167.199 35.9748 167.018 36.1244C166.901 37.1258 167.629 37.7692 168.326 37.8734C169.471 38.0411 170.181 38.8159 171.09 39.2962C171.158 39.6406 170.864 40.1617 171.543 40.2025C171.715 40.6466 171.122 41.3489 171.995 41.5619C171.742 43.3653 172.61 45.06 172.538 46.8498C172.538 46.8952 172.773 46.9495 172.9 46.9994C173.09 47.7198 173.284 48.4403 173.502 49.265C174.185 49.265 174.9 49.265 175.614 49.265C175.108 50.4839 174.605 51.7028 174.112 52.89C172.809 52.7858 172.054 53.6195 171.249 54.2131C170.552 54.2539 169.909 54.2947 169.091 54.34C169.751 55.6495 170.312 56.7642 170.841 57.82C171.108 57.888 171.307 57.9423 171.466 57.9786C171.651 59.1114 171.805 60.1762 172.013 61.2275C172.063 61.4858 172.298 61.7078 172.452 61.948C172.52 62.2923 172.226 62.8134 172.904 62.8542C173.054 62.8542 173.207 62.8542 173.357 62.8542C173.583 63.8012 173.601 64.8344 174.443 65.5322C175.723 65.6228 176.917 65.8403 177.971 66.7375C178.519 67.2042 179.302 67.5577 180.139 67.39C180.139 67.5395 180.139 67.6936 180.139 67.8431C180.139 68.3642 180.139 68.8898 180.139 69.4834C180.591 69.8641 181.08 70.2764 181.668 70.7703C182.319 69.8913 182.812 69.0938 183.441 68.4231C184.124 67.6936 184.934 67.0819 185.608 66.4883C186.893 66.4883 188.02 66.3931 189.123 66.52C189.915 66.6106 190.879 66.7919 191.399 67.3039C191.974 67.8703 192.494 68.2373 193.263 68.3008C193.335 69.0484 193.915 68.6678 194.281 68.7494C194.602 68.8219 195.068 68.5998 195.073 69.207C195.222 69.3566 195.376 69.5106 195.525 69.6602C195.593 70.0045 195.299 70.5256 195.978 70.5664C196.127 70.5664 196.281 70.5664 196.43 70.5664C196.43 70.7159 196.43 70.87 196.43 71.0195C195.557 71.2325 196.15 71.9348 195.978 72.3789C196.045 72.7233 195.751 73.2444 196.43 73.2852C196.43 73.5117 196.43 73.7383 196.43 74.1552C198.054 74.6128 199.733 75.0795 201.407 75.5508C201.597 75.7003 201.773 75.9541 201.986 75.9858C202.542 76.0673 203.112 76.0583 203.669 76.0855C203.669 76.4661 203.669 76.6881 203.669 76.9147C202.732 77.7892 202.755 78.9402 202.764 80.0866C202.085 80.1273 202.379 80.6484 202.311 80.9928C201.633 81.0336 201.927 81.5547 201.859 81.8991C201.28 81.8991 200.705 81.8991 200.045 81.8991C200.257 82.6014 199.547 83.3445 200.502 83.7116C200.502 83.8611 200.502 84.0152 200.502 84.1647C200.352 84.1647 200.199 84.1647 200.049 84.1647C199.9 84.1647 199.746 84.1647 199.597 84.1647C199.448 83.9744 199.23 83.8067 199.158 83.5892C199.054 83.2811 199.294 82.8053 198.692 82.8053C198.692 82.4292 198.692 82.0576 198.692 81.668C198.167 81.1514 197.633 80.6258 196.977 79.9823C195.647 80.8795 194.756 78.6592 193.313 79.2981C193.313 80.0186 193.313 80.6711 193.313 81.5003C195.064 82.1166 196.489 83.2811 197.787 84.6178C197.787 84.7673 197.787 84.9214 197.787 85.0709C196.914 85.0709 196.041 85.0437 195.172 85.0936C194.982 85.1026 194.801 85.3745 194.62 85.5241C193.847 85.4878 193.064 85.4289 192.811 86.4303C192.548 86.4303 192.281 86.4303 191.906 86.4303C191.906 86.8064 191.906 87.0737 191.906 87.3366C191.63 87.3366 191.349 87.3366 191.087 87.3366C191.01 86.6252 190.951 86.0678 190.892 85.5241C190.544 85.5241 190.322 85.5241 190.096 85.5241C189.25 84.8852 188.228 84.8852 187.382 85.5241C186.626 85.5241 185.875 85.5241 185.12 85.5241C184.617 84.7945 184.056 84.1148 183.572 83.3627C182.672 81.958 182.6 80.7345 183.78 79.3797C183.373 77.5264 185.07 75.9359 184.581 73.7655C184.093 73.4302 183.491 72.8456 182.776 72.5692C181.858 72.2203 180.826 72.2792 179.858 71.9847C179.442 71.8578 178.84 72.3427 178.551 72.4559C178.27 72.9544 178.103 73.2534 177.971 73.4891C178.804 75.1475 179.211 76.815 178.256 78.6003C178.858 78.6955 179.274 78.7634 179.605 78.8178C179.478 79.7603 179.36 80.5986 179.247 81.4414C178.854 81.4052 178.311 81.6408 178.32 80.8795C178.32 80.7662 178.039 80.6484 177.854 80.5034C177.297 80.0548 177.297 80.0548 176.546 80.4763C177.053 80.4763 177.469 80.4762 177.854 80.5034C177.89 81.1333 177.89 81.7405 177.89 82.3431C177.655 82.6467 177.419 82.9458 177.175 83.2539C176.736 83.2539 176.288 83.2539 175.881 83.2539C175.112 84.509 173.633 85.0211 172.886 86.385C172.886 86.8653 172.886 87.4589 172.886 87.7987C172.153 88.8455 171.547 89.7109 171.009 90.4722C171.267 90.9163 171.411 91.1609 171.552 91.4011C171.552 91.7772 171.552 92.1487 171.552 92.407C170.502 93.6305 169.507 94.7814 168.498 95.955C167.471 95.5019 166.543 95.0669 165.991 93.8661C165.562 92.9281 164.548 92.253 163.191 92.3209C163.037 92.5294 162.82 92.8148 162.603 93.1003C163.042 93.5398 163.517 94.147 164.118 94.582C164.738 95.0306 165.39 95.3931 165.666 96.6619C165.666 96.9156 165.376 97.8581 165.72 98.3747C166.733 99.8972 165.467 100.504 164.937 101.492C164.091 100.944 163.395 100.491 162.657 100.015C162.445 100.332 162.245 100.631 162.046 100.926C160.323 101.121 158.594 101.315 156.721 101.524C156.337 101.882 155.808 102.376 155.251 102.897C154.762 102.453 154.392 102.117 153.944 101.705C153.306 101.963 152.677 102.222 152.025 102.489C152.505 103.808 150.867 104.981 152.179 106.363C151.297 106.363 150.564 106.363 149.836 106.363C149.723 106.214 149.614 105.942 149.492 105.933C148.913 105.887 148.329 105.91 147.727 105.91C147.515 106.232 147.32 106.522 147.126 106.816C146.664 106.966 146.203 107.229 145.737 107.247C144.818 107.283 144.411 107.668 144.389 108.597C144.38 108.914 144.108 109.222 143.959 109.54C143.81 109.689 143.656 109.843 143.506 109.993C143.38 110.043 143.258 110.093 143.131 110.142C143.258 110.242 143.38 110.346 143.506 110.446C143.656 110.595 143.81 110.75 143.959 110.899C144.108 111.049 144.262 111.203 144.411 111.352C144.561 111.502 144.714 111.656 144.864 111.805C144.425 112.258 144 112.73 143.538 113.16C142.787 113.858 141.769 114.397 141.326 115.245C140.973 115.92 140.466 116.228 140.059 116.903C139.607 115.317 138.593 115 137.503 114.973C137.164 115.607 136.955 116.228 136.557 116.685C136.146 117.166 136.336 117.66 136.268 118.149C135.567 118.077 135.087 118.339 134.911 119.055C134.178 119.513 133.997 120.215 134.001 121.022C134.01 122.286 134.006 123.55 134.006 124.719C132.911 125.83 132.911 125.83 132.648 126.758C132.35 126.958 132.056 127.157 131.992 127.198C131.291 128.625 131.857 129.853 132.413 130.696C133.277 132.001 133.594 133.27 133.54 134.752C133.246 134.865 132.983 134.965 132.685 135.078C132.685 135.721 132.685 136.374 132.685 137.081C133.843 138.132 135.268 137.398 136.218 137.606C137.046 138.177 137.607 138.644 138.24 138.979C139.037 139.401 140.005 139.564 140.692 140.103C141.412 140.665 141.887 141.544 142.484 142.269C142.615 142.428 142.81 142.536 142.615 142.382C143.728 142.695 144.407 142.885 145.054 143.066C146.434 142.165 147.8 141.272 149.189 140.361C150.745 140.366 152.763 140.878 154.595 141.784C154.812 141.453 155.061 141.082 155.183 140.896C155.943 141.109 156.468 141.258 157.016 141.412C157.052 141.761 157.092 142.115 157.138 142.554C158.246 142.767 159.355 142.985 160.237 143.152C161.951 141.68 163.462 140.384 165.059 139.015C166.05 138.821 167.163 138.599 168.43 138.349C168.57 138.182 168.805 137.901 168.968 137.71C170.312 138.222 171.23 139.097 171.742 140.284C172.276 140.284 172.782 140.284 173.343 140.284C173.583 139.981 173.814 139.691 173.986 139.473C174.7 139.473 175.298 139.473 175.936 139.473C176.13 139.763 176.329 140.062 176.528 140.361C176.773 141.213 175.922 141.467 175.623 142.02C175.637 143.347 175.447 144.729 176.528 145.799C176.528 146.225 176.528 146.651 176.528 146.827C176.053 147.235 175.782 147.466 175.474 147.729C176.089 148.11 176.564 148.4 176.981 148.658C176.981 149.6 176.981 150.416 176.981 151.236C175.94 151.141 174.89 151.413 173.841 150.851C173.456 150.647 172.434 150.276 172.004 151.236C171.325 151.277 171.62 151.798 171.552 152.142C171.552 152.292 171.552 152.446 171.552 152.596C170.941 153.171 170.941 153.833 171.552 154.408C171.701 154.408 171.855 154.408 172.004 154.408C172.004 154.558 172.004 154.712 172.004 154.861C171.877 154.911 171.647 154.952 171.638 155.02C171.565 155.65 171.371 156.275 171.914 156.86C172.099 157.059 171.991 157.535 172.013 157.856C171.66 157.988 171.402 158.083 171.149 158.174C171.108 158.554 171.068 158.908 171.072 158.88C170.502 159.587 170.163 160.063 169.769 160.48C169.312 160.965 168.805 161.4 168.385 161.799C168.385 162.737 168.385 163.557 168.385 164.377C168.235 164.554 167.987 164.717 167.955 164.912C167.887 165.328 167.932 165.763 167.932 166.189C167.281 166.928 167.281 167.716 167.932 168.455C167.932 168.908 167.932 169.361 167.932 169.814C167.629 170.267 167.331 170.721 167.028 171.174C166.032 171.106 165.616 171.804 165.218 172.533C165.069 172.683 164.915 172.837 164.765 172.986C163.87 173.013 163.168 173.439 162.558 174.06C161.761 174.871 161.01 175.719 159.703 175.746C159.422 175.75 159.155 176.308 158.884 176.607C157.613 176.561 156.4 176.643 155.717 177.966C154.989 177.966 154.26 177.957 153.527 177.971C152.641 177.984 151.826 178.202 151.193 178.872C150.591 178.872 149.985 178.872 149.383 178.872C148.84 178.134 148.293 177.391 147.682 176.561C146.515 176.72 145.235 176.892 143.954 177.06C143.737 176.135 142.936 176.181 142.398 176.086C142.054 175.569 141.783 175.161 141.701 175.039C140.448 174.681 139.493 174.436 138.552 174.137C137.363 173.757 136.774 173.784 135.811 174.346C135.209 174.346 134.603 174.346 134.001 174.346C133.173 172.859 131.594 172.932 130.242 172.533C129.527 173.272 128.608 172.878 127.78 173.004C127.572 173.036 127.4 173.29 127.215 173.439C126.437 173.892 125.636 174.314 124.889 174.812C124.559 175.034 124.329 175.401 124.048 175.705C123.777 175.705 123.505 175.705 123.143 175.705C123.143 176.702 123.143 177.563 123.143 178.424C123.143 179.18 123.143 179.933 123.143 180.689C123.143 181.142 123.143 181.596 123.143 182.049C122.424 181.573 121.677 181.405 120.881 181.754C120.881 182.071 120.881 182.284 120.881 182.502C120.293 182.733 120.225 183.567 119.528 183.703C119.488 183.712 119.524 184.101 119.524 184.314C118.357 184.197 117.321 185.071 116.126 184.772C114.366 186.145 112.159 185.628 110.032 186.344C109.969 186.44 109.77 186.739 109.571 187.033C109.154 187.033 108.743 187.033 108.634 187.033C108.055 187.627 107.684 188.007 107.309 188.392C106.897 188.392 106.485 188.392 105.951 188.392C105.951 188.764 105.951 189.031 105.951 189.299C105.54 189.299 105.128 189.299 104.784 189.299C104.535 189.824 104.341 190.241 104.142 190.658C102.766 190.776 102.269 191.859 101.635 192.91C100.617 192.72 100.133 193.372 99.8709 194.247C98.2603 194.333 97.1609 195.448 95.8489 196.186C95.2653 195.516 94.6908 194.908 93.7362 195.189C93.5823 194.659 93.2159 194.464 92.7001 194.247C91.741 193.839 90.6552 194.016 89.7368 193.3C88.9496 192.688 87.8864 192.43 86.9454 192.017C86.873 191.075 86.873 191.075 86.0406 191.347C86.0406 191.569 86.0406 191.791 86.0406 192.017C85.8913 192.167 85.7374 192.321 85.5881 192.471C85.4388 192.62 85.285 192.774 85.1357 192.924C84.9864 193.073 84.8326 193.227 84.6833 193.377C84.4164 193.377 84.1449 193.377 83.9142 193.377C83.697 194.22 83.5116 194.931 83.3261 195.643C83.1768 195.792 83.0229 195.946 82.8736 196.096C81.1409 196.29 79.4036 196.485 77.5578 196.694C77.0013 196.979 76.3181 197.333 75.635 197.682C75.635 197.908 75.635 198.135 75.635 198.361C75.4088 198.361 75.1826 198.361 74.9338 198.361C74.7166 199.014 74.4994 199.68 74.2823 200.341C75.1871 200.949 76.101 201.556 77.0601 202.199C76.2458 202.598 75.5671 202.929 74.8976 203.255C73.6806 202.186 72.7305 203.45 71.8166 203.676C71.4909 203.522 71.3008 203.432 71.1108 203.346C71.1108 202.77 71.1108 202.195 71.1108 201.529C70.0069 201.556 68.998 201.361 68.3963 202.439C68.247 202.439 68.0932 202.439 67.9439 202.439C67.7449 202.14 67.5458 201.846 67.3105 201.497C66.7948 201.551 66.2609 201.51 65.7949 201.674C64.863 201.995 63.9672 202.353 62.9583 202.489C62.0128 202.616 61.2663 203.45 60.1624 203.418C59.8095 203.409 59.0901 203.663 58.7825 204.469C58.5201 205.154 57.8098 205.924 56.8281 206.137C56.5657 206.196 56.3937 206.681 56.1811 206.971C55.421 207.002 54.6972 207.125 53.9416 207.329C53.263 207.51 52.512 208.548 51.657 207.632C51.657 207.41 51.657 207.193 51.657 206.975C51.657 206.218 51.657 205.466 51.657 204.71C51.5077 204.56 51.3538 204.406 51.2045 204.256C51.1502 203.944 51.1005 203.631 51.0552 203.368C50.0011 203.717 49.0827 203.975 48.2141 204.343C47.9381 204.46 47.7933 204.882 47.5852 205.163C47.2414 205.231 46.7211 204.936 46.6804 205.616C46.3365 205.684 45.8163 205.389 45.7755 206.069C45.5041 206.069 45.2281 206.069 45.0426 206.069C44.7802 207.51 44.545 208.797 44.3414 209.898C43.9704 210.21 43.7397 210.405 43.5089 210.6C42.7851 210.6 42.0612 210.6 41.2966 210.6C41.2966 209.526 41.2966 208.579 41.2966 207.533C41.6902 207.274 42.1472 206.971 42.6946 206.613C42.396 206.092 42.1426 205.507 41.7536 205.036C41.5681 204.814 41.1247 204.814 40.7944 204.71C40.6451 204.211 40.5185 203.699 40.3285 203.214C40.2742 203.074 40.0434 203.001 39.8896 202.897C39.7403 202.897 39.5865 202.897 39.4372 202.897C39.2879 202.748 39.1341 202.593 38.9848 202.444C38.6681 201.461 39.4327 200.654 39.4372 199.725C39.7132 199.725 39.9937 199.725 40.3556 199.725C40.3104 198.411 40.4099 197.247 40.2877 196.1C39.8851 196.1 39.6634 196.1 39.4372 196.1C39.4372 195.52 39.4372 194.94 39.4372 194.351C40.2923 194.297 41.0026 194.251 41.6993 194.206C41.6993 193.83 41.6993 193.603 41.6993 193.381C41.9707 192.992 42.5679 190.898 42.6041 190.21C42.6041 189.457 42.8937 188.506 42.5408 187.994C41.8531 186.997 42.5951 186.231 42.5453 185.393C42.491 184.505 43.4818 185.003 43.5813 184.233C43.6899 183.39 44.364 182.615 44.83 181.741C45.1467 179.557 44.5043 177.463 43.5587 175.433C44.278 175.048 47.4766 172.189 47.8793 171.509C48.3769 171.69 48.9017 171.881 49.4356 172.075C50.1866 171.754 50.9557 171.427 51.657 171.124C51.657 170.567 51.657 170.19 51.657 169.814C51.9284 169.814 52.1999 169.814 52.3808 169.814C52.6161 169.094 52.8061 168.523 52.9237 168.165C52.7789 167.368 52.6704 166.778 52.5618 166.189C52.5618 165.763 52.607 165.328 52.5392 164.912C52.5075 164.717 52.2587 164.554 52.1094 164.377C51.9601 163.856 51.8062 163.33 51.6931 162.94C52.1637 162.483 52.5889 162.07 53.0142 161.658C53.6928 161.617 53.3988 161.096 53.4666 160.752C53.6159 160.602 53.7697 160.448 53.919 160.299C53.9643 159.914 53.7064 159.347 54.6067 159.402C54.8917 159.973 55.2129 160.607 55.507 161.196C56.6381 161.314 57.1312 160.639 57.5384 159.846C57.6877 159.696 57.8415 159.542 57.9908 159.392C58.7373 159.415 59.4973 159.474 59.8593 158.364C59.5833 158.069 59.2394 157.702 58.8956 157.335C58.8956 156.216 58.8956 155.088 58.8956 153.955C59.2394 153.656 59.5788 153.357 59.9452 153.04C59.6421 152.328 59.4023 151.766 59.1625 151.209C58.4296 151.06 57.7555 150.924 57.0859 150.788C57.0859 150.57 57.0859 150.348 57.0859 150.09C56.7919 149.958 56.4888 149.822 56.1314 149.659C56.1314 149.17 56.1314 148.676 56.1314 148.191C55.0501 147.992 54.0321 147.802 53.0142 147.616C52.8649 147.466 52.7111 147.312 52.5618 147.163C52.1094 147.163 51.657 147.163 51.2045 147.163C51.0552 147.163 50.9014 147.163 50.7521 147.163C50.6028 147.013 50.449 146.859 50.2997 146.71C50.2997 146.56 50.2997 146.406 50.2997 146.256C50.2997 145.803 50.2997 145.35 50.2997 144.897C50.2997 144.747 50.2997 144.593 50.2997 144.444C51.1729 144.231 50.5802 143.529 50.7521 143.085C50.9014 142.903 51.1638 142.736 51.1819 142.541C51.2407 141.974 51.2045 141.394 51.2045 140.819C51.4805 140.819 51.761 140.819 52.1094 140.819C52.1094 139.55 52.132 138.435 52.0868 137.321C52.0777 137.121 51.8062 136.936 51.657 136.741C51.5891 136.396 51.8832 135.875 51.2045 135.835C52.0777 134.724 52.9463 133.628 53.2902 132.191C53.4485 131.53 53.548 130.809 54.186 130.288C54.4257 130.093 54.3217 129.468 54.3714 129.038C54.2221 128.888 54.0683 128.734 53.919 128.585C53.7697 128.435 53.6159 128.281 53.4666 128.131C53.5345 127.787 53.2404 127.266 53.919 127.225C54.471 127.379 55.0275 127.538 55.7287 127.737C55.7287 127.157 55.7287 126.74 55.7287 126.319C55.9911 126.319 56.258 126.319 56.6335 126.319C56.6335 125.943 56.6335 125.675 56.6335 125.413C56.8552 125.413 57.0769 125.413 57.3167 125.413C57.5519 124.937 57.7917 124.448 57.8641 124.298C57.6831 123.147 57.5564 122.327 57.4117 121.398C57.2171 121.267 56.9231 121.072 56.6335 120.877C56.4842 120.727 56.3304 120.573 56.1811 120.424C56.0318 120.274 55.878 120.12 55.7287 119.971C55.6111 119.821 55.4934 119.536 55.3758 119.54C54.2538 119.554 53.5028 118.915 52.7201 118.086C51.8741 118.253 50.9693 118.421 50.0735 118.616C48.7343 118.91 47.5309 118.108 46.228 118.158C45.9927 117.836 45.7574 117.51 45.5991 117.293C44.3369 117.134 43.1651 117.574 42.1562 116.799C42.1019 116.486 42.0476 116.173 42.0024 115.902C40.8714 115.843 40.9935 116.885 40.4597 117.261C39.9711 116.944 39.9711 116.944 39.8941 116.346C39.8941 115.892 39.8941 115.439 39.8941 114.986C40.609 114.81 40.8714 114.329 40.799 113.627C40.6542 112.943 40.1701 112.027 40.4416 111.62C40.8849 110.953 40.7221 110.346 40.7899 109.721C40.8397 109.277 40.6813 108.778 40.8216 108.38C41.2242 107.238 40.6994 105.498 42.8394 105.403C43.4004 105.38 43.794 104.524 43.3958 103.767C43.1334 103.676 42.871 103.586 42.6267 103.5C42.6041 102.045 42.6041 102.045 41.0387 99.1359C40.7447 99.1359 40.4506 99.1359 39.9484 99.1359C39.6182 99.5392 39.1974 100.056 38.9531 100.355C38.3288 100.518 37.9623 100.554 37.6547 100.708C36.967 101.044 36.1119 101.288 35.6776 101.846C35.0126 102.702 33.8363 101.814 33.3251 102.756C31.5245 103.06 29.9636 104.138 28.1313 104.351C28.1223 104.351 28.1313 104.492 28.1313 104.569C26.5841 104.438 24.978 104.918 23.4805 104.138C23.4534 104.125 23.2679 104.419 23.1548 104.569C21.9287 103.672 21.8337 102.208 21.3451 100.944C21.6754 99.4576 22.0056 97.9714 22.3314 96.5305C23.3493 96.0048 23.3493 96.0048 23.6072 95.0533C24.4441 94.9627 25.5118 95.4384 25.8693 94.147C26.471 94.147 27.0772 94.147 27.6789 94.147C28.0047 94.2467 28.3304 94.3645 28.6652 94.4461C28.9366 94.5141 29.2171 94.5503 29.4886 94.6002C30.0631 95.5109 30.9137 94.7905 31.5063 95.0714C31.8819 94.6953 32.1035 94.2875 32.4202 94.1878C34.1304 93.6531 35.4378 92.5792 36.6639 91.3195C37.1253 90.8438 37.8764 90.6534 38.4962 90.3317C38.7269 89.2397 39.22 88.2247 39.5186 87.1372C39.9349 85.6283 40.5728 83.997 41.6178 82.8959C42.491 81.9761 42.6313 81.2239 42.5815 80.1409C42.1155 80.1409 41.7581 80.1409 41.2695 80.1409C40.5411 81.0744 39.8806 82.1619 38.9848 83.0002C38.098 83.8339 36.9761 84.4502 36.2205 85.4153C35.3564 86.5209 34.0896 86.8291 32.9224 87.2822C31.7371 87.7444 31.0901 88.7503 30.2667 89.5659C29.2714 90.5492 28.2082 91.1655 26.7831 90.9797C26.7831 90.7078 26.7831 90.4314 26.7831 90.1777C27.3215 90.087 27.7242 90.0191 28.1087 89.9556C28.2173 88.8092 28.2128 87.767 27.4391 86.9016C27.222 86.9016 27.0003 86.9016 26.7831 86.9016C26.7831 86.4847 26.7831 86.0678 26.7831 85.7914C25.8421 84.7266 24.7789 84.5227 23.6162 84.6359C23.4669 84.4864 23.3131 84.3323 23.1638 84.1828C22.7476 83.7795 22.3314 83.3763 21.5939 82.6648C21.5396 82.5742 22.3268 81.7631 21.3541 81.4641C20.481 80.9566 18.4542 80.2769 18.056 80.5941C17.3095 81.1831 16.5133 80.9158 15.7397 81.02C15.3234 81.0744 14.9208 81.2148 14.5046 81.3009C12.7854 81.6589 11.3738 82.8687 9.59132 83.0591C9.58228 83.0591 9.59132 83.1995 9.59132 83.2766C9.24749 83.3445 8.72721 83.05 8.68649 83.7297C8.27479 83.7297 7.8631 83.7297 7.32925 83.7297C7.32925 84.1012 7.32925 84.3686 7.32925 84.6359C6.61895 84.7673 5.90866 84.8987 5.06717 85.0528C5.06717 84.722 5.06717 84.4502 5.06717 84.1828C5.36124 83.988 5.65078 83.7931 5.88604 83.6345C6.23892 81.3145 5.71865 79.1894 5.0898 77.0642C4.92693 76.5114 4.68714 76.1761 4.16234 76.0266C4.18043 74.8847 3.94065 73.8742 2.80509 73.3078C2.64222 73.4302 2.4884 73.5842 2.3391 73.7337ZM129.92 142.609C129.803 142.459 129.685 142.178 129.563 142.174C127.486 142.119 125.613 142.704 124.084 144.158C122.994 145.192 121.935 146.261 120.899 147.348C120.171 148.114 119.27 148.463 118.361 148.599C117.597 150.348 115.796 150.819 114.574 151.934C114.95 152.129 115.321 152.319 115.819 152.577C116.864 152.577 118.063 152.577 119.212 152.577C120.564 151.558 121.876 150.552 123.202 149.569C124.233 148.807 125.233 147.983 126.346 147.362C127.409 146.768 128.522 146.288 129.12 145.468C130.608 144.979 131.875 144.589 133.119 144.136C133.336 144.054 133.463 143.719 133.698 143.411C133.413 143.252 133.25 143.157 133.083 143.066C132.897 142.917 132.721 142.645 132.531 142.636C131.667 142.582 130.794 142.609 129.92 142.609ZM100.414 158.06C101.251 158.015 102.753 158.214 104.038 157.784C105.368 157.34 106.653 157.068 108.032 157.118C107.897 156.964 107.761 156.814 107.625 156.66C108.209 156.434 108.788 156.202 109.53 155.912C108.114 154.943 107.078 154.236 105.942 153.457C103.97 153.457 101.871 153.457 99.6356 153.457C99.1923 152.781 98.7172 152.065 98.2513 151.345C98.0612 151.05 97.9527 150.643 97.6857 150.461C96.8714 149.913 96.0118 149.428 95.1522 148.957C94.356 148.522 93.4376 148.259 92.7499 147.702C91.2026 146.451 89.773 145.06 88.2845 143.737C88.1352 143.606 87.9136 143.551 87.7416 143.47C87.2666 143.905 86.8368 144.294 86.5292 144.575C86.5292 145.667 86.5292 146.56 86.5292 147.181C87.4611 148.481 88.2574 149.587 89.0763 150.733C89.8273 151.023 90.6552 151.413 91.5238 151.653C92.4965 151.92 92.9851 152.777 93.7135 153.33C94.4057 153.855 94.7948 154.78 95.4644 155.74C96.7719 156.352 98.3508 157.091 100.414 158.06ZM149.329 79.357C147.257 76.9645 144.122 76.2395 141.873 74.1552C141.217 75.2427 141.217 75.2427 141.308 76.9328C142.249 78.2333 143.049 79.3344 143.905 80.517C144.076 80.5533 144.461 80.5533 144.778 80.7028C145.723 81.1469 146.682 81.5955 147.569 82.1483C148.338 82.6286 148.804 82.2842 149.329 81.7042C149.329 81.0155 149.329 80.2723 149.329 79.357ZM153.337 61.9298C153.645 61.0055 153.274 60.2352 153.812 59.4195C154.17 58.8803 154.002 57.7747 153.708 57.0769C153.346 56.2114 153.125 55.3731 152.912 54.4669C152.699 53.547 152.546 52.6544 152.541 52.233C152.152 50.8237 151.523 50.1712 150.551 49.478C150.351 49.8903 150.189 50.2302 150.026 50.5745C149.664 52.0653 150.433 53.5923 150.646 55.1873C150.867 56.8503 151.406 58.3184 152.102 59.7548C151.93 60.0222 151.777 60.2623 151.6 60.5342C151.84 61.0055 152.089 61.4903 152.315 61.9298C152.677 61.9298 152.966 61.9298 153.337 61.9298ZM155.419 66.4022C155.007 67.9337 155.346 69.1028 156.369 70.0997C156.731 70.4486 157.047 70.7613 157.111 71.382C157.197 72.2113 157.848 72.6961 158.794 72.8819C159.151 70.6208 158.043 68.9442 157.169 67.168C156.572 66.9052 156.02 66.665 155.419 66.4022ZM173.465 75.5462C173.542 75.5462 173.615 75.5462 173.692 75.5462C173.692 74.7895 173.692 74.0373 173.692 73.2806C173.615 73.2806 173.542 73.2806 173.465 73.2806C173.465 74.0373 173.465 74.7895 173.465 75.5462ZM61.4563 74.64C61.4065 74.64 61.3567 74.64 61.307 74.64C61.307 74.7895 61.307 74.9436 61.307 75.0931C61.3567 75.0931 61.4065 75.0931 61.4563 75.0931C61.4563 74.9436 61.4563 74.7895 61.4563 74.64ZM175.614 80.6802C175.614 80.73 175.614 80.7798 175.614 80.8297C175.764 80.8297 175.917 80.8297 176.067 80.8297C176.067 80.7798 176.067 80.73 176.067 80.6802C175.917 80.6802 175.764 80.6802 175.614 80.6802ZM172.9 72.678C172.9 72.6281 172.9 72.5783 172.9 72.5284C172.751 72.5284 172.597 72.5284 172.447 72.5284C172.447 72.5783 172.447 72.6281 172.447 72.678C172.597 72.678 172.751 72.678 172.9 72.678ZM59.0404 71.9212C59.0901 71.9212 59.1399 71.9212 59.1897 71.9212C59.1897 71.7717 59.1897 71.6177 59.1897 71.4681C59.1399 71.4681 59.0901 71.4681 59.0404 71.4681C59.0404 71.6177 59.0404 71.7717 59.0404 71.9212Z" fill="#E10B17"/>
<path d="M100.416 158.059C98.3529 157.094 96.7739 156.356 95.4665 155.739C94.7969 154.779 94.4078 153.854 93.7156 153.329C92.9918 152.78 92.4986 151.92 91.5259 151.652C90.6573 151.412 89.8294 151.022 89.0784 150.732C88.2595 149.586 87.4632 148.485 86.5312 147.18C86.5312 146.559 86.5312 145.662 86.5312 144.574C86.8344 144.298 87.2687 143.904 87.7437 143.469C87.9156 143.55 88.1373 143.605 88.2866 143.736C89.7751 145.059 91.2092 146.45 92.752 147.701C93.4396 148.258 94.3626 148.521 95.1543 148.956C96.0139 149.427 96.878 149.908 97.6878 150.46C97.9547 150.642 98.0588 151.05 98.2533 151.344C98.7193 152.065 99.1944 152.78 99.6377 153.456C101.873 153.456 103.972 153.456 105.944 153.456C107.08 154.235 108.116 154.942 109.532 155.912C108.795 156.202 108.211 156.433 107.627 156.659C107.763 156.813 107.899 156.963 108.035 157.117C106.65 157.067 105.37 157.339 104.04 157.783C102.75 158.213 101.253 158.01 100.416 158.059Z" fill="#BEDEDE"/>
<path d="M26.7703 90.952C28.1999 91.1378 29.2631 90.5216 30.2539 89.5383C31.0773 88.7272 31.7197 87.7167 32.9096 87.2545C34.0813 86.8014 35.3436 86.4933 36.2077 85.3877C36.9632 84.4225 38.0852 83.8062 38.9719 82.9725C39.8632 82.1342 40.5237 81.0512 41.2566 80.1133C41.7452 80.1133 42.1026 80.1133 42.5686 80.1133C42.6184 81.2008 42.4781 81.9484 41.605 82.8683C40.5599 83.9694 39.922 85.6006 39.5058 87.1095C39.2072 88.197 38.714 89.212 38.4833 90.3041C37.8635 90.6258 37.1125 90.8206 36.651 91.2919C35.425 92.5561 34.122 93.6255 32.4074 94.1602C32.0907 94.2598 31.869 94.6677 31.4935 95.0438C30.9008 94.7628 30.0503 95.4788 29.4757 94.5725C29.5752 94.2463 29.6295 93.9019 29.7788 93.6073C29.9327 93.3037 30.177 93.0409 30.3805 92.76C31.5433 92.5289 31.9595 92.112 32.2038 90.7663C32.5883 90.2089 33.1539 89.6425 33.5565 89.2347C32.3033 89.2891 32.3033 89.2891 32.2038 90.7663C31.5885 91.5547 30.9868 92.1573 30.3805 92.76C29.2767 92.8098 28.4442 93.417 27.6661 94.1194C27.0643 94.1194 26.4581 94.1194 25.8564 94.1194C25.7207 93.8838 25.5849 93.6481 25.4492 93.408C26.0509 93.0409 25.8202 92.4111 25.8564 91.8538C26.1188 91.8538 26.3857 91.8538 26.7612 91.8538C26.7703 91.4822 26.7703 91.2148 26.7703 90.952Z" fill="#BEDEDE"/>
<path d="M133.09 143.062C133.258 143.153 133.421 143.248 133.706 143.406C133.47 143.715 133.344 144.05 133.127 144.131C131.882 144.585 130.616 144.979 129.127 145.464C128.53 146.284 127.417 146.764 126.354 147.358C125.241 147.978 124.241 148.803 123.21 149.564C121.88 150.548 120.572 151.554 119.219 152.573C118.075 152.573 116.871 152.573 115.826 152.573C115.329 152.315 114.958 152.125 114.582 151.93C115.804 150.815 117.604 150.344 118.369 148.595C119.283 148.459 120.178 148.11 120.907 147.344C121.943 146.257 123.001 145.187 124.092 144.154C125.621 142.704 127.489 142.115 129.571 142.169C129.693 142.174 129.81 142.45 129.928 142.604C130.113 142.754 130.29 143.026 130.48 143.035C131.344 143.089 132.217 143.062 133.09 143.062Z" fill="#BEDEDE"/>
<path d="M149.333 79.3562C149.333 80.2715 149.333 81.0146 149.333 81.7034C148.808 82.2834 148.342 82.6232 147.573 82.1474C146.687 81.5946 145.732 81.1506 144.782 80.702C144.465 80.5524 144.085 80.5524 143.909 80.5162C143.049 79.3335 142.253 78.2324 141.312 76.932C141.221 75.2373 141.221 75.2373 141.877 74.1543C144.126 76.2387 147.261 76.9637 149.333 79.3562Z" fill="#BEDEDE"/>
<path d="M153.34 61.9304C152.969 61.9304 152.675 61.9304 152.322 61.9304C152.096 61.4863 151.847 61.0015 151.607 60.5348C151.784 60.2629 151.938 60.0273 152.11 59.7554C151.413 58.319 150.87 56.8509 150.653 55.1879C150.44 53.5929 149.671 52.0704 150.033 50.5751C150.196 50.2352 150.359 49.8909 150.558 49.4785C151.53 50.1718 152.159 50.8243 152.548 52.2335C152.553 52.6549 152.702 53.5476 152.919 54.4674C153.132 55.3691 153.354 56.212 153.716 57.0774C154.01 57.7752 154.173 58.8763 153.82 59.4201C153.281 60.2357 153.648 61.006 153.34 61.9304Z" fill="#BEDEDE"/>
<path d="M197.787 84.6076C196.488 83.2709 195.063 82.1063 193.312 81.4901C193.312 80.6563 193.312 80.0038 193.312 79.2879C194.756 78.6535 195.647 80.8693 196.977 79.9721C197.633 80.6156 198.162 81.1412 198.692 81.6577C198.692 82.0474 198.692 82.419 198.692 82.7951C198.692 83.5518 198.692 84.304 198.692 85.0607C198.389 84.9112 198.09 84.7571 197.787 84.6076Z" fill="#BEDEDE"/>
<path d="M155.421 66.4023C156.022 66.6652 156.574 66.9053 157.172 67.1681C158.045 68.9444 159.153 70.6209 158.796 72.882C157.855 72.6963 157.199 72.2114 157.113 71.3822C157.049 70.7614 156.728 70.4488 156.371 70.0998C155.348 69.103 155.009 67.9339 155.421 66.4023Z" fill="#A8D1D8"/>
<path d="M30.3903 92.7656C30.1867 93.0466 29.9424 93.3048 29.7886 93.613C29.6393 93.912 29.5805 94.2564 29.4854 94.5781C29.2095 94.5283 28.929 94.4966 28.6621 94.4241C28.3318 94.338 28.006 94.2247 27.6758 94.125C28.4539 93.4227 29.2864 92.8155 30.3903 92.7656Z" fill="#B4B4B4"/>
<path d="M133.089 143.062C132.216 143.062 131.342 143.089 130.474 143.039C130.284 143.03 130.103 142.758 129.922 142.609C130.795 142.609 131.668 142.582 132.537 142.632C132.727 142.641 132.903 142.913 133.089 143.062Z" fill="#A8D1D8"/>
<path d="M183.76 100.467C183.004 100.617 182.253 100.771 181.497 100.921C181.497 100.544 181.497 100.173 181.497 99.8512C180.235 97.9979 178.091 97.5584 176.191 96.421C175.069 96.3304 173.766 96.1899 172.689 97.2774C172.485 97.0871 172.282 96.8968 172.078 96.7065C172.616 95.1024 174.051 94.2551 175.182 92.9274C175.453 92.5785 174.652 91.7085 175.616 91.4004C176.209 91.8535 176.77 92.352 177.399 92.7507C178.561 93.4848 179.661 94.2732 180.633 95.2655C181.697 96.3485 182.886 97.3046 184.207 98.4873C184.207 98.8498 184.207 99.4298 184.207 100.01C184.063 100.164 183.909 100.318 183.76 100.467Z" fill="#E10B17"/>
</svg>
