<svg width="114" height="70" viewBox="0 0 114 70" fill="none" xmlns="http://www.w3.org/2000/svg">
<path d="M102.246 34.1405C102.622 34.1405 102.925 35.8579 103.147 35.8579C104.006 36.311 104.821 36.891 105.73 37.1855C106.97 37.5934 107.847 38.2277 108.123 39.5509C107.404 41.1187 107.571 42.3557 109.015 43.262C110.675 44.3041 111.819 45.8357 113.222 47.118C113.444 47.322 113.448 47.7615 113.552 48.0923C112.394 48.8626 111.489 50.086 110.218 50.0045C109.729 51.0466 109.349 51.8623 109.037 52.5284C108.458 52.3788 108.064 52.2746 107.671 52.1704C107.512 51.8623 107.35 51.5541 107.246 51.3502C107.44 50.734 107.607 50.2084 107.798 49.5966C106.626 49.3202 105.599 49.0846 104.608 48.849C104.929 48.1059 105.25 47.3582 105.649 46.4293C104.911 46.1257 104.341 45.8946 103.685 45.6227C103.472 44.0368 101.866 44.5488 100.898 43.8691C100.45 44.2588 100.12 44.7527 99.6857 44.8751C99.1156 45.0382 98.7899 45.2874 98.627 45.8221C98.066 45.8221 97.505 45.8221 96.7766 45.8221C96.6319 46.3024 96.4961 46.742 96.3649 47.1815C96.0618 47.4851 95.7632 47.7841 95.4601 48.0877C95.2972 48.4865 95.1344 48.8898 94.9082 49.4471C95.8537 49.4471 96.564 49.4471 97.2698 49.4471C97.5729 49.4471 97.8715 49.4471 98.1746 49.4471C98.4777 49.5966 98.7763 49.7507 99.0794 49.9002C99.2287 50.0498 99.3826 50.2038 99.5319 50.3534C99.6812 50.8065 99.835 51.2596 99.9843 51.7127C99.835 51.8623 99.6812 52.0163 99.5319 52.1659C98.7039 52.9996 97.8489 52.5102 97.0345 52.0752C96.7631 52.483 96.564 52.7776 96.3649 53.0721C96.2156 53.2216 96.0618 53.3757 95.9125 53.5252C95.0303 53.5252 94.1481 53.5252 93.5011 53.5252C92.2118 51.5043 90.3659 52.4377 88.8141 52.0979C88.7372 51.8804 88.6467 51.6221 88.5924 51.4771C86.7918 50.5301 85.0727 49.6284 83.3128 48.704C83.2178 48.7991 83.0006 49.0076 82.7925 49.2115C82.7925 49.7507 82.7925 50.2763 82.7925 50.802C82.7925 51.1055 82.7925 51.4046 82.7925 51.7082C81.3538 51.6448 80.1187 52.4921 78.7207 52.6145C78.5398 52.4649 78.3633 52.1976 78.1733 52.184C77.454 52.1341 76.7301 52.1613 76.0062 52.1613C75.8569 52.1613 75.7031 52.1613 75.5538 52.1613C75.6036 50.9923 74.83 50.6298 73.7442 50.231C73.7442 50.8609 73.7442 51.2823 73.7442 51.7082C72.4321 52.0209 71.4278 51.1418 70.6768 50.8609C69.1747 51.0874 68.0573 51.2596 66.9579 51.4273C66.9579 51.7082 66.9579 51.9348 66.9579 52.1613C66.5191 52.3743 66.0802 52.5827 65.655 52.7912C65.655 53.4573 65.655 54.1098 65.655 54.572C66.0124 55.0795 66.2567 55.4329 66.5055 55.7863C66.0757 55.7863 65.6504 55.7863 65.189 55.7863C65.189 56.1398 65.189 56.3437 65.189 56.6926C65.949 56.6926 66.6819 56.6926 67.4103 56.6926C68.2518 56.8013 67.6773 57.5082 68.0121 57.7801C68.3514 58.1335 68.6952 58.487 69.1159 58.9265C69.3512 58.9582 69.7493 59.008 70.1248 59.0579C70.1248 59.4295 70.1248 59.647 70.1248 59.8645C68.6771 60.4943 67.0891 60.1998 65.6007 60.4218C65.6007 60.9429 65.6007 61.3099 65.6007 61.677C64.0217 63.6888 62.0944 65.5104 61.633 68.0162C61.3525 68.5418 61.0675 69.0674 60.7508 69.6565C59.7826 68.8998 59.0587 68.3379 58.3394 67.7624C57.887 67.4045 57.4527 67.0284 57.0048 66.6568C57.0048 65.4741 57.0048 64.296 57.0048 63.136C57.5296 62.8188 57.9458 62.5696 58.3937 62.2977C58.1901 60.961 57.982 59.6152 57.7648 58.1879C56.9098 57.7529 56.109 57.1502 55.6068 56.0854C55.2765 55.3876 54.4531 54.9254 54.7427 53.9693C55.0187 53.9693 55.2946 53.9693 55.5118 53.9693C55.3987 52.1976 55.2901 50.5709 55.1996 48.9441C55.168 48.3551 55.1951 47.7615 55.1951 47.1724C55.8737 47.1316 55.5797 46.6105 55.6475 46.2662C55.4666 46.1166 55.2901 45.8493 55.1001 45.8357C54.3807 45.7859 53.6569 45.813 52.933 45.813C52.5666 45.5276 52.2001 45.2376 51.7296 44.866C51.0374 44.866 50.2276 44.866 49.463 44.866C49.273 43.9643 49.1056 43.1487 48.9608 42.4599C49.2911 41.5265 50.7705 41.8573 50.6709 40.5976C50.1416 40.0674 49.6485 39.4784 49.0603 39.0162C48.5717 38.6355 47.9881 38.3365 47.4045 38.1235C46.6942 37.8698 45.9387 37.7429 45.6944 37.684C44.9479 36.669 44.5 36.0663 44.0747 35.4909C44.2285 35.432 44.4864 35.3368 44.6402 35.2824C44.8891 34.2266 45.1153 33.266 45.3008 32.464C45.6627 32.1649 45.907 31.961 46.1468 31.7616C46.1468 31.6121 46.1468 31.458 46.1468 31.3085C46.2961 31.159 46.4499 31.0049 46.5992 30.8554C46.5992 30.4023 46.5992 29.9491 46.5992 29.496C47.2778 29.4552 46.9838 28.9341 47.0516 28.5898C47.6624 28.0143 47.6624 27.3527 47.0516 26.7773C46.9023 26.6277 46.7485 26.4737 46.5992 26.3241C46.7485 25.282 45.9251 25.0509 45.1515 24.6702C45.3641 24.054 46.0835 23.4876 45.5089 22.7399C44.4186 22.7399 43.3237 22.7399 42.3555 22.7399C42.0388 23.0027 41.8172 23.193 41.6272 23.3516C41.6272 24.0857 41.6272 24.7518 41.6272 25.4179C40.763 25.3726 39.8673 25.3635 39.1615 25.8982C38.7769 26.1882 38.4557 26.3377 37.9897 26.3332C36.5194 26.3105 35.049 26.3241 33.7189 26.3241C33.1625 25.8121 32.8593 25.2185 32.1264 25.4179C31.9771 25.2684 31.8233 25.1143 31.674 24.9648C31.5021 24.5207 32.0948 23.8184 31.2216 23.6054C31.2578 22.8305 31.3166 22.0466 30.3168 21.7929C30.3168 21.4893 30.3168 21.1902 30.3168 20.8866C30.8235 20.4335 31.3302 19.9804 31.8776 19.491C32.5155 19.491 33.167 19.491 33.8094 19.491C33.927 17.819 33.927 17.819 33.2439 16.2874C31.9771 16.5185 30.6832 16.7541 29.3712 16.9898C29.5884 17.6241 29.7693 18.1498 29.9186 18.5848C29.5929 19.278 29.1902 19.6405 28.5071 19.5318C28.0547 19.3823 27.6023 19.2282 27.1499 19.0787C26.7065 19.2509 26.0052 18.6573 25.7926 19.5318C25.5257 19.5318 25.2587 19.5318 24.9601 19.5318C24.9285 19.849 24.9014 20.0484 24.8923 20.2523C24.8833 20.4652 24.8923 20.6782 24.8923 20.8912C24.2137 20.932 24.5077 21.453 24.4399 21.7974C24.2906 21.947 24.1368 22.101 23.9875 22.2505C23.7613 22.2505 23.5351 22.2505 23.2546 22.2505C23.1686 22.4952 23.0826 22.758 22.9559 23.1251C22.6393 23.1432 22.2819 23.1613 21.9245 23.184C21.4992 23.6099 21.0739 24.0359 20.617 24.489C20.0469 24.489 19.4543 24.489 18.7168 24.489C18.5132 24.2307 18.2373 23.8773 17.9251 23.483C16.5678 24.0857 15.3011 24.6521 14.0298 25.2185C14.2062 25.8076 14.3827 26.4012 14.6044 27.1398C13.3421 27.1398 12.2382 27.1398 11.2158 27.1398C10.7543 27.5657 10.3878 27.9101 9.89018 28.3723C9.60968 27.8829 9.41967 27.5521 9.13012 27.0446C8.79986 27.4615 8.53294 27.8013 8.19815 28.2273C7.50143 27.824 6.90425 27.3573 6.70971 26.383C5.32532 26.3876 4.33452 25.572 3.45231 24.5388C3.01347 24.5388 2.57011 24.5388 2.10412 24.5388C1.58837 23.9498 0.688045 23.6145 0.959494 22.5405C1.39834 22.2188 1.88241 21.8563 2.56104 21.3579C1.8236 20.7235 1.24451 20.2251 0.308014 19.423C-0.135353 18.6527 1.57478 18.3491 1.41644 17.3205C1.91862 17.3205 2.35293 17.3205 2.8732 17.3205C4.03139 16.3645 5.21674 15.3948 6.48803 14.348C6.06728 13.6865 5.70082 13.1065 5.2665 12.4177C7.20284 10.3515 7.67334 7.22039 10.9036 5.97883C11.451 5.97883 12.3468 5.97883 12.9485 5.97883C14.0524 5.37164 15.0432 5.03633 15.7444 4.38836C16.7669 3.44133 17.6356 5.27195 18.6128 4.30227C18.1015 3.43227 17.5722 2.53508 17.0022 1.56539C17.3505 1.13039 17.6129 0.804141 17.9613 0.369141C18.3956 0.686328 18.7983 0.976328 19.3819 1.40227C20.4179 1.40227 21.6756 1.40227 22.8564 1.40227C23.0962 1.64242 23.2545 1.80102 23.4943 2.04117C23.4943 3.06977 23.4943 4.17992 23.4943 4.98648C23.9829 5.94258 24.3358 6.62227 24.6118 7.16148C24.9873 7.33367 25.2407 7.45148 25.3673 7.51039C25.675 7.19773 26.0143 6.85789 26.6793 6.18727C26.5843 5.17227 27.0549 3.5682 26.1364 1.95055C26.8151 1.95055 27.3172 1.95055 27.928 1.95055C29.0002 3.22383 30.6289 4.13461 31.7102 5.88367C31.7102 6.6268 31.7102 7.58289 31.7102 8.5118C32.9453 9.0057 33.3479 8.26711 33.6782 7.22039C34.0718 7.4107 34.4156 7.65992 34.7957 7.73695C35.2119 7.82305 35.6643 7.75508 36.1167 7.75508C36.171 8.22633 36.2117 8.5843 36.2434 8.83352C36.7501 9.19602 37.198 9.51773 37.5645 9.77602C37.5645 10.569 36.6642 11.217 35.4064 11.4798C35.1893 12.0507 34.9676 12.6398 34.8002 13.0929C35.5467 13.8315 36.1801 14.4568 36.8089 15.0776C36.5691 16.4641 36.3565 17.6695 36.1439 18.902C37.8314 19.2101 39.3379 19.7266 40.7133 20.6374C41.4869 21.1495 42.3103 21.6343 43.4187 21.2265C43.4368 20.9138 43.4549 20.5559 43.473 20.1526C43.7173 20.0665 43.9797 19.9759 44.2421 19.8807C44.9388 18.6935 43.2785 18.3582 43.3825 17.3205C42.6903 17.3205 42.0343 17.3205 41.2788 17.3205C41.2788 16.446 41.2788 15.6395 41.2788 14.6063C41.8353 14.2891 42.5636 13.8768 43.3916 13.4055C43.4142 13.1835 43.4549 12.8255 43.5002 12.3815C44.0476 12.3815 44.6086 12.3815 45.2465 12.3815C45.2465 13.0884 45.2465 13.7454 45.2465 14.4523C45.5179 14.5066 45.726 14.552 46.0337 14.6109C46.097 14.9598 46.1739 15.3721 46.2825 15.9521C46.8797 15.7618 47.4543 15.5805 48.2007 15.3404C48.427 15.7029 48.6667 16.0835 48.8613 16.3962C49.7118 16.3962 50.3678 16.3962 50.9107 16.3962C51.7477 17.0034 51.6572 17.7329 51.5124 18.553C51.0193 18.553 50.5126 18.553 50.0195 18.553C49.6937 20.651 49.8656 21.0362 51.4355 21.879C52.0825 22.9891 52.5168 24.1673 52.734 25.427C52.734 25.4405 52.8742 25.427 52.9511 25.427C53.218 25.7713 53.4171 26.2245 53.7655 26.4329C54.5708 26.9087 55.3761 27.8466 56.4076 26.7863C57.421 26.9359 58.0679 25.939 58.9728 25.9027C60.5653 25.8438 61.7642 24.8968 62.9857 24.131C63.9358 23.5329 64.818 23.0299 65.8405 23.1659C66.2114 22.7943 66.4783 22.527 66.7498 22.2551C68.5549 22.2551 70.3646 22.2188 72.1743 22.2732C72.9434 22.2959 73.7034 22.5134 74.459 22.6402C74.6716 22.4907 74.9023 22.3321 75.029 22.246C75.581 22.7988 76.0515 23.2701 76.3953 23.6145C77.2775 23.6145 77.8838 23.6734 78.4719 23.5963C79.0239 23.5238 79.5577 23.3109 80.0961 23.1613C80.7521 23.1613 81.4081 23.1613 82.2541 23.1613C82.806 23.7549 83.4258 24.4709 84.1135 25.1143C84.3352 25.3227 84.7469 25.3273 85.0726 25.427C85.9322 25.7034 86.638 26.2743 87.5971 26.4374C88.6196 26.6141 89.6782 27.0809 90.2076 28.1548C91.325 28.0234 92.2027 28.3632 93.0352 29.0565C93.7274 29.6365 94.5553 30.067 95.3561 30.502C97.125 31.4626 98.8894 32.4323 100.197 34.0182C100.523 34.4124 100.88 34.5574 101.36 34.4895" fill="#E10B17"/>
</svg>
