<svg width="114" height="70" viewBox="0 0 114 70" fill="none" xmlns="http://www.w3.org/2000/svg">
<path d="M102.012 33.7714C102.387 33.7714 102.691 35.4887 102.912 35.4887C103.772 35.9419 104.586 36.5219 105.496 36.8164C106.735 37.2242 107.613 37.8586 107.889 39.1817C107.17 40.7495 107.337 41.9866 108.78 42.8928C110.44 43.935 111.585 45.4666 112.988 46.7489C113.209 46.9528 113.214 47.3923 113.318 47.7231C112.16 48.4934 111.255 49.7169 109.984 49.6353C109.495 50.6775 109.115 51.4931 108.803 52.1592C108.224 52.0097 107.83 51.9055 107.436 51.8012C107.278 51.4931 107.115 51.185 107.011 50.9811C107.206 50.3648 107.373 49.8392 107.563 49.2275C106.391 48.9511 105.364 48.7155 104.374 48.4798C104.695 47.7367 105.016 46.9891 105.414 46.0602C104.677 45.7566 104.107 45.5255 103.451 45.2536C103.238 43.6677 101.632 44.1797 100.664 43.5C100.216 43.8897 99.8856 44.3836 99.4513 44.5059C98.8813 44.6691 98.5555 44.9183 98.3926 45.453C97.8317 45.453 97.2706 45.453 96.5423 45.453C96.3975 45.9333 96.2618 46.3728 96.1306 46.8123C95.8275 47.1159 95.5289 47.415 95.2257 47.7186C95.0629 48.1173 94.9 48.5206 94.6738 49.078C95.6194 49.078 96.3296 49.078 97.0354 49.078C97.3385 49.078 97.6371 49.078 97.9402 49.078C98.2434 49.2275 98.5419 49.3816 98.8451 49.5311C98.9944 49.6806 99.1482 49.8347 99.2975 49.9842C99.4468 50.4373 99.6006 50.8905 99.7499 51.3436C99.6006 51.4931 99.4468 51.6472 99.2975 51.7967C98.4696 52.6305 97.6145 52.1411 96.8001 51.7061C96.5287 52.1139 96.3296 52.4084 96.1306 52.703C95.9813 52.8525 95.8275 53.0066 95.6782 53.1561C94.7959 53.1561 93.9137 53.1561 93.2668 53.1561C91.9774 51.1352 90.1315 52.0686 88.5797 51.7288C88.5028 51.5113 88.4124 51.253 88.3581 51.108C86.5575 50.1609 84.8383 49.2592 83.0784 48.3348C82.9834 48.43 82.7662 48.6384 82.5581 48.8423C82.5581 49.3816 82.5581 49.9072 82.5581 50.4328C82.5581 50.7364 82.5581 51.0355 82.5581 51.3391C81.1194 51.2756 79.8843 52.123 78.4864 52.2453C78.3054 52.0958 78.1289 51.8284 77.9389 51.8148C77.2196 51.765 76.4957 51.7922 75.7719 51.7922C75.6226 51.7922 75.4687 51.7922 75.3194 51.7922C75.3692 50.6231 74.5956 50.2606 73.5098 49.8619C73.5098 50.4917 73.5098 50.9131 73.5098 51.3391C72.1978 51.6517 71.1934 50.7727 70.4424 50.4917C68.9404 50.7183 67.8229 50.8905 66.7235 51.0581C66.7235 51.3391 66.7235 51.5656 66.7235 51.7922C66.2847 52.0052 65.8459 52.2136 65.4206 52.422C65.4206 53.0881 65.4206 53.7406 65.4206 54.2028C65.778 54.7103 66.0223 55.0638 66.2711 55.4172C65.8413 55.4172 65.4161 55.4172 64.9546 55.4172C64.9546 55.7706 64.9546 55.9745 64.9546 56.3234C65.7147 56.3234 66.4476 56.3234 67.176 56.3234C68.0174 56.4322 67.4429 57.1391 67.7777 57.4109C68.117 57.7644 68.4608 58.1178 68.8816 58.5573C69.1168 58.5891 69.5149 58.6389 69.8905 58.6888C69.8905 59.0603 69.8905 59.2778 69.8905 59.4953C68.4427 60.1252 66.8547 59.8306 65.3663 60.0527C65.3663 60.5737 65.3663 60.9408 65.3663 61.3078C63.7874 63.3197 61.8601 65.1412 61.3986 67.647C61.1181 68.1727 60.8331 68.6983 60.5164 69.2873C59.5482 68.5306 58.8244 67.9687 58.105 67.3933C57.6526 67.0353 57.2183 66.6592 56.7704 66.2877C56.7704 65.105 56.7704 63.9269 56.7704 62.7669C57.2952 62.4497 57.7114 62.2005 58.1593 61.9286C57.9557 60.5919 57.7476 59.2461 57.5304 57.8188C56.6754 57.3838 55.8746 56.7811 55.3724 55.7162C55.0422 55.0184 54.2188 54.5562 54.5083 53.6002C54.7843 53.6002 55.0603 53.6002 55.2774 53.6002C55.1643 51.8284 55.0557 50.2017 54.9653 48.575C54.9336 47.9859 54.9607 47.3923 54.9607 46.8033C55.6394 46.7625 55.3453 46.2414 55.4131 45.897C55.2322 45.7475 55.0557 45.4802 54.8657 45.4666C54.1464 45.4167 53.4225 45.4439 52.6986 45.4439C52.3322 45.1584 51.9657 44.8684 51.4952 44.4969C50.803 44.4969 49.9932 44.4969 49.2286 44.4969C49.0386 43.5952 48.8712 42.7795 48.7264 42.0908C49.0567 41.1573 50.5361 41.4881 50.4366 40.2284C49.9072 39.6983 49.4141 39.1092 48.826 38.647C48.3374 38.2664 47.7538 37.9673 47.1701 37.7544C46.4598 37.5006 45.7043 37.3737 45.46 37.3148C44.7135 36.2998 44.2656 35.6972 43.8403 35.1217C43.9942 35.0628 44.252 34.9677 44.4059 34.9133C44.6547 33.8575 44.8809 32.8969 45.0664 32.0948C45.4283 31.7958 45.6726 31.5919 45.9124 31.3925C45.9124 31.243 45.9124 31.0889 45.9124 30.9394C46.0617 30.7898 46.2155 30.6358 46.3648 30.4862C46.3648 30.0331 46.3648 29.58 46.3648 29.1269C47.0435 29.0861 46.7494 28.565 46.8172 28.2206C47.428 27.6452 47.428 26.9836 46.8172 26.4081C46.6679 26.2586 46.5141 26.1045 46.3648 25.955C46.5141 24.9128 45.6907 24.6817 44.9171 24.3011C45.1297 23.6848 45.8491 23.1184 45.2745 22.3708C44.1842 22.3708 43.0893 22.3708 42.1212 22.3708C41.8045 22.6336 41.5828 22.8239 41.3928 22.9825C41.3928 23.7166 41.3928 24.3827 41.3928 25.0487C40.5287 25.0034 39.6329 24.9944 38.9271 25.5291C38.5426 25.8191 38.2213 25.9686 37.7553 25.9641C36.285 25.9414 34.8147 25.955 33.4846 25.955C32.9281 25.443 32.625 24.8494 31.8921 25.0487C31.7428 24.8992 31.5889 24.7452 31.4396 24.5956C31.2677 24.1516 31.8604 23.4492 30.9872 23.2362C31.0234 22.4614 31.0822 21.6775 30.0824 21.4237C30.0824 21.1202 30.0824 20.8211 30.0824 20.5175C30.5891 20.0644 31.0958 19.6112 31.6432 19.1219C32.2811 19.1219 32.9326 19.1219 33.575 19.1219C33.6927 17.4498 33.6927 17.4498 33.0095 15.9183C31.7427 16.1494 30.4488 16.385 29.1368 16.6206C29.354 17.255 29.535 17.7806 29.6843 18.2156C29.3585 18.9089 28.9559 19.2714 28.2727 19.1627C27.8203 19.0131 27.3679 18.8591 26.9155 18.7095C26.4721 18.8817 25.7709 18.2881 25.5582 19.1627C25.2913 19.1627 25.0244 19.1627 24.7258 19.1627C24.6941 19.4798 24.667 19.6792 24.6579 19.8831C24.6489 20.0961 24.6579 20.3091 24.6579 20.522C23.9793 20.5628 24.2734 21.0839 24.2055 21.4283C24.0562 21.5778 23.9024 21.7319 23.7531 21.8814C23.5269 21.8814 23.3007 21.8814 23.0202 21.8814C22.9342 22.1261 22.8483 22.3889 22.7216 22.7559C22.4049 22.7741 22.0475 22.7922 21.6901 22.8148C21.2648 23.2408 20.8395 23.6667 20.3826 24.1198C19.8125 24.1198 19.2199 24.1198 18.4824 24.1198C18.2789 23.8616 18.0029 23.5081 17.6907 23.1139C16.3335 23.7166 15.0667 24.283 13.7954 24.8494C13.9719 25.4384 14.1483 26.032 14.37 26.7706C13.1078 26.7706 12.0038 26.7706 10.9814 26.7706C10.5199 27.1966 10.1535 27.5409 9.6558 28.0031C9.37531 27.5137 9.18529 27.183 8.89575 26.6755C8.56548 27.0923 8.29856 27.4322 7.96377 27.8581C7.26705 27.4548 6.66987 26.9881 6.47533 26.0139C5.09094 26.0184 4.10015 25.2028 3.21793 24.1697C2.77909 24.1697 2.33573 24.1697 1.86974 24.1697C1.35399 23.5806 0.45367 23.2453 0.725119 22.1714C1.16396 21.8497 1.64804 21.4872 2.32666 20.9887C1.58922 20.3544 1.01014 19.8559 0.0736391 19.0539C-0.369728 18.2836 1.34041 17.98 1.18206 16.9514C1.68424 16.9514 2.11855 16.9514 2.63883 16.9514C3.79701 15.9953 4.98237 15.0256 6.25365 13.9789C5.83291 13.3173 5.46645 12.7373 5.03213 12.0486C6.96847 9.98234 7.43896 6.85125 10.6692 5.60969C11.2166 5.60969 12.1124 5.60969 12.7141 5.60969C13.818 5.0025 14.8088 4.66719 15.5101 4.01922C16.5325 3.07219 17.4012 4.90281 18.3784 3.93313C17.8672 3.06313 17.3378 2.16594 16.7678 1.19625C17.1162 0.761251 17.3786 0.435 17.7269 0C18.1612 0.317187 18.5639 0.607188 19.1475 1.03313C20.1835 1.03313 21.4413 1.03313 22.6221 1.03313C22.8618 1.27328 23.0202 1.43188 23.26 1.67203C23.26 2.70063 23.26 3.81078 23.26 4.61734C23.7486 5.57344 24.1015 6.25312 24.3774 6.79234C24.7529 6.96453 25.0063 7.08234 25.133 7.14125C25.4406 6.82859 25.7799 6.48875 26.4449 5.81813C26.3499 4.80313 26.8205 3.19906 25.9021 1.58141C26.5807 1.58141 27.0829 1.58141 27.6936 1.58141C28.7658 2.85469 30.3946 3.76547 31.4758 5.51453C31.4758 6.25766 31.4758 7.21375 31.4758 8.14266C32.7109 8.63656 33.1136 7.89797 33.4438 6.85125C33.8374 7.04156 34.1813 7.29078 34.5613 7.36781C34.9775 7.45391 35.4299 7.38594 35.8824 7.38594C35.9367 7.85719 35.9774 8.21516 36.009 8.46438C36.5157 8.82688 36.9636 9.14859 37.3301 9.40688C37.3301 10.1998 36.4298 10.8478 35.1721 11.1106C34.9549 11.6816 34.7332 12.2706 34.5658 12.7237C35.3123 13.4623 35.9457 14.0877 36.5745 14.7084C36.3348 16.095 36.1221 17.3003 35.9095 18.5328C37.597 18.8409 39.1035 19.3575 40.4789 20.2683C41.2525 20.7803 42.0759 21.2652 43.1843 20.8573C43.2024 20.5447 43.2206 20.1867 43.2386 19.7834C43.483 19.6973 43.7453 19.6067 44.0077 19.5116C44.7045 18.3244 43.0441 17.9891 43.1482 16.9514C42.456 16.9514 41.7999 16.9514 41.0444 16.9514C41.0444 16.0769 41.0444 15.2703 41.0444 14.2372C41.6009 13.92 42.3293 13.5077 43.1572 13.0364C43.1798 12.8144 43.2205 12.4564 43.2658 12.0123C43.8132 12.0123 44.3742 12.0123 45.0121 12.0123C45.0121 12.7192 45.0121 13.3762 45.0121 14.0831C45.2836 14.1375 45.4917 14.1828 45.7993 14.2417C45.8626 14.5906 45.9396 15.003 46.0481 15.583C46.6453 15.3927 47.2199 15.2114 47.9664 14.9713C48.1926 15.3338 48.4324 15.7144 48.6269 16.027C49.4774 16.027 50.1335 16.027 50.6764 16.027C51.5133 16.6342 51.4228 17.3637 51.2781 18.1839C50.7849 18.1839 50.2782 18.1839 49.7851 18.1839C49.4594 20.2819 49.6313 20.667 51.2012 21.5098C51.8481 22.62 52.2824 23.7981 52.4996 25.0578C52.4996 25.0714 52.6398 25.0578 52.7167 25.0578C52.9837 25.4022 53.1827 25.8553 53.5311 26.0637C54.3364 26.5395 55.1417 27.4775 56.1732 26.4172C57.1866 26.5667 57.8336 25.5698 58.7384 25.5336C60.3309 25.4747 61.5298 24.5277 62.7513 23.7619C63.7014 23.1638 64.5836 22.6608 65.6061 22.7967C65.9771 22.4252 66.244 22.1578 66.5154 21.8859C68.3206 21.8859 70.1302 21.8497 71.9399 21.9041C72.709 21.9267 73.4691 22.1442 74.2246 22.2711C74.4372 22.1216 74.668 21.963 74.7947 21.8769C75.3466 22.4297 75.8171 22.9009 76.1609 23.2453C77.0431 23.2453 77.6494 23.3042 78.2375 23.2272C78.7895 23.1547 79.3233 22.9417 79.8617 22.7922C80.5177 22.7922 81.1737 22.7922 82.0197 22.7922C82.5717 23.3858 83.1915 24.1017 83.8791 24.7452C84.1008 24.9536 84.5125 24.9581 84.8383 25.0578C85.6978 25.3342 86.4036 25.9052 87.3627 26.0683C88.3852 26.245 89.4439 26.7117 89.9732 27.7856C91.0907 27.6542 91.9683 27.9941 92.8008 28.6873C93.493 29.2673 94.3209 29.6978 95.1217 30.1328C96.8906 31.0934 98.655 32.0631 99.9625 33.6491C100.288 34.0433 100.646 34.1883 101.125 34.1203" fill="#D9D9D9"/>
</svg>
