<svg width="277" height="246" viewBox="0 0 277 246" fill="none" xmlns="http://www.w3.org/2000/svg">
<path d="M97.3611 75.2173C97.5104 75.2173 97.6642 75.2173 97.8135 75.2173C97.9628 75.3668 98.1166 75.5209 98.2659 75.6704C98.4152 75.8199 98.569 75.974 98.7183 76.1235C98.7183 76.273 98.7183 76.4271 98.7183 76.5766C98.569 76.7262 98.4152 76.8802 98.2659 77.0298C98.2659 77.3334 98.2659 77.6324 98.2659 77.936C96.9992 77.7321 95.8591 78.2124 94.6919 78.5704C93.1175 79.0507 91.5566 79.0416 90.0093 78.3846C89.2809 78.8966 88.5933 79.4359 88.7426 80.5279C86.5936 81.0988 84.8609 79.9796 83.0422 79.2093C82.8702 78.8649 82.6893 78.4934 82.4992 78.1082C82.5943 77.9949 82.73 77.8409 82.9155 77.6234C82.6485 77.5554 82.4495 77.5056 82.1871 77.4376C82.0875 77.723 82.0016 77.9813 81.8568 78.3937C80.581 78.3937 79.2464 78.3937 77.9117 78.3937C77.1743 77.7412 76.3871 77.7412 75.6497 78.3937C75.4506 78.6927 75.2515 78.9873 75.057 79.2773C74.5684 79.2773 74.125 79.2773 73.5369 79.2773C72.4873 77.8862 71.0803 76.7534 69.6054 75.6432C68.3432 74.6916 67.4202 73.2779 66.3299 72.0499C65.6241 72.0499 64.8686 72.0499 64.5564 72.0499C63.4028 71.5968 62.6246 71.2887 61.6157 70.8945C60.9054 70.0426 59.6613 69.2859 59.0822 67.9355C58.9736 67.6773 58.5212 67.5277 58.485 67.2876C58.1593 65.2304 56.4537 63.6716 56.2817 61.6688C56.1505 60.1463 55.1598 59.2446 54.6214 58.0393C54.3635 57.4638 53.8975 56.9835 53.5039 56.4307C53.5039 55.7148 53.5039 54.9671 53.5039 54.2602C53.8839 53.7255 54.2549 53.2045 54.6531 52.6426C54.7978 52.774 54.9969 52.9598 55.2729 53.2135C55.2729 53.8116 55.2729 54.4687 55.2729 55.017C56.3722 56.2766 57.7114 57.1557 58.4352 58.7462C58.2271 60.6946 59.3853 62.2534 60.4485 63.8529C60.8421 64.442 61.4257 64.9857 61.5931 65.6337C62.0908 67.5912 63.7014 68.2301 65.2577 68.8509C66.4883 69.3402 67.8364 69.5351 69.1756 69.8704C69.723 70.4187 70.3112 71.0077 70.8993 71.5968C71.1934 71.5968 71.492 71.5968 71.8087 71.5968C72.3742 72.1859 72.9487 72.7795 73.2428 73.083C74.4372 73.577 75.2696 73.9213 76.1473 74.2884C77.681 73.4184 79.4228 74.0663 81.0832 73.8715C81.3863 73.722 81.6849 73.5679 81.988 73.4184C82.0559 73.5679 82.1192 73.7129 82.1645 73.8126C82.445 73.6585 82.6712 73.5362 82.8928 73.4184C83.196 73.4184 83.4946 73.4184 83.7977 73.4184C83.8791 74.3699 84.9197 73.4773 85.2092 74.2748C84.9468 74.6418 84.6301 75.0813 84.3179 75.5254C84.4446 75.5798 84.5758 75.6296 84.7025 75.684C84.7432 76.3637 85.2635 76.0691 85.6073 76.1371C86.2181 76.2504 86.8243 76.3637 87.417 76.477C88.0097 76.3682 88.6159 76.2504 89.2267 76.1371C89.376 76.1371 89.5298 76.1371 89.6791 76.1371C90.6518 76.8848 91.7828 76.4996 92.846 76.5902C93.1898 76.5223 93.7101 76.8168 93.7508 76.1371C94.2032 75.9876 94.6557 75.8335 95.1081 75.684C95.6826 75.684 96.2617 75.7202 96.8273 75.6613C97.0127 75.6296 97.1801 75.3668 97.3611 75.2173Z" fill="#BEDEDE"/>
<path d="M55.739 21.2966C55.6078 20.5354 56.1643 19.6382 55.2188 19.1851C55.8612 17.7034 56.2186 16.2488 57.5487 15.406C58.0599 15.2565 58.5711 15.107 59.2317 14.9121C59.2769 15.397 59.3176 15.8546 59.3583 16.3123C59.209 16.4618 59.0552 16.6159 58.9059 16.7654C58.7566 16.9421 58.5078 17.1052 58.4761 17.3001C58.4083 17.717 58.4535 18.152 58.4535 18.5779C57.5803 18.7909 58.173 19.4932 58.0011 19.9373C57.8518 20.0868 57.698 20.2409 57.5487 20.3904C57.3134 20.6895 57.0782 20.9885 56.8384 21.2966C56.481 21.2966 56.11 21.2966 55.739 21.2966Z" fill="#D9D9D9"/>
<path d="M271.84 135.684C272.745 135.996 273.26 136.173 273.916 136.4C273.374 137.723 274.785 138.778 273.966 140.17C273.469 139.78 273.021 139.431 272.623 139.123C272.383 138.076 272.166 137.115 271.84 135.684Z" fill="#A8D1D8"/>
<path d="M275.38 141.605C275.52 141.968 275.656 142.33 275.796 142.698C275.878 142.62 275.963 142.543 276.045 142.471C276.045 143.069 276.045 143.667 276.045 144.36C275.782 144.583 275.461 144.85 274.923 145.298C274.597 144.22 274.339 143.377 274.086 142.534C274.231 142.589 274.375 142.643 274.52 142.698C274.66 142.335 274.796 141.973 274.936 141.61C275.086 141.605 275.231 141.605 275.38 141.605Z" fill="#BEDEDE"/>
<path d="M275.985 149.903C275.365 149.427 275.094 149.218 274.777 148.974C274.777 148.285 274.777 147.583 274.777 146.672C275.27 146.926 275.614 147.107 275.985 147.297C275.985 148.058 275.985 148.756 275.985 149.903Z" fill="#A8D1D8"/>
<path d="M188.01 206.643C187.142 206.353 186.445 207.626 185.418 206.747C185.938 206.226 186.341 205.551 186.924 205.311C187.802 204.948 187.829 204.296 187.924 203.562C188.906 203.639 189.309 201.849 190.566 202.751C190.408 202.927 190.263 203.081 190.082 203.281C190.376 203.385 190.639 203.476 190.901 203.566C191.304 204.332 190.847 205.202 190.331 205.184C189.11 205.143 188.757 206.185 188.01 206.643Z" fill="#A8D1D8"/>
<path d="M196.439 197.561C196.439 198.386 196.439 199.211 196.439 200.253C195.924 200.429 195.268 200.525 194.779 200.86C194.313 201.177 194.023 201.748 193.404 202.518C193.322 201.617 193.277 201.127 193.223 200.506C193.969 199.845 194.752 199.156 195.534 198.463C196.408 198.25 195.815 197.548 195.987 197.104C196.136 197.258 196.29 197.412 196.439 197.561Z" fill="#A8D1D8"/>
<path d="M230.508 225.823C230.26 226.213 229.97 226.657 229.653 227.146C229.332 226.96 229.101 226.901 228.988 226.747C228.531 226.122 228.111 225.474 227.645 224.79C227.835 223.929 228.441 223.725 229.214 223.861C229.622 224.477 230.006 225.057 230.508 225.823Z" fill="#A8D1D8"/>
<path d="M198.832 193.365C199.416 192.654 199.818 192.16 200.158 191.738C200.764 191.738 201.275 191.738 201.759 191.738C201.804 191.942 201.908 192.123 201.854 192.214C201.248 193.279 200.316 193.564 198.832 193.365Z" fill="#B4B4B4"/>
<path d="M195.984 197.562C195.835 197.413 195.681 197.259 195.532 197.109C195.423 196.289 195.875 195.913 196.681 195.682C197.097 196.592 196.93 197.209 195.984 197.562Z" fill="#B4B4B4"/>
<path d="M13.2112 123.702C13.9939 123.493 14.1749 122.918 14.107 122.061C13.8401 121.857 13.4917 121.586 13.2203 121.382C13.2203 120.784 13.2203 120.339 13.2203 119.873C13.9306 119.501 14.659 119.121 15.3919 118.735C17.1065 119.592 18.9479 118.976 20.5675 119.17C21.4678 118.713 21.3592 118.015 21.3502 117.353C21.3502 117.204 21.3502 117.05 21.3502 116.9C21.7755 116.9 22.2053 116.9 22.5808 116.9C22.7165 116.492 22.7979 116.234 22.8703 116.012C24.309 115.641 25.3677 117.929 26.7159 116.488C27.4216 116.719 28.0052 116.909 28.5843 117.1C28.5843 117.353 28.5843 117.58 28.5843 117.802C27.7881 118.106 26.9828 118.391 26.1956 118.722C26.0508 118.781 25.9784 119.012 25.8698 119.161C25.7431 119.211 25.621 119.261 25.4943 119.311C25.621 119.411 25.7431 119.515 25.8698 119.614C26.0463 119.764 26.2092 120.013 26.4037 120.045C26.8199 120.113 27.2542 120.068 27.6795 120.068C27.7473 120.947 27.7473 121.894 27.1728 122.551C26.6254 123.176 26.838 123.779 26.8018 124.409C27.3447 124.581 27.8695 124.753 28.797 125.052C29.4077 125.052 30.4573 125.052 31.5522 125.052C32.3665 126.058 33.1854 126.982 32.258 128.482C31.9232 129.026 32.2036 129.955 32.2036 130.702C31.1043 131.958 30.5433 133.177 30.4799 134.432C30.7423 134.522 31.0048 134.617 31.24 134.699C31.2672 134.817 31.2943 134.885 31.2943 134.957C31.2988 135.632 31.2943 136.312 31.2988 136.992C30.9731 137.372 30.6473 137.753 30.2583 138.206C30.8238 138.619 31.3124 138.977 31.7874 139.325C30.8645 141.156 31.5296 143.023 31.2219 144.935C32.8687 144.754 33.5156 146.439 34.9181 146.43C34.9181 146.807 34.9181 147.029 34.9181 147.255C34.0178 147.894 32.8551 147.663 31.9141 148.161C31.2988 148.488 30.6292 148.75 30.0863 149.176C28.8241 150.16 27.6252 151.224 26.4082 152.253C25.6436 152.199 25.4355 151.025 24.5171 151.333C24.5171 151.107 24.5171 150.88 24.5171 150.676C23.9968 150.454 23.4947 150.219 22.9744 150.028C22.7753 149.956 22.5265 149.938 22.3184 149.987C21.6714 150.142 21.1331 150.907 20.3549 150.146C19.8346 149.639 19.0248 150.064 18.31 149.611C17.6675 149.204 16.5682 149.525 15.7041 149.525C14.7087 150.146 13.736 150.717 12.795 151.347C12.0033 151.872 11.1346 151.795 10.266 151.791C9.73668 149.249 7.65558 148.904 5.58804 148.488C5.54732 148.139 5.50661 147.785 5.45232 147.341C4.88228 147.169 4.28959 146.924 3.67883 146.829C3.11331 146.739 2.52518 146.811 1.71536 146.811C2.14968 145.9 2.47994 145.225 2.78305 144.591C2.57042 143.961 2.36684 143.367 2.16778 142.774C1.95966 142.733 1.75607 142.692 1.62034 142.66C1.27651 141.6 0.955285 140.608 0.539062 139.325C1.13173 138.555 1.87823 137.594 2.76497 136.448C3.10428 134.694 2.25373 132.56 3.34857 130.634C3.8779 130.471 4.40723 130.308 5.04513 130.109C5.04513 129.429 5.04513 128.872 5.04513 128.201C5.31206 128.355 5.5066 128.423 5.49755 128.469C5.36182 129.647 5.82782 130.585 6.63312 131.4C6.93624 131.4 7.23934 131.4 7.66008 131.4C8.6373 129.982 9.03545 128.265 9.80003 126.556C11.0623 126.162 12.415 125.569 13.2022 124.15C13.2112 124.005 13.2112 123.851 13.2112 123.702ZM16.8306 137.749C16.9799 137.898 17.1337 138.052 17.283 138.202C17.6494 138.202 18.0159 138.202 18.4593 138.202C19.6898 136.765 20.9475 135.297 22.2596 133.766C22.2596 133.503 22.2596 133.131 22.2596 132.764C22.4088 132.651 22.5627 132.538 22.712 132.42C22.5627 132.234 22.4088 132.044 22.2596 131.858C22.2053 131.545 22.1465 131.233 22.0515 130.698C21.6217 131.02 21.2959 131.133 21.2054 131.35C20.6535 132.692 19.4682 133.358 18.3959 134.182C17.8621 134.59 16.9482 134.577 16.826 135.483C16.1791 136.222 16.1791 137.01 16.8306 137.749ZM12.3064 145.905C12.1571 146.054 12.0033 146.208 11.854 146.358C11.6549 146.929 11.0306 147.436 11.5825 148.125C13.3017 146.956 14.0663 145.107 15.1928 143.268C14.6047 143.268 14.2518 143.268 13.813 143.268C13.0936 143.934 12.3426 144.709 12.3064 145.905Z" fill="#D9D9D9"/>
<path d="M70.7734 59.7348C70.2713 57.0433 68.3259 55.4619 66.5977 53.6947C66.7786 53.1147 66.9641 52.5166 67.2129 51.7191C67.593 51.7009 68.1449 51.6692 68.3937 51.6602C69.5926 52.8836 70.6015 53.9077 71.5516 54.8773C71.5516 55.6159 71.5516 56.2095 71.5516 56.862C72.1352 57.3967 72.7369 57.9495 73.3296 58.4933C73.1441 58.9419 72.9948 59.2998 72.8138 59.7348C72.2076 59.7348 71.5516 59.7348 70.7734 59.7348Z" fill="#BEDEDE"/>
<path d="M82.4985 56.4944C81.847 56.884 81.2453 57.2465 80.3993 57.754C80.2591 57.4006 80.1143 57.0426 79.9695 56.6892C79.9197 56.7572 79.87 56.8251 79.8202 56.8976C79.689 56.0639 79.5578 55.2301 79.3633 53.9976C79.6257 53.318 80.4853 53.3995 81.2634 53.5083C81.6615 54.4689 82.028 55.3615 82.4985 56.4944Z" fill="#A8D1D8"/>
<path d="M58.4961 105.306C58.7042 105.097 58.8852 104.835 59.1385 104.694C59.3059 104.599 59.5728 104.676 60.0207 104.676C60.8984 105.537 61.8304 106.697 63.4184 106.538C63.4184 107 63.4184 107.295 63.4184 107.685C62.3145 108.165 61.4775 107.254 60.5365 107.109C59.2742 106.914 58.953 106.149 58.4961 105.306Z" fill="#A8D1D8"/>
<path d="M105.9 106.072C105.9 106.503 105.9 106.856 105.9 107.264C104.905 107.998 103.837 108.637 102.426 108.845C102.426 108.206 102.426 107.708 102.426 107.037C103.611 107.209 104.471 105.827 105.9 106.072Z" fill="#A8D1D8"/>
<path d="M22.2571 132.765C22.2571 133.132 22.2571 133.5 22.2571 133.767C20.9451 135.298 19.6829 136.771 18.4568 138.203C18.018 138.203 17.647 138.203 17.2805 138.203C17.1312 138.053 16.9774 137.899 16.8281 137.75C16.8281 136.993 16.8281 136.241 16.8281 135.484C16.9458 134.578 17.8642 134.592 18.398 134.184C19.4702 133.364 20.651 132.698 21.2075 131.352C21.298 131.134 21.6237 131.021 22.0535 130.699C22.1485 131.234 22.2028 131.547 22.2616 131.859C22.2571 132.163 22.2571 132.462 22.2571 132.765Z" fill="#BEDEDE"/>
<path d="M12.3057 145.905C12.3419 144.709 13.0929 143.929 13.8123 143.268C14.2511 143.268 14.604 143.268 15.1921 143.268C14.0702 145.107 13.3056 146.956 11.5819 148.125C11.0299 147.436 11.6543 146.929 11.8533 146.358C12.0026 146.208 12.1564 146.054 12.3057 145.905Z" fill="#A8D1D8"/>
<path d="M270.965 172.046C271.273 171.452 271.336 170.732 271.481 170.179C269.699 168.747 267.998 167.383 266.061 165.829C264.763 165.675 263.324 166.418 261.804 166.749C261.433 166.373 261.058 166.001 260.714 165.657C260.614 163.463 259.338 161.465 259.859 159.19C260.243 158.805 260.668 158.379 261.175 157.872C261.175 157.292 261.175 156.635 261.175 156.295C261.754 155.375 262.166 154.714 262.587 154.048C261.926 152.942 261.311 151.913 260.619 150.762C261.894 149.172 263.84 148.673 265.654 147.948C265.654 146.893 265.654 145.832 265.654 144.899C265.048 144.052 264.496 143.29 263.899 142.457C263.899 141.904 263.899 141.247 263.899 140.431C264.514 140.431 265.07 140.431 265.582 140.431C266.686 138.745 267.188 137.064 266.993 135.211C267.319 135.084 267.577 134.985 267.916 134.858C267.916 131.663 267.916 128.437 267.916 125.292C268.26 124.948 268.527 124.681 268.753 124.454C268.816 122.388 270.323 120.589 269.599 118.436C268.359 117.675 267.038 116.86 265.559 115.953C264.849 115.953 263.953 115.953 263.433 115.953C262.768 115.468 262.347 115.16 261.899 114.834C262.121 114.182 262.306 113.651 262.474 113.162C261.171 111.649 259.881 110.158 258.397 108.436C257.42 109.909 256.072 110.28 254.371 110.067C253.47 111.476 252.548 112.917 251.588 114.422C251.588 115.038 251.588 115.695 251.588 116.289C250.932 116.588 250.362 116.846 249.996 117.014C249.159 118.59 251.258 119.533 250.593 120.983C249.743 120.983 248.987 120.983 248.268 120.983C246.779 119.642 244.82 120.312 243.101 119.497C243.101 120.516 243.101 121.327 243.101 122.057C242.594 122.564 242.169 122.99 241.852 123.308C241.681 123.838 241.495 124.232 241.436 124.644C241.359 125.197 241.142 125.94 241.4 126.289C242.382 127.617 242.101 129.026 242.115 130.53C240.69 130.53 239.432 130.53 238.355 130.53C237.233 131.536 236.256 132.415 235.369 133.208C234.234 133.226 233.288 133.131 232.42 133.657C231.583 134.164 230.628 134.169 229.673 134.128C228.995 134.096 228.316 134.133 227.638 134.115C227.511 134.11 227.384 134.01 227.058 133.865C226.936 133.467 226.773 132.936 226.597 132.37C225.204 132.153 223.783 131.931 222.172 131.677C222.729 130.005 221.177 129.103 220.584 127.775C218.983 127.834 218.96 125.895 217.712 125.492C215.413 126.901 214.413 125.066 213.328 123.566C212.798 123.761 212.409 123.906 211.744 124.146C210.993 124.146 209.939 124.146 208.871 124.146C207.835 123.407 206.881 122.324 205.713 122.007C204.42 121.654 203.365 120.548 201.859 121.006C201.859 118.989 201.877 117.186 201.85 115.378C201.836 114.453 202.081 113.66 202.773 113.044C203.108 112.745 203.479 112.491 203.94 112.133C202.949 111.082 203.266 109.369 201.551 109.102C201.483 109.093 201.452 108.857 201.361 108.626C201.691 108.237 202.053 107.811 202.533 107.249C202.121 106.963 201.823 106.755 201.443 106.492C200.986 106.492 200.389 106.492 199.502 106.492C199.208 106.864 198.787 107.385 198.466 107.783C197.869 107.783 197.43 107.783 196.869 107.783C196.353 107.208 195.806 106.592 195.267 105.985C193.919 106.207 192.969 105.586 192.132 104.666C191.318 104.666 190.49 104.693 189.666 104.652C189.327 104.634 188.929 104.553 188.671 104.353C187.784 103.678 186.766 103.755 185.776 103.764C184.943 103.139 184.138 102.536 183.645 102.169C181.147 101.467 179.007 100.642 176.564 101.159C176.379 101.458 176.116 101.879 175.818 102.36C175.402 102.36 174.895 102.36 174.433 102.36C174.121 102.047 173.854 101.78 173.524 101.449C172.782 101.508 171.805 101.313 171.203 101.693C169.909 102.518 168.579 102.418 167.104 102.369C166.711 101.838 166.285 101.258 165.715 100.484C164.693 100.651 163.49 100.842 162.028 101.082C161.739 101.444 161.322 101.965 161.033 102.328C160.458 102.527 159.861 102.106 159.78 102.858C159.78 103.384 159.78 103.914 159.78 104.458C160.305 104.979 160.865 105.482 161.359 106.048C161.73 106.474 162.232 106.954 162.282 107.453C162.449 109.052 163.381 110.321 163.928 111.753C165.408 112.365 166.15 113.47 166.114 115.092C166.114 115.242 166.114 115.396 166.114 115.546C165.942 116.515 164.616 115.523 164.336 116.515C164.336 117.358 164.336 118.201 164.336 119.17C163.788 119.17 163.367 119.17 162.947 119.17C162.797 119.32 162.643 119.474 162.494 119.624C162.453 120.303 161.933 120.009 161.589 120.077C161.906 121.06 161.386 121.962 161.069 122.768C160.734 123.629 160.721 124.436 160.685 125.161C160.083 125.999 159.544 126.756 158.884 127.676C158.884 128.274 158.884 129.076 158.884 129.701C158.418 130.612 157.721 130.503 157.065 130.499C156.916 130.648 156.762 130.802 156.613 130.952C156.613 131.174 156.613 131.391 156.613 131.745C154.957 132.134 153.821 131.446 152.993 130.046C152.844 129.896 152.69 129.742 152.541 129.592C151.817 129.592 151.093 129.624 150.374 129.57C150.184 129.556 150.008 129.289 149.827 129.139C149.483 129.071 148.962 129.366 148.922 128.686C148.469 128.686 148.017 128.686 147.564 128.686C147.415 128.686 147.261 128.686 147.112 128.686C146.963 128.537 146.809 128.383 146.66 128.233C145.768 128.296 144.823 128.002 144.018 128.663C143.981 128.691 143.674 128.383 143.493 128.233C143.149 128.165 142.629 128.46 142.588 127.78C141.534 127.78 140.475 127.78 139.421 127.78C138.969 127.63 138.516 127.476 138.064 127.327C137.462 127.327 136.856 127.327 136.254 127.327C135.797 127.948 135.354 127.948 134.897 127.327C134.748 127.177 134.594 127.023 134.444 126.874C134.295 126.724 134.141 126.57 133.992 126.421C133.861 126.421 133.734 126.421 133.603 126.421C133.087 125.877 132.25 125.206 132.2 124.812C132.124 124.223 132.182 123.62 132.182 123.036C131.042 121.885 130.413 120.729 131.137 118.998C131.508 118.11 131.268 116.95 131.273 115.917C131.278 115.056 131.323 114.231 132.182 113.733C132.182 112.976 132.182 112.224 132.182 111.467C131.431 110.489 131.445 110.484 131.25 109.315C130.517 108.708 129.685 108.015 128.929 107.389C128.192 107.389 127.59 107.389 126.97 107.389C126.559 107.811 126.138 108.241 125.631 108.762C124.288 108.567 122.876 108.368 121.763 108.205C121.066 107.634 120.555 107.213 120.008 106.764C120.008 106.13 120.008 105.473 120.008 104.784C121.618 104.081 123.211 103.384 124.944 102.627C124.948 101.784 124.803 100.724 125.849 100.13C125.849 98.6213 125.849 97.1078 125.849 95.5989C125.849 94.9963 125.849 94.3891 125.849 93.7864C124.184 93.22 122.664 92.1416 120.754 92.3999C120.379 92.4497 119.963 92.1733 119.474 92.0192C118.397 92.486 118.397 92.486 116.348 91.9694C116.348 92.0419 116.361 92.1824 116.348 92.1824C115.199 92.4316 114.045 92.6717 112.728 92.9436C112.728 92.5222 112.728 92.2458 112.728 91.9694C112.579 91.8199 112.425 91.6658 112.276 91.5163C112.127 91.3668 111.973 91.2127 111.824 91.0632C111.561 91.0632 111.294 91.0632 110.919 91.0632C110.919 90.6871 110.919 90.4197 110.919 90.1569C110.593 90.0572 110.15 90.0572 109.955 89.8352C109.064 88.8111 108.24 87.7236 107.295 86.5364C107.295 86.4368 107.295 86.1422 107.295 85.7616C106.901 85.6936 106.494 85.6211 106.087 85.5486C106.069 84.7647 104.77 84.7647 105.033 83.8131C104.246 83.795 103.409 84.0035 102.762 83.2422C102.26 83.6591 101.83 84.0216 101.183 84.5608C101.074 83.9853 101.02 83.6727 100.961 83.36C100.59 83.36 100.215 83.36 99.7486 83.36C99.165 81.4977 100.472 79.8528 100.518 77.9225C99.7034 77.9225 98.975 77.9225 98.2466 77.9225C96.9799 77.7186 95.8398 78.1989 94.6725 78.5569C93.0981 79.0372 91.5373 79.0282 89.99 78.3711C89.2616 78.8832 88.574 79.4224 88.7233 80.5144C86.5743 81.0853 84.8415 79.9661 83.0228 79.1958C82.8509 78.8514 82.6699 78.4799 82.4799 78.0947C82.5749 77.9814 82.7107 77.8274 82.8962 77.6099C82.6292 77.5419 82.4302 77.4921 82.1678 77.4241C82.0682 77.7096 81.9823 77.9678 81.8375 78.3802C80.5617 78.3802 79.2271 78.3802 77.8924 78.3802C77.1369 78.3802 76.3859 78.3802 75.6304 78.3802C75.4313 78.6792 75.2322 78.9738 75.0377 79.2638C74.5491 79.2638 74.1057 79.2638 73.5176 79.2638C72.468 77.8727 71.0609 76.7399 69.5861 75.6297C68.3238 74.6782 67.4009 73.2644 66.3106 72.0364C65.6048 72.0364 64.8493 72.0364 64.5371 72.0364C63.3835 71.5833 62.6053 71.2752 61.5964 70.881C60.8861 70.0291 59.642 69.2724 59.0629 67.9221C58.9543 67.6638 58.5019 67.5142 58.4657 67.2741C58.14 65.2169 56.4344 63.6581 56.2624 61.6553C56.1312 60.1328 55.1404 59.2311 54.6021 58.0258C54.3442 57.4503 53.8782 56.97 53.4846 56.4172C53.4846 55.7013 53.4846 54.9536 53.4846 54.2467C53.8646 53.7121 54.2356 53.191 54.6337 52.6291C54.7785 52.7605 54.9776 52.9463 55.2535 53.2C55.2535 53.7982 55.2535 54.4552 55.2535 55.0035C56.3529 56.2632 57.6921 57.1422 58.4159 58.7327C58.2078 60.6811 59.366 62.2399 60.4292 63.8394C60.8228 64.4285 61.4064 64.9722 61.5738 65.6202C62.0715 67.5777 63.6821 68.2166 65.2384 68.8374C66.4689 69.3267 67.8171 69.5216 69.1563 69.8569C69.7037 70.4052 70.2919 70.9942 70.88 71.5833C71.1741 71.5833 71.4726 71.5833 71.7893 71.5833C72.3549 72.1724 72.9294 72.766 73.2235 73.0696C74.4179 73.5635 75.2503 73.9078 76.128 74.2749C77.6617 73.4049 79.4035 74.0528 81.0639 73.858C81.0639 73.5952 81.0639 73.3278 81.0639 72.9517C81.4394 72.9517 81.7063 72.9517 81.9687 72.9517C81.9687 72.7297 81.9687 72.5032 81.9687 72.2766C83.43 71.5108 84.9411 70.9852 86.6421 71.1121C87.1715 71.1528 87.7234 70.9127 88.479 70.7586C89.4878 71.8778 90.6415 70.6771 91.8359 70.5321C92.1752 70.4913 92.4964 70.3327 92.8267 70.2285C93.2791 70.2285 93.7315 70.2285 94.1839 70.2285C95.1611 69.2225 96.4505 69.3086 97.8168 69.3267C97.6856 68.2166 98.0838 67.2242 97.4006 66.241C97.2332 66.0008 96.9256 65.0628 97.7987 64.791C98.4728 64.2336 99.2329 63.7714 99.5586 62.8561C99.6265 62.6567 100.183 62.6341 100.513 62.5253C100.735 61.6191 101.509 61.6327 102.264 61.5194C102.264 60.7083 102.264 59.9063 102.264 59.4033C101.843 58.3113 101.518 57.473 101.183 56.6166C99.3822 55.6741 98.6402 54.1108 98.7036 52.1035C97.8395 51.5733 97.758 50.7305 97.7987 49.8378C97.4549 49.7699 96.9346 50.0644 96.8939 49.3847C96.7446 49.2352 96.5908 49.0811 96.4415 48.9316C95.7629 48.8908 96.0569 48.3697 95.9891 48.0253C95.8398 47.8758 95.686 47.7217 95.5367 47.5722C95.3874 47.4227 95.2335 47.2686 95.0842 47.1191C94.858 47.1191 94.6318 47.1191 94.4056 47.1191C94.3287 47.0013 94.1884 46.8789 94.1884 46.7611C94.1749 44.9486 94.1613 43.1407 94.1839 41.3282C94.2065 39.6199 93.7903 38.0475 92.6412 36.7652C91.8042 35.8363 91.6504 34.6536 91.9762 33.6839C92.6412 31.6992 92.1842 29.7417 92.3788 27.9066C91.4875 26.7013 90.3384 27.3719 89.3657 27.1771C88.4609 26.9958 87.5696 26.7602 86.6241 26.5382C86.4205 24.9386 86.1988 23.2213 85.9545 21.3C86.2667 21.1142 86.6376 20.8967 87.1082 20.6249C86.2621 20.3485 85.6649 20.1491 85.0768 19.9542C84.7194 20.1174 84.3575 20.285 83.7738 20.5569C83.7738 20.0403 83.7738 19.7594 83.7738 19.4785C83.5476 19.4785 83.3259 19.4785 82.9911 19.4785C82.7559 18.7897 82.5116 18.0647 82.2537 17.2989C81.6701 17.0225 80.9462 17.3307 80.2631 16.8096C79.4985 16.2296 78.4625 15.9396 77.5169 16.7461C77.3857 16.8594 77.0826 16.7597 76.8247 16.7597C75.4946 14.6617 75.2096 12.4505 76.3361 9.93565C77.0645 10.1169 77.9151 10.3344 78.743 10.5383C78.8018 10.8057 78.847 11.0096 78.9058 11.2724C79.4216 11.2996 79.9283 11.3267 80.4848 11.3585C80.6703 11.6349 80.8693 11.9294 81.0639 12.2239C81.4077 12.2919 81.928 11.9974 81.9687 12.6771C82.3623 12.6408 82.9052 12.8764 82.8962 12.1152C82.8962 12.0019 83.1766 11.8841 83.3259 11.7708C83.7467 11.0186 84.5022 10.3933 84.2534 9.36471C84.2353 9.29674 84.5339 9.15627 84.6832 9.05205C84.647 8.12768 84.8958 7.15346 84.2308 6.3333C83.7874 6.16112 83.0862 6.75471 82.8735 5.88018C82.4211 5.88018 81.9687 5.88018 81.5163 5.88018C81.367 6.02971 81.2132 6.18377 81.0639 6.3333C80.9146 6.48284 80.7607 6.6369 80.6114 6.78643C80.3309 7.09002 80.1048 7.49331 79.7564 7.67002C79.209 7.95096 78.4896 7.96002 78.0146 8.31346C77.5124 8.68502 76.9559 8.72127 76.5669 8.55362C75.9516 8.2908 75.377 8.10956 74.7119 8.13674C74.0378 8.16393 73.3638 8.14128 72.9159 8.14128C72.1694 7.77878 71.6084 7.50237 71.0429 7.23503C70.4592 6.96315 70.0973 6.5644 70.2059 5.87565C70.0566 5.72612 69.9028 5.57206 69.7535 5.42253C69.5363 5.42253 69.3192 5.42253 68.9889 5.42253C68.7944 4.38487 68.5953 3.31549 68.3962 2.25065C67.9076 2.25971 67.4009 2.34581 67.4507 1.55284C67.4642 1.3444 67.1837 1.1133 67.039 0.891273C66.2563 0.904867 65.4419 0.750806 64.7769 1.3444C64.7543 2.85784 64.6728 2.97112 63.4196 3.1569C63.0668 4.64768 63.9535 6.00706 63.8721 7.52503C63.4061 7.91471 62.9129 8.32252 62.4424 8.71674C61.4743 7.84221 62.6822 7.19424 62.465 6.40127C62.0714 6.40127 61.7186 6.40127 61.3159 6.40127C61.1485 6.56893 60.9404 6.77737 60.6599 7.05831C60.8861 8.12315 60.5604 9.24237 61.0897 10.425C61.5512 11.4536 61.0626 12.6952 60.583 13.8914C60.9495 14.1678 61.2978 14.4261 61.7005 14.7252C61.2933 14.9971 60.9992 15.1964 60.7051 15.3958C60.6373 15.7402 60.9314 16.2613 60.2527 16.3021C60.1849 16.6464 60.4789 17.1675 59.8003 17.2083C59.8003 18.0375 59.8003 18.8622 59.8003 19.6914C59.0131 20.3938 59.1896 21.7939 57.9907 22.1927C57.5473 23.3119 56.5203 23.3753 55.5024 23.6155C54.2311 22.1791 54.0003 20.3258 53.4982 18.613C53.2312 17.6932 53.652 16.805 54.3487 16.071C55.0409 15.346 55.6426 14.5349 56.4344 13.5833C56.6787 13.5833 57.1085 13.5833 57.5337 13.5833C57.5337 12.9036 57.5337 12.2285 57.5337 11.4083C56.0046 10.3253 54.3759 9.34206 52.4079 9.51424C50.2544 11.1863 48.9514 13.7147 46.264 14.6572C46.264 15.3052 46.264 15.9577 46.264 16.66C46.5807 16.8503 46.8703 17.1539 47.1915 17.1856C47.9334 17.2627 48.6935 17.1992 49.4445 17.2174C49.5712 17.2219 49.6888 17.3397 49.7748 17.385C49.7748 17.7611 49.7748 18.1146 49.7748 18.3547C47.5082 18.9483 45.3321 19.5147 42.984 20.131C42.8845 20.4074 42.7216 20.7925 42.6085 21.1913C42.3054 22.2697 42.3642 23.5067 41.672 24.4085C40.3872 26.0896 38.9575 27.6619 37.5641 29.2614C37.3379 29.5242 36.9895 29.6783 36.7045 29.8958C36.243 30.2538 35.7906 30.6208 35.4423 30.8972C35.4423 31.9847 35.4423 32.9453 35.4423 33.8561C36.5235 34.4316 36.5235 34.4316 37.1524 36.6881C36.8312 36.6881 36.5507 36.6881 36.2702 36.6881C36.2702 36.9917 36.2702 37.2908 36.2702 37.5944C36.2702 37.7439 36.2702 37.898 36.2702 38.0475C36.5733 38.0475 36.8719 38.0475 37.175 38.0475C37.5189 38.1155 38.0391 37.821 38.0799 38.5007C38.0799 38.6502 38.0799 38.8042 38.0799 38.9538C38.2291 39.1033 38.383 39.2574 38.5323 39.4069C39.2109 39.4477 38.9168 39.9688 38.9847 40.3131C39.134 40.4627 39.2878 40.6167 39.4371 40.7663C39.5864 40.9158 39.7402 41.0699 39.8895 41.2194C40.1112 41.2194 40.3374 41.2194 40.6677 41.2194C40.7129 41.4505 40.7627 41.7042 40.8441 42.1256C40.2876 42.1256 39.8624 42.1256 39.4371 42.1256C39.3873 42.4021 39.3918 42.7057 39.2742 42.9503C39.0661 43.3853 38.5277 43.8203 38.5775 44.1964C38.763 45.6827 37.9396 47.0149 38.0799 48.4694C38.9756 48.4332 39.4099 48.8092 39.4597 49.7563C39.5004 50.5991 40.3872 51.7636 41.2875 52.2802C41.102 53.7483 40.9074 55.3025 40.7446 56.5985C41.2513 57.3597 41.6087 57.8944 41.9706 58.4381C42.1606 58.4381 42.3823 58.4381 42.6085 58.4381C42.9795 58.4381 43.346 58.4381 43.6717 58.4381C44.3639 58.0303 44.6534 57.1241 45.6759 57.0425C45.6759 58.1028 45.6759 59.0997 45.6759 60.2506C45.418 60.2506 45.142 60.2506 44.8706 60.2506C44.8706 60.6267 44.8706 61.0028 44.8706 61.3789C43.7622 61.7596 43.536 62.6749 43.4817 63.5902C42.414 65.3664 40.3374 65.6202 38.8173 66.9025C40.541 68.783 41.3101 70.9444 41.2513 73.3958C41.6313 73.7538 42.0159 74.1117 42.6764 74.7325C42.7714 74.7371 43.2781 74.7643 43.8346 74.796C44.0201 75.0678 44.2146 75.3669 44.4137 75.6614C45.7981 75.6931 46.5898 76.758 47.5806 77.4739C47.7299 77.6235 47.8837 77.7775 48.033 77.9271C48.1823 77.9271 48.3361 77.9271 48.4854 77.9271C49.1957 78.1128 49.526 77.5646 49.9196 77.1613C50.648 76.4182 51.494 76.0058 52.5572 76.1146C52.7472 75.965 52.9372 75.6841 53.1317 75.6796C54.688 75.6433 56.2489 75.6614 57.8323 75.6614C58.045 75.9786 58.2395 76.2731 58.4386 76.5677C58.7824 76.6357 59.3027 76.3411 59.3434 77.0208C59.9089 77.2111 60.7052 77.2338 60.9857 77.6235C61.42 78.2307 62.3927 77.415 62.5103 78.3802C62.6596 78.5297 62.8134 78.6838 62.9627 78.8333C63.198 78.9919 63.6278 79.1414 63.6368 79.3136C63.7092 80.8316 64.9533 82.0278 64.7679 83.7089C65.8717 83.7089 66.9711 83.7089 68.0026 83.7089C68.3872 84.2799 68.6948 84.7421 69.0025 85.1997C70.4638 85.091 71.8527 85.0864 72.9475 86.3597C72.9792 87.7463 71.441 88.8519 72.0925 90.4288C71.8074 90.5239 71.6084 90.5874 71.2826 90.6961C71.0338 91.5072 70.7533 92.427 70.4728 93.3333C70.2014 93.3333 69.9752 93.3333 69.749 93.3333C69.6992 93.6097 69.7263 93.9405 69.5816 94.1535C69.1518 94.806 68.636 95.3996 68.1836 96.0385C67.8895 96.4553 67.505 96.5686 67.0345 96.5052C66.8852 96.6547 66.7313 96.8088 66.582 96.9583C66.6906 97.6561 66.3242 98.0549 66.0482 98.1817C64.5281 98.0594 63.2975 97.8283 62.0941 97.9235C61.5104 97.9688 60.9178 98.3992 60.2482 98.3177C60.0989 98.4672 59.9451 98.6213 59.7958 98.7708C59.6465 98.9203 59.4927 99.0744 59.3434 99.2239C59.3434 99.446 59.3434 99.668 59.3434 100.008C58.5064 100.008 57.6649 100.008 56.6696 100.008C56.6696 99.3871 56.6696 98.6892 56.6696 97.9552C55.1631 97.6017 53.9235 98.7028 52.5572 98.3177C53.2584 99.2194 52.9598 100.271 52.996 101.159C52.72 101.653 52.4893 102.065 52.1636 102.65C50.0779 100.787 48.1189 99.0382 46.2007 97.3208C46.3817 96.6638 46.531 96.1336 46.6758 95.5989C46.436 95.4585 46.1962 95.318 45.8252 95.105C44.5177 95.9252 42.794 96.256 41.8032 97.5292C41.5996 98.6439 41.4232 99.6136 41.2468 100.583C41.7987 100.153 42.3461 99.7224 43.0564 99.1696C43.0564 99.8764 43.0564 100.456 43.0564 101.036C43.5315 100.964 43.8391 101.213 44.2236 101.467C46.1464 102.754 48.4266 103.597 49.4988 105.903C49.5169 105.944 51.9192 107.416 51.9419 107.453C52.0097 107.57 52.0505 107.706 52.1047 107.833C52.1047 107.983 52.1047 108.137 52.1047 108.286C52.331 108.286 52.5526 108.286 52.8919 108.286C52.8919 109.22 52.8919 110.167 52.8919 111.304C52.254 111.603 52.1862 112.741 51.218 113.026C51.4578 113.656 52.4802 112.781 52.5572 113.724C53.0231 113.873 53.5389 114.241 53.9415 114.141C55.4979 113.747 57.2532 113.742 58.3481 112.242C58.4657 112.079 58.6738 111.984 58.9407 111.785C60.0899 112.614 61.6326 112.723 62.5284 114.014C62.5284 115.197 62.5284 116.402 62.5284 117.589C63.7318 118.708 63.3518 120.172 63.4287 121.468C63.0758 122.138 62.7501 122.755 62.4243 123.376C62.9582 124.957 64.32 126.235 63.8178 128.07C63.3563 128.813 61.9629 128.673 61.99 130.123C61.3928 129.973 60.8771 129.842 60.3342 129.701C60.3342 128.097 60.3342 126.688 60.3342 125.351C59.832 124.848 59.4067 124.422 58.986 124.001C58.4521 122.329 59.6601 120.983 59.841 119.433C60.022 117.893 60.4744 116.384 60.8364 114.734C60.0537 114.734 59.4022 114.734 58.4114 114.734C58.33 114.839 58.1038 115.26 57.7554 115.518C57.2532 115.89 56.6877 116.203 56.1041 116.425C55.5205 116.651 54.8735 116.724 54.2673 116.9C53.7334 117.054 53.0593 117.113 52.7155 117.476C51.5799 118.677 50.2091 118.853 48.6845 118.672C48.2185 117.956 47.0693 118.219 46.6803 117.349C45.9564 117.349 45.2325 117.381 44.5132 117.326C44.3232 117.313 44.1467 117.045 43.9658 116.896C43.0157 116.973 42.0792 116.9 41.3237 116.261C41.0251 116.008 40.8894 115.568 40.6767 115.215C41.0658 114.648 41.3825 114.186 41.6992 113.724C40.2288 113.724 38.7585 113.742 37.2881 113.706C37.0981 113.701 36.9126 113.425 36.7226 113.271C36.044 113.23 36.3381 112.709 36.2702 112.365C35.9942 112.414 35.5961 112.365 35.4603 112.532C34.7862 113.352 34.2026 114.241 33.5466 115.079C32.9449 115.845 33.1123 116.719 33.1123 117.453C31.7551 118.314 30.4566 119.139 28.9908 120.072C28.7103 120.072 28.19 120.072 27.6743 120.072C27.7422 120.951 27.7422 121.898 27.1676 122.555C26.6202 123.181 26.8328 123.783 26.7966 124.413C27.3395 124.585 27.8643 124.758 28.7917 125.057C29.4025 125.057 30.4521 125.057 31.547 125.057C32.3613 126.063 33.1802 126.987 32.2527 128.487C31.9179 129.031 32.1984 129.959 32.1984 130.707C31.0991 131.962 30.5381 133.181 30.4747 134.436C30.7371 134.527 30.9995 134.622 31.2348 134.704C31.2619 134.821 31.2891 134.889 31.2891 134.962C31.2936 135.637 31.2891 136.317 31.2936 136.996C30.9679 137.377 30.6421 137.758 30.253 138.211C30.8186 138.623 31.3072 138.981 31.7822 139.33C30.8593 141.161 31.5243 143.028 31.2167 144.94C32.8635 144.758 33.5105 146.444 34.9129 146.435C34.9129 146.811 34.9129 147.033 34.9129 147.26C35.3065 147.151 35.7001 147.047 36.3064 146.879C36.6502 146.992 37.2429 147.183 37.9396 147.409C37.9306 148.465 39.0887 148.506 39.7809 149.095C41.491 148.112 43.1786 148.637 44.8434 149.294C45.3094 149.48 45.3773 149.956 45.314 150.427C45.1421 150.871 45.7347 151.573 44.8616 151.786C44.8118 152.212 44.9023 152.733 44.6851 153.046C44.2463 153.68 44.2508 154.351 44.5946 154.863C45.0289 155.511 44.7394 156.145 44.8616 156.771C45.0878 156.771 45.3094 156.771 45.5357 156.771C45.6126 156.889 45.7528 157.006 45.7573 157.124C45.7709 158.919 45.7664 160.713 45.7664 162.661C45.418 162.661 45.1421 162.661 44.8616 162.661C44.7168 163.115 44.572 163.568 44.3865 164.134C42.8166 163.989 41.4142 163.862 39.885 163.722C39.885 164.533 39.885 165.407 39.885 166.286C40.1021 166.286 40.3193 166.286 40.6088 166.286C40.817 167.179 41.0296 168.09 41.2422 169.005C41.4684 169.005 41.6946 169.005 42.0204 169.005C42.129 170.342 42.7488 171.597 42.613 173.015C42.5045 174.157 42.5407 175.236 41.9299 176.359C41.3463 177.433 41.3599 178.833 41.1653 179.826C42.1833 181.992 43.0836 183.881 43.9431 185.784C44.0562 186.034 43.9567 186.378 43.9567 186.682C45.1149 186.682 46.2776 186.682 47.5761 186.682C47.5761 187.04 47.5761 187.316 47.5761 187.588C48.5578 187.905 49.3631 187.139 50.2906 187.135C50.7022 186.799 51.114 186.46 51.5935 186.07C51.5935 185.023 51.5935 183.922 51.5935 182.785C52.625 182.472 52.3536 181.018 53.4575 180.791C53.8103 180.338 54.1587 179.88 54.5206 179.413C55.3124 179.563 56.1358 179.128 56.8461 179.821C57.0134 179.984 57.6242 179.925 57.8504 179.744C58.4023 179.296 58.8684 179.332 59.3977 179.708C59.4701 179.758 60.4066 180.678 60.5513 180.927C61.0354 180.737 61.5467 180.537 62.0579 180.338C63.2116 180.32 64.3969 180.542 65.4374 179.83C65.8401 180.651 66.2111 181.398 66.582 182.15C67.3059 181.616 68.0298 181.081 68.8125 180.506C68.8396 180.256 68.8713 179.907 68.921 179.432C69.3599 179.432 69.7806 179.432 70.2014 179.432L70.2195 179.531H70.6719L73.3818 179.123C73.3818 179.35 73.3818 179.622 73.3818 179.889C74.3093 179.935 75.1417 180.764 76.214 179.953C76.6166 179.645 77.5622 180.052 78.2453 180.243C78.8832 180.261 79.3356 179.604 80.2314 180.08C81.0639 180.524 82.0863 180.601 82.9142 181.226C83.6019 181.747 84.3439 181.983 85.303 181.407C86.0993 180.927 87.1715 180.904 88.0944 180.687C88.2663 181.135 88.3659 181.394 88.4609 181.643C88.6283 181.665 88.8183 181.752 88.9042 181.693C90.2434 180.768 91.664 180.016 93.2655 179.703C94.2699 179.509 94.9621 178.729 95.9529 178.398C95.9936 177.565 96.1519 176.749 95.6045 175.906C95.4371 175.648 95.1249 174.728 96.0026 174.456C96.0705 174.112 95.7764 173.591 96.455 173.55C96.4958 172.87 97.016 173.165 97.3599 173.097C97.5906 172.775 97.8214 172.453 97.9661 172.254C98.7669 172.404 99.4229 172.521 100.074 172.644C100.074 172.068 100.074 171.493 100.074 170.936C101.124 170.664 101.785 171.053 102.336 171.738C102.599 171.738 102.866 171.738 103.241 171.738C103.241 172.114 103.241 172.381 103.241 172.644C103.241 173.55 103.241 174.456 103.241 175.363C103.241 175.512 103.241 175.666 103.241 175.816C103.544 175.816 103.843 175.816 104.146 175.816C104.146 175.594 104.146 175.372 104.146 175.15C105.458 174.094 107.005 174.565 108.516 174.438C109.023 175.05 109.525 175.657 110.028 176.269C110.177 176.418 110.331 176.572 110.48 176.722C110.702 176.722 110.919 176.722 111.118 176.722C111.466 177.248 111.806 177.769 112.262 178.462C112.258 179.069 112.575 180.007 111.385 180.347C111.235 180.496 111.082 180.65 110.932 180.8C111.245 181.797 110.521 182.613 110.466 183.555C110.421 184.411 110.38 185.236 110.132 186.115C109.842 187.139 109.733 188.422 110.362 189.573C110.62 190.044 110.471 190.737 110.512 191.385C111.353 192.164 111.665 193.247 111.837 194.389C111.986 194.539 112.14 194.693 112.29 194.842C112.439 194.992 112.593 195.146 112.742 195.296C112.891 195.445 113.045 195.599 113.194 195.749C113.95 195.599 114.701 195.445 115.457 195.296C116.135 195.336 115.841 195.857 115.909 196.202C116.122 196.202 116.339 196.202 116.556 196.202C116.968 196.9 117.402 197.593 117.266 198.467C117.492 198.467 117.719 198.467 118.166 198.467C118.166 199.482 118.221 200.516 118.157 201.535C118.071 203.008 118.488 204.376 118.877 205.763C119.031 206.316 119.284 207.158 119.026 207.444C118.189 208.368 119.04 209.61 118.23 210.552C117.931 210.901 118.18 211.844 118.375 212.455C118.768 213.688 118.723 214.889 118.424 216.108C118.139 217.268 117.633 218.242 116.379 218.618C116.253 218.654 116.162 218.822 115.981 219.003C115.981 220.032 115.981 221.146 115.981 222.234C116.135 222.533 116.293 222.845 116.493 223.235C115.823 224.345 115.172 225.424 114.538 226.471C114.701 227.286 114.85 228.056 115.004 228.822C115.221 228.822 115.443 228.822 115.809 228.822C115.859 229.203 115.909 229.602 115.968 230.05C116.198 230.127 116.452 230.213 116.814 230.34C116.814 231.015 116.814 231.731 116.814 232.452C117.492 232.493 117.198 233.014 117.266 233.358C117.266 235.184 118.035 236.942 117.719 238.796C118.492 238.759 119.071 239.108 119.528 239.702C120.302 239.665 120.881 240.014 121.338 240.608C121.56 240.608 121.786 240.608 122.166 240.608C122.13 241.578 122.415 242.425 123.577 242.579C123.577 242.896 123.577 243.186 123.577 243.467C124.034 243.757 124.378 244.07 124.69 244.532C124.935 244.895 125.704 244.94 125.862 245.588C127.78 246.068 127.78 246.073 129.174 245.212C129.296 245.135 129.382 244.999 129.319 245.067C129.558 243.508 129.766 242.153 129.975 240.794C131.341 239.398 132.902 238.138 133.236 236.145C133.693 236.054 134.06 236.018 134.395 235.9C134.72 235.787 135.019 235.587 135.281 235.451C135.462 234.432 135.716 233.453 135.797 232.456C135.888 231.333 135.82 230.195 135.82 229.103C136.842 227.667 137.847 226.258 138.996 224.644C138.996 224.187 138.996 223.439 138.996 222.32C139.335 222.075 139.882 221.676 140.181 221.459C140.385 219.964 140.547 218.745 140.738 217.345C140.62 215.858 138.738 215.659 137.987 214.295C138.113 213.239 138.249 212.093 138.376 211.01C137.761 209.505 138.249 207.92 138.055 206.365C137.498 205.808 136.91 205.223 136.155 204.467C136.326 203.189 136.521 201.771 136.711 200.334C137.227 199.899 137.684 199.514 138.109 199.156C138.109 197.416 138.109 195.762 138.109 194.009C139.425 193.406 140.76 192.799 142.335 192.078C143.561 192.078 145.058 192.078 146.841 192.078C146.958 191.834 147.157 191.421 147.338 191.05C148.071 191.444 148.537 191.693 149.071 191.979C148.008 193.379 148.528 194.493 149.424 195.558C150.36 196.668 151.51 197.461 152.88 197.91C154.016 196.85 155.151 195.789 154.826 194.163C155.5 193.488 155.961 192.84 156.586 192.45C157.251 192.038 157.934 191.285 158.771 191.779C158.983 193.918 159.187 195.934 159.377 197.874C158.916 198.032 158.662 198.118 158.391 198.214C159.201 199.686 159.173 201.313 158.784 202.613C158.373 203.973 158.653 205.214 158.418 206.379C158.802 206.764 159.069 207.031 159.341 207.303C159.341 208.808 159.341 210.317 159.341 212.057C160.621 213.307 162.019 214.667 163.141 215.763C164.553 219.352 166.516 222.166 168.706 224.907C169.33 224.658 169.778 224.481 170.33 224.264C171.47 225.542 173.081 225.138 174.479 225.22C175.157 225.682 175.754 226.085 176.46 226.566C177.202 226.566 178.107 226.566 178.858 226.566C180.306 225.727 181.645 224.957 182.871 224.25C184.391 224.445 185.282 225.872 186.757 225.646C186.925 225.007 186.956 224.318 187.273 223.797C187.802 222.932 187.879 222.043 187.857 221.087C187.825 219.81 187.848 218.532 187.848 217.163C188.436 216.81 189.042 216.447 189.63 216.094C191.028 216.919 192.358 217.698 193.598 218.428C194.421 218.092 195.141 217.825 195.833 217.503C196.213 217.326 196.724 217.127 196.86 216.801C197.267 215.836 198.009 215.682 198.755 215.7C199.651 215.034 200.461 214.436 201.28 213.828C202.85 214.241 204.112 213.488 205.401 212.836C205.714 211.563 206.718 211.282 207.966 211.119C208.261 211.536 208.577 211.989 208.917 212.469C209.491 212.469 210.147 212.469 210.853 212.469C211.256 212.02 211.658 211.576 211.939 211.264C212.749 211.264 213.405 211.264 214.065 211.264C214.065 211.807 214.065 212.256 214.065 212.786C215.11 213.633 216.191 214.508 217.3 215.405C217.3 217.005 217.3 218.573 217.3 220.068C217.956 220.367 218.521 220.625 219.069 220.874C218.87 222.447 218.675 223.956 218.485 225.437C218.924 225.727 219.254 226.122 219.521 226.081C220.313 225.963 220.942 226.384 221.571 226.643C222.729 227.118 223.815 227.78 224.919 228.387C226.271 229.13 226.656 230.231 225.991 231.618C225.538 232.565 224.991 233.467 224.498 234.364C225.222 234.939 225.941 235.515 226.615 236.05C228.18 235.397 229.723 234.754 231.266 234.11C231.759 234.554 232.13 234.89 232.478 235.207C232.935 235.03 233.311 234.799 233.713 234.74C234.885 234.577 235.596 233.92 236.089 232.873C236.356 232.298 236.713 231.527 237.211 231.346C238.342 230.938 238.631 230.055 238.971 229.126C237.631 227.608 236.166 226.171 236.166 223.928C234.532 222.51 232.917 221.101 231.42 219.796C231.071 218.373 230.492 217.15 230.895 215.89C231.641 214.911 232.347 213.991 233.08 213.031C233.085 211.853 232.904 210.57 234.198 209.379C234.849 209.193 235.781 208.926 236.686 208.667C236.686 207.421 236.686 206.22 236.686 204.87C236.197 204.571 235.546 204.326 235.13 203.869C234.722 203.425 234.56 202.763 234.234 202.083C233.514 201.92 232.705 201.734 231.886 201.544C231.546 202.133 231.302 202.564 231.089 202.931C229.791 202.931 228.529 202.931 227.348 202.931C227.199 202.437 227.185 201.943 226.936 201.644C225.946 200.466 224.507 200.031 223 199.587C223.376 198.866 223.697 198.245 224.1 197.48C223.937 196.252 223.756 194.883 223.579 193.515C223.394 192.074 223.217 190.633 223.046 189.255C224.38 187.996 223.946 186.473 224.041 185.109C223.706 184.774 223.439 184.507 223.181 184.248C223.181 183.881 223.181 183.528 223.181 183.134C223.588 183.088 223.946 183.052 224.443 182.998C225.19 182.046 225.991 181.018 226.746 180.057C226.746 179.568 226.746 179.191 226.746 178.711C228.782 177.438 228.646 175.326 228.551 173.401C229.307 172.191 230.103 172.707 230.809 173.07C232.343 172.24 233.813 171.416 235.306 170.641C237.781 169.354 237.79 169.368 240.287 169.916C240.359 169.934 240.436 169.916 240.459 169.916C241.441 169.381 241.762 167.954 243.377 168.117C243.992 168.901 244.694 169.798 245.463 170.786C243.744 172.934 243.44 175.204 244.676 177.71C245.354 177.374 246.042 177.03 246.689 176.708C247.539 177.157 248.349 177.578 249.168 178.009C249.458 178.969 249.738 179.898 250.014 180.814C251.15 180.814 252.199 180.814 252.968 180.814C253.909 181.235 254.611 181.543 255.185 181.801C255.647 181.339 255.959 181.027 256.19 180.796C257.117 180.796 258.13 180.483 258.574 180.854C260.044 182.087 261.501 181.67 263.035 181.258C263.234 181.203 263.464 181.276 263.473 181.276C264.6 182.132 265.573 182.871 266.586 183.637C267.649 182.88 268.626 182.182 269.789 181.353C269.893 180.8 270.101 180.039 270.156 179.268C270.233 178.186 270.056 177.089 270.898 176.16C271.097 175.938 271.024 175.331 270.889 174.968C270.518 173.967 270.45 173.043 270.965 172.046ZM81.2629 53.5082C81.6565 54.4688 82.0275 55.3614 82.4935 56.4988C81.842 56.8885 81.2403 57.251 80.3943 57.7585C80.254 57.405 80.1093 57.0471 79.9645 56.6936C79.9147 56.7616 79.865 56.8296 79.8152 56.9021C79.684 56.0683 79.5528 55.2346 79.3583 54.0021C79.6297 53.3178 80.4848 53.3949 81.2629 53.5082ZM67.2154 51.7228C67.5954 51.7047 68.1474 51.673 68.3962 51.6639C69.5951 52.8874 70.604 53.9114 71.5541 54.8811C71.5541 55.6197 71.5541 56.2133 71.5541 56.8658C72.1377 57.4005 72.7394 57.9533 73.3321 58.4971C73.1466 58.9457 72.9973 59.3036 72.8163 59.7386C72.2101 59.7386 71.5541 59.7386 70.7759 59.7386C70.2737 57.0471 68.3284 55.4657 66.6001 53.6985C66.7811 53.1139 66.9666 52.5203 67.2154 51.7228ZM63.4242 107.679C62.3203 108.16 61.4833 107.249 60.5423 107.104C59.2755 106.913 58.9543 106.148 58.4974 105.305C58.7055 105.096 58.8865 104.834 59.1398 104.693C59.3072 104.598 59.5741 104.675 60.022 104.675C60.8997 105.536 61.8317 106.696 63.4196 106.537C63.4242 106.995 63.4242 107.29 63.4242 107.679ZM105.901 107.258C104.906 107.992 103.838 108.631 102.427 108.839C102.427 108.2 102.427 107.702 102.427 107.031C103.617 107.208 104.476 105.826 105.901 106.071C105.901 106.497 105.901 106.855 105.901 107.258ZM190.331 205.187C189.11 205.146 188.761 206.184 188.015 206.642C187.146 206.352 186.45 207.625 185.423 206.746C185.943 206.225 186.346 205.55 186.929 205.31C187.807 204.947 187.834 204.295 187.929 203.561C188.911 203.638 189.313 201.848 190.571 202.749C190.413 202.926 190.268 203.08 190.087 203.28C190.381 203.384 190.643 203.474 190.906 203.565C191.304 204.335 190.843 205.205 190.331 205.187ZM196.439 197.561C196.439 198.386 196.439 199.211 196.439 200.253C195.923 200.429 195.267 200.525 194.779 200.86C194.313 201.177 194.023 201.748 193.403 202.518C193.322 201.617 193.277 201.127 193.222 200.506C193.969 199.845 194.751 199.156 195.534 198.463C195.706 198.019 195.113 197.316 195.987 197.103C195.878 196.283 196.33 195.907 197.136 195.676C197.552 196.591 197.384 197.208 196.439 197.561ZM202.311 192.214C201.701 193.279 200.773 193.565 199.285 193.37C199.868 192.658 200.271 192.164 200.61 191.743C201.216 191.743 201.728 191.743 202.212 191.743C202.257 191.942 202.361 192.124 202.311 192.214ZM229.216 223.865C229.619 224.477 230.004 225.061 230.51 225.827C230.262 226.217 229.972 226.661 229.655 227.15C229.334 226.964 229.103 226.906 228.99 226.751C228.533 226.126 228.113 225.478 227.647 224.794C227.837 223.933 228.447 223.729 229.216 223.865Z" fill="#D9D9D9"/>
</svg>
