<svg width="39" height="49" viewBox="0 0 39 49" fill="none" xmlns="http://www.w3.org/2000/svg">
<path d="M11.2845 30.374C11.0085 30.4238 10.6104 30.374 10.4747 30.5416C9.80056 31.3618 9.21692 32.2499 8.56092 33.0882C7.95921 33.854 8.12662 34.7285 8.12662 35.4626C6.76937 36.3235 5.47094 37.1482 4.00512 38.0816C3.72462 38.0816 3.20432 38.0816 2.68857 38.0816C2.2633 38.0816 1.82898 38.127 1.41275 38.059C1.21821 38.0273 1.05535 37.778 0.878906 37.6285C0.878906 37.479 0.878906 37.3249 0.878906 37.1754C0.987486 37.0259 1.05989 36.7948 1.20466 36.7359C1.99186 36.4051 2.79715 36.1196 3.5934 35.816C4.25845 35.6121 4.92352 35.4037 5.08187 35.3538C5.73787 34.6968 6.11788 34.3162 6.39386 34.0398C6.2717 34.0262 5.91881 33.9899 5.42568 33.9355C5.37591 33.2015 5.50712 32.3723 4.95065 31.7334C4.64753 31.1307 4.34894 30.5235 4.04582 29.9209C4.24488 29.6263 4.44396 29.3273 4.6566 29.0101C5.39403 29.4859 6.09074 29.939 6.93676 30.4873C7.47061 29.4995 8.73284 28.8877 7.71943 27.3698C7.3756 26.8532 7.66514 25.9107 7.66514 25.657C7.38917 24.3927 6.73317 24.0257 6.11789 23.5771C5.5207 23.1421 5.04565 22.5395 4.60228 22.0954C4.81944 21.8099 5.0321 21.5245 5.19044 21.316C6.54769 21.2526 7.5611 21.9277 7.9909 22.8612C8.54284 24.0665 9.46576 24.497 10.4973 24.9501C11.5062 23.781 12.497 22.6255 13.5511 21.4021C13.5511 21.1484 13.5511 20.7723 13.5511 20.3962C14.0035 20.0926 14.4559 19.7935 14.9083 19.4899C15.6096 19.5624 16.0891 19.2996 16.2656 18.5837C16.8175 18.1532 17.3649 17.7227 18.0752 17.1699C18.0752 17.8768 18.0752 18.4568 18.0752 19.0368C17.9259 19.4899 17.7721 19.943 17.6228 20.3962C16.6637 20.6998 17.4599 21.5698 17.1885 21.9232C16.0575 23.2509 14.6233 24.1027 14.0849 25.7023C14.2885 25.8926 14.4921 26.0829 14.6957 26.2732C15.7725 25.1857 17.0754 25.3262 18.1974 25.4168C20.0975 26.5541 22.242 26.9891 23.5042 28.847C23.5042 29.1641 23.5042 29.5402 23.5042 29.9163C23.2192 30.3105 22.9342 30.7048 22.6537 31.099C24.2552 31.6065 25.893 31.8602 27.576 31.7288C28.042 31.8784 28.5577 32.2454 28.9604 32.1457C30.5167 31.7515 32.272 31.747 33.3669 30.2471C33.4845 30.084 33.6926 29.9888 33.9596 29.7895C35.1087 30.6187 36.6514 30.7274 37.5472 32.0188C37.5472 33.2015 37.5472 34.4068 37.5472 35.594C38.7506 36.7132 38.3706 38.1768 38.4475 39.4727C38.0947 40.1434 37.7689 40.7596 37.4432 41.3804C37.977 42.9618 39.3388 44.2396 38.8366 46.0748C38.3751 46.8179 36.9817 46.6774 37.0088 48.1274C36.4116 47.9779 35.8959 47.8465 35.353 47.706C35.353 46.102 35.353 44.6927 35.353 43.356C34.8508 42.8531 34.4256 42.4271 34.0048 42.0057C33.471 40.3337 34.6789 38.9879 34.8599 37.4382C35.0408 35.8976 35.4932 34.3887 35.8552 32.7393C35.0725 32.7393 34.421 32.7393 33.4302 32.7393C33.3488 32.8435 33.1226 33.2649 32.7742 33.5232C32.272 33.8948 31.7065 34.2074 31.1229 34.4294C30.5393 34.656 29.8924 34.7285 29.2861 34.9052C28.7523 35.0593 28.0781 35.1182 27.7343 35.4807C26.5987 36.6815 25.2279 36.8582 23.7033 36.677C23.2373 35.961 22.0882 36.2238 21.6991 35.3538C21.5181 35.2043 21.3417 34.9369 21.1517 34.9234C20.4323 34.8735 19.7085 34.9007 18.9846 34.9007C18.0345 34.9777 17.098 34.9052 16.3425 34.2663C16.0439 34.0126 15.9082 33.5731 15.6955 33.2196C16.0846 32.6532 16.4013 32.191 16.718 31.7288C16.8673 31.7288 17.0211 31.7288 17.1704 31.7288C18.6227 31.6155 20.1202 31.0945 20.6902 30.4963C20.6359 30.4555 20.5771 30.374 20.5228 30.374C19.7084 30.3649 18.8896 30.3695 18.0752 30.3695C17.7721 30.3695 17.4735 30.3695 17.1704 30.3695C16.8944 30.3196 16.6139 30.2879 16.347 30.2154C16.0167 30.1293 15.691 30.016 15.3607 29.9163C14.5147 29.2774 13.4923 29.2774 12.6462 29.9163C12.6281 30.2607 12.5467 30.4691 12.1938 30.1429C11.8409 29.8166 11.7595 30.0251 11.7414 30.3695C11.5876 30.374 11.4338 30.374 11.2845 30.374Z" fill="#BEDEDE"/>
<path d="M27.5706 16.3268C28.2718 17.2285 27.9732 18.2797 28.0094 19.1679C27.7335 19.6618 27.5027 20.0741 27.177 20.6586C25.0913 18.7963 23.1324 17.0472 21.2141 15.3299C21.3951 14.6729 21.5444 14.1427 21.6892 13.608C22.3497 13.2727 22.9197 12.8558 23.0826 12.1535C22.8066 11.4013 21.7661 12.294 21.6892 11.3424C21.6892 11.1929 21.6892 11.0388 21.6892 10.8893C21.5399 10.7397 21.3861 10.5857 21.2368 10.4361C21.3499 9.59333 21.4675 8.75505 21.5942 7.81255C21.2639 7.75817 20.8477 7.6902 20.246 7.59504C21.2006 5.80973 20.7979 4.14224 19.9609 2.4838C20.0967 2.24818 20.2595 1.94911 20.54 1.45068C20.8296 1.33286 21.4313 0.848016 21.8475 0.979423C22.8157 1.27395 23.8517 1.21505 24.7656 1.56396C25.4849 1.83583 26.0821 2.42036 26.5708 2.76021C27.0594 4.93521 25.3673 6.52114 25.77 8.37442C24.5892 9.72926 24.6615 10.9527 25.5618 12.3574C26.0459 13.1096 26.6114 13.7893 27.1091 14.5188C27.1091 14.6683 27.1091 14.8224 27.1091 14.9719C27.2584 15.1214 27.4122 15.2755 27.5615 15.425C27.5706 15.7241 27.5706 16.0232 27.5706 16.3268Z" fill="#BEDEDE"/>
</svg>
