<svg width="80" height="55" viewBox="0 0 80 55" fill="none" xmlns="http://www.w3.org/2000/svg">
<path d="M31.6646 35.8468C31.185 35.9193 30.8276 35.7697 30.5019 35.3755C29.1899 33.7896 27.43 32.8199 25.661 31.8593C24.8602 31.4243 24.0323 30.9938 23.3401 30.4138C22.5077 29.7205 21.63 29.3807 20.5125 29.5121C19.9877 28.4382 18.9246 27.9714 17.9021 27.7947C16.943 27.6316 16.2417 27.0561 15.3776 26.7843C15.3776 26.1091 15.3776 25.4294 15.3776 24.6364C16.4408 24.351 17.4723 24.4371 18.3952 25.2391C18.8793 24.8132 19.1869 24.5368 19.4177 24.3329C19.2231 23.5354 19.0558 22.8466 18.8386 21.9404C18.5445 21.5733 18.0921 21.0069 17.6397 20.4405C17.4904 20.291 17.3366 20.1369 17.1873 19.9874C17.1873 19.8379 17.1873 19.6838 17.1873 19.5343C17.4723 19.4844 17.7619 19.43 18.0469 19.3802C18.0378 19.2805 18.0288 19.1808 18.0152 19.0811C17.7392 19.0811 17.4632 19.0811 17.1873 19.0811C17.1873 18.7775 17.1873 18.4785 17.1827 17.9982C17.1827 17.9529 17.1918 18.0843 17.2009 18.2111C17.4949 18.1522 17.789 18.0979 18.083 18.0389C18.0695 17.9393 18.0559 17.8441 18.0423 17.7444C17.7528 17.7671 17.4678 17.7943 17.1827 17.9936C16.9113 18.1704 16.6353 18.1704 16.3775 18.1704C16.2734 17.2279 16.2734 17.2279 15.8346 16.811C15.8346 16.385 15.8798 15.95 15.8119 15.5332C15.7803 15.3383 15.5314 15.1752 15.3821 14.9985C14.518 14.8943 15.1604 14.1239 14.8076 13.8339C13.1517 12.5108 10.9032 12.2525 9.37857 10.6304C8.804 10.0186 7.59606 10.1364 7.23865 9.10332C7.02602 8.22879 6.32477 8.82239 5.88141 8.6502C5.73211 8.50067 5.57829 8.3466 5.42899 8.19707C5.27969 8.04754 5.12587 7.89348 4.97657 7.74395C4.93586 7.06426 4.41558 7.35879 4.07174 7.29082C3.92245 7.14129 3.76862 6.98723 3.61933 6.8377C3.40669 6.8377 3.19858 6.8377 2.99952 6.8377C2.60139 6.23051 2.20779 5.62785 1.80966 5.0252C1.93634 4.97535 2.0585 4.92551 2.18518 4.87567C2.0585 4.77598 1.93634 4.67176 1.80966 4.57207C1.66037 4.42254 1.50654 4.26848 1.35725 4.11895C1.20795 3.96942 1.05413 3.81535 0.904832 3.66582C0.755534 3.51629 0.601713 3.36223 0.452416 3.2127C0.303119 3.2127 0.149297 3.2127 0 3.2127C0 2.61004 0 2.00285 0 1.4002C0 1.0241 0 0.64801 0 0.276447C0.886735 -0.593553 1.56084 0.910822 2.3571 0.439572C3.9315 1.9077 5.58732 3.16285 7.45128 4.0691C8.56422 4.60832 9.27905 5.4466 9.95315 6.3891C10.021 6.73348 9.72694 7.25457 10.4056 7.29535C10.4056 7.5627 10.4056 7.83004 10.4056 8.2016C10.9394 8.2016 11.3511 8.2016 11.7628 8.2016C12.2198 8.82238 12.6631 8.82238 13.1201 8.2016C14.5452 8.96738 16.1467 9.43863 17.2506 10.7436C17.6352 11.1968 18.4993 10.5986 18.7843 11.3735C20.8066 12.0577 21.2228 12.5969 21.259 14.5589C21.2635 14.935 21.259 15.3111 21.259 15.4154C22.0462 17.5224 23.4804 18.6914 25.177 19.6339C25.7379 19.9466 26.1858 20.4677 26.688 20.8891C26.8373 21.0386 26.9911 21.1927 27.1404 21.3422C27.1811 22.0219 27.7014 21.7274 28.0453 21.7954C28.1945 21.9449 28.3484 22.0989 28.4977 22.2485C28.647 22.398 28.8008 22.5521 28.9501 22.7016C29.0994 22.8511 29.2532 23.0052 29.4025 23.1547C29.5518 23.1547 29.7056 23.1547 29.8549 23.1547C29.8956 23.8344 30.4159 23.5399 30.7597 23.6079C31.5334 23.5716 32.3161 23.5127 32.5694 24.5141C32.6101 25.1938 33.1304 24.8993 33.4742 24.9672C33.6235 24.9672 33.7774 24.9672 33.9267 24.9672C34.6641 25.6197 35.4513 25.6197 36.1887 24.9672C36.2656 24.2105 36.8629 24.6364 37.2203 24.5141C38.0708 24.2196 38.9032 23.8027 39.7809 23.6441C40.541 23.5082 41.3779 23.4674 42.0656 24.061C43.1514 24.9944 44.4861 25.4385 45.8116 25.8871C46.0062 25.955 46.1645 26.1363 46.4721 26.3674C49.3721 25.8282 51.4216 27.2736 52.9372 30.0513C52.9372 30.3639 52.9372 30.9621 52.9372 31.5511C53.9189 32.4211 54.4754 33.4633 54.308 34.5146C55.3576 35.5341 56.2307 36.3769 57.217 37.333C58.5607 37.1291 59.9089 36.9252 61.2345 36.7258C61.9493 37.5868 62.6596 38.4069 63.3201 39.2633C63.4287 39.4038 63.3337 39.7029 63.3337 39.9294C63.5101 40.0789 63.673 40.3282 63.8675 40.3599C64.2838 40.4279 64.7181 40.3825 65.1434 40.3825C65.1841 41.0622 65.7043 40.7677 66.0482 40.8357C66.1975 40.9852 66.3513 41.1393 66.5006 41.2888C67.1837 41.4383 67.8624 41.6875 68.5501 41.7147C69.283 41.7419 69.948 41.8144 70.6085 42.1769C71.0835 42.4352 71.6627 42.5122 72.1875 42.6844C72.7123 42.8611 73.2326 43.056 74.2053 43.4049C75.8113 44.6329 77.8969 46.0829 79.1637 48.5388C78.4353 49.0146 79.132 50.4736 77.811 50.7999C77.6346 50.6504 77.4717 50.4011 77.2772 50.3694C76.861 50.3014 76.4266 50.3468 76.0013 50.3468C75.852 50.3468 75.6982 50.3468 75.5489 50.3468C75.4946 50.2199 75.4539 49.9843 75.3906 49.9797C74.0786 49.8347 72.7756 49.8982 71.4772 49.9118C71.4772 50.5054 71.4772 50.8814 71.4772 51.253C71.4772 51.611 71.4772 51.9735 71.4772 52.413C71.1424 52.703 70.7669 53.0293 70.2059 53.5186C69.8847 53.5186 69.3237 53.5186 68.7627 53.5186C68.5862 53.3691 68.4234 53.1199 68.2289 53.0882C67.8126 53.0202 67.3783 53.0655 66.953 53.0655C66.8037 52.916 66.6499 52.7619 66.5006 52.6124C66.5006 52.1593 66.5006 51.7061 66.5006 51.253C67.3466 50.9721 66.8671 50.4193 66.8037 49.6988C66.4599 49.9888 66.2563 50.1655 66.0482 50.3468C66.0482 50.6504 66.0482 50.9494 66.0482 51.253C65.5686 51.1805 65.2338 51.3618 64.8809 51.7152C64.2204 52.3768 63.4739 52.9477 63.103 53.2649C60.2301 54.2527 59.4339 52.0505 57.9047 50.5779C57.9047 51.1533 57.9047 51.4297 57.9047 51.7107C57.6921 51.7107 57.4794 51.7107 57.2849 51.7107C56.9772 52.1547 56.6379 52.5716 56.3801 53.0293C56.2217 53.3102 56.1855 53.6591 56.095 53.9763C55.6426 54.1258 55.1902 54.2799 54.7378 54.4294C53.3805 54.4294 52.0233 54.4294 50.666 54.4294C49.8246 54.665 49.5621 53.8449 48.9604 53.4824C48.6709 53.5504 48.3225 53.6093 47.9877 53.718C47.7299 53.7996 47.4901 53.9446 47.2232 54.0669C46.4314 53.6727 45.6895 53.3011 44.7801 52.848C44.7801 52.4085 44.7801 51.833 44.7801 51.253C44.9294 51.253 45.0832 51.253 45.2325 51.253C46.1781 51.3436 45.3094 52.345 45.884 52.5943C46.1238 52.2952 46.3545 52.0007 46.626 51.7333C47.1824 52.1819 47.1825 52.1819 47.9335 51.7605C47.4268 51.7605 47.0105 51.7605 46.626 51.7333C46.4133 50.9902 45.9383 50.7274 45.2325 50.7999C45.0832 50.9494 44.9294 51.1035 44.7801 51.253C44.6308 51.253 44.477 51.253 44.3277 51.253C44.382 50.596 44.3051 49.9752 43.8753 49.4405C43.7712 49.1097 43.7667 48.6702 43.545 48.4663C42.1425 47.1839 40.9979 45.6479 39.3376 44.6102C37.8944 43.7039 37.7269 42.4669 38.4463 40.8991C38.1703 39.5805 37.2926 38.9416 36.053 38.5338C35.1437 38.2347 34.3293 37.6593 33.4697 37.2061C33.239 36.6171 32.4066 36.5491 32.2708 35.8513C32.2708 35.815 31.8772 35.8468 31.6646 35.8468Z" fill="#C8E4E6"/>
</svg>
