<svg width="24" height="4" viewBox="0 0 24 4" fill="none" xmlns="http://www.w3.org/2000/svg">
<path d="M12.673 3.79555C12.0713 3.79555 11.465 3.79555 10.8633 3.79555C9.19841 3.22914 7.67829 2.15071 5.7691 2.40899C5.39359 2.45883 4.97739 2.18243 4.48878 2.02837C3.41203 2.49509 3.41202 2.49508 1.36257 1.97852C1.21327 1.82898 1.05945 1.67492 0.910156 1.52539C0.910156 1.37586 0.910156 1.2218 0.910156 1.07227C0.910156 0.922734 0.910156 0.768672 0.910156 0.619141C1.69284 0.605547 2.50718 0.759609 3.17224 0.166016C3.47535 0.166016 3.77395 0.166016 4.07707 0.166016C4.22636 0.166016 4.38019 0.166016 4.52948 0.166016C4.8326 0.166016 5.1312 0.166016 5.43431 0.166016C6.18985 0.315547 6.94086 0.469609 7.69639 0.619141C7.84569 0.619141 7.99951 0.619141 8.14881 0.619141C9.42462 0.619141 10.7864 0.333669 11.9581 0.687107C13.718 1.21726 15.4553 0.958984 17.1971 1.07227C19.0068 1.07227 20.8165 1.07227 22.6261 1.07227C22.8976 1.07227 23.1645 1.07227 23.5309 1.07227C23.5309 1.76102 23.5309 2.32289 23.5309 2.88477C23.3817 3.0343 23.2278 3.18836 23.0785 3.33789C22.9292 3.33789 22.7754 3.33789 22.6261 3.33789C22.0515 3.33789 21.4725 3.30163 20.9069 3.36054C20.7124 3.37867 20.545 3.64148 20.364 3.79102C19.6085 3.79102 18.8575 3.79102 18.102 3.79102C16.5954 3.79102 15.0843 3.79102 13.5778 3.79102C13.2747 3.79555 12.9761 3.79555 12.673 3.79555Z" fill="#BEDEDE"/>
</svg>
