<svg width="161" height="167" viewBox="0 0 161 167" fill="none" xmlns="http://www.w3.org/2000/svg">
<path d="M43.821 77.9375C43.5269 78.1369 43.2329 78.3317 42.889 78.5628C42.889 79.2244 42.889 79.8769 42.889 80.4569C42.1833 81.1638 41.5499 81.7981 41.1517 82.1969M44.2734 73.4063C44.382 73.225 44.4453 72.9395 44.5992 72.8761C46.0967 72.2689 47.1779 70.905 48.8835 70.6377C49.2998 70.5697 49.6074 69.8538 50.0417 69.3508C50.1865 69.3508 50.4806 69.3508 50.9104 69.3508C51.2451 68.3222 51.589 67.2755 51.9373 66.2197C52.806 66.2197 53.5434 66.2197 54.2582 66.2197C54.9595 65.6442 55.6245 65.105 56.362 64.5024C56.5384 64.1399 56.6606 63.3333 57.0406 63.1883C58.5743 62.5947 58.701 61.3713 58.805 60.1025C57.9997 59.2959 57.2577 58.5528 56.3801 57.6738C56.7465 56.26 57.1401 54.7556 57.5563 53.1652C58.6286 52.7211 58.891 51.4388 59.5967 50.5914C59.8184 48.1309 60.0311 45.7113 60.2256 43.5634C59.4836 42.263 58.9724 41.1619 58.2802 40.1967C57.5563 39.1908 57.2713 38.135 57.4251 36.9025C58.8231 35.5658 60.0311 34.0433 61.1259 32.3803C61.6869 31.5284 62.7953 31.0345 63.7499 30.305C65.1886 31.0481 66.8263 30.7717 68.4777 30.8216C69.102 29.793 70.2647 29.7069 71.2691 29.5075C72.0789 29.3489 72.8525 29.1994 73.3818 28.6013C74.4586 27.3778 75.7932 27.038 77.3314 27.192C77.5531 27.2147 77.7793 27.1966 78.001 27.1966C79.2633 25.7738 80.6884 24.582 81.5887 22.7877C82.5387 20.8891 84.6741 19.7336 86.986 19.0358C87.2529 18.9542 87.5289 18.8817 87.7641 18.7367C87.9406 18.6325 88.0492 18.4195 88.2889 18.1386C87.4474 17.2233 86.615 16.3216 85.5744 15.1933C86.244 15.0574 86.6286 14.9803 87.0674 14.8897C87.2891 14.2372 87.5379 13.5122 87.7777 12.8098C88.9088 12.5198 89.7457 11.4505 90.9944 11.8039C91.4559 11.387 91.8857 10.9974 92.0983 10.807C91.9445 9.64251 91.8268 8.74079 91.6956 7.76204C92.4059 7.72126 92.9126 7.69406 93.4012 7.66687C93.6817 7.38594 93.9487 7.1186 94.297 6.7697C95.8081 7.32251 96.532 5.57798 97.9209 5.41032C99.5043 5.22001 100.368 3.88328 101.359 2.83656C102.287 1.85781 103.549 1.22344 104.155 0C104.603 0 104.979 0 105.359 0C105.426 0.344375 105.132 0.865469 105.811 0.90625C105.811 1.05578 105.811 1.20984 105.811 1.35938C105.96 1.50891 106.114 1.66297 106.263 1.8125C106.187 2.75953 106.232 3.70656 106.883 4.44063C107.299 4.91188 107.1 5.40579 107.168 5.89063C107.494 7.15938 106.666 8.28313 106.716 9.51563C106.037 9.55641 106.331 10.0775 106.263 10.4219C105.992 10.4219 105.716 10.4219 105.436 10.4219C105.436 11.7042 105.436 12.8416 105.436 13.9563C106.304 14.1738 106.919 14.0242 107.168 13.1406C107.318 12.9911 107.471 12.837 107.621 12.6875C108.037 12.6875 108.449 12.6875 108.557 12.6875C109.136 12.0939 109.507 11.7133 109.883 11.3281C110.258 11.3281 110.634 11.3281 111.226 11.3281C111.398 11.088 111.656 10.7164 111.697 10.662C113.131 10.372 114.24 10.15 115.312 9.9325C115.312 9.51109 115.312 9.28907 115.312 9.06251C115.656 8.99454 116.176 9.28907 116.217 8.60938C116.56 8.54141 117.081 8.83595 117.121 8.15626C119.053 8.15626 120.981 8.15626 123.062 8.15626C123.062 9.1486 123.062 10.005 123.062 10.9339C124.052 10.7436 124.885 10.585 125.717 10.4219C125.867 10.5714 126.02 10.7255 126.17 10.875C126.17 11.097 126.17 11.3191 126.17 11.5502C126.925 11.822 127.694 12.0984 128.4 12.3567C128.581 12.9911 128.735 13.5212 128.884 14.0514C128.735 14.2327 128.473 14.4003 128.454 14.5952C128.396 15.1616 128.432 15.7416 128.432 16.317C128.074 17.042 127.712 17.767 127.346 18.5102C126.79 18.6053 126.319 18.85 126.17 19.4889C126.02 19.6384 125.867 19.7925 125.717 19.942C124.668 19.7109 124.414 21.0794 123.473 21.025C123.491 22.5158 122.677 23.8842 123.003 25.3795C122.324 25.4203 122.618 25.9414 122.55 26.2858C121.501 26.2858 120.533 27.2645 119.429 26.5577C119.383 26.3447 119.338 26.1408 119.279 25.887C118.755 25.887 118.252 25.887 117.434 25.887C116.375 26.9474 115.158 28.1663 113.828 29.4984C110.62 28.9184 107.874 30.2778 105.354 32.3577C106.205 33.282 105.635 34.2789 105.82 35.0538C105.037 36.0552 104.178 36.6352 103.092 36.9931C102.445 37.2061 101.626 37.6955 101.409 38.2574C100.961 39.4309 100.038 39.9022 99.0791 40.31C97.1699 41.1211 95.9257 42.4986 95.2561 44.3202C93.7587 44.7506 93.2927 46.1009 92.5371 47.1114C92.225 47.5283 92.2566 48.1989 92.139 48.7291C90.741 49.803 88.9269 50.3195 87.7958 51.8103C87.4067 52.3224 87.1308 52.9567 86.6512 53.3555C86.1264 53.7905 85.4387 54.0352 84.8053 54.3342C84.6244 54.4203 84.3936 54.4158 84.3755 54.4203C84.0046 54.9686 83.7286 55.3764 83.4798 55.748C82.9369 55.748 82.489 55.748 81.9913 55.748C81.2403 57.0711 79.0687 57.2388 79.123 59.3639C79.3311 59.7717 79.5799 60.2566 79.8062 60.6961C80.7698 60.6961 81.6656 60.6961 82.3035 60.6961C83.7784 59.9756 85.0677 59.4228 86.2802 58.7341C87.6827 57.932 89.049 57.6466 90.5872 58.3444C91.008 58.5347 91.7183 58.5709 92.0666 58.3353C92.9488 57.7327 94.0572 57.5424 94.7721 56.627C95.8624 55.236 97.0658 53.9355 98.2557 52.558C98.7759 52.558 99.2826 52.558 99.4681 52.558C101.368 51.0763 102.97 49.6897 104.721 48.5297C105.408 48.072 105.825 47.5691 106.322 46.9528C107.105 45.9831 107.892 44.9681 108.933 44.1888C110.62 42.9245 112.199 41.5199 113.855 40.2149C114.461 39.7391 115.126 39.1455 115.832 39.0277C116.705 38.8827 117.271 38.3525 117.506 37.7634C117.782 37.0702 118.275 36.6805 118.732 36.2409C119.958 35.0764 121.13 33.7624 122.568 32.9377C123.609 32.3395 123.948 30.962 125.256 30.808C125.446 30.9575 125.631 31.2384 125.821 31.243C127.59 31.2747 129.364 31.2611 131.137 31.2611C132.232 31.3608 133.476 31.4288 134.272 30.7491C135.168 29.9878 136.24 30.015 137.177 29.5528C138.168 29.0634 139.272 28.8142 140.692 28.3339C140.873 28.1164 141.294 27.5998 141.525 27.3189C142.335 27.1195 142.837 26.9972 143.312 26.8794C143.484 28.0802 143.642 29.2175 143.805 30.3503C143.579 30.3503 143.357 30.3503 143.144 30.3503C142.846 30.8261 142.552 31.2973 142.289 31.7233C141.724 31.7233 141.28 31.7233 140.851 31.7233C140.624 31.9498 140.412 32.1628 140.253 32.3214C140.253 32.8742 140.253 33.3772 140.253 33.7759C140.918 34.0433 141.493 34.2698 141.995 34.4738C141.995 35.3483 141.995 36.0234 141.995 36.6941C141.683 36.7484 141.371 36.7983 140.688 36.9161C141.312 37.4599 141.651 37.7544 141.995 38.0534C141.995 38.6561 141.995 39.2633 141.995 39.8659C141.846 40.0155 141.692 40.1695 141.543 40.3191C141.543 40.7722 141.543 41.2253 141.543 41.6784C141.394 41.828 141.24 41.982 141.09 42.1316C140.43 42.4623 139.869 42.8838 139.683 43.6314C140.728 44.6509 142.018 44.3338 143.542 44.4289C143.628 44.5966 143.823 44.9636 144.054 45.4122C144.479 44.7642 144.773 44.3202 145.126 43.7809C145.606 44.1978 145.986 44.5241 146.379 44.8639C147.257 44.8639 148.148 44.8639 148.623 44.8639C149.84 45.453 150.713 45.8699 151.215 46.1145C152.831 45.8245 154.061 45.607 155.373 45.3714C156.151 46.0466 157.147 46.3547 158.278 46.2052C158.377 47.2791 157.956 48.4255 158.748 49.3861C158.517 49.8392 158.3 50.2742 158.079 50.7092C156.712 50.6095 156.721 50.5959 156.468 49.4813C156.423 49.2864 156.346 49.0961 156.287 48.933C155.617 48.933 155.02 48.933 154.428 48.933C154.048 49.3136 153.677 49.6852 153.306 50.0567C153.193 51.5702 153.758 52.7256 155.111 53.4597C155.26 53.6092 155.414 53.7633 155.563 53.9128C155.563 54.3659 155.563 54.8191 155.563 55.2722C155.292 55.2722 155.02 55.2722 154.808 55.2722C154.59 56.5772 154.4 57.7372 154.206 58.8972C153.003 58.6933 152.957 59.8261 152.396 60.5783C152.396 61.0088 152.423 61.5933 152.374 62.1733C152.365 62.3002 152.093 62.4044 151.944 62.5177C151.428 62.5177 153.202 62.6128 152.853 62.6128C152.315 63.0569 152.722 62.8031 152.401 63.0659C152.401 63.6867 152.853 63.6913 152.853 63.9722C153.278 64.457 153.003 64.0809 153.306 64.4253C154.043 64.4253 152.812 65.7711 153.306 65.3316C154.215 64.5205 152.699 66.1427 152.849 66.1427C152.699 66.8994 152.546 67.6516 152.396 68.4083C152.156 68.9203 151.826 69.3689 151.921 70.0169C152.021 70.6739 151.944 71.3581 151.944 72.0333C152.175 73.1978 152.591 73.6147 153.754 73.8458C154.355 73.8458 154.961 73.8458 155.563 73.8458C155.993 74.2672 156.423 74.6931 157.02 75.2822C157.02 75.6945 157.02 76.3425 157.02 77.0313C158.432 76.9769 159.748 76.9452 160.535 78.223C160.187 80.2983 159.848 82.2966 159.436 84.7299C158.834 83.9052 158.486 83.4203 158.02 82.7814C156.92 83.0034 155.771 83.2391 154.663 83.4656C154.663 83.887 154.604 84.1317 154.676 84.3311C154.767 84.5894 155.088 84.8114 155.088 85.047C155.088 85.4095 155.418 85.9986 154.663 86.0756C153.098 86.5061 152.731 87.2492 153.093 89.2475C153.315 89.2475 153.536 89.2475 153.758 89.2475C153.758 90.3033 153.758 91.3636 153.758 92.4194C153.609 92.6006 153.306 92.9133 153.328 92.9405C153.907 93.5975 153.74 94.3859 153.758 95.1381C153.043 95.1381 152.328 95.1381 151.767 95.1381C151.473 94.7258 151.265 94.4267 150.872 93.8739C150.559 94.7983 150.351 95.4236 150.139 96.0444C149.989 96.1939 149.836 96.348 149.686 96.4975C149.342 96.5655 148.822 96.271 148.781 96.9506C148.632 97.1002 148.478 97.2542 148.329 97.4038C147.854 97.3358 147.51 97.4989 147.166 97.8614C146.583 98.4822 145.913 99.0214 145.28 99.5923C144.533 100.308 144.782 101.07 145.103 102.026C145.565 103.39 146.461 104.731 145.809 106.253C145.533 107.182 145.262 108.116 145.04 108.868C144.425 109.57 143.895 110.177 143.294 110.862C143.461 112.37 143.633 113.947 143.809 115.529C143.809 116.285 143.809 117.038 143.809 117.794C142.57 117.64 141.412 117.944 140.231 118.406C140.231 119.036 140.231 119.688 140.231 120.386C140.507 120.572 140.801 120.767 141.095 120.962C141.095 121.261 140.982 121.628 141.113 121.841C141.697 122.783 141.697 123.667 141.113 124.614C140.982 124.827 141.095 125.198 141.095 125.493C140.828 125.493 140.561 125.493 140.19 125.493C140.19 126.028 140.19 126.44 140.19 126.852C139.426 126.703 138.67 126.485 137.901 126.417C137.028 126.34 136.141 126.399 135.363 126.399C134.544 124.338 133.616 122.715 131.59 121.814C130.332 121.256 129.287 121.438 128.328 121.832C127.78 121.175 127.414 120.296 126.848 120.146C125.64 119.824 124.396 119.158 123.179 119.702C122.46 120.563 121.953 121.56 121.139 122.076C119.031 123.427 117.221 125.094 115.678 126.712C114.38 127.133 113.181 127.147 112.425 128.153C111.91 128.153 111.403 128.153 110.837 128.153C110.806 127.595 110.779 127.088 110.747 126.526C110.475 126.345 110.177 126.145 109.883 125.946C110.032 125.253 110.245 124.569 110.317 123.866C110.394 123.123 110.335 122.366 110.335 121.519C107.996 119.675 105.336 118.447 102.133 117.504C101.662 117.033 100.916 116.285 100.169 115.538C98.7488 115.746 98.4185 114.545 97.7987 113.712C96.1293 113.39 94.4599 113.068 92.5552 112.706C91.9309 112.08 91.1935 111.342 90.352 110.495C89.4788 110.495 88.4382 110.495 87.4565 110.495C85.4523 108.455 83.0997 107.427 80.3083 107.35C79.6885 107.332 79.0732 107.092 78.4218 106.951C78.0915 107.255 77.725 107.595 77.4264 107.875C76.318 107.354 75.1327 107.128 74.4857 106.412C73.5764 105.41 72.2825 105.809 71.3731 105.107C69.016 106.203 68.3645 106.398 66.3151 105.497C65.4103 105.098 64.6547 105.252 63.7499 105.057C63.4739 105.796 63.2523 106.376 63.1301 106.711C62.0624 107.622 61.1757 108.378 60.2256 109.19C60.0311 109.19 59.7279 109.19 59.2755 109.19C58.9453 109.896 58.5878 110.658 58.2576 111.369C55.896 111.55 53.9958 112.602 52.1319 113.766C51.7428 114.011 51.2678 114.11 50.9149 114.246C50.4896 113.82 50.2227 113.553 49.906 113.236C48.9514 113.444 47.9606 113.136 46.9065 113.517C44.8977 114.237 43.4862 115.647 42.0521 117.083C41.9118 118.402 40.6586 118.315 40.2062 118.601C38.7992 120.055 38.7268 121.664 38.2563 123.209C37.4781 123.418 36.6638 123.635 35.7001 123.893C34.5058 124.637 34.5917 126.712 33.058 127.269C31.4927 127.836 31.6103 130.07 29.8866 130.169C29.6559 131.465 29.4477 132.67 29.1627 134.27C28.5203 135.172 27.6426 136.4 26.6247 137.832C26.6247 137.832 26.6247 138.131 26.6247 138.615C26.3623 138.806 26.0003 139.073 25.8239 139.2C25.5751 140.935 25.3624 142.435 25.1272 144.062C22.4715 145.87 22.6479 148.475 23.5211 151.434C23.1004 152.014 22.5575 152.676 22.1322 153.401C21.9784 153.664 22.1096 154.094 22.1096 154.443C22.942 154.443 23.598 154.443 24.1273 154.443C26.2763 152.694 27.5205 150.655 27.1133 148.281C27.5521 147.157 27.8598 146.378 28.2307 145.417C28.8822 144.764 29.7916 144.048 30.4566 143.147C31.5831 141.624 33.2616 140.374 33.0264 138.18C33.5738 138.18 33.9493 138.18 34.3248 138.18C34.5103 138.937 34.6958 139.698 34.8994 140.528C34.3067 140.94 33.7593 141.325 33.2571 141.674C33.524 142.907 33.714 143.808 33.9448 144.869C34.3746 145.227 34.922 145.68 35.6368 146.278C35.6639 146.418 35.7363 146.835 35.8268 147.338C37.2067 146.921 37.6772 145.53 38.8263 144.941C39.3421 145.295 39.8624 145.648 40.5003 146.083C40.6405 146.64 40.8305 147.388 41.0658 148.308C40.5003 149.681 39.4235 151.027 38.0255 151.702C35.8268 152.758 34.171 154.955 31.3343 154.996C29.6197 156.432 28.8325 158.644 27.5159 160.76C27.5159 161.199 27.5159 161.856 27.5159 162.595C27.0861 162.622 26.7287 162.649 26.3713 162.672C26.1044 162.939 25.8375 163.207 25.4936 163.551C24.4259 163.533 23.0958 163.275 22.2634 164.154C21.4626 165.001 20.0737 164.684 19.6529 165.835C18.4767 165.445 17.4135 165.096 16.2824 164.72C16.2508 164.439 16.2146 164.086 16.1648 163.637C14.6221 163.637 13.0612 163.637 11.4009 163.637C10.8489 164.294 10.211 165.055 9.50978 165.889C8.81758 165.427 8.11634 164.951 7.38795 164.462C6.51479 164.462 5.61448 164.462 5.17111 164.462C3.66909 165.191 2.53353 165.744 1.41154 166.288C0.941026 166.079 0.493133 165.885 0 165.672C0.420747 165.051 1.09485 164.466 1.1989 163.796C1.3301 162.93 1.56989 162.146 1.88658 161.349C2.16707 160.642 2.32994 159.885 2.55615 159.106C3.2031 159.106 3.70529 159.106 4.34319 159.106C4.59202 158.589 4.8318 158.091 5.11683 157.497C4.09437 156.673 3.18953 155.948 2.11278 155.082C2.44305 154.067 2.80498 152.952 3.17144 151.815C3.67362 151.815 4.11246 151.815 4.49701 151.815C4.95848 151.471 5.32041 151.018 5.77283 150.904C6.27953 150.777 6.82243 150.904 6.77719 150.129C7.80417 149.676 8.81759 149.182 9.95315 149.069C10.1251 149.051 10.3151 149.273 10.3965 149.318C10.8354 148.879 11.2878 148.426 11.5638 148.145C12.6676 148.145 13.4187 148.145 14.1923 148.145C14.4456 147.882 14.708 147.61 15.0112 147.293C15.6355 147.293 16.2915 147.293 17.1601 147.293C17.0154 147.701 16.8932 148.054 16.7575 148.453C16.8932 148.589 17.1104 148.806 17.4135 149.11C17.9926 148.82 18.6079 148.512 19.0558 148.29C19.9289 147.152 19.0648 146.31 18.8748 145.462C18.721 144.769 18.4178 144.112 18.4812 143.373C18.4993 143.147 18.5807 142.843 18.4676 142.707C17.6533 141.706 18.2143 140.858 18.7029 139.988C19.006 139.988 19.3046 139.988 19.6077 139.988C19.6846 139.871 19.8203 139.757 19.8294 139.635C19.8565 139.182 19.8973 138.72 19.8294 138.28C19.472 135.874 20.594 134.071 22.1684 132.453C22.9782 131.619 23.874 130.867 23.9418 129.553C23.9554 129.254 24.3354 128.964 24.5662 128.692C25.1588 127.999 24.8286 127.473 24.1816 126.902C23.7654 126.902 23.2632 126.902 22.8063 126.902C21.8019 124.922 19.9787 123.984 18.4178 122.706C16.8932 121.46 15.1062 120.821 13.3508 119.865C14.043 118.506 14.6809 117.26 15.355 115.937C15.0338 114.781 14.6945 113.553 14.3144 112.185C15.0654 111.664 15.4998 110.866 16.4589 110.436C17.2687 110.073 17.7709 109.167 18.0559 108.202C18.4088 107.001 19.0015 105.873 19.3724 104.676C19.8203 103.245 20.9695 102.601 22.1277 101.926C22.7339 101.573 23.3537 101.237 23.9916 100.884C23.7564 100.63 23.6071 100.462 23.4487 100.295C23.6297 99.7555 23.8106 99.2253 23.969 98.7495C22.5213 97.073 21.1369 95.4689 19.6529 93.747C21.7476 91.6989 23.503 89.4378 26.2446 88.3095C26.6971 88.1238 27.0318 87.657 27.4164 87.3127C29.018 85.8853 30.253 84.0547 32.1803 82.9808C32.3703 82.8766 32.5694 82.6953 32.6554 82.505C33.1123 81.4719 33.8633 80.7786 34.8632 80.2711C35.2115 80.0944 35.4106 79.6141 35.6775 79.2697C36.4873 78.6806 37.4827 78.2411 37.4872 77.0041C37.9351 76.3425 38.5504 75.9075 39.2968 75.6447L43.2962 73.6827C43.6174 73.6011 43.9477 73.506 44.2734 73.4063ZM37.4917 87.0952C38.953 86.488 40.0207 85.2238 41.292 84.3402C42.6492 83.3931 43.4138 81.8752 44.8751 80.8375M124.369 42.1406C125.785 42.1406 126.989 42.1406 128.242 42.1406C128.676 41.4202 129.658 41.1075 129.816 40.0925C129.857 39.8523 130.183 39.5306 130.436 39.4672C132.463 38.9688 133.363 37.1336 134.729 36.0778C134.906 34.8861 134.101 34.5055 133.725 34.1384C131.834 33.5539 130.68 34.7728 129.337 35.3528C126.998 36.3588 125.034 37.8903 123.401 39.7255C123.749 40.6 124.034 41.3114 124.369 42.1406Z" fill="#D9D9D9"/>
<path d="M34.3221 138.202C33.9466 138.202 33.571 138.202 33.0236 138.202C33.2589 140.395 31.5804 141.645 30.4539 143.168C29.7889 144.07 28.8795 144.785 28.228 145.438C27.8525 146.394 27.5494 147.173 27.1106 148.302C27.5177 150.672 26.2736 152.715 24.1246 154.464C23.5953 154.464 22.9393 154.464 22.1068 154.464C22.1068 154.111 21.9756 153.685 22.1295 153.422C22.5547 152.693 23.0976 152.035 23.5184 151.455C22.6407 148.497 22.4642 145.891 25.1244 144.083C25.3552 142.456 25.5723 140.952 25.8212 139.221C25.9976 139.09 26.3595 138.827 26.6219 138.637C26.6219 138.156 26.6219 137.857 26.6219 137.853C27.6444 136.421 28.5176 135.193 29.16 134.291C29.4405 132.692 29.6531 131.486 29.8839 130.19C31.6076 130.091 31.4899 127.857 33.0553 127.29C34.589 126.733 34.4985 124.658 35.6974 123.915C36.6611 123.656 37.4754 123.439 38.2536 123.23C38.7241 121.685 38.7965 120.077 40.2035 118.622C40.6559 118.337 41.9091 118.423 42.0493 117.104C43.4835 115.672 44.8995 114.258 46.9037 113.538C47.9579 113.162 48.9487 113.47 49.9033 113.257C50.2154 113.57 50.4824 113.837 50.9122 114.267C51.2605 114.132 51.7401 114.032 52.1292 113.787C53.9931 112.623 55.8932 111.571 58.2549 111.39C58.5896 110.679 58.9425 109.917 59.2728 109.211C59.7252 109.211 60.0238 109.211 60.2229 109.211C61.1729 108.4 62.0552 107.643 63.1274 106.732C63.2541 106.401 63.4712 105.817 63.7472 105.078C64.652 105.273 65.4076 105.119 66.3124 105.518C68.3618 106.419 69.0133 106.225 71.3704 105.128C72.2752 105.83 73.5737 105.432 74.483 106.433C75.13 107.149 76.3198 107.375 77.4237 107.897C77.7223 107.62 78.0888 107.28 78.419 106.972C79.0705 107.117 79.6858 107.357 80.3056 107.371C83.097 107.448 85.4496 108.477 87.4538 110.516C88.431 110.516 89.4761 110.516 90.3492 110.516C91.1907 111.363 91.9282 112.102 92.5525 112.727C94.4527 113.094 96.1221 113.416 97.796 113.733C98.4158 114.562 98.7461 115.767 100.167 115.559C100.913 116.307 101.66 117.054 102.13 117.525C105.338 118.468 107.993 119.7 110.332 121.54C110.332 122.388 110.391 123.144 110.314 123.887C110.242 124.59 110.029 125.274 109.88 125.967C109.428 126.117 108.975 126.271 108.523 126.42C107.166 125.736 105.799 125.836 104.374 126.244C103.51 126.488 102.705 127.046 101.737 126.873C101.135 126.873 100.529 126.873 99.9269 126.873C98.9135 126.289 97.9001 125.704 97.0088 125.192C96.674 125.346 96.4885 125.428 96.3076 125.514C94.1495 125.546 92.3127 124.553 90.4261 123.702C90.2497 123.552 90.0868 123.303 89.8923 123.271C89.4761 123.203 89.0418 123.248 88.6165 123.248C88.4989 123.099 88.3858 122.818 88.2636 122.813C87.2954 122.777 86.3227 122.777 85.35 122.813C85.2279 122.818 85.1148 123.094 84.9972 123.248C84.0923 123.248 83.1875 123.248 82.2827 123.248C82.2827 123.171 82.3008 123.035 82.2827 123.031C80.7761 122.641 79.2696 122.641 77.763 123.031C77.7449 123.035 77.7585 123.171 77.7585 123.248C76.2927 123.217 74.8269 123.194 73.361 123.131C73.1936 123.122 73.0353 122.886 72.8905 122.768C72.0671 123.248 71.2935 123.702 70.5199 124.155C70.3344 124.005 70.1489 123.729 69.9589 123.72C68.6378 123.683 67.3167 123.702 65.9957 123.702C64.937 122.909 63.72 123.38 62.6342 123.23C61.9285 123.729 61.2815 124.186 60.6029 124.667C60.6029 125.369 60.6029 126.031 60.6029 126.656C58.9606 127.816 57.3817 128.926 55.7937 130.045C55.0563 130.045 54.3007 130.045 53.5407 130.045C52.663 131.169 50.8986 131.409 50.5231 133.14C50.0345 133.14 49.5278 133.14 49.0437 133.14C48.4329 132.827 47.8086 132.51 47.1435 132.17C46.5192 130.924 45.8587 129.61 45.1981 128.296C43.669 128.296 42.2574 128.296 40.8685 128.296C40.6514 128.645 40.5111 129.198 40.1944 129.329C38.6426 129.959 38.1359 131.409 37.3442 132.66C36.7651 133.58 36.0412 134.409 35.2314 135.474C35.2224 135.999 35.3626 136.847 34.4985 137.386C34.3356 137.49 34.3764 137.921 34.3221 138.202Z" fill="#C8E4E6"/>
<path d="M125.255 30.8116C123.948 30.9656 123.608 32.3386 122.568 32.9412C121.129 33.7659 119.957 35.08 118.731 36.2445C118.274 36.6795 117.777 37.0738 117.505 37.767C117.27 38.3561 116.704 38.8862 115.831 39.0312C115.126 39.1491 114.46 39.7381 113.854 40.2184C112.198 41.5234 110.615 42.9281 108.932 44.1924C107.891 44.9717 107.104 45.9913 106.322 46.9564C105.824 47.5727 105.408 48.0756 104.72 48.5333C102.969 49.6933 101.368 51.0799 99.4674 52.5616C99.2819 52.5616 98.7752 52.5616 98.2549 52.5616C97.0651 53.9391 95.8616 55.2395 94.7713 56.6306C94.0565 57.5459 92.9436 57.7363 92.0659 58.3389C91.7221 58.5745 91.0072 58.5383 90.5865 58.348C89.0483 57.6456 87.682 57.9356 86.2795 58.7377C85.067 59.4309 83.7776 59.9792 82.3027 60.6997C81.6648 60.6997 80.7691 60.6997 79.8054 60.6997C79.5792 60.2602 79.3304 59.7753 79.1223 59.3675C79.0634 57.2423 81.2396 57.0747 81.9906 55.7516C82.4882 55.7516 82.9361 55.7516 83.479 55.7516C83.7279 55.38 84.0038 54.9767 84.3748 54.4239C84.3929 54.4194 84.6191 54.4284 84.8046 54.3378C85.4335 54.0387 86.1257 53.7941 86.6505 53.3591C87.13 52.9603 87.406 52.3259 87.7951 51.8139C88.9261 50.3231 90.7358 49.8066 92.1383 48.7327C92.2559 48.2025 92.2288 47.5319 92.5364 47.115C93.2965 46.1 93.7579 44.7542 95.2554 44.3237C95.925 42.4977 97.1691 41.1202 99.0783 40.3136C100.037 39.9058 100.965 39.4391 101.408 38.2609C101.621 37.6945 102.444 37.2097 103.091 36.9967C104.177 36.6388 105.037 36.0588 105.819 35.0573C105.634 34.2825 106.204 33.2811 105.353 32.3612C107.878 30.2859 110.624 28.922 113.827 29.502C115.162 28.1653 116.374 26.9509 117.433 25.8906C118.252 25.8906 118.758 25.8906 119.279 25.8906C119.333 26.1444 119.378 26.3483 119.428 26.5613C120.532 27.2681 121.5 26.2894 122.55 26.2894C122.699 26.2894 122.853 26.2894 123.002 26.2894C123.052 26.4163 123.102 26.5386 123.151 26.6655C123.251 26.5386 123.355 26.4163 123.454 26.2894C123.758 26.2894 124.056 26.2894 124.359 26.2894C124.848 27.5536 124.943 29.0172 126.169 29.9144C126.169 30.0639 126.169 30.218 126.169 30.3675C126.169 30.517 126.169 30.6711 126.169 30.8206C125.857 30.8116 125.558 30.8116 125.255 30.8116Z" fill="#C8E4E6"/>
<path d="M124.367 42.1406C124.032 41.3114 123.747 40.6 123.395 39.73C125.028 37.8903 126.991 36.3633 129.33 35.3574C130.674 34.7774 131.828 33.5585 133.719 34.143C134.094 34.5055 134.899 34.8861 134.723 36.0824C133.361 37.1427 132.456 38.9733 130.43 39.4717C130.181 39.5352 129.851 39.8524 129.81 40.097C129.647 41.1075 128.67 41.4202 128.235 42.1452C126.987 42.1406 125.783 42.1406 124.367 42.1406Z" fill="#BEDEDE"/>
<path d="M43.8214 77.9375C43.9707 78.3906 44.1245 78.8438 44.2738 79.2969C44.4729 79.8089 44.6719 80.3209 44.8755 80.8375C43.4142 81.8797 42.6496 83.3977 41.2924 84.3402C40.0211 85.2238 38.9534 86.3928 37.4876 87C37.5419 86.343 37.465 85.7222 37.0352 85.1875C37.9219 83.6922 39.3153 82.9173 41.1567 82.1923C41.5503 81.7981 42.1836 81.1637 42.8939 80.4523C42.8939 79.8723 42.8939 79.2198 42.8939 78.5583C43.2333 78.3362 43.5273 78.1369 43.8214 77.9375Z" fill="#A8D1D8"/>
</svg>
