<svg width="161" height="167" viewBox="0 0 161 167" fill="none" xmlns="http://www.w3.org/2000/svg">
<path d="M43.8132 78.5781C43.5191 78.7775 43.225 78.9724 42.8812 79.2035C42.8812 79.865 42.8812 80.5175 42.8812 81.0975C42.1754 81.8044 41.5421 82.4388 41.1439 82.8375M44.2656 74.0469C44.3742 73.8656 44.4375 73.5802 44.5913 73.5167C46.0888 72.9095 47.1701 71.5456 48.8757 71.2783C49.2919 71.2103 49.5996 70.4944 50.0339 69.9914C50.1787 69.9914 50.4727 69.9914 50.9025 69.9914C51.2373 68.9628 51.5812 67.9161 51.9295 66.8603C52.7982 66.8603 53.5356 66.8603 54.2504 66.8603C54.9517 66.2849 55.6167 65.7456 56.3542 65.143C56.5306 64.7805 56.6527 63.9739 57.0328 63.8289C58.5665 63.2353 58.6931 62.0119 58.7972 60.7431C57.9919 59.9366 57.2499 59.1934 56.3722 58.3144C56.7387 56.9006 57.1323 55.3963 57.5485 53.8058C58.6208 53.3617 58.8832 52.0794 59.5889 51.232C59.8106 48.7716 60.0232 46.3519 60.2178 44.2041C59.4758 42.9036 58.9646 41.8025 58.2724 40.8373C57.5485 39.8314 57.2635 38.7756 57.4173 37.5431C58.8153 36.2064 60.0233 34.6839 61.1181 33.0209C61.6791 32.1691 62.7875 31.6752 63.7421 30.9456C65.1808 31.6888 66.8185 31.4123 68.4698 31.4622C69.0942 30.4336 70.2569 30.3475 71.2613 30.1481C72.0711 29.9895 72.8447 29.84 73.374 29.2419C74.4508 28.0184 75.7854 27.6786 77.3236 27.8327C77.5453 27.8553 77.7715 27.8372 77.9932 27.8372C79.2554 26.4144 80.6805 25.2227 81.5809 23.4283C82.5309 21.5297 84.6663 20.3742 86.9782 19.6764C87.2451 19.5948 87.5211 19.5224 87.7563 19.3774C87.9328 19.2731 88.0414 19.0602 88.2811 18.7792C87.4396 17.8639 86.6072 16.9622 85.5666 15.8339C86.2362 15.698 86.6208 15.6209 87.0596 15.5303C87.2813 14.8778 87.5301 14.1528 87.7699 13.4505C88.9009 13.1605 89.7379 12.0911 90.9866 12.4445C91.4481 12.0277 91.8778 11.638 92.0905 11.4477C91.9367 10.2831 91.819 9.38142 91.6878 8.40267C92.3981 8.36188 92.9048 8.33469 93.3934 8.3075C93.6739 8.02656 93.9409 7.75923 94.2892 7.41032C95.8003 7.96313 96.5242 6.2186 97.9131 6.05095C99.4965 5.86063 100.361 4.5239 101.351 3.47719C102.279 2.49844 103.541 1.86406 104.147 0.640625C104.595 0.640625 104.971 0.640625 105.351 0.640625C105.419 0.985 105.125 1.50609 105.803 1.54688C105.803 1.69641 105.803 1.85047 105.803 2C105.952 2.14953 106.106 2.30359 106.256 2.45313C106.179 3.40016 106.224 4.34719 106.875 5.08125C107.292 5.5525 107.093 6.04641 107.16 6.53126C107.486 7.80001 106.658 8.92376 106.708 10.1563C106.029 10.197 106.323 10.7181 106.256 11.0625C105.984 11.0625 105.708 11.0625 105.428 11.0625C105.428 12.3449 105.428 13.4822 105.428 14.5969C106.296 14.8144 106.912 14.6649 107.16 13.7813C107.31 13.6317 107.464 13.4777 107.613 13.3281C108.029 13.3281 108.441 13.3281 108.549 13.3281C109.128 12.7345 109.499 12.3539 109.875 11.9688C110.25 11.9688 110.626 11.9688 111.219 11.9688C111.391 11.7286 111.648 11.357 111.689 11.3027C113.123 11.0127 114.232 10.7906 115.304 10.5731C115.304 10.1517 115.304 9.9297 115.304 9.70313C115.648 9.63516 116.168 9.9297 116.209 9.25001C116.553 9.18204 117.073 9.47657 117.114 8.79688C119.045 8.79688 120.973 8.79688 123.054 8.79688C123.054 9.78923 123.054 10.6456 123.054 11.5745C124.045 11.3842 124.877 11.2256 125.709 11.0625C125.859 11.212 126.013 11.3661 126.162 11.5156C126.162 11.7377 126.162 11.9597 126.162 12.1908C126.917 12.4627 127.687 12.7391 128.392 12.9973C128.573 13.6317 128.727 14.1619 128.876 14.692C128.727 14.8733 128.465 15.0409 128.447 15.2358C128.388 15.8022 128.424 16.3822 128.424 16.9577C128.067 17.6827 127.705 18.4077 127.338 19.1508C126.782 19.2459 126.311 19.4906 126.162 20.1295C126.013 20.2791 125.859 20.4331 125.709 20.5827C124.66 20.3516 124.407 21.72 123.466 21.6656C123.484 23.1564 122.669 24.5248 122.995 26.0202C122.316 26.0609 122.61 26.582 122.543 26.9264C121.493 26.9264 120.525 27.9052 119.421 27.1983C119.376 26.9853 119.33 26.7814 119.272 26.5277C118.747 26.5277 118.245 26.5277 117.426 26.5277C116.367 27.588 115.15 28.8069 113.82 30.1391C110.612 29.5591 107.866 30.9184 105.346 32.9983C106.197 33.9227 105.627 34.9195 105.812 35.6944C105.03 36.6958 104.17 37.2758 103.084 37.6338C102.437 37.8467 101.618 38.3361 101.401 38.898C100.953 40.0716 100.03 40.5428 99.0713 40.9506C97.1621 41.7617 95.9179 43.1392 95.2483 44.9608C93.7508 45.3913 93.2849 46.7416 92.5293 47.752C92.2172 48.1689 92.2488 48.8395 92.1312 49.3697C90.7332 50.4436 88.919 50.9602 87.788 52.4509C87.3989 52.963 87.1229 53.5974 86.6434 53.9961C86.1186 54.4311 85.4309 54.6758 84.7975 54.9749C84.6166 55.061 84.3858 55.0564 84.3677 55.061C83.9968 55.6092 83.7208 56.017 83.4719 56.3886C82.9291 56.3886 82.4812 56.3886 81.9835 56.3886C81.2325 57.7117 79.0609 57.8794 79.1152 60.0045C79.3233 60.4123 79.5721 60.8972 79.7983 61.3367C80.762 61.3367 81.6578 61.3367 82.2957 61.3367C83.7705 60.6163 85.0599 60.0634 86.2724 59.3747C87.6749 58.5727 89.0412 58.2872 90.5794 58.985C91.0001 59.1753 91.7104 59.2116 92.0588 58.9759C92.941 58.3733 94.0494 58.183 94.7642 57.2677C95.8546 55.8766 97.058 54.5761 98.2479 53.1986C98.7681 53.1986 99.2748 53.1986 99.4603 53.1986C101.36 51.7169 102.962 50.3303 104.713 49.1703C105.401 48.7127 105.817 48.2097 106.314 47.5934C107.097 46.6238 107.884 45.6088 108.925 44.8294C110.612 43.5652 112.191 42.1605 113.847 40.8555C114.453 40.3797 115.118 39.7861 115.824 39.6683C116.697 39.5233 117.263 38.9931 117.498 38.4041C117.774 37.7108 118.267 37.3211 118.724 36.8816C119.95 35.717 121.122 34.403 122.561 33.5783C123.601 32.9802 123.941 31.6027 125.248 31.4486C125.438 31.5981 125.624 31.8791 125.814 31.8836C127.582 31.9153 129.356 31.9017 131.129 31.9017C132.224 32.0014 133.468 32.0694 134.265 31.3897C135.16 30.6284 136.233 30.6556 137.169 30.1934C138.16 29.7041 139.264 29.4549 140.684 28.9745C140.865 28.757 141.286 28.2405 141.517 27.9595C142.327 27.7602 142.829 27.6378 143.304 27.52C143.476 28.7208 143.634 29.8581 143.797 30.9909C143.571 30.9909 143.349 30.9909 143.137 30.9909C142.838 31.4667 142.544 31.938 142.281 32.3639C141.716 32.3639 141.273 32.3639 140.843 32.3639C140.617 32.5905 140.404 32.8034 140.246 32.962C140.246 33.5148 140.246 34.0178 140.246 34.4166C140.911 34.6839 141.485 34.9105 141.987 35.1144C141.987 35.9889 141.987 36.6641 141.987 37.3347C141.675 37.3891 141.363 37.4389 140.68 37.5567C141.304 38.1005 141.644 38.395 141.987 38.6941C141.987 39.2967 141.987 39.9039 141.987 40.5066C141.838 40.6561 141.684 40.8102 141.535 40.9597C141.535 41.4128 141.535 41.8659 141.535 42.3191C141.386 42.4686 141.232 42.6227 141.083 42.7722C140.422 43.103 139.861 43.5244 139.676 44.272C140.721 45.2916 142.01 44.9744 143.535 45.0695C143.621 45.2372 143.815 45.6042 144.046 46.0528C144.471 45.4049 144.765 44.9608 145.118 44.4216C145.598 44.8384 145.978 45.1647 146.371 45.5045C147.249 45.5045 148.14 45.5045 148.615 45.5045C149.832 46.0936 150.705 46.5105 151.208 46.7552C152.823 46.4652 154.053 46.2477 155.365 46.012C156.144 46.6872 157.139 46.9953 158.27 46.8458C158.369 47.9197 157.949 49.0661 158.74 50.0267C158.51 50.4799 158.292 50.9149 158.071 51.3499C156.705 51.2502 156.714 51.2366 156.46 50.1219C156.415 49.927 156.338 49.7367 156.279 49.5736C155.61 49.5736 155.012 49.5736 154.42 49.5736C154.04 49.9542 153.669 50.3258 153.298 50.6974C153.185 52.2108 153.75 53.3663 155.103 54.1003C155.252 54.2498 155.406 54.4039 155.555 54.5534C155.555 55.0066 155.555 55.4597 155.555 55.9128C155.284 55.9128 155.012 55.9128 154.8 55.9128C154.583 57.2178 154.393 58.3778 154.198 59.5378C152.995 59.3339 152.949 60.4667 152.388 61.2189C152.388 61.6494 152.416 62.2339 152.366 62.8139C152.357 62.9408 152.085 63.045 151.936 63.1583C151.42 63.1583 153.194 63.2534 152.845 63.2534C152.307 63.6975 152.714 63.4438 152.393 63.7066C152.393 64.3274 152.845 64.3319 152.845 64.6128C153.271 65.0977 152.995 64.7216 153.298 65.0659C154.035 65.0659 152.805 66.4117 153.298 65.9722C154.207 65.1611 152.692 66.7833 152.841 66.7833C152.692 67.54 152.538 68.2922 152.388 69.0489C152.149 69.561 151.818 70.0095 151.913 70.6575C152.013 71.3145 151.936 71.9988 151.936 72.6739C152.167 73.8384 152.583 74.2553 153.746 74.4864C154.347 74.4864 154.954 74.4864 155.555 74.4864C155.985 74.9078 156.415 75.3338 157.012 75.9228C157.012 76.3352 157.012 76.9831 157.012 77.6719C158.424 77.6175 159.74 77.5858 160.527 78.8636C160.179 80.9389 159.84 82.9372 159.428 85.3705C158.826 84.5458 158.478 84.061 158.012 83.422C156.913 83.6441 155.763 83.8797 154.655 84.1063C154.655 84.5277 154.596 84.7723 154.669 84.9717C154.759 85.23 155.08 85.452 155.08 85.6877C155.08 86.0502 155.411 86.6392 154.655 86.7163C153.09 87.1467 152.723 87.8899 153.085 89.8881C153.307 89.8881 153.529 89.8881 153.75 89.8881C153.75 90.9439 153.75 92.0042 153.75 93.06C153.601 93.2413 153.298 93.5539 153.32 93.5811C153.9 94.2381 153.732 95.0266 153.75 95.7788C153.035 95.7788 152.321 95.7788 151.76 95.7788C151.466 95.3664 151.257 95.0674 150.864 94.5145C150.552 95.4389 150.344 96.0642 150.131 96.685C149.982 96.8345 149.828 96.9886 149.678 97.1381C149.335 97.2061 148.814 96.9116 148.774 97.5913C148.624 97.7408 148.471 97.8949 148.321 98.0444C147.846 97.9764 147.502 98.1395 147.159 98.502C146.575 99.1228 145.905 99.662 145.272 100.233C144.525 100.949 144.774 101.71 145.096 102.666C145.557 104.03 146.453 105.371 145.801 106.894C145.525 107.823 145.254 108.756 145.032 109.508C144.417 110.211 143.888 110.818 143.286 111.502C143.453 113.011 143.625 114.588 143.802 116.169C143.802 116.926 143.802 117.678 143.802 118.435C142.562 118.281 141.404 118.585 140.223 119.047C140.223 119.677 140.223 120.329 140.223 121.027C140.499 121.213 140.793 121.408 141.087 121.602C141.087 121.901 140.974 122.268 141.105 122.481C141.689 123.424 141.689 124.308 141.105 125.255C140.974 125.468 141.087 125.839 141.087 126.134C140.82 126.134 140.553 126.134 140.182 126.134C140.182 126.668 140.182 127.081 140.182 127.493C139.418 127.343 138.662 127.126 137.893 127.058C137.02 126.981 136.133 127.04 135.355 127.04C134.536 124.978 133.609 123.356 131.582 122.454C130.324 121.897 129.279 122.078 128.32 122.472C127.773 121.815 127.406 120.936 126.841 120.787C125.633 120.465 124.388 119.799 123.171 120.343C122.452 121.204 121.945 122.2 121.131 122.717C119.023 124.067 117.213 125.735 115.67 127.353C114.372 127.774 113.173 127.788 112.418 128.793C111.902 128.793 111.395 128.793 110.83 128.793C110.798 128.236 110.771 127.729 110.739 127.167C110.468 126.985 110.169 126.786 109.875 126.587C110.024 125.893 110.237 125.209 110.309 124.507C110.386 123.764 110.327 123.007 110.327 122.16C107.988 120.315 105.328 119.088 102.125 118.145C101.655 117.674 100.908 116.926 100.162 116.178C98.741 116.387 98.4107 115.186 97.7909 114.352C96.1215 114.031 94.4521 113.709 92.5474 113.346C91.9231 112.721 91.1856 111.983 90.3441 111.135C89.471 111.135 88.4304 111.135 87.4487 111.135C85.4445 109.096 83.0919 108.068 80.3005 107.99C79.6807 107.972 79.0654 107.732 78.4139 107.592C78.0837 107.895 77.7172 108.235 77.4186 108.516C76.3102 107.995 75.1249 107.768 74.4779 107.053C73.5686 106.051 72.2747 106.45 71.3653 105.748C69.0082 106.844 68.3567 107.039 66.3073 106.137C65.4025 105.738 64.6469 105.893 63.7421 105.698C63.4661 106.436 63.2444 107.016 63.1223 107.352C62.0546 108.262 61.1679 109.019 60.2178 109.83C60.0232 109.83 59.7201 109.83 59.2677 109.83C58.9374 110.537 58.58 111.298 58.2498 112.01C55.8882 112.191 53.988 113.242 52.1241 114.407C51.735 114.651 51.2599 114.751 50.9071 114.887C50.4818 114.461 50.2149 114.194 49.8982 113.877C48.9436 114.085 47.9528 113.777 46.8987 114.158C44.8899 114.878 43.4784 116.287 42.0442 117.724C41.904 119.042 40.6508 118.956 40.1984 119.242C38.7914 120.696 38.719 122.305 38.2485 123.85C37.4703 124.058 36.656 124.276 35.6923 124.534C34.4979 125.277 34.5839 127.353 33.0502 127.91C31.4849 128.476 31.6025 130.71 29.8788 130.81C29.648 132.106 29.4399 133.311 29.1549 134.911C28.5125 135.812 27.6348 137.04 26.6169 138.472C26.6169 138.472 26.6169 138.771 26.6169 139.256C26.3545 139.446 25.9925 139.714 25.8161 139.841C25.5673 141.576 25.3546 143.076 25.1194 144.703C22.4637 146.511 22.6401 149.116 23.5133 152.075C23.0925 152.655 22.5496 153.317 22.1244 154.042C21.9706 154.304 22.1017 154.735 22.1017 155.084C22.9342 155.084 23.5902 155.084 24.1195 155.084C26.2685 153.335 27.5126 151.296 27.1055 148.921C27.5443 147.798 27.852 147.018 28.2229 146.058C28.8744 145.405 29.7838 144.689 30.4488 143.787C31.5753 142.265 33.2538 141.014 33.0185 138.821C33.566 138.821 33.9415 138.821 34.317 138.821C34.5025 139.578 34.688 140.339 34.8915 141.168C34.2989 141.581 33.7515 141.966 33.2493 142.315C33.5162 143.547 33.7062 144.449 33.937 145.509C34.3667 145.867 34.9142 146.32 35.629 146.918C35.6561 147.059 35.7285 147.476 35.819 147.979C37.1989 147.562 37.6694 146.171 38.8185 145.582C39.3343 145.935 39.8545 146.289 40.4925 146.724C40.6327 147.281 40.8227 148.029 41.058 148.948C40.4925 150.321 39.4157 151.667 38.0177 152.342C35.819 153.398 34.1632 155.596 31.3265 155.637C29.6119 157.073 28.8246 159.284 27.5081 161.4C27.5081 161.84 27.5081 162.497 27.5081 163.235C27.0783 163.263 26.7209 163.29 26.3635 163.313C26.0966 163.58 25.8297 163.847 25.4858 164.192C24.4181 164.173 23.088 163.915 22.2556 164.794C21.4548 165.642 20.0659 165.324 19.6451 166.475C18.4689 166.086 17.4057 165.737 16.2746 165.361C16.243 165.08 16.2068 164.726 16.157 164.278C14.6143 164.278 13.0534 164.278 11.3931 164.278C10.8411 164.935 10.2032 165.696 9.50197 166.53C8.80977 166.068 8.10853 165.592 7.38014 165.102C6.50698 165.102 5.60667 165.102 5.1633 165.102C3.66128 165.832 2.52572 166.385 1.40373 166.928C0.933214 166.72 0.485321 166.525 -0.0078125 166.312C0.412934 165.691 1.08703 165.107 1.19109 164.436C1.32229 163.571 1.56207 162.787 1.87876 161.989C2.15926 161.283 2.32213 160.526 2.54834 159.746C3.19529 159.746 3.69748 159.746 4.33538 159.746C4.58421 159.23 4.82399 158.731 5.10901 158.138C4.08655 157.313 3.18172 156.588 2.10497 155.723C2.43524 154.708 2.79717 153.593 3.16362 152.456C3.6658 152.456 4.10465 152.456 4.4892 152.456C4.95067 152.111 5.3126 151.658 5.76501 151.545C6.27172 151.418 6.81462 151.545 6.76938 150.77C7.79636 150.317 8.80978 149.823 9.94534 149.71C10.1173 149.692 10.3073 149.914 10.3887 149.959C10.8275 149.519 11.28 149.066 11.5559 148.785C12.6598 148.785 13.4108 148.785 14.1845 148.785C14.4378 148.523 14.7002 148.251 15.0033 147.933C15.6277 147.933 16.2837 147.933 17.1523 147.933C17.0075 148.341 16.8854 148.695 16.7497 149.093C16.8854 149.229 17.1026 149.447 17.4057 149.75C17.9848 149.46 18.6001 149.152 19.0479 148.93C19.9211 147.793 19.057 146.95 18.867 146.103C18.7132 145.41 18.41 144.753 18.4734 144.014C18.4915 143.787 18.5729 143.484 18.4598 143.348C17.6455 142.346 18.2064 141.499 18.6951 140.629C18.9982 140.629 19.2968 140.629 19.5999 140.629C19.6768 140.511 19.8125 140.398 19.8216 140.276C19.8487 139.823 19.8894 139.36 19.8216 138.921C19.4642 136.515 20.5862 134.711 22.1606 133.094C22.9704 132.26 23.8662 131.508 23.934 130.194C23.9476 129.895 24.3276 129.605 24.5584 129.333C25.151 128.639 24.8208 128.114 24.1738 127.543C23.7576 127.543 23.2554 127.543 22.7985 127.543C21.7941 125.563 19.9709 124.625 18.41 123.347C16.8854 122.101 15.0984 121.462 13.343 120.506C14.0352 119.146 14.6731 117.9 15.3472 116.577C15.026 115.422 14.6867 114.194 14.3066 112.825C15.0576 112.304 15.492 111.507 16.4511 111.076C17.2609 110.714 17.7631 109.808 18.0481 108.842C18.401 107.642 18.9937 106.513 19.3646 105.317C19.8125 103.885 20.9617 103.242 22.1198 102.567C22.7261 102.213 23.3459 101.878 23.9838 101.524C23.7485 101.271 23.5992 101.103 23.4409 100.935C23.6219 100.396 23.8028 99.8659 23.9612 99.3902C22.5134 97.7136 21.1291 96.1095 19.6451 94.3877C21.7398 92.3395 23.4952 90.0784 26.2368 88.9502C26.6892 88.7644 27.024 88.2977 27.4086 87.9533C29.0101 86.5259 30.2452 84.6953 32.1725 83.6214C32.3625 83.5172 32.5616 83.3359 32.6476 83.1456C33.1045 82.1125 33.8555 81.4192 34.8554 80.9117C35.2037 80.735 35.4028 80.2547 35.6697 79.9103C36.4795 79.3213 37.4748 78.8817 37.4794 77.6447C37.9273 76.9831 38.5425 76.5481 39.289 76.2853L43.2884 74.3233C43.6096 74.2417 43.9399 74.1466 44.2656 74.0469ZM37.4839 87.7358C38.9452 87.1286 40.0129 85.8644 41.2842 84.9808C42.6414 84.0338 43.406 82.5158 44.8673 81.4781M124.361 42.7813C125.777 42.7813 126.981 42.7813 128.234 42.7813C128.668 42.0608 129.65 41.7481 129.808 40.7331C129.849 40.493 130.175 40.1713 130.428 40.1078C132.455 39.6094 133.355 37.7742 134.722 36.7184C134.898 35.5267 134.093 35.1461 133.717 34.7791C131.826 34.1945 130.673 35.4134 129.329 35.9934C126.99 36.9994 125.026 38.5309 123.393 40.3661C123.741 41.2406 124.027 41.952 124.361 42.7813Z" fill="#E10B17"/>
<path d="M34.3143 138.842C33.9387 138.842 33.5632 138.842 33.0158 138.842C33.2511 141.035 31.5726 142.286 30.4461 143.808C29.781 144.71 28.8717 145.426 28.2202 146.079C27.8447 147.035 27.5416 147.814 27.1027 148.942C27.5099 151.312 26.2658 153.356 24.1168 155.105C23.5875 155.105 22.9315 155.105 22.099 155.105C22.099 154.751 21.9678 154.325 22.1216 154.063C22.5469 153.333 23.0898 152.676 23.5106 152.096C22.6329 149.137 22.4564 146.532 25.1166 144.724C25.3474 143.097 25.5645 141.593 25.8134 139.862C25.9898 139.73 26.3517 139.467 26.6141 139.277C26.6141 138.797 26.6141 138.498 26.6141 138.493C27.6366 137.061 28.5098 135.833 29.1522 134.932C29.4327 133.332 29.6453 132.127 29.876 130.831C31.5998 130.731 31.4821 128.497 33.0475 127.931C34.5812 127.374 34.4907 125.298 35.6896 124.555C36.6532 124.297 37.4676 124.079 38.2457 123.871C38.7163 122.326 38.7886 120.717 40.1957 119.263C40.6481 118.977 41.9013 119.063 42.0415 117.745C43.4757 116.313 44.8917 114.899 46.8959 114.179C47.9501 113.802 48.9409 114.111 49.8954 113.898C50.2076 114.21 50.4745 114.478 50.9043 114.908C51.2527 114.772 51.7323 114.672 52.1213 114.428C53.9853 113.263 55.8854 112.212 58.247 112.031C58.5818 111.319 58.9347 110.558 59.265 109.851C59.7174 109.851 60.016 109.851 60.2151 109.851C61.1651 109.04 62.0473 108.283 63.1196 107.373C63.2462 107.042 63.4634 106.457 63.7394 105.719C64.6442 105.914 65.3997 105.76 66.3046 106.158C68.354 107.06 69.0055 106.865 71.3626 105.769C72.2674 106.471 73.5658 106.072 74.4752 107.074C75.1222 107.79 76.312 108.016 77.4159 108.537C77.7145 108.261 78.081 107.921 78.4112 107.613C79.0627 107.758 79.678 107.998 80.2978 108.012C83.0892 108.089 85.4418 109.117 87.446 111.156C88.4232 111.156 89.4683 111.156 90.3414 111.156C91.1829 112.004 91.9204 112.742 92.5447 113.368C94.4448 113.735 96.1143 114.056 97.7882 114.373C98.408 115.203 98.7383 116.408 100.159 116.2C100.905 116.947 101.652 117.695 102.122 118.166C105.33 119.109 107.986 120.341 110.325 122.181C110.325 123.028 110.383 123.785 110.307 124.528C110.234 125.23 110.022 125.915 109.872 126.608C109.42 126.757 108.967 126.911 108.515 127.061C107.158 126.377 105.791 126.476 104.366 126.884C103.502 127.129 102.697 127.686 101.729 127.514C101.127 127.514 100.521 127.514 99.9191 127.514C98.9057 126.93 97.8922 126.345 97.001 125.833C96.6662 125.987 96.4807 126.069 96.2997 126.155C94.1417 126.186 92.3049 125.194 90.4183 124.342C90.2419 124.193 90.079 123.943 89.8845 123.912C89.4683 123.844 89.0339 123.889 88.6087 123.889C88.491 123.74 88.3779 123.459 88.2558 123.454C87.2876 123.418 86.3149 123.418 85.3422 123.454C85.2201 123.459 85.107 123.735 84.9893 123.889C84.0845 123.889 83.1797 123.889 82.2749 123.889C82.2749 123.812 82.2929 123.676 82.2749 123.672C80.7683 123.282 79.2618 123.282 77.7552 123.672C77.7371 123.676 77.7507 123.812 77.7507 123.889C76.2849 123.857 74.819 123.835 73.3532 123.771C73.1858 123.762 73.0275 123.527 72.8827 123.409C72.0593 123.889 71.2857 124.342 70.512 124.795C70.3265 124.646 70.1411 124.369 69.951 124.36C68.63 124.324 67.3089 124.342 65.9879 124.342C64.9292 123.549 63.7122 124.02 62.6264 123.871C61.9207 124.369 61.2737 124.827 60.5951 125.307C60.5951 126.01 60.5951 126.671 60.5951 127.297C58.9528 128.457 57.3739 129.567 55.7859 130.686C55.0485 130.686 54.2929 130.686 53.5329 130.686C52.6552 131.81 50.8908 132.05 50.5153 133.781C50.0267 133.781 49.5199 133.781 49.0359 133.781C48.4251 133.468 47.8008 133.151 47.1357 132.811C46.5114 131.565 45.8509 130.251 45.1903 128.937C43.6612 128.937 42.2496 128.937 40.8607 128.937C40.6436 129.286 40.5033 129.839 40.1866 129.97C38.6348 130.6 38.1281 132.05 37.3364 133.3C36.7573 134.22 36.0334 135.05 35.2236 136.114C35.2146 136.64 35.3548 137.487 34.4907 138.027C34.3278 138.131 34.3685 138.561 34.3143 138.842Z" fill="#C8E4E6"/>
<path d="M125.247 31.4522C123.94 31.6063 123.6 32.9792 122.56 33.5819C121.121 34.4066 119.95 35.7206 118.723 36.8852C118.267 37.3202 117.769 37.7144 117.497 38.4077C117.262 38.9967 116.697 39.5269 115.823 39.6719C115.118 39.7897 114.453 40.3787 113.846 40.8591C112.191 42.1641 110.607 43.5688 108.924 44.833C107.884 45.6124 107.096 46.6319 106.314 47.597C105.816 48.2133 105.4 48.7163 104.712 49.1739C102.961 50.3339 101.36 51.7205 99.4596 53.2022C99.2741 53.2022 98.7674 53.2022 98.2471 53.2022C97.0573 54.5797 95.8538 55.8802 94.7635 57.2712C94.0487 58.1866 92.9358 58.3769 92.0581 58.9795C91.7142 59.2152 90.9994 59.1789 90.5787 58.9886C89.0405 58.2863 87.6742 58.5763 86.2717 59.3783C85.0592 60.0716 83.7698 60.6198 82.2949 61.3403C81.657 61.3403 80.7612 61.3403 79.7976 61.3403C79.5714 60.9008 79.3226 60.4159 79.1145 60.0081C79.0556 57.883 81.2318 57.7153 81.9828 56.3922C82.4804 56.3922 82.9283 56.3922 83.4712 56.3922C83.72 56.0206 83.996 55.6173 84.367 55.0645C84.3851 55.06 84.6113 55.0691 84.7968 54.9784C85.4257 54.6794 86.1179 54.4347 86.6427 53.9997C87.1222 53.6009 87.3982 52.9666 87.7873 52.4545C88.9183 50.9638 90.728 50.4472 92.1305 49.3733C92.2481 48.8431 92.2209 48.1725 92.5286 47.7556C93.2886 46.7406 93.7501 45.3948 95.2476 44.9644C95.9172 43.1383 97.1613 41.7608 99.0705 40.9542C100.03 40.5464 100.957 40.0797 101.4 38.9016C101.613 38.3352 102.436 37.8503 103.083 37.6373C104.169 37.2794 105.029 36.6994 105.812 35.698C105.626 34.9231 106.196 33.9217 105.346 33.0019C107.87 30.9266 110.616 29.5627 113.819 30.1427C115.154 28.8059 116.366 27.5916 117.425 26.5312C118.244 26.5312 118.751 26.5312 119.271 26.5312C119.325 26.785 119.37 26.9889 119.42 27.2019C120.524 27.9088 121.492 26.93 122.542 26.93C122.691 26.93 122.845 26.93 122.994 26.93C123.044 27.0569 123.094 27.1792 123.144 27.3061C123.243 27.1792 123.347 27.0569 123.447 26.93C123.75 26.93 124.048 26.93 124.352 26.93C124.84 28.1942 124.935 29.6578 126.161 30.555C126.161 30.7045 126.161 30.8586 126.161 31.0081C126.161 31.1577 126.161 31.3117 126.161 31.4613C125.849 31.4522 125.55 31.4522 125.247 31.4522Z" fill="#C8E4E6"/>
<path d="M124.359 42.7813C124.025 41.9521 123.74 41.2406 123.387 40.3706C125.02 38.531 126.983 37.0039 129.322 35.998C130.666 35.418 131.82 34.1991 133.711 34.7836C134.086 35.1461 134.892 35.5267 134.715 36.723C133.353 37.7833 132.449 39.6139 130.422 40.1124C130.173 40.1758 129.843 40.493 129.802 40.7377C129.639 41.7481 128.662 42.0608 128.228 42.7858C126.979 42.7813 125.775 42.7813 124.359 42.7813Z" fill="#BEDEDE"/>
<path d="M43.8136 78.5781C43.9629 79.0312 44.1167 79.4844 44.266 79.9375C44.4651 80.4495 44.6641 80.9616 44.8677 81.4781C43.4064 82.5203 42.6418 84.0383 41.2846 84.9808C40.0133 85.8644 38.9456 87.0334 37.4798 87.6406C37.534 86.9836 37.4571 86.3628 37.0273 85.8281C37.9141 84.3328 39.3075 83.558 41.1489 82.833C41.5425 82.4387 42.1758 81.8044 42.8861 81.093C42.8861 80.513 42.8861 79.8605 42.8861 79.1989C43.2254 78.9769 43.5195 78.7775 43.8136 78.5781Z" fill="#A8D1D8"/>
</svg>
