<svg width="87" height="141" viewBox="0 0 87 141" fill="none" xmlns="http://www.w3.org/2000/svg">
<path d="M35.4049 106.123C35.7351 106.123 36.0111 106.123 36.2871 106.123C36.7847 105.493 36.7712 104.732 36.7169 103.826C37.2281 103.672 37.6624 103.54 38.0967 103.404C38.988 102.435 39.8883 101.474 40.7705 100.495C42.0463 99.0861 42.0509 97.3189 40.7977 95.9142C40.196 95.2436 39.5988 94.5639 39.0016 93.8887C38.8749 93.8344 38.6351 93.7845 38.6351 93.7302C38.6125 92.475 38.6125 91.2198 38.6351 89.9692C38.6351 89.9148 38.8749 89.865 39.0016 89.8106C39.2323 88.9905 38.4361 88.7231 38.237 88.3787C38.9201 87.1327 39.549 85.9817 40.1824 84.8262C40.6846 84.8262 41.2003 84.8262 41.7206 84.8262C42.5938 83.4487 43.3312 81.9942 45.1635 81.5366C45.7245 81.3961 46.1317 80.6258 46.6112 80.15C47.4346 79.3344 48.2263 78.6094 49.5157 78.3873C50.217 78.265 51.2123 78.1155 51.7733 77.2953C51.918 77.0869 52.4474 77.1367 52.8138 77.0687C53.1758 76.5114 53.5603 75.9223 53.9313 75.3514C53.6598 73.5661 51.7552 73.3622 50.9046 71.9258C50.1536 72.3245 49.3981 72.5828 48.8371 73.0677C48.1992 73.6205 47.4708 73.4301 46.5886 73.5253C46.8012 74.3273 46.9777 74.9889 47.1632 75.6912C46.8601 76.7787 45.7788 77.0144 44.9282 77.608C44.2451 77.1548 43.5393 76.6836 42.9105 76.2622C41.9423 76.4434 41.0329 76.6156 39.9878 76.815C39.6259 77.1775 39.0875 77.6125 38.6849 78.1472C38.2687 78.7045 37.7755 79.3344 37.6941 79.9778C37.5176 81.4052 36.8345 82.5153 35.9614 83.5666C35.6175 83.9789 35.2782 84.4003 34.9389 84.8172C34.8891 85.2431 34.9117 85.6917 34.7805 86.0905C34.3417 87.4363 34.3191 88.3516 34.9389 89.5659C35.8528 91.3558 35.9749 93.3178 36.2961 95.2436C36.9159 95.7013 36.9159 96.1453 36.2961 96.603C36.1468 96.603 35.993 96.603 35.8437 96.603C35.6944 96.7525 35.5406 96.9066 35.3913 97.0561C35.3234 97.4005 35.6175 97.9216 34.9389 97.9624C34.7624 98.1119 34.5996 98.3611 34.405 98.3928C33.9888 98.4608 33.5545 98.4155 33.1292 98.4155C32.4416 98.3067 32.0525 98.6737 31.7675 99.2447C31.487 99.802 31.2381 100.391 30.8671 100.885C29.7949 102.321 28.6503 103.703 27.5735 105.135C27.379 105.398 27.3519 105.788 27.2478 106.119C27.0759 106.563 27.6686 107.265 26.7954 107.478C26.6235 107.922 27.2162 108.624 26.343 108.837C26.343 109.105 26.343 109.372 26.343 109.744C25.8091 109.744 25.3974 109.744 24.9857 109.744C24.7641 109.744 24.4157 109.653 24.3388 109.757C23.5154 110.917 22.1129 111.239 21.2624 111.882C20.8235 112.861 20.4706 113.6 20.1585 114.356C20.0544 114.61 20.0499 114.905 20.0046 115.181C20.0046 115.453 20.0046 115.729 20.0046 116.423C19.5387 115.779 19.317 115.48 19.0998 115.181C18.8872 114.891 18.6157 114.633 18.4709 114.311C17.3218 111.755 14.82 111.701 12.766 111.008C11.92 111.697 11.2097 112.277 10.5039 112.852C10.5446 112.988 10.5718 113.124 10.6215 113.255C10.9744 114.157 12.0331 114.384 12.49 115.154C13.2772 116.477 13.9739 117.85 14.5123 118.842C16.4486 120.279 18.6293 120.555 19.7241 121.887C20.4706 124.049 21.4614 125.752 21.3574 127.678C20.1087 128.548 20.5023 129.967 20.0046 131.04C19.8553 131.19 19.7015 131.344 19.5522 131.494C19.4029 131.643 19.2491 131.797 19.0998 131.947C18.7967 132.25 18.4981 132.549 18.195 132.853C17.9009 133.256 17.6023 133.66 17.2042 134.199C17.3851 135.264 17.444 136.51 17.8376 137.642C18.1045 138.413 18.8736 138.997 19.3577 139.704C19.6291 140.098 19.7875 140.57 20.0001 141.009C20.9049 141.009 21.8098 141.009 22.7146 141.009C22.6105 140.615 22.5065 140.221 22.3889 139.768C22.4703 139.659 22.6332 139.432 22.9137 139.047C22.5925 138.694 22.312 138.395 22.0722 138.132C21.5157 138.426 21.2126 138.585 20.9049 138.748C20.7556 138.571 20.5068 138.408 20.4751 138.213C20.4073 137.797 20.4525 137.362 20.4525 136.936C19.8327 136.478 19.8327 136.034 20.4525 135.576C20.6244 135.132 20.0318 134.43 20.9049 134.217C21.2035 134.217 21.5745 134.099 21.7872 134.235C23.2168 135.141 24.3252 134.525 25.4653 133.533C25.0536 131.988 25.9991 130.864 26.7863 129.686C26.7863 129.083 26.7863 128.476 26.7863 127.873C26.7863 127.57 26.7863 127.27 26.7863 126.967C26.5149 126.967 26.248 126.967 25.8815 126.967C25.8815 126.278 25.8815 125.716 25.8815 125.154C25.7322 125.005 25.5784 124.851 25.4291 124.701C25.2798 124.525 25.031 124.361 24.9993 124.167C24.9314 123.75 24.9767 123.315 24.9767 122.889C24.8274 122.739 24.6736 122.585 24.5243 122.436C24.375 122.286 24.2211 122.132 24.0719 121.982C23.9226 121.797 23.7687 121.606 23.6194 121.421C23.7687 121.307 23.9226 121.194 24.0719 121.076C25.0174 120.696 24.6147 119.794 24.375 119.436C23.9316 118.765 24.1126 118.194 24.1804 117.333C24.8862 117.161 25.6146 116.98 26.4516 116.776C26.2525 116.128 26.067 115.53 25.8815 114.923C27.0668 114.375 28.302 113.989 28.7815 112.562C28.9218 112.15 29.5189 111.882 29.9171 111.561C30.4102 111.162 30.9169 110.777 31.3105 110.469C31.3105 109.88 31.3105 109.503 31.3105 108.937C32.1565 108.343 33.0885 107.686 34.025 107.029L35.4049 106.123Z" fill="#C4E2E5"/>
<path d="M57.1028 109.391C56.6503 109.087 51.2168 104.615 50.7644 104.311C50.5744 103.563 50.0496 103.355 49.3393 103.4C48.9095 103.428 48.4797 103.405 48.0499 103.405C47.4482 103.405 46.842 103.405 46.2402 103.405C45.7878 103.405 45.3354 103.405 44.883 103.405C45.0413 102.567 45.0957 101.692 45.3807 100.899C45.7833 99.7934 46.3624 98.7513 46.9189 97.5641C47.2899 97.5641 47.7966 97.5641 48.3892 97.5641C48.9231 96.0053 50.5925 95.0311 50.2758 93.0645C50.7237 93.0645 51.0766 93.0645 51.3616 93.0645C51.9678 92.4528 52.4972 91.9227 53.031 91.3834C52.8365 90.7898 52.6419 90.1917 52.4746 89.6751C50.7418 88.2206 49.0271 86.7751 47.3622 85.375C46.8058 85.6605 46.2448 85.9505 45.6431 86.2586C44.3265 85.7783 43.019 85.3025 41.7116 84.8222C42.5847 83.4447 43.3222 81.9902 45.1545 81.5325C45.7155 81.392 46.1226 80.6217 46.6022 80.1459C47.4256 79.3303 48.2173 78.6053 49.5067 78.3833C50.208 78.2609 51.2033 78.1114 51.7643 77.2912C51.909 77.0828 52.4384 77.1326 52.8048 77.0647C53.1667 76.5073 53.5513 75.9183 53.9223 75.3473C53.6508 73.562 51.7462 73.3581 50.8956 71.9217C50.1446 72.3205 49.3891 72.5788 48.8281 73.0636C48.1902 73.6164 47.4618 73.4261 46.5796 73.5213C46.7922 74.3233 46.9687 74.9848 47.1541 75.6872C46.851 76.7747 45.7697 77.0103 44.9192 77.6039C44.2361 77.1508 43.5303 76.6795 42.9014 76.2581C41.9333 76.4394 41.0239 76.6115 39.9788 76.8109C39.6169 77.1734 39.0785 77.6084 38.6759 78.1431C38.2597 78.7005 37.7665 79.3303 37.6851 79.9738C37.5086 81.4011 36.8255 82.5112 35.9523 83.5625C35.6085 83.9748 35.2692 84.3962 34.9299 84.8131C33.0116 84.5005 31.4734 83.5172 30.1976 82.1034C28.673 81.8995 27.1664 81.7001 25.601 81.4962C25.0717 80.4994 24.479 79.3847 23.6737 77.8712C23.6737 77.8486 23.6737 77.3456 23.6737 76.8336C23.9452 76.7067 24.2212 76.5844 24.8817 76.2808C23.8004 76.2808 23.1444 76.2808 22.4432 76.2808C22.3708 76.018 22.3753 75.6872 22.2577 75.6373C20.6788 74.9395 20.1132 73.4669 19.5749 72.0305C19.1586 70.9248 18.195 70.2497 17.6883 69.1984C17.1047 67.9886 16.1818 66.9464 15.4081 65.8317C14.7521 65.8317 14.164 65.8317 13.4627 65.8317C12.49 64.4316 10.8116 64.4587 9.29599 63.7609C9.01549 63.2761 8.71689 62.5284 8.21923 61.962C7.75777 61.4364 7.08367 61.1011 6.40957 60.6162C6.69912 59.7915 6.98865 58.9533 7.32343 58.0062C6.95245 57.313 6.50006 56.5245 6.10193 55.7089C5.70381 54.8978 5.35543 54.0595 4.93016 53.108C5.28305 52.7137 5.61783 52.3422 5.97524 51.9389C5.97524 51.5311 5.97524 51.0825 5.97524 50.5478C6.491 50.1309 7.04294 49.6778 7.80752 49.057C8.39114 47.829 8.68521 46.2612 8.76664 44.5666C8.82998 43.2887 9.52671 41.8841 9.06072 40.715C8.63997 39.6592 8.47711 38.5491 8.78475 37.738C9.23717 36.5462 8.99286 35.4225 9.17383 34.3531C8.24185 32.7989 8.24185 32.7989 8.24185 28.2812C7.41845 27.6514 6.46838 26.9264 5.64499 26.2966C3.6996 26.8222 1.96685 27.1802 0.754374 28.6755C0.654842 28.4353 0.605071 28.3084 0.550781 28.177C0.700078 27.4203 0.921772 26.6681 0.98511 25.9023C1.06202 25.0142 0.998677 24.1125 1.00773 23.2198C1.00773 23.0884 1.09367 22.957 1.16606 22.7441C2.21114 22.6897 3.43267 23.0114 4.16558 21.8333C4.16558 21.6837 4.16558 21.5297 4.16558 21.3801C4.31488 21.3801 4.4687 21.3801 4.618 21.3801C4.83063 22.2547 5.53188 21.6611 5.97524 21.8333C6.08835 21.9828 6.20146 22.1369 6.31908 22.2864C6.50457 22.1369 6.69458 21.9828 6.88007 21.8333C7.02937 21.6837 7.18319 21.5297 7.33249 21.3801C7.73062 20.8001 8.12875 20.2247 8.55855 19.5994C8.6988 19.5495 8.93857 19.4634 9.14215 19.3909C9.14215 18.7702 9.14215 18.2626 9.14215 17.7551C9.29145 17.6056 9.44527 17.4516 9.59457 17.302C9.87507 17.2477 10.2641 17.2975 10.4134 17.1253C11.739 15.6209 13.5035 15.1361 15.4624 14.9458C15.4624 13.3372 15.4624 11.7739 15.4624 10.2695C16.3265 9.57172 16.5934 8.32563 17.8421 8.34829C18.6067 8.53407 19.5749 8.93734 20.1087 8.62015C20.9773 8.09906 21.561 9.06874 22.2667 8.69265C22.2667 8.96453 22.2667 9.23641 22.2667 9.4811C22.5382 9.54 22.6739 9.6125 22.8006 9.58984C23.0675 9.54906 23.3254 9.4539 23.5923 9.40406C24.6691 9.20922 25.6599 8.64281 26.7864 8.69265C26.7864 9.27265 26.7864 9.85718 26.7864 10.2786C27.1031 10.5958 27.2614 10.7544 27.4107 10.9039C28.0803 10.9039 28.7318 10.9039 28.9625 10.9039C31.1024 9.8164 32.4868 8.06735 34.7127 8.2486C35.0701 8.60657 35.3325 8.86937 35.6944 9.23187C36.4545 9.11406 37.296 8.98719 38.3366 8.8286C39.6214 9.60344 41.2953 8.89203 42.7386 9.18203C43.5891 9.61703 44.3356 10.0022 45.2857 10.4916C45.7969 10.2378 46.6429 10.8903 47.3713 10.12C47.5206 9.96141 48.1675 10.197 48.5521 10.342C49.7238 10.777 50.9861 10.6592 51.8547 9.97952C52.7551 9.27265 53.7458 9.06421 54.723 8.67906C56.673 7.91781 58.5369 7.01156 59.7177 5.32594C59.7177 4.7414 59.7177 4.23843 59.7177 3.76718C59.4146 3.70375 59.211 3.65844 59.0119 3.61312C59.0119 2.86547 59.0119 2.15859 59.0119 1.43359C59.9394 1.43359 60.7673 1.48343 61.5862 1.41546C62.0612 1.37468 62.5136 1.13453 62.9796 0.980469C62.9796 2.01359 62.9796 3.04219 62.9796 3.9711C64.0292 4.21578 64.916 4.42422 65.8751 4.65078C66.2959 4.15235 66.7256 3.64484 67.1735 3.11922C68.4222 3.32766 69.5487 3.51344 70.6752 3.69922C70.9783 4.15234 71.2769 4.60547 71.5801 5.05859C71.7294 5.51172 71.8832 5.96484 72.0325 6.41797C71.4398 6.87562 71.0915 7.45562 71.1276 8.23047C70.2635 8.76062 70.1821 9.60344 70.2228 10.4961C70.2228 11.2528 70.2228 12.005 70.2228 12.7617C70.2228 12.9112 70.2228 13.0653 70.2228 13.2148C69.5849 14.0622 69.5849 15.0862 70.2228 15.9336C70.2228 16.6586 70.1911 17.3836 70.2454 18.1041C70.259 18.2944 70.5259 18.4711 70.6752 18.6523C70.7024 19.2097 70.5712 19.7534 71.0914 20.2519C71.5167 20.6597 71.7248 21.2895 72.0325 21.8242C72.0732 22.5039 72.5935 22.2094 72.9373 22.2773C73.1138 23.1655 73.2902 24.0581 73.4983 25.0867C74.2493 24.8919 74.9098 24.5702 75.5658 24.5837C76.2173 24.5973 76.8598 24.9463 77.2443 25.0686C78.0813 26.7225 78.1265 28.1634 77.3122 29.6633C77.7058 29.9533 78.036 30.1934 78.3663 30.4381C78.5156 30.4381 78.6694 30.4381 78.8187 30.4381C78.968 30.5877 79.1218 30.7417 79.2711 30.8913C79.1218 30.8913 78.968 30.8913 78.8187 30.8913C78.6694 31.0725 78.3708 31.2719 78.3889 31.4395C78.493 32.4681 78.6649 33.4922 78.8187 34.5163C78.4975 34.7473 78.1763 34.9784 77.9772 35.1234C78.1265 35.9345 78.2441 36.5825 78.3663 37.235C78.0315 37.5114 77.6922 37.7878 77.3665 38.0506C77.6017 38.4811 77.7555 38.762 77.9139 39.0475C78.0632 39.3511 78.217 39.6502 78.3663 39.9538C78.3663 41.0095 78.3663 42.0698 78.3663 43.1256C77.8686 43.2752 77.3574 43.402 76.8733 43.5923C76.7331 43.6467 76.6607 43.8778 76.5566 44.0319C76.4073 44.2086 76.1585 44.3717 76.1268 44.5666C76.059 44.9834 76.1042 45.4184 76.1042 45.8444C75.2311 46.0573 75.8237 46.7597 75.6518 47.2038C75.5025 47.317 75.3487 47.4303 75.1994 47.5481C75.3487 47.7339 75.5025 47.9242 75.6518 48.11C75.7694 49.5645 75.6066 50.9556 74.756 52.2017C74.6882 52.3014 74.747 52.4917 74.747 52.6413C74.5977 52.7908 74.4439 52.9448 74.2946 53.0944C74.2946 53.398 74.2946 53.697 74.2946 54.0006C74.8058 54.7211 74.8737 55.7089 75.6518 56.2663C75.8011 56.4158 75.9549 56.5698 76.1042 56.7194C76.4073 57.7752 76.7059 58.8355 77.0091 59.8913C76.8552 61.0694 76.6969 62.252 76.5431 63.4528C76.9412 63.7564 77.2353 63.9784 77.4841 64.1642C77.4841 64.862 77.4841 65.4556 77.4841 65.9722C78.4884 67.3814 80.176 67.5853 81.4246 68.4961C82.8497 68.265 82.8407 69.3842 82.99 70.2044C83.3338 70.3222 83.5826 70.4128 83.8179 70.4944C83.8179 70.8931 83.8179 71.1876 83.8179 71.5139C84.0848 71.609 84.3427 71.6997 84.6142 71.7994C84.6866 72.2026 84.7589 72.615 84.8132 72.9231C85.6095 73.127 86.2881 73.3037 86.9667 73.4805C87.1251 74.1012 86.6998 74.4184 86.3379 74.8036C85.329 75.8639 84.0984 76.7384 83.4696 78.125C83.3836 78.3153 83.3474 78.5283 83.2614 78.8273C82.809 78.8273 82.3114 78.8273 81.8589 78.8273C81.1803 80.0236 81.1803 80.0236 78.0768 81.2516C77.4388 82.2258 78.0903 83.2 78.4387 83.8978C79.4476 85.9278 79.2892 87.7901 78.3844 89.7341C78.2758 89.9697 78.3708 90.3005 78.3708 90.6901C76.9322 90.9031 75.584 91.098 73.8241 91.3608C73.1861 91.7731 72.1772 92.4256 71.2905 93.0011C71.105 94.0478 70.9422 94.9541 70.725 96.1684C70.9241 96.5808 71.2543 97.265 71.5846 97.9538C71.5846 98.1033 71.5846 98.2573 71.5846 98.4069C71.4262 98.937 71.1141 99.218 70.5305 99.3448C70.0961 99.44 70.9015 100.858 70.6843 101.221M56.1934 106.124C56.2929 106.554 56.3925 106.985 56.4965 107.42C56.0577 107.388 55.456 107.882 55.2886 107.03M61.2197 103.405C62.387 103.405 63.3642 103.405 64.3369 103.405C64.1242 104.447 64.0157 105.525 63.6718 106.518C63.414 107.261 63.2058 107.855 63.7759 108.539C64.0157 108.829 64.0066 109.25 63.4321 109.295C63.2828 109.445 63.1289 109.599 62.9796 109.749C62.1065 109.962 62.6991 110.664 62.5272 111.108C62.3779 111.257 62.2241 111.412 62.0748 111.561C61.2152 111.665 61.8441 112.422 61.5229 112.794C60.9709 113.011 60.3918 113.233 59.8263 113.455C59.3196 112.939 58.8762 112.49 58.3424 111.951C58.5098 111.38 58.6817 110.782 58.8988 110.03C58.0392 109.241 58.5912 108.086 58.451 107.025C58.8265 107.025 59.202 107.025 59.5775 107.025C59.9801 106.205 60.5864 105.43 60.2787 104.719" fill="#E10B17"/>
<path d="M72.4785 101.139C72.4785 101.515 72.4785 101.891 72.4785 102.353C71.5239 102.729 71.0986 103.794 70.1938 104.297C70.0219 104.392 69.7504 104.311 69.5831 104.311C69.203 104.877 68.8411 105.407 68.4249 106.028C69.2754 106.517 70.1938 107.047 71.0715 107.55C71.1348 109.449 71.3701 111.207 72.0125 112.884C72.7771 112.884 73.3652 112.884 74.0936 112.884C74.3153 113.192 74.5777 113.554 74.7632 113.817C75.4011 113.817 75.849 113.817 76.3286 113.817C76.8353 114.352 77.351 114.896 77.9075 115.485C77.9075 115.707 77.9075 116.006 77.9075 116.305C78.5363 116.568 79.1607 116.83 79.9886 117.179C78.6133 118.869 77.8577 120.709 76.3286 121.991C75.9395 122.318 75.7766 122.766 75.5866 123.265C75.2699 124.094 75.0528 124.964 74.4737 125.761C73.6141 126.949 73.4919 128.53 73.2928 130.007C72.6142 130.143 71.9266 130.284 70.9358 130.483C70.8136 130.442 70.3341 130.324 69.8907 130.13C69.5107 129.962 69.1668 129.713 68.7461 129.459C68.9768 129.001 69.1623 128.625 69.4202 128.1C69.117 127.932 68.7868 127.751 68.1715 127.411C67.8865 127.569 67.2802 127.909 66.5066 128.34C66.0813 127.964 65.5384 127.488 64.9639 126.98C63.8283 126.89 62.6656 126.944 61.8105 127.927C61.2631 128.557 60.6071 128.281 59.7656 128.281C60.1999 125.979 61.2903 124.153 62.9914 122.676C62.8963 122.581 62.8511 122.499 62.7923 122.481C62.652 122.449 62.5027 122.449 62.2132 122.427C61.987 121.529 61.7517 120.582 61.4396 119.332C61.34 119.273 60.9374 119.051 60.7926 118.965C60.6297 117.614 61.0052 116.54 60.2723 115.643C61.3446 114.814 62.4892 114.035 62.5344 112.471C62.9959 112.326 63.4573 112.186 63.9912 112.018C64.4707 112.299 65.0137 112.612 65.6244 112.965C65.8551 114.13 66.0859 115.299 66.3347 116.563C66.7057 116.536 67.1128 116.504 67.4929 116.477C67.5698 114.646 67.5065 113.001 66.1492 111.76C66.1492 110.324 66.1492 108.905 66.1492 107.487C66.4207 107.487 64.887 103.957 65.2489 103.957C65.2489 102.96 66.6061 104.818 66.6061 103.957C66.484 102.956 67.7508 102.992 68.3389 103.051C69.3795 103.151 69.5468 102.077 70.411 102.004C71.1167 101.936 71.7908 101.442 72.4785 101.139Z" fill="#E10B17"/>
<path d="M72.4785 101.141C71.7908 101.444 71.1167 101.938 70.4064 101.997C69.5423 102.07 69.3749 103.143 68.3344 103.044C67.7417 102.989 66.9274 103.764 67.0495 104.766C66.9274 104.815 66.7102 104.838 66.6921 104.915C66.493 105.767 66.3211 106.628 66.1447 107.484C66.1447 108.903 66.1447 110.321 66.1447 111.757C67.5019 112.999 67.5653 114.644 67.4884 116.474C67.1038 116.502 66.7012 116.533 66.3302 116.56C66.0814 115.296 65.8461 114.127 65.6199 112.963C65.0091 112.609 64.4707 112.297 63.9866 112.016C63.4528 112.183 62.9913 112.324 62.5299 112.469C61.8513 112.428 62.1453 111.907 62.0775 111.562C62.2268 111.413 62.3806 111.259 62.5299 111.109C63.403 110.896 62.8104 110.194 62.9823 109.75C63.1316 109.6 63.2854 109.446 63.4347 109.297C64.0093 109.256 64.0183 108.83 63.7786 108.54C63.2085 107.856 63.4166 107.262 63.6745 106.519C64.0229 105.527 64.1314 104.448 64.3395 103.406C65.0544 103.406 65.7692 103.406 66.1537 103.406C67.425 102.785 66.9409 101.884 67.054 101.141C67.977 101.159 68.7958 101.041 69.3478 100.112C69.5649 99.7495 70.0897 99.4595 70.5286 99.3598C71.1077 99.233 71.4244 98.952 71.5827 98.4219C71.9266 98.3539 72.4468 98.6484 72.4876 97.9688C72.8314 97.9008 73.3517 98.1953 73.3924 97.5156C75.2428 97.5156 77.0886 97.5202 78.939 97.5111C79.2647 97.5111 79.7262 97.6697 79.7262 97.0625C79.8891 96.5278 80.2148 96.2741 80.7848 96.1155C81.2192 95.9931 81.554 95.4992 81.9702 95.1367C82.6171 95.395 83.1962 95.6261 83.8929 95.9025C83.7029 96.5323 83.522 97.1305 83.4044 97.5292C82.7212 98.0956 82.1964 98.585 81.6173 98.9928C81.3459 99.1831 80.9613 99.2194 80.631 99.3236C78.7807 99.3236 76.9348 99.3191 75.0844 99.3281C74.7587 99.3281 74.2972 99.1696 74.2972 99.7767C73.6865 100.234 73.0802 100.688 72.4785 101.141Z" fill="#BEDEDE"/>
<path d="M62.0757 111.562C62.1435 111.906 61.8495 112.427 62.5281 112.468C62.4828 114.031 61.3382 114.811 60.266 115.64C59.6462 116.125 59.0309 116.605 58.3658 117.126C57.7958 115.518 57.2665 114.022 56.8141 112.754C56.9588 111.589 57.081 110.592 57.2212 109.437C56.2847 109.165 55.4206 108.92 54.2217 108.571C53.8553 108.34 53.9955 107.203 53.0273 107.035C53.0273 106.886 53.0273 106.732 53.0273 106.582C53.4798 106.582 53.9322 106.582 54.3846 106.582C54.4253 107.262 54.9456 106.967 55.2894 107.035C55.4568 107.887 56.054 107.398 56.4974 107.425C56.3978 106.99 56.2983 106.559 56.1943 106.129C56.5924 106.419 56.986 106.709 57.4293 107.035C57.7234 107.035 58.0899 107.035 58.4563 107.035C58.5966 108.091 58.0446 109.251 58.9042 110.039C58.6871 110.792 58.5106 111.39 58.3478 111.961C58.8771 112.5 59.3205 112.948 59.8317 113.465C60.3972 113.243 60.9763 113.021 61.5283 112.803C61.8449 112.423 61.2161 111.666 62.0757 111.562Z" fill="#A8D1D8"/>
</svg>
