<svg width="97" height="101" viewBox="0 0 97 101" fill="none" xmlns="http://www.w3.org/2000/svg">
<path d="M80.4103 4.53092C80.4103 4.38139 80.4103 4.22732 80.4103 4.07779C80.8628 3.92826 81.3152 3.7742 81.7676 3.62467C81.8219 3.75154 81.8581 3.98264 81.9259 3.9917C82.9348 4.11405 83.9437 4.15029 84.9345 3.98717C84.9345 3.62014 84.9345 3.3981 84.9345 3.17154C85.8981 4.24092 86.8618 5.31029 87.8843 6.4431C88.2914 6.2392 88.6669 6.05342 88.8977 5.94014C89.5627 6.60623 90.187 7.23608 90.8159 7.86139C90.8883 7.75717 90.9562 7.65748 91.0285 7.55327C92.1505 7.73905 93.268 7.92936 94.3991 8.11514C94.4217 8.58639 94.4352 8.87639 94.4488 9.18451C93.9919 9.49264 93.5349 9.80529 92.9422 10.204C93.1368 11.3958 93.1278 12.6917 93.6028 13.7747C93.9466 14.5586 94.1095 15.0344 93.553 15.7095C93.4083 15.8862 93.5304 16.2805 93.5304 16.6701C94.0733 16.6701 94.571 16.6701 95.0596 16.6701C95.4486 17.1278 95.7879 17.5265 96.2449 18.0612C96.5887 19.7831 96.0006 21.079 94.1864 22.1983C93.5711 22.1983 92.888 22.1167 92.232 22.2209C91.6212 22.3161 91.0421 22.6061 90.3499 22.8462C89.0786 25.0303 87.1332 27.0376 87.7123 30.1053C87.097 30.6264 86.3506 31.075 85.871 31.723C85.3869 32.3845 84.7942 32.7878 84.1699 33.2681C83.4913 33.7892 83.1248 34.7498 82.6815 35.5519C82.4145 36.0367 82.3964 36.739 82.0255 37.0653C80.9985 37.9715 80.5596 39.1451 80.1298 40.3686C79.9715 40.8262 79.7136 41.2522 79.501 41.6872C78.5283 41.4923 77.5556 41.2975 76.7684 41.1434C75.9088 41.959 75.2076 42.6251 74.5289 43.264C74.5289 44.057 74.5289 44.8001 74.5289 45.5025C75.0718 46.0598 75.5921 46.5945 76.1033 47.1247C76.4924 47.1247 76.8679 47.1247 77.2389 47.1247C77.2389 47.5008 77.343 47.9131 77.2163 48.2439C76.9946 48.8239 76.4743 49.3223 76.3657 49.9114C76.0852 51.4022 75.9586 52.9247 75.7776 54.3973C76.4517 55.4939 77.1122 56.4908 77.6823 57.5329C78.5057 59.0328 78.9943 60.6278 79.0712 62.3723C79.1345 63.8133 79.4014 65.2451 79.5598 66.5048C78.5871 69.1148 76.1034 70.0075 74.4837 71.8925C74.6375 72.5042 74.8094 73.1839 74.9768 73.8636C75.1171 74.0992 75.2528 74.3394 75.4157 74.6112C75.1578 74.7019 74.8954 74.7925 74.5787 74.9058C74.5787 75.2411 74.5787 75.5945 74.5787 76.0975C75.7776 76.537 75.9948 78.1003 77.2434 78.6486C77.2434 79.2467 77.2434 79.8448 77.2434 80.4837C78.4197 81.2812 78.6188 82.5726 78.6957 83.9229C79.3381 84.1359 79.8629 84.3126 80.4375 84.5029C80.3832 84.8519 80.347 85.2098 80.2656 85.5542C80.1841 85.894 80.0574 86.2203 79.9534 86.5511C79.6819 86.5511 79.4105 86.5511 79.0079 86.5511C79.0079 87.3803 79.0079 88.0736 79.0079 88.7578C78.4107 88.785 78.094 88.8711 78.0894 89.5009C78.0894 89.7275 77.5375 89.9495 77.2389 90.1761C76.9358 90.4162 76.6372 90.6564 76.5196 90.747C75.9314 92.9039 75.3931 94.875 74.8864 96.7419C74.4068 97.0545 73.9951 97.3219 73.6196 97.562C73.6196 98.6359 73.6196 99.6147 73.6196 100.598C73.4703 100.598 73.3164 100.598 73.1672 100.598C72.6469 100.598 72.1131 100.657 71.6063 100.58C71.0634 100.498 70.5341 100.294 70.0002 100.145C70.0002 99.9183 70.0002 99.6917 70.0002 99.4017C69.5071 99.2023 68.9959 98.8217 68.4801 98.8172C66.6659 98.799 64.9739 98.1737 63.214 97.8792C62.0061 97.8792 60.8026 97.8792 59.5947 97.8792C59.4092 97.7297 59.2282 97.4533 59.0382 97.4487C58.0203 97.4034 56.9978 97.4261 55.9754 97.4261C55.8577 97.2765 55.7582 97.0183 55.6134 96.9911C55.057 96.8778 54.5231 97.0228 53.935 96.6286C53.5685 96.3839 52.7542 96.7962 52.3877 96.8687C51.8312 96.4654 51.3562 96.1165 50.8721 95.7676C51.1119 95.1015 51.2974 94.5714 51.4376 94.1726C51.0983 93.6606 50.8721 93.1939 50.5328 92.8314C49.5511 91.7983 50.3654 90.8014 50.5554 89.8045C50.7681 88.708 49.6099 87.7745 50.2206 86.6508C50.2568 86.5873 50.3654 86.5465 50.3699 86.4876C50.5328 85.2098 51.4422 83.932 50.9309 82.6995C49.9582 80.3478 49.343 77.6245 46.4022 76.7319C46.3389 76.7137 46.2982 76.6276 46.2529 76.5778C45.3391 76.5778 44.4342 76.5778 43.543 76.5778C42.2672 77.8284 40.7425 77.4478 39.2405 77.4478C39.2405 77.1215 39.2405 76.9765 39.2405 76.8089C40.4575 76.3422 41.6926 75.8709 43.0363 75.3589C43.7601 73.5147 44.5609 71.6251 44.6469 69.5453C44.7147 67.9639 44.6604 66.378 44.6604 64.7965C44.9635 64.7965 45.2621 64.7965 45.5653 64.7965C45.5653 64.8736 45.5472 65.0095 45.5698 65.014C47.0763 65.4037 48.5829 65.4037 50.0894 65.014C50.1075 65.0095 50.0939 64.8736 50.0939 64.7965C50.8495 64.7965 51.6005 64.7965 52.356 64.7965C52.9306 64.7965 53.5097 64.8328 54.0752 64.7739C54.2698 64.7558 54.4371 64.493 54.6181 64.3434C54.7674 64.3434 54.9212 64.3434 55.0705 64.3434C55.2198 64.1939 55.3736 64.0398 55.5229 63.8903C55.5229 63.3284 55.5229 62.7665 55.5229 62.0778C55.1565 62.0778 54.8896 62.0778 54.6181 62.0778C54.5005 61.9283 54.3829 61.6473 54.2652 61.6428C52.6908 61.6111 51.1164 61.6111 49.5465 61.6428C49.4244 61.6473 49.3113 61.9237 49.1936 62.0778C47.4518 61.96 45.7146 62.2228 43.9547 61.6926C42.7829 61.3392 41.4211 61.6247 40.1453 61.6247C40.0956 61.4978 40.0458 61.3754 39.996 61.2486C39.8965 61.3754 39.7924 61.4978 39.6929 61.6247C38.9374 61.4751 38.1864 61.3211 37.4308 61.1715C37.3177 61.022 37.2046 60.868 37.087 60.7184C36.9015 60.868 36.7115 61.022 36.526 61.1715C36.3767 61.1715 36.2229 61.1715 36.0736 61.1715C35.9605 61.022 35.8474 60.868 35.7297 60.7184C35.5443 60.868 35.3542 61.022 35.1688 61.1715C34.5037 61.7651 33.6894 61.6111 32.9067 61.6247C32.0018 61.6247 31.097 61.6247 30.1922 61.6247C29.8891 61.4751 29.5905 61.3211 29.2874 61.1715C29.1381 61.022 28.9842 60.868 28.8349 60.7184C28.6856 60.5689 28.5318 60.4148 28.3825 60.2653C28.5228 58.9558 27.5275 58.9603 26.6407 58.7836C26.6045 58.4392 26.5638 58.0858 26.5548 57.9679C25.6092 56.7762 24.813 55.7295 23.9669 54.7281C23.6005 54.2886 23.2431 53.7222 22.5011 53.9215C22.5011 53.704 22.5011 53.4865 22.5011 53.269C21.3656 52.6664 20.1576 52.4398 18.8818 52.5622C18.8818 52.109 18.8818 51.6559 18.8818 51.2028C19.3749 50.1062 19.5966 48.9417 19.8138 47.8225C18.5108 46.812 17.0766 47.1972 15.7149 47.1247C15.5656 46.9751 15.4118 46.8211 15.2625 46.6715C15.1132 46.522 14.9593 46.3679 14.81 46.2184C14.6607 46.2184 14.5069 46.2184 14.3576 46.2184C13.7831 46.2184 13.204 46.1822 12.6385 46.2411C12.4439 46.2592 12.2765 46.522 12.0956 46.6715C11.6431 46.8211 11.1907 46.9751 10.7383 47.1247C10.3945 47.1926 9.87419 46.8981 9.83347 47.5778C8.7703 47.4872 7.63926 47.8723 6.66656 47.1247C6.6168 46.9978 6.56702 46.8754 6.51726 46.7486C6.41773 46.8754 6.31368 46.9978 6.21415 47.1247C5.60338 47.2379 4.99715 47.3512 4.40448 47.4645C3.81182 47.3558 3.20558 47.2379 2.59482 47.1247C2.5541 46.445 2.03382 46.7395 1.68999 46.6715C1.56331 46.6172 1.43212 46.5673 1.30545 46.5129C1.62214 46.0734 1.93429 45.6294 2.19669 45.2623C1.90715 44.4603 0.866591 45.3575 0.785156 44.4059C2.30075 44.2337 3.88873 44.8092 5.33646 43.9528C6.40868 44.4422 8.95579 44.6053 9.35391 44.202C9.37201 43.844 9.39463 43.4861 9.41273 43.1372C11.4531 43.0873 13.1316 41.6962 15.2127 42.1947C15.8325 41.1117 16.398 40.1284 17.14 38.8325C17.0405 38.1256 16.8957 37.0608 16.7328 35.8736C17.796 36.4083 17.3255 34.7453 18.3299 34.7045C19.1171 34.6728 19.8816 34.1381 20.5557 33.8662C22.0894 30.9073 20.325 28.4423 19.6373 25.9547C19.0401 25.6737 18.5379 25.4381 18.0539 25.2115C17.7507 24.414 17.4567 23.6347 17.1536 22.8236C17.986 21.9898 18.8908 21.0836 19.7821 20.1909C19.7957 18.75 19.7595 18.7273 20.2481 17.8755C21.162 16.285 22.1211 14.7217 23.0757 13.1267C24.2927 13.1856 25.3604 13.0678 26.3783 12.2839C26.9936 11.8126 27.9708 11.8126 28.6178 11.6404C28.8621 11.0967 29.0883 10.6662 29.2512 10.2086C29.3145 10.0319 29.2285 9.80076 29.2059 9.51983C28.6449 9.51983 28.1382 9.51983 27.5817 9.51983C27.5274 9.24795 27.4868 9.03951 27.437 8.80389C26.8669 8.51389 26.2516 8.20576 25.6409 7.89764C25.6409 7.5578 25.6409 7.26327 25.6409 7.10014C25.0165 6.56092 24.4917 6.1078 23.9081 5.60483C23.9081 5.36467 23.9081 5.01123 23.9081 4.5717C25.0527 4.36327 26.1657 4.16389 27.1565 3.98264C27.5727 4.39951 27.8396 4.66686 28.2604 5.08827C28.6223 4.9342 29.1335 4.83451 29.4683 4.53092C29.8348 4.20014 30.165 4.00529 30.6446 4.07779C30.6446 4.34514 30.6446 4.61248 30.6446 4.98404C31.1784 4.98404 31.5901 4.98404 32.0018 4.98404C32.6036 4.98404 33.2098 4.98404 33.8115 4.98404C33.9608 4.98404 34.1146 4.98404 34.2639 4.98404C34.3363 5.72717 35.0873 5.53686 35.2412 5.40092C36.0012 4.73936 36.9015 5.10186 37.7701 4.92967C37.9466 4.66232 38.1411 4.36779 38.3357 4.07779C39.1093 4.11404 39.892 4.17295 40.1453 3.17154C41.7333 3.14435 43.3665 3.02201 43.9954 4.98404C44.9907 4.98404 45.9589 4.93873 46.918 5.0067C47.384 5.03842 47.8319 5.28764 48.2888 5.43717C48.2888 5.71357 48.2888 5.99451 48.2888 6.34342C49.3294 6.34342 50.2161 6.36154 51.1029 6.32529C51.225 6.32076 51.3381 6.04435 51.4557 5.89029C52.2067 6.09873 52.7768 5.47342 53.469 5.44623C54.2743 5.41451 55.0841 5.4417 55.8894 5.43717C56.0251 5.43717 56.1609 5.38279 56.4459 5.32389C56.5861 4.64873 56.7354 3.91467 56.8892 3.17608C57.1607 3.17608 57.4276 3.17608 57.7941 3.17608C57.7941 2.48733 57.7941 1.92545 57.7941 1.36358C57.9434 1.36358 58.0972 1.36358 58.2465 1.36358C59.2825 1.55389 60.314 1.73967 61.2867 1.91639C61.7029 2.46014 60.9022 3.32561 61.8658 3.6292C63.4538 5.3692 63.6936 5.54139 65.1096 5.91295C65.6163 5.61842 66.1592 5.30123 66.6343 5.02483C66.9148 4.20467 67.1636 3.47967 67.322 3.02655C67.9146 2.60061 68.2856 2.33326 68.7154 2.02514C68.4575 1.92092 68.3308 1.86654 68.2042 1.81217C68.2042 1.66264 68.2042 1.50857 68.2042 1.35904C68.738 0.928573 69.3578 0.851545 70.0138 0.90592C70.1631 0.90592 70.317 0.90592 70.4662 0.90592C70.4662 1.48592 70.4662 2.06139 70.4662 2.50092C71.3756 2.95404 72.113 3.32108 72.9093 3.71983C73.1762 3.59748 73.416 3.45248 73.6739 3.37092C74.0086 3.26217 74.357 3.20327 74.6466 3.1353C75.2483 3.4978 75.5062 4.31795 76.3522 4.08233C76.5377 4.23186 76.7186 4.50826 76.9086 4.51279C77.9266 4.55811 78.949 4.53545 79.9715 4.53545M45.5743 19.9372C45.9634 20.6395 46.2937 21.3283 45.8548 22.162Z" fill="#E10B17"/>
<path d="M81.7695 3.625C81.86 3.30781 81.8962 2.95891 82.0546 2.67797C82.3124 2.22031 82.6472 1.80344 82.9594 1.35938C83.1539 1.35938 83.3666 1.35938 83.5792 1.35938C84.0542 1.94844 83.9864 2.94078 84.9364 3.17187C84.9364 3.39844 84.9364 3.62047 84.9364 3.9875C83.9457 4.15516 82.9368 4.11891 81.9279 3.99204C81.86 3.98751 81.8238 3.75187 81.7695 3.625Z" fill="#E10B17"/>
</svg>
