<svg width="191" height="129" viewBox="0 0 191 129" fill="none" xmlns="http://www.w3.org/2000/svg">
<path d="M4.29495 41.1557C4.47592 41.0741 4.66142 40.988 4.99621 40.834C5.88747 41.346 6.90087 41.9305 7.91428 42.5151C8.09525 43.9379 7.35782 45.1341 6.91897 46.4709C5.02787 47.1052 3.42179 48.2743 2.11883 50.0279C0.956125 48.8905 1.30448 47.4405 0.476562 46.2896C1.40854 45.8365 2.21837 45.4468 3.02819 45.0526C3.09153 45.1387 3.15035 45.2202 3.21369 45.3063C3.72492 44.613 4.23162 43.9152 4.73833 43.2265C3.98279 42.6555 4.40806 41.849 4.29495 41.1557Z" fill="#D9D9D9"/>
<path d="M180.737 31.1861C180.737 31.4127 180.832 31.7208 180.724 31.8522C179.864 32.8536 178.909 33.7463 178.113 34.8292C177.602 35.527 176.453 35.808 175.543 36.1569C173.992 36.7505 172.512 37.3984 171.562 39.0569C172.408 39.3061 173.177 39.5327 173.897 39.7456C174.005 43.7603 174.005 43.7603 170.702 46.18C170.494 46.0259 170.268 45.8537 169.997 45.6544C169.576 45.8401 169.128 46.035 168.599 46.2661C168.599 46.8642 168.599 47.5258 168.599 48.1465C167.382 49.1797 166.079 49.8549 164.541 50.2944C164.541 50.6206 164.541 50.9741 164.541 51.3683C162.618 52.3561 162.894 54.6716 161.618 56.0672C160.853 56.0672 160.111 56.0672 159.288 56.0672C157.813 57.8253 156.252 56.8284 154.818 56.0536C152.592 57.0142 152.561 57.0505 152.235 58.8766C151.063 59.7149 150.018 60.458 149.068 61.1377C149.068 61.7131 149.068 62.0892 149.068 62.4653C150.086 63.6661 150.086 63.6661 151.606 64.2959C152.144 65.4151 152.515 66.6431 153.931 67.1642C154.429 67.35 155.09 67.8756 154.977 68.7411C154.949 68.9586 155.275 69.2078 155.384 69.4616C155.94 70.7802 156.655 72.067 156.279 73.5215C156.614 73.8569 156.881 74.1242 157.148 74.3916C157.374 75.5969 157.08 76.6164 156.352 77.6405C155.719 78.5286 155.497 79.6252 156.492 80.7081C155.804 81.1703 155.18 81.5872 154.556 82.0086C154.646 82.1264 154.737 82.2442 154.827 82.362C154.017 82.362 153.212 82.362 152.502 82.362C150.9 83.7033 151.52 86.0912 149.729 87.3509C147.313 87.2377 145.146 89.0774 142.553 88.6967C141.164 93.0649 141.182 93.8805 142.798 97.5417C142.092 98.1806 141.354 98.8512 140.477 99.6442C140.477 100.274 140.477 101.176 140.477 102.281C139.956 102.485 139.368 102.716 138.834 102.929C138.54 103.691 138.237 104.475 138.002 105.086C136.513 106.015 134.935 105.621 133.636 106.051C132.206 106.527 130.854 106.165 129.582 106.423C128.275 107.733 127.004 109.006 125.556 110.456C125.348 111.702 126.004 113.437 124.588 114.833C124.588 115.862 124.588 116.976 124.588 118.245C123.081 117.946 121.615 118.612 120.195 117.769C119.806 117.538 119.154 117.679 118.634 117.756C118.304 117.801 118.01 118.141 117.688 118.168C116.942 118.231 116.182 118.191 115.598 118.191C114.092 117.257 112.707 116.401 111.309 115.54C110.875 116.201 110.427 116.886 109.911 117.674C109.405 117.674 108.744 117.674 108.115 117.674C107.622 117.38 107.134 117.085 106.478 116.695C106.6 115.97 106.726 115.223 106.889 114.239C106.636 114.035 106.174 113.668 105.654 113.252C104.98 113.052 104.17 112.817 103.822 112.712C102.501 111.412 101.496 110.42 100.492 109.423C99.7501 109.803 99.1892 110.093 98.3793 110.51C96.6963 110.329 94.7419 110.12 92.6879 109.903C92.326 109.318 91.8826 108.607 91.3126 107.687C90.3173 108.041 89.2224 108.43 87.9195 108.893C88.0326 109.717 88.1547 110.619 88.304 111.72C88.2316 111.86 88.0462 112.237 87.8018 112.717C87.2318 112.717 86.3722 112.98 85.9605 112.662C85.1643 112.042 84.6937 112.472 84.0061 112.717C83.0741 113.052 82.0516 113.138 80.9523 113.356C80.6356 113.628 80.1967 114.008 79.7986 114.348C80.0339 115.005 80.2239 115.531 80.4682 116.22C79.2286 116.491 78.1337 116.732 76.6815 117.049C76.0255 117.706 75.1025 118.63 74.1751 119.559C74.252 119.627 74.3289 119.69 74.4058 119.758C73.2883 120.352 72.1754 120.946 71.0579 121.539C69.1216 122.119 67.3255 121.539 65.4706 120.474C64.43 120.474 63.2311 120.474 61.9146 120.474C61.6884 120.166 61.4215 119.804 61.236 119.55C60.295 119.55 59.544 119.55 58.6708 119.55C57.7026 120.9 56.6983 122.3 55.7256 123.66C55.1329 123.66 54.6805 123.619 54.2462 123.678C54.0652 123.705 53.9159 123.95 53.7078 124.136C53.088 123.814 52.4682 123.492 51.7307 123.107C51.5588 123.248 51.224 123.388 51.1516 123.61C50.8078 124.643 50.6359 125.785 49.161 125.681C49.161 126.596 49.161 127.258 49.161 127.955C48.5231 128.214 47.944 128.449 47.1975 128.748C46.5053 127.52 44.3926 127.661 44.569 125.486C44.0668 125.459 43.5692 125.432 42.9539 125.395C41.8726 126.696 40.8682 128.209 38.7962 128.635C38.3166 128.395 37.6923 128.087 37.0046 127.747C36.8191 126.583 36.2491 125.658 35.5614 124.707C34.5887 123.361 33.5481 121.974 33.141 120.329C32.1004 118.943 31.0644 117.556 30.0826 116.242C30.0826 114.919 30.0826 113.714 30.0826 112.341C28.5625 112.427 27.2958 111.888 26.4181 110.537C26.8795 109.608 27.4903 108.96 28.6666 109.101C28.6666 108.657 28.6666 108.303 28.6666 108.032C27.9382 107.171 27.2415 106.346 26.504 105.476C26.1873 105.635 25.8164 105.82 25.3866 106.033C24.8753 105.422 24.3958 104.846 23.7714 104.094C23.7714 103.799 23.7714 103.197 23.7714 102.698C22.6856 101.389 21.6587 100.147 20.6 98.8649C20.2697 97.4919 21.2696 96.5811 22.0477 95.7066C22.9119 94.7323 23.8936 93.8487 24.9703 93.0467C26.3185 92.0408 27.2505 90.5002 27.9744 88.8236C30.4989 87.7769 32.0009 85.6336 33.3581 83.5447C32.5347 82.72 31.9104 82.0947 31.5892 81.773C31.3539 79.5209 31.173 77.7764 30.992 76.0319C31.6932 76.1044 32.1728 75.8416 32.3492 75.1256C32.6931 75.0577 33.2134 75.3522 33.2541 74.6725C34.7651 74.6498 34.8782 74.5683 35.0637 73.3131C35.213 73.1953 35.489 73.082 35.4981 72.9551C35.6338 70.694 34.367 69.0538 33.0369 67.3092C31.4399 67.4995 29.861 67.6853 28.2775 67.8756C28.1282 67.7578 27.8477 67.6445 27.8432 67.5222C27.807 66.4845 27.8251 65.4423 27.8251 64.4364C28.1599 64.305 28.4132 64.2053 28.6847 64.0966C28.6847 63.7341 28.6847 63.3806 28.6847 63.3806C28.1734 62.7644 27.8522 62.3792 27.5401 62.0077C27.2415 62.0077 26.9474 62.0077 26.8976 62.0077C26.3774 62.4834 26.0019 62.8278 25.6354 63.1631C25.6354 63.4667 25.6354 63.8201 25.6354 64.1509C25.9657 64.2597 26.2281 64.3458 26.4678 64.4274C26.4678 65.5466 26.4678 66.5933 26.4678 67.6264C25.4499 68.6731 24.7894 69.8739 24.622 71.5052C25.7666 71.5052 26.7936 71.5052 27.8251 71.5052C27.9744 71.6547 28.1282 71.8088 28.2775 71.9583C28.4494 72.4024 27.8568 73.1047 28.7299 73.3177C28.8747 73.7844 29.0195 74.2511 29.2185 74.89C28.2549 75.7283 27.2686 76.6255 26.1511 77.4592C24.0293 79.0406 21.5229 79.8834 19.3694 81.4014C18.3741 82.1037 17.7181 83.2275 16.4513 83.6036C15.3203 83.9389 14.2526 84.4736 12.7913 85.0717C11.2033 84.8588 9.07245 85.7106 7.19945 84.2017C6.20866 84.2017 5.15453 84.2017 4.22708 84.2017C3.60727 83.7758 3.08247 83.4087 2.59386 83.0734C2.46266 82.2352 2.33146 81.3923 2.16406 80.3184C2.86983 78.8684 3.52132 77.0695 4.74284 75.5742C4.81522 75.4836 4.75188 75.2797 4.75188 75.1302C4.75188 74.4595 4.67496 73.7753 4.7745 73.1138C4.8695 72.4658 4.53925 72.0127 4.29947 71.5052C4.53925 70.7031 5.1093 70.0688 5.28121 69.1806C5.40337 68.5599 5.62504 67.6491 6.60226 67.3817C6.95967 67.282 7.23112 66.702 7.4528 66.2942C8.09976 65.1206 9.39367 64.2869 9.50678 62.8595C9.62893 61.3461 10.8595 60.1589 10.6197 58.573C10.4071 58.36 10.1944 58.147 9.98181 57.9341C9.76465 58.0972 9.54297 58.2603 9.46153 58.3237C8.71504 57.5761 8.03642 56.8964 7.3578 56.2167C7.25827 56.2938 7.15874 56.3708 7.0592 56.4478C7.03206 55.9403 7.00491 55.4328 6.97324 54.8981C5.76077 54.0462 4.53472 53.1808 3.40821 52.3924C3.40821 51.7489 3.40821 51.3003 3.40821 50.8925C4.74283 49.3791 6.28557 48.2236 8.28978 47.3128C8.53408 45.7858 9.93657 44.4038 9.72845 42.5052C10.6966 42.6774 11.5019 42.12 12.366 41.8753C13.7911 41.4675 15.1574 41.3678 16.5147 42.052C17.0531 43.0444 17.6412 44.0141 17.4241 45.3191C18.6637 45.4958 19.7223 45.6498 20.8036 45.8039C21.3465 44.6167 22.5544 44.8252 23.3914 44.3222C24.1696 43.851 25.0292 43.493 25.7395 42.9356C26.5583 42.2922 27.2234 41.4539 28.0015 40.7561C28.6983 40.1308 29.3814 39.3877 30.2184 39.0433C31.2273 38.6264 31.2318 37.3214 32.2904 37.0677C32.6659 37.0677 33.0414 37.0677 33.3853 37.0677C34.7335 37.7156 34.548 39.2834 35.4347 40.3483C36.2626 39.8408 37.0906 39.3288 37.9728 38.785C38.8097 39.1838 39.6196 39.5689 40.3615 39.9223C41.0673 41.2002 41.8952 42.3601 41.9088 43.8147C43.9266 44.0594 45.9986 43.3208 47.5368 44.6892C48.306 44.5488 48.9258 44.4355 49.5456 44.3177C49.5456 44.8795 49.5456 45.4414 49.5456 45.9398C50.0658 46.1845 50.4821 46.3839 50.9028 46.5833C50.9028 46.8869 50.9028 47.1859 50.9028 47.4895C50.9028 49.1525 50.9028 50.8109 50.9028 52.4739C50.9707 52.8183 50.6766 53.3394 51.3552 53.3802C53.0246 53.2352 54.8026 53.8287 56.3318 52.6823C56.3318 52.4603 56.3318 52.2428 56.3318 52.0208C56.9833 51.835 57.1552 51.3909 57.2728 50.7294C57.4628 49.6328 57.6076 48.5 58.1415 47.4895C58.4853 47.4216 59.0056 47.7161 59.0463 47.0364C59.4897 46.8642 60.1909 47.4578 60.4035 46.5833C60.6795 46.5833 60.9555 46.5833 61.4848 46.5833C61.2224 47.0863 60.9917 47.3536 60.9464 47.6481C60.8786 48.0741 60.485 48.6677 61.3084 48.8489C61.3762 49.1933 61.0822 49.7144 61.7608 49.7552C61.8106 50.2174 61.8603 50.675 61.9372 51.4C62.634 50.888 63.1045 50.5481 63.5705 50.2083C64.0772 50.2083 64.6427 50.3533 65.0725 50.1766C65.9592 49.8141 67.2124 50.0995 67.6422 48.8489C69.2935 48.3777 70.2119 47.6481 70.8996 46.3431C72.3654 45.9489 73.7543 45.6816 75.0573 45.1967C76.1838 44.7753 77.2922 44.372 78.5047 44.3177C78.654 44.4672 78.8078 44.6213 78.9571 44.7708C79.0295 45.7133 79.0295 45.7133 79.8619 45.4414C79.8619 45.2194 79.8619 44.9974 79.8619 44.7708C80.0112 44.7708 80.1651 44.7708 80.3144 44.7708C80.7261 45.3644 81.1332 45.958 81.5585 46.5742C82.2416 46.5742 82.9836 46.5742 83.8885 46.5742C84.0875 46.3069 84.3544 45.9534 84.6349 45.5819C85.481 45.9625 86.2365 46.547 87.1006 45.8991C87.1006 45.668 87.1006 45.4459 87.1006 45.2239C88.2588 45.0427 89.2993 44.585 90.3399 44.082C90.1408 43.1305 90.2178 42.2695 89.1093 41.9569C88.761 41.8572 88.6569 40.9509 88.295 40.8195C87.7113 40.6066 87.449 40.3891 87.5575 39.7819C89.616 39.2653 89.616 39.2653 90.8873 39.8317C91.6157 38.7895 92.7603 39.5961 93.9457 39.1973C94.0497 38.8801 94.1945 38.427 94.3438 37.9694C94.4931 37.8198 94.6469 37.6658 94.7962 37.5163C94.9455 37.3667 95.0993 37.2127 95.2486 37.0631C95.3979 37.0631 95.5517 37.0631 95.701 37.0631C95.9725 37.0631 96.2439 37.0631 96.6059 37.0631C96.6059 36.2203 96.6059 35.5089 96.6059 34.7975C97.0583 34.7975 97.5107 34.7975 97.9631 34.7975C98.6055 35.8805 99.6778 35.6902 100.678 35.7038C100.877 35.9802 101.053 36.465 101.284 36.4967C102.297 36.6372 103.211 37.3441 104.297 37.0631C104.632 38.3545 105.889 38.4859 106.817 38.8167C107.898 39.2064 108.708 38.0419 109.681 37.7791C109.73 37.5434 109.771 37.3395 109.812 37.1266C110.224 37.0813 110.576 37.045 110.988 36.9997C111.029 36.7867 111.074 36.5828 111.142 36.243C112.115 36.3109 112.857 35.8714 113.105 34.802C113.404 34.802 113.703 34.802 114.046 34.802C114.499 34.3353 115.006 33.8822 115.426 33.3566C115.585 33.1617 115.549 32.8128 115.603 32.5319C115.752 32.3823 115.906 32.2283 116.055 32.0788C116.205 31.9292 116.358 31.7752 116.508 31.6256C116.924 31.6256 117.336 31.6256 117.444 31.6256C118.023 31.032 118.394 30.6514 118.77 30.2663C119.181 30.2663 119.593 30.2663 120.127 30.2663C120.127 29.8947 120.127 29.6273 120.127 29.36C121.095 29.2105 122.059 28.9431 123.027 28.9341C124.38 28.9205 125.687 28.8208 126.913 28.2091C126.913 27.987 126.913 27.7695 126.913 27.5475C127.972 27.4931 129.049 27.6698 130.08 27.4478C130.08 27.0763 130.08 26.8588 130.08 26.6413C130.424 26.5733 130.944 26.8678 130.985 26.1881C131.261 26.1383 131.636 26.1836 131.795 26.0159C132.179 25.6127 132.419 25.0644 132.808 24.6656C133.224 24.2397 134.034 24.2442 134.152 23.4694C134.496 23.4014 135.016 23.6959 135.057 23.0163C135.803 22.8259 136.011 22.3003 135.966 21.5889C135.939 21.1584 135.962 20.728 135.962 20.2975C135.962 19.5408 135.962 18.7886 135.962 18.0319C136.265 17.0803 137.206 17.0577 137.898 16.6498C138.142 16.5048 138.242 16.1106 138.337 15.952C138.871 15.4219 139.739 16.2964 140.033 15.3131C140.183 15.3131 140.336 15.3131 140.486 15.3131C141.087 15.3131 141.694 15.3131 142.295 15.3131C142.445 15.3131 142.598 15.3131 142.748 15.3131C142.852 15.4627 142.924 15.6983 143.064 15.7527C143.549 15.943 144.055 16.0698 144.557 16.2194C144.557 16.4958 144.557 16.7767 144.557 17.1755C145.697 17.0033 146.634 17.1256 147.67 16.7722C148.552 16.4731 149.729 17.035 150.85 17.2298C151.077 17.6241 151.316 18.05 151.561 18.4759C152.588 18.3581 153.447 19.2916 154.511 18.9381C154.705 19.2281 154.895 19.5181 155.153 19.9078C156.266 19.9078 157.406 19.9078 158.533 19.9078C158.573 20.3836 158.605 20.7325 158.646 21.2038C159.252 21.2038 159.822 21.2038 160.392 21.2038C160.967 21.2038 161.546 21.24 162.111 21.1811C162.306 21.163 162.473 20.9002 162.654 20.7506C162.803 20.7506 162.957 20.7506 163.106 20.7506C163.708 20.7506 164.314 20.7506 164.916 20.7506C165.065 20.6011 165.219 20.447 165.369 20.2975C165.794 20.2975 166.228 20.3428 166.644 20.2748C166.839 20.2431 167.002 19.9939 167.178 19.8444C168.449 19.8897 169.662 19.8081 170.345 18.485C170.865 18.485 171.386 18.485 171.992 18.485C172.707 17.5788 173.458 16.6363 174.168 15.7345C174.738 15.7345 175.177 15.7345 175.62 15.7345C175.724 15.4536 175.77 15.15 175.932 14.9506C176.122 14.7195 176.426 14.5836 176.679 14.4023C178.71 13.8677 179.253 13.3239 179.846 11.2305C179.995 11.0402 180.276 10.8544 180.28 10.6641C180.316 9.04187 180.298 7.41516 180.298 5.79297C180.977 5.75219 180.683 5.23109 180.751 4.88672C181.714 4.58766 180.918 3.74031 181.036 3.57718C182.117 2.31749 182.94 1.35688 183.795 0.355469C184.085 0.355469 184.451 0.355469 184.822 0.355469C184.822 1.41125 184.822 2.47156 184.822 3.52734C184.822 3.83094 184.822 4.13 184.822 4.43359C184.822 4.73719 184.822 5.03625 184.822 5.33984C184.144 5.38062 184.438 5.90172 184.37 6.24609C184.243 6.30047 184.044 6.31406 183.994 6.40921C182.868 8.69296 183.456 10.8861 184.565 12.9342C184.917 13.5867 185.248 14.1169 185.329 14.8917C185.392 15.4762 185.655 16.2783 186.542 16.3417C186.623 16.7677 186.7 17.18 186.772 17.5742C187.084 17.5742 187.311 17.5742 187.532 17.5742C187.682 17.7237 187.835 17.8778 187.985 18.0273C187.985 18.3037 187.985 18.5847 187.985 18.8792C188.998 18.9291 189.853 18.9699 190.699 19.0106C190.699 19.3913 190.699 19.6133 190.699 19.8398C190.55 19.9894 190.396 20.1434 190.247 20.293C190.021 20.293 189.799 20.293 189.609 20.293C189.229 21.1902 188.849 22.0828 188.523 22.8486C187.419 23.1703 186.415 23.1477 185.723 23.918C185.062 23.918 184.402 23.9089 183.741 23.9225C183.04 23.9361 182.339 23.9723 181.651 23.995C181.651 24.3847 181.651 24.6022 181.651 24.8242C181.502 25.2864 181.239 25.7441 181.221 26.2108C181.162 27.5566 181.199 28.9114 181.199 30.2617C180.511 30.3206 180.805 30.8417 180.737 31.1861Z" fill="#D9D9D9"/>
<path d="M19.6481 96.3237C18.2094 96.7587 18.0013 95.7255 17.5399 94.8329C16.1193 96.1787 14.8389 97.461 12.9162 97.8371C12.3823 97.4701 11.8123 97.0759 11.0703 96.5684C11.7082 94.9598 12.3914 93.2288 13.1017 91.4344C12.4864 90.8182 11.9797 90.3062 11.4549 89.7851C12.1833 88.7338 12.8619 87.7505 13.7803 86.4274C14.762 85.9879 16.169 85.3807 17.5534 84.7327C17.9968 84.5243 18.4628 84.2751 18.7931 83.9307C19.7069 82.9791 20.6932 82.1907 21.9374 81.6923C23.9777 80.8812 25.7241 79.5399 27.5563 78.3573C28.14 77.9766 28.7552 77.6459 29.5198 77.1973C29.7822 78.9599 30.013 80.5232 30.2844 82.3629C30.3251 82.3991 30.6147 82.6348 30.9178 82.884C30.9178 83.4277 30.9178 83.9352 30.9178 84.4926C29.8637 85.5982 28.7372 86.722 27.2351 87.3971C26.9003 87.5466 26.7058 88.0269 26.466 88.3668C25.5069 89.7397 24.8464 91.2396 23.2901 92.2682C21.8016 93.256 20.4489 94.638 19.6481 96.3237Z" fill="#D9D9D9"/>
<path d="M29.1797 69.7012C29.6412 69.5517 30.0936 69.3342 30.5641 69.2662C31.0753 69.1892 31.6046 69.2481 32.1656 69.2481C32.6542 69.9368 33.1519 70.6392 33.6993 71.4095C33.6993 71.9759 33.6993 72.6511 33.6993 73.3262C33.3555 73.3942 32.8352 73.0996 32.7945 73.7793C32.039 73.9289 31.288 74.0829 30.5324 74.2325C30.7451 73.154 29.9443 72.4154 29.6276 71.5137C29.5778 71.2373 29.5462 70.9564 29.4738 70.689C29.3969 70.3537 29.2792 70.032 29.1797 69.7012Z" fill="#D9D9D9"/>
</svg>
