<svg width="62" height="82" viewBox="0 0 62 82" fill="none" xmlns="http://www.w3.org/2000/svg">
<path d="M6.39073 37.2335C6.21291 37.3488 6.13388 37.3878 6.07309 37.4432C5.13536 38.2848 5.1384 38.2818 4.21283 37.3803C3.22038 36.4128 2.22946 35.4409 1.22029 34.49C0.882894 34.171 0.708114 33.8325 0.733951 33.3608C0.767387 32.7303 0.730912 32.0968 0.74763 31.4648C0.762828 30.9257 1.29781 30.2593 1.79479 30.3282C2.79027 30.4645 3.3678 29.9238 3.95598 29.2978C4.37241 28.8561 4.39217 28.874 5.02897 29.2514C4.76604 28.269 5.45604 27.8212 5.9971 27.2911C6.48496 26.8134 6.97131 26.3356 7.46069 25.8594C7.76009 25.5689 8.0443 25.193 8.53064 25.8295C8.55952 25.154 8.57928 24.6464 9.04586 24.281C9.31943 24.0668 9.14161 23.8706 8.88628 23.7912C8.44857 23.655 8.20996 23.351 8.06558 22.9481C7.96527 22.6681 7.73274 22.5363 7.48197 22.4105C6.95459 22.1469 6.66582 21.783 6.90443 21.1555C7.10049 20.6403 6.67646 20.6898 6.36946 20.6314C5.56851 20.4786 5.12472 19.7807 5.2919 18.9511C5.42869 18.2787 6.11717 17.8354 6.85428 17.9522C7.56252 18.0645 7.94399 18.5078 8.02606 19.1802C8.07014 19.5441 8.0595 19.7762 8.56864 19.6055C9.08234 19.4333 9.45014 19.7598 9.65531 20.206C9.81641 20.558 10.0429 20.8081 10.4031 20.9503C10.6234 21.0372 10.8225 21.184 10.8985 21.3966C11.0687 21.8684 11.4441 22.1679 11.777 22.5048C13.3926 24.1357 15.0112 25.7651 16.6298 27.3929C16.7863 27.5502 16.9535 27.6969 17.1891 27.9171C17.2499 27.2776 17.3471 26.7265 17.3471 26.1769C17.3471 24.1027 17.4687 22.0256 17.2316 19.9544C17.1648 19.3764 16.9034 19.3824 16.5097 19.6444C15.6905 20.1896 15.1084 20.9324 14.7072 21.8159C14.5005 22.2712 14.2801 22.7145 13.9382 23.0904C13.7178 23.3315 13.5172 23.3869 13.2527 23.1158C12.47 22.3101 11.6569 21.5299 10.8757 20.7227C10.5657 20.4022 10.3833 20.0668 10.9472 19.7568C11.2785 19.5741 11.3742 19.1832 11.5323 18.8597C12.0171 17.8623 12.6615 16.9982 13.6676 16.4546C14.7604 15.8631 15.61 15.9978 16.528 16.8724C17.3973 17.7006 18.2727 18.5228 19.174 19.3734C19.3867 19.0933 19.2044 18.5093 19.5934 18.5902C20.1102 18.6965 20.8397 18.5857 21.092 19.1772C21.3944 19.8886 22.0008 19.2581 22.3534 19.5711C22.5601 19.3344 22.5708 19.0394 22.5814 18.7564C22.6118 17.9896 22.9857 17.2229 22.5814 16.4546C22.2425 15.8106 22.1528 15.1502 22.3489 14.4299C22.4264 14.1468 22.092 14.06 21.8413 13.9986C21.0403 13.8039 20.6558 13.3846 20.6345 12.5968C20.6269 12.3243 20.5676 12.1251 20.3716 11.9409C20.1527 11.7357 20.0114 11.4766 19.9202 11.1921C19.8412 10.9435 19.8093 10.6964 20.0068 10.4912C20.2105 10.2786 20.4157 10.4823 20.6239 10.4957C21.1801 10.5317 21.5069 10.7982 21.8428 11.2161C22.0768 11.5066 22.5753 11.2176 22.975 11.4227C23.4325 11.6579 23.7122 11.264 23.8535 10.8357C23.9143 10.653 24.0511 10.5122 24.2259 10.4598C24.5465 10.3639 24.5678 10.1633 24.5253 9.88772C24.4903 9.66458 24.5329 9.45342 24.6833 9.25275C25.3201 8.40212 25.3247 8.37067 26.3278 8.78999C26.7108 8.95023 26.9083 8.89932 27.1971 8.61178C27.8066 8.00227 28.4707 7.44517 29.1318 6.88807C29.4267 6.63947 29.6486 6.38937 29.6045 5.97604C29.5832 5.77087 29.6121 5.54474 29.799 5.42343C30.3462 5.06851 30.1106 4.52938 30.1425 4.06064C30.1668 3.69523 29.875 3.79257 29.6501 3.81054C28.8355 3.87644 29.1075 3.26243 29.0756 2.87306C29.0422 2.4762 29.0498 2.05238 29.682 2.20064C30.2413 2.33243 30.1167 1.92509 30.1471 1.62707C30.1714 1.39944 29.9784 1.06698 30.2976 0.966639C30.6866 0.845335 31.1289 0.824368 31.5073 0.989102C31.7444 1.09244 31.6137 1.40243 31.6046 1.61509C31.5848 2.0419 31.6304 2.34441 32.1989 2.18567C32.518 2.09581 32.6685 2.29349 32.6761 2.59301C32.6837 2.88654 32.6806 3.18006 32.6639 3.47209C32.6518 3.67426 32.5378 3.78209 32.322 3.82702C32.0849 3.87644 31.6791 3.56793 31.6335 3.98576C31.5864 4.42605 31.4146 4.9517 31.8478 5.3201C32.0849 5.52227 32.1761 5.7514 32.1517 6.03295C32.1213 6.39237 32.3007 6.6215 32.5651 6.83415C33.3448 7.46164 34.1305 8.09062 34.778 8.85439C35.1534 9.29767 35.4224 8.83043 35.664 8.75255C36.6155 8.44405 37.3511 8.87236 37.3602 9.86825C37.3617 10.1483 37.3693 10.358 37.6824 10.4388C37.7234 10.4493 37.7796 10.4793 37.7933 10.5152C38.1626 11.4602 38.8587 11.5515 39.7311 11.276C39.8648 11.234 40.0776 11.3269 40.146 11.1532C40.4044 10.5002 41.0761 10.6051 41.564 10.3819C41.795 10.2771 41.9622 10.4134 42.0215 10.647C42.0488 10.7548 42.0777 10.8866 42.0382 10.981C41.6795 11.8481 41.3208 12.7151 40.9287 13.5673C40.8254 13.7904 40.5685 13.9477 40.3147 13.9626C39.5077 14.0091 39.2478 14.5781 39.4195 15.1592C39.6125 15.8076 39.2782 16.2899 39.1277 16.7946C38.845 17.744 39.2615 18.5902 39.3055 19.4827C39.3101 19.5845 39.3998 19.6534 39.5001 19.5995C39.9332 19.3644 40.5427 19.6774 40.8801 19.017C41.1065 18.5737 41.8072 18.6156 42.2707 18.6006C42.6856 18.5872 42.5489 19.1143 42.7039 19.5816C43.5459 18.6965 44.365 17.7889 45.2359 16.9308C46.2861 15.8945 47.2801 15.8331 48.4959 16.6673C49.227 17.1674 49.7604 17.8339 50.1647 18.6111C50.4124 19.0888 50.6039 19.5845 51.0796 19.935C51.4474 20.2045 51.1252 20.5265 50.9261 20.7392C50.3927 21.3098 49.8227 21.8444 49.2665 22.394C49.1859 22.4734 49.1008 22.5483 49.0279 22.6321C48.1798 23.6115 48.0612 23.5172 47.4275 22.4075C46.9563 21.5823 46.5961 20.6913 45.8499 20.0518C45.5459 19.7912 45.207 19.3524 44.8225 19.5157C44.4973 19.6534 44.5429 20.1896 44.5353 20.5625C44.5079 21.8938 44.5018 23.2252 44.4957 24.5565C44.4897 25.5928 44.4942 26.6307 44.4942 27.664C44.824 27.7374 44.9091 27.5067 45.0383 27.3794C46.8104 25.6153 48.6555 23.9125 50.2999 22.0391C50.9398 21.3098 51.8258 20.7946 52.2712 19.8826C52.4216 19.5741 52.7909 19.3659 53.1481 19.5216C53.642 19.7358 53.6876 19.5621 53.7317 19.1188C53.8138 18.2936 54.5357 17.753 55.3032 17.8578C56.092 17.9642 56.5966 18.6635 56.4689 19.4902C56.3686 20.1327 55.937 20.4861 55.3275 20.5954C54.9126 20.6703 54.6938 20.7377 54.8959 21.2304C55.095 21.7156 54.7865 22.081 54.3761 22.2772C53.9749 22.4704 53.715 22.722 53.5752 23.1368C53.4657 23.4588 53.177 23.622 52.8654 23.7283C52.604 23.8182 52.4064 23.9799 52.683 24.1986C53.1739 24.5865 53.2211 25.1001 53.1952 25.798C53.6724 25.199 53.9734 25.4566 54.3047 25.804C54.8685 26.3955 55.4643 26.9586 56.051 27.5292C56.478 27.944 56.9735 28.3214 56.63 29.2544C57.2714 28.6928 57.5814 28.9639 57.8671 29.3128C58.3657 29.9223 58.9417 30.2907 59.8064 30.1979C60.3977 30.135 60.9691 30.7655 61.0117 31.3495C61.0177 31.4394 61.0025 31.5322 61.0177 31.6206C61.3065 33.2589 60.7487 34.5199 59.4067 35.5457C58.5632 36.1912 57.8443 37.0029 57.1088 37.7771C56.7121 38.195 56.4188 38.1965 56.0586 37.7667C55.9035 37.5825 55.7455 37.3758 55.3655 37.259C55.3655 37.8251 55.3488 38.3522 55.3716 38.8794C55.3898 39.2957 55.2409 39.6087 54.9384 39.8962C53.7545 41.0269 52.563 42.1516 51.4201 43.3212C50.9778 43.7749 50.7164 43.6956 50.3243 43.2837C49.5248 42.4451 48.6905 41.6379 47.8454 40.8442C47.4123 40.4383 47.0551 40.028 47.2223 39.2358C46.6615 39.7854 46.3955 39.4185 46.087 39.1055C45.4168 38.4256 44.7252 37.7667 44.0474 37.0927C43.8574 36.904 43.6127 36.7453 43.6097 36.3799C42.5245 37.6618 41.2783 38.7086 40.1506 39.8693C39.4393 40.6016 38.6338 40.8577 37.6717 40.4638C37.3419 40.329 37.2052 40.4443 36.9377 40.654C36.2841 41.1692 35.5394 41.572 34.8236 42.0093C34.4755 42.222 34.1473 42.3732 34.5591 42.8614C34.8038 43.152 34.7415 43.5952 34.4406 43.8543C34.0546 44.1868 34.3053 44.3246 34.5546 44.5043C35.7005 45.3294 36.8343 46.1696 37.9559 47.0277C38.8025 47.6746 39.3679 48.5537 40.0959 49.2965C40.5396 49.7488 41.181 49.9659 41.5138 50.538C41.6506 50.7716 41.8786 50.6428 42.0671 50.5665C45.1797 49.3295 48.192 49.4987 51.0705 51.2329C51.3988 51.4306 51.6632 51.0592 51.8091 51.185C52.4824 51.769 52.6754 51.1595 53.0326 50.8046C53.4642 50.3778 54.0068 50.2415 54.6117 50.4796C55.2318 50.7237 55.5768 51.188 55.6133 51.8169C55.6482 52.422 55.3625 52.9282 54.7956 53.1962C54.4232 53.3714 54.4171 53.4658 54.4567 53.9315C54.6284 55.9548 55.7896 57.7414 55.6041 59.8814C55.4506 61.656 55.2637 63.3498 54.5205 64.9882C54.2545 65.5737 54.1512 66.2416 54.829 66.8107C55.4521 67.3349 55.3731 68.3218 54.8001 68.8789C54.2332 69.43 53.2575 69.4749 52.6967 68.8938C52.3517 68.5374 52.107 68.488 51.7347 68.807C51.534 68.9792 51.2954 69.1469 51.0051 68.8938C50.8076 68.7216 50.6191 68.8834 50.4413 68.9747C48.3743 70.032 46.2025 70.3555 43.9228 69.8463C43.4987 69.752 43.289 69.9946 43.0474 70.2372C40.4667 72.822 37.3693 74.4604 33.7551 75.1403C33.2415 75.2376 32.7217 75.311 32.2034 75.3948C32.6989 76.9343 33.0393 78.4679 32.7278 80.0837C32.6244 80.6199 32.6366 81.1755 31.9967 81.4181C31.2566 81.6982 30.5179 81.6907 29.9313 81.1635C29.5361 80.8101 28.8507 80.7741 28.723 80.1377C28.5072 79.0504 28.3628 77.9572 28.6151 76.855C28.6546 76.6798 28.7352 76.512 28.7625 76.3353C28.8978 75.4817 28.7975 75.326 27.9479 75.1687C24.2319 74.4813 21.0677 72.7816 18.4277 70.1278C18.1511 69.8493 17.8745 69.7714 17.5098 69.8343C15.3926 70.2012 13.3698 69.9227 11.4487 68.9657C11.1782 68.8309 10.9472 68.7066 10.6265 68.9028C10.3392 69.0795 10.1158 68.789 9.90153 68.6452C9.63252 68.4655 9.4623 68.4566 9.20089 68.7037C8.44249 69.4225 7.60051 69.4315 6.95915 68.7845C6.31626 68.1361 6.40289 67.2765 7.12633 66.5157C7.63851 65.9766 7.45765 65.3206 7.19168 64.7635C5.93935 62.1532 5.95454 59.4516 6.52752 56.7065C6.62783 56.2258 6.85428 55.7706 7.01994 55.3033C7.15824 54.9079 7.59139 54.5575 7.19928 54.0753C7.16128 54.0289 7.23879 53.8522 7.30567 53.7713C7.5762 53.4418 7.44853 53.331 7.08985 53.1797C6.30258 52.8473 5.97886 52.0865 6.23875 51.3467C6.51536 50.559 7.25247 50.1696 8.10357 50.3673C8.53216 50.4676 8.82397 50.7417 9.03522 51.1116C9.10818 51.2404 9.21456 51.5279 9.31335 51.4201C9.7997 50.887 10.4775 51.2898 11.0505 50.9663C13.7528 49.4418 16.5918 49.2546 19.4901 50.4257C19.8685 50.5784 20.1208 50.5859 20.4537 50.2729C22.5753 48.2797 24.504 46.0677 27.0482 44.5477C27.3765 44.3515 27.7199 44.1673 27.2457 43.7255C27.0056 43.5024 27.0117 43.0861 27.2138 42.839C27.5345 42.4451 27.264 42.3403 27.0117 42.1201C26.2746 41.4762 25.2502 41.259 24.5937 40.4967C24.4386 40.317 24.2046 40.4593 24.0146 40.5252C23.1331 40.8292 22.4173 40.5761 21.7774 39.9366C20.7804 38.9408 19.7485 37.9808 18.7454 36.9909C18.5417 36.7887 18.4034 36.5237 18.1405 36.1553C18.215 36.7169 17.9444 36.9789 17.6693 37.2455C16.9657 37.9239 16.2711 38.6128 15.5705 39.2942C15.1495 39.7045 15.1464 39.703 14.54 39.2897C14.8136 40.2272 14.1889 40.6675 13.6707 41.1692C12.9518 41.8655 12.2405 42.5679 11.5247 43.2673C10.8697 43.9067 10.8681 43.9067 10.2359 43.2882C9.16289 42.2384 8.11117 41.1692 7.01538 40.1433C6.56399 39.721 6.33602 39.2732 6.39377 38.6577C6.42417 38.2129 6.39073 37.7682 6.39073 37.2335ZM19.8229 64.5823C19.9476 64.6048 20.1026 64.5209 20.247 64.3981C21.0737 63.6913 21.6969 62.8391 22.1255 61.8477C22.2577 61.5422 22.1756 61.4 21.8625 61.2232C21.1254 60.8084 21.1254 58.9245 21.8777 58.5605C22.2866 58.3629 22.2334 58.1936 22.1011 57.9001C21.1725 55.826 19.6071 54.4991 17.3715 53.9315C16.9322 53.8192 16.6799 53.8791 16.5599 54.3479C16.4611 54.7372 16.1723 54.9619 15.7483 54.9379C15.3622 54.9154 15.113 54.7043 15.0309 54.3254C14.9382 53.8896 14.6859 53.8267 14.2695 53.924C12.3348 54.3733 10.8803 55.4591 9.87569 57.1289C9.55804 57.6575 8.96987 58.249 9.96384 58.7507C10.1371 58.8391 10.1675 59.0922 10.1675 59.3033C10.1675 59.6643 10.1645 60.0252 10.1721 60.3861C10.1797 60.78 10.0611 61.1049 9.66899 61.2652C9.30271 61.4149 9.36655 61.656 9.49117 61.9271C10.4411 63.9908 12.0278 65.3041 14.2543 65.8687C14.6525 65.9691 14.9321 65.8792 15.0294 65.4494C15.0948 65.1619 15.2984 64.8399 15.5446 64.8968C16.2726 65.063 16.7179 64.5673 17.2772 64.3277C17.6572 64.166 18.0691 64.1285 18.487 64.2469C18.9065 64.3637 19.329 64.458 19.8229 64.5823ZM44.6599 53.9555C44.5444 53.966 44.4973 53.9645 44.4547 53.9765C42.1765 54.547 40.57 55.9008 39.6201 58.0184C39.497 58.2925 39.5624 58.4407 39.842 58.6085C40.4682 58.9829 40.6886 60.7889 40.0731 61.1364C39.2584 61.5961 39.6779 62.011 39.9059 62.4812C40.1627 63.0143 40.5412 63.4681 40.909 63.9294C41.336 64.4625 41.795 64.6797 42.5078 64.4026C43.4592 64.0327 44.397 64.0582 45.1341 64.9073C45.2891 65.087 45.4456 65.0421 45.6235 64.9747C46.163 64.7695 46.549 64.9777 46.6904 65.4868C46.8226 65.9661 47.087 66.0335 47.5035 65.9286C49.7589 65.3626 51.3486 64.0252 52.2727 61.9211C52.3426 61.7624 52.4794 61.5362 52.2544 61.4434C51.2438 61.0226 51.6526 60.154 51.5796 59.4411C51.5416 59.0757 51.6906 58.7732 52.0447 58.6115C52.3137 58.4887 52.4292 58.3404 52.2924 58.0319C51.3425 55.8754 49.7087 54.5261 47.3971 53.978C47.0734 53.9016 46.8044 53.9914 46.7253 54.3673C46.6402 54.7717 46.3834 55.0038 45.9669 55.0218C45.5338 55.0397 45.2967 54.7687 45.1781 54.3958C45.0824 54.0978 44.9319 53.9136 44.6599 53.9555ZM32.1077 57.3999C32.0636 57.4868 32.0317 57.5212 32.0317 57.5557C32.0286 62.6744 32.0347 67.7931 32.018 72.9118C32.0165 73.5483 32.366 73.5513 32.8144 73.4779C34.3555 73.2233 35.8434 72.795 37.2507 72.1241C38.6991 71.4337 40.0366 70.5726 41.2084 69.4779C41.3406 69.3536 41.6476 69.1335 41.4014 69.0122C40.9181 68.7755 40.2463 69.1499 39.8177 68.5928C39.7889 68.5554 39.6414 68.5719 39.5715 68.6063C39.4955 68.6437 39.4484 68.7366 39.3815 68.798C38.6657 69.4449 37.7143 69.4599 37.1185 68.8354C36.5471 68.2349 36.5987 67.3049 37.2416 66.6505C37.6945 66.1877 37.6991 65.8283 37.1869 65.4165C35.9635 64.4296 35.047 63.203 34.2461 61.8792C33.3934 60.4655 32.7247 58.9664 32.1077 57.3999ZM29.3051 58.1247C29.2732 58.1173 29.2413 58.1113 29.2094 58.1038C29.0422 58.4872 28.8811 58.8735 28.7048 59.2539C27.7002 61.4209 26.5649 63.5011 24.732 65.1214C24.0085 65.7609 23.9903 65.987 24.6301 66.7179C25.1575 67.3229 25.1545 68.1885 24.6241 68.7531C24.0724 69.3386 23.2076 69.4479 22.586 68.9028C22.1771 68.5434 21.8747 68.4041 21.4415 68.807C21.3154 68.9253 21.1285 69.0196 20.9415 68.8804C20.6254 68.6452 20.3275 68.7815 20.174 69.0331C20.0008 69.3192 20.3533 69.4554 20.522 69.6037C22.7775 71.588 25.3779 72.8819 28.3674 73.3851C29.3036 73.5423 29.3051 73.5393 29.3051 72.5899C29.3051 67.9623 29.3051 63.3348 29.3051 58.7073C29.3051 58.5156 29.3051 58.3209 29.3051 58.1247ZM32.0651 47.9262C32.0788 52.8712 33.7476 57.322 36.158 61.5872C36.275 61.5093 36.3069 61.4988 36.3085 61.4853C36.3191 61.3745 36.3312 61.2622 36.3282 61.1499C36.2583 58.9948 36.3024 56.8593 37.4027 54.899C37.4818 54.7567 37.5365 54.571 37.3951 54.4572C36.9149 54.0723 36.7872 53.4778 36.4954 52.9866C36.1352 52.38 35.5516 52.0281 35.0774 51.5579C33.9588 50.4497 33.1092 49.1348 32.0651 47.9262ZM25.422 61.2637C25.4888 61.2757 25.5572 61.2876 25.6241 61.2996C27.7245 57.2681 29.5878 53.1693 29.2869 48.2976C28.5498 49.2276 27.8886 50.0243 27.2701 50.851C26.6469 51.6822 25.6545 52.1614 25.1317 53.0809C24.9341 53.4268 24.9083 53.8626 24.5633 54.1337C24.235 54.3898 24.2654 54.6638 24.4417 55.0203C25.1362 56.4175 25.4645 57.9016 25.425 59.4636C25.4098 60.0626 25.422 60.6631 25.422 61.2637ZM31.7839 40.4728C32.6274 39.4874 33.1107 38.3208 33.9375 37.3863C34.1077 37.1946 33.9208 37.0478 33.8327 36.9085C33.3843 36.2002 32.8387 35.5143 32.6244 34.7191C32.287 33.4656 31.4937 33.211 30.3462 33.3548C29.989 33.3997 29.7519 33.4791 29.6121 33.825C29.1622 34.9377 28.5999 35.9935 27.9281 36.9909C27.8294 37.1392 27.7063 37.2874 27.84 37.4821C28.451 38.3777 29.0589 39.2747 29.6683 40.1703C29.7702 40.32 29.8431 40.3694 30.0377 40.2182C30.8614 39.5802 31.1471 39.6252 31.7839 40.4728ZM22.9948 19.8676C23.393 19.5366 23.3702 18.969 23.7426 18.7863C24.2076 18.5587 24.2167 18.2861 24.2289 17.8444C24.2411 17.3532 24.6058 16.8829 25.0466 16.7047C25.5192 16.5145 26.1804 16.8545 26.3187 17.1809C26.5892 17.8204 27.0831 18.0735 27.5816 18.4164C28.0938 18.7699 28.5026 18.963 28.8446 18.2502C28.9252 18.081 29.0969 17.9732 29.2899 17.9702C29.6577 17.9642 29.7884 17.8249 29.7504 17.443C29.6866 16.8035 30.293 16.5999 30.6714 16.2989C30.9982 16.0398 31.2414 16.4516 31.5316 16.5879C32.056 16.832 32.1609 17.1869 32.1335 17.6691C32.1259 17.8129 32.132 17.9552 32.3174 17.9717C32.7141 18.0076 32.8782 18.3161 33.0925 18.5767C33.2035 18.7115 33.4466 18.9286 33.4937 18.8987C34.0561 18.5452 34.6716 18.2217 35.1063 17.7425C35.3738 17.449 35.43 17.0716 35.9391 16.8979C36.3495 16.7586 36.6823 16.4606 36.9726 16.9144C37.1899 17.2543 37.7128 17.4804 37.5562 17.9881C37.4331 18.388 37.5578 18.5647 37.9316 18.6845C38.1292 18.7474 38.2417 18.9226 38.2979 19.1413C38.3709 19.4258 38.5882 19.5995 38.877 19.7777C39.0274 19.0215 38.7645 18.3685 38.7402 17.7021C38.7174 17.0836 38.3876 16.82 37.7872 16.6867C33.5302 15.7418 29.258 15.7268 24.9797 16.4876C23.1726 16.8095 23.1757 16.859 22.8732 18.6321C22.8079 19.0409 22.6696 19.4707 22.9948 19.8676ZM30.8462 24.4157C28.3203 24.3693 25.8308 24.6359 23.3824 25.2574C23.1027 25.3278 22.7182 25.3937 22.8261 25.7935C22.969 26.3222 22.7076 27.0185 23.3489 27.342C23.6286 27.4828 24.1088 27.8092 24.2806 27.5502C24.6058 27.056 25.2229 26.7505 25.2715 26.0601C25.3049 25.5659 25.6043 25.0822 26.0648 24.9878C26.5041 24.8965 27.071 25.1196 27.2184 25.6123C27.4296 26.3192 28.1637 26.2787 28.5695 26.6846C28.609 26.7235 28.7899 26.7085 28.8127 26.6681C29.0847 26.1859 29.7899 26.132 29.9328 25.4865C30.0316 25.0387 30.4419 24.6524 30.8933 24.6643C31.3082 24.6748 31.8782 24.9833 31.8842 25.4086C31.8949 26.1604 32.6046 26.2248 32.8949 26.6711C32.9512 26.7579 33.0803 26.8688 33.1852 26.7774C33.6001 26.418 34.2719 26.3821 34.4725 25.7531C34.6473 25.205 35.1944 24.9983 35.6306 24.9788C36.1002 24.9579 36.462 25.5299 36.4604 25.9163C36.4574 26.6666 37.2006 26.8643 37.3921 27.4349C37.4362 27.5666 37.6109 27.5621 37.7553 27.5621C38.4134 27.5636 38.7204 27.1473 38.9165 26.1035C39.035 25.473 38.6748 25.3382 38.1809 25.2169C35.7689 24.6269 33.325 24.3738 30.8462 24.4157ZM41.5063 21.804C41.1582 22.084 40.8983 22.2622 40.5366 22.3281C40.108 22.406 39.8512 22.6321 39.7828 23.1817C39.7265 23.6355 39.9302 24.0563 39.7037 24.5775C39.3983 25.2768 38.9773 26.0421 39.1277 26.9362C39.4499 26.6052 39.8785 26.7085 40.2342 26.5558C40.4956 26.442 40.6384 26.6741 40.6628 26.9347C40.6886 27.2192 40.5989 27.4843 40.4181 27.6894C40.1384 28.0054 39.9849 28.3319 39.9621 28.7692C39.9408 29.1885 39.6673 29.5719 39.2356 29.6648C38.4362 29.8355 38.304 29.9792 38.3997 31.0275C38.4651 31.7434 38.0714 32.4338 37.4377 32.6929C36.4361 33.1032 36.4361 33.1032 37.0684 34.0332C37.1444 34.1455 37.2279 34.2533 37.2979 34.3686C37.5714 34.8209 37.8252 34.6801 38.0639 34.3417C38.2569 34.0676 38.2994 33.6678 38.6292 33.515C39.4682 33.1287 39.9682 32.3769 40.6293 31.8003C41.1825 31.3166 41.3041 30.767 41.2996 30.0661C41.2828 27.348 41.0077 24.6239 41.5063 21.804ZM20.3336 21.9253C20.7485 24.3394 20.7622 26.6726 20.5236 28.9669C20.3564 30.5738 20.7075 31.7284 21.9628 32.7393C22.434 33.1182 23.0252 33.3728 23.3884 33.8655C24.1863 34.9482 24.1727 34.9587 24.8946 33.8205C24.9675 33.7052 25.0283 33.5824 25.1104 33.4761C25.3718 33.1346 25.2548 32.9999 24.8642 32.883C23.5237 32.4802 23.2608 32.1657 23.282 30.7505C23.2912 30.1185 23.2684 29.6648 22.4811 29.6468C22.3732 29.6438 22.2318 29.5105 22.168 29.4027C21.747 28.6793 21.5753 27.8512 21.1817 27.1099C21.0555 26.8703 21.1938 26.4285 21.6148 26.5857C21.972 26.719 22.3519 26.6546 22.6969 26.8957C22.589 26.2473 22.4629 25.7037 22.1832 25.1645C22.0084 24.8291 21.6862 24.4696 21.7637 24.0159C21.9811 22.7369 21.9704 22.719 20.8564 22.2323C20.712 22.1709 20.5859 22.0765 20.3336 21.9253ZM33.7415 11.5351C33.3174 10.8791 33.5682 10.3879 34.4679 10.0165C35.0789 9.76342 35.12 9.62564 34.6701 9.13743C34.0226 8.43656 33.2506 7.8585 32.5849 7.18309C31.7095 6.29353 30.0209 6.28454 29.1987 7.16512C28.5969 7.80908 27.881 8.34821 27.2473 8.96371C26.6637 9.5298 26.7092 9.66458 27.4616 9.99704C27.5786 10.0495 27.6667 10.1648 27.7686 10.2486C28.413 10.7758 28.495 10.7698 28.9996 10.0869C29.1334 9.90569 29.3142 9.8353 29.5088 9.76941C29.6911 9.70801 29.8811 9.63313 29.8522 9.41299C29.7732 8.82144 30.2945 8.62077 30.597 8.2898C30.7976 8.06966 31.1 8.02922 31.3265 8.27782C31.6821 8.66569 32.3189 8.88434 32.1411 9.60917C32.0742 9.88323 32.3706 9.81434 32.518 9.88472C33.357 10.2801 33.5804 11.0109 33.0028 11.5351C33.2399 11.5351 33.4588 11.5351 33.7415 11.5351ZM13.1813 35.5113C14.23 34.6607 14.23 34.6607 13.4123 33.8505C12.5415 32.9879 12.5658 32.0145 13.4807 31.1114C14.2209 30.3806 14.2057 30.2743 13.1828 29.6588C13.3956 30.8164 12.3636 31.1309 11.8256 31.7808C11.6296 32.0174 11.4122 31.9276 11.242 31.7434C10.6766 31.1354 9.80274 30.7295 9.92128 29.6707C8.86653 30.3237 8.86653 30.3297 9.61732 31.0695C9.68267 31.1339 9.74802 31.1953 9.81186 31.2597C10.5399 31.986 10.5459 33.0358 9.81793 33.7576C9.15073 34.4181 8.47593 35.071 7.76009 35.7719C8.38018 35.9441 8.75406 35.7884 9.10514 35.4229C9.77994 34.7191 10.4897 34.0482 11.1903 33.3683C11.3469 33.2155 11.5429 32.9624 11.7587 33.205C12.3454 33.867 13.3895 34.2399 13.1813 35.5113ZM51.7939 29.4626C51.9626 30.7116 50.9823 31.1054 50.4063 31.7599C50.2604 31.9261 50.0659 31.8991 49.9261 31.7419C49.3485 31.0904 48.3926 30.6861 48.537 29.5539C47.5308 30.2533 47.5247 30.2967 48.2603 31.0201C49.233 31.9755 49.2194 32.9355 48.2208 33.9194C47.5445 34.5858 47.6068 34.8658 48.581 35.2777C48.3242 34.2473 49.2497 33.9329 49.727 33.3443C50.0203 32.9819 50.2999 32.9939 50.6313 33.3338C51.3137 34.0332 52.028 34.6996 52.7195 35.39C53.0311 35.7 53.3578 35.8423 53.9202 35.5817C53.18 34.8823 52.5083 34.2399 51.8274 33.6079C51.5629 33.3623 51.4565 33.0822 51.4231 32.7168C51.3593 31.983 51.5827 31.4289 52.1587 30.9392C52.8107 30.3851 52.7788 30.3476 52.1405 29.7471C52.0766 29.6857 52.0037 29.6333 51.7939 29.4626ZM48.1631 17.4205C47.9685 17.5359 47.6919 17.6167 47.5612 17.7994C47.391 18.0375 47.7223 18.1109 47.85 18.2337C48.0612 18.4374 48.3135 18.6006 48.5309 18.7983C49.2589 19.4602 49.2421 19.592 48.4929 20.2001C48.1631 20.4681 47.9929 20.3932 47.8242 20.0488C47.6159 19.622 47.3652 19.2176 47.0262 18.8747C46.8408 18.6875 46.6615 18.5138 46.4046 18.7968C46.1888 19.0349 46.0292 19.2296 46.3758 19.5112C46.6539 19.7373 46.8925 20.0233 47.1038 20.3124C47.8424 21.3202 47.8363 21.3262 48.7513 20.4337C49.9048 19.3105 49.9094 19.1832 48.8136 17.9492C48.6373 17.75 48.4731 17.5269 48.1631 17.4205ZM15.8608 19.0814C15.4504 19.1862 15.4246 18.3655 14.9732 18.7115C14.6935 18.9241 14.5127 19.2611 14.2893 19.5456C14.2345 19.616 14.1889 19.6969 14.1434 19.7732C13.6828 20.5475 13.6616 20.5355 13.0202 19.8945C12.7026 19.5771 12.7147 19.3225 13.0232 19.0454C13.309 18.7878 13.6145 18.5497 13.8911 18.2831C14.04 18.1394 14.4625 18.054 14.1722 17.753C13.9595 17.5314 13.6494 17.2888 13.2953 17.6587C12.9017 18.0705 12.5521 18.5063 12.2709 19.0005C12.0962 19.3075 12.1417 19.5336 12.4016 19.7702C12.8545 20.1821 13.2938 20.6074 13.7208 21.0447C13.9914 21.3217 14.1434 21.2873 14.3166 20.9488C14.6798 20.2375 15.1814 19.631 15.8608 19.0814ZM42.6127 29.0972C42.4105 28.9324 42.061 29.4671 42.0093 29.0058C41.9592 28.5506 41.7479 28.0189 42.2662 27.6325C42.6872 27.3195 42.5154 26.9092 42.3862 26.5258C42.3498 26.418 42.2525 26.3401 42.1187 26.3626C41.985 26.3851 41.9242 26.4914 41.9227 26.6067C41.9196 27.7329 41.8026 28.862 42.0154 29.9807C42.0412 30.117 42.0929 30.2503 42.2692 30.2488C42.4257 30.2473 42.5291 30.1455 42.5747 30.0152C42.6796 29.7097 42.6628 29.3952 42.6127 29.0972ZM41.2844 35.3286C41.0412 35.7449 40.7889 36.0804 40.3102 36.2227C40.0244 36.308 39.6733 36.5162 39.7387 36.7962C39.8162 37.1227 40.2615 37.1811 40.564 37.3264C40.7904 37.4357 40.9546 37.3878 40.9971 37.1002C41.0853 36.5087 41.1886 35.9186 41.2844 35.3286Z" fill="white"/>
</svg>
