<svg width="234" height="49" viewBox="0 0 234 49" fill="none" xmlns="http://www.w3.org/2000/svg">
<path d="M10.4767 48.8851C9.03728 48.5318 8.69772 48.3993 8.09409 47.9551C6.90685 47.0814 6.48401 47.1662 6.25769 48.323L6.14383 48.9051L3.28743 48.8475L0.431038 48.7899L0.301134 48.0556C0.22969 47.6518 0.132705 44.8512 0.0856151 41.8321L0 36.3428L3.03225 36.2699C4.69998 36.2297 6.20347 36.2329 6.37334 36.2769C6.62744 36.3427 6.68219 36.5897 6.68219 37.6703C6.68219 39.7358 7.21324 40.8278 8.60655 41.6273C9.26688 42.0062 10.8335 42.0943 11.0061 41.7622C11.0661 41.6468 11.3423 41.5524 11.6198 41.5524C11.8973 41.5524 12.253 41.4938 12.4102 41.4221C13.0966 41.109 13.473 38.4219 12.9866 37.3074C12.7341 36.729 12.2456 36.0982 12.0502 36.0982C11.9796 36.0982 11.6616 35.8622 11.3434 35.5737C11.0253 35.2853 10.7191 35.0493 10.663 35.0493C10.5669 35.0493 9.80646 34.667 8.1752 33.7988C7.78301 33.59 6.93213 32.9363 6.28437 32.3462C5.6366 31.7561 5.05465 31.2732 4.99115 31.2732C4.92764 31.2732 4.60758 31.0136 4.27989 30.6963C3.95221 30.379 3.40148 29.8462 3.05605 29.5122C2.21081 28.6951 0.900322 26.4766 0.472693 25.1388C0.191272 24.2585 0.124143 23.5253 0.122622 21.3155C0.121563 19.8118 0.204061 18.0929 0.305901 17.4957C1.02481 13.2799 3.69708 11.1343 8.22878 11.1343C9.01918 11.1343 9.8483 11.2166 10.0713 11.3172C10.2942 11.4179 10.7943 11.6148 11.1826 11.7549C11.5709 11.8949 12.2924 12.2535 12.7859 12.5517C13.8261 13.1801 14.2337 13.0874 14.385 12.1881L14.4917 11.5539H17.3181C19.803 11.5539 20.1729 11.5982 20.379 11.921C20.5607 12.2056 20.6147 13.6167 20.619 18.2003C20.6242 23.6537 20.6007 24.1207 20.3158 24.2191C20.1459 24.2778 18.6767 24.3845 17.0508 24.4563C14.0468 24.589 13.9689 24.573 14.082 23.8488C14.0981 23.746 14.0209 22.9436 13.9105 22.0657C13.6134 19.703 12.848 18.8962 10.9034 18.8962C9.88102 18.8962 9.775 18.9433 9.21798 19.6453C8.7099 20.2857 8.62355 20.5436 8.62355 21.4212C8.62355 22.2704 8.71823 22.576 9.1713 23.1894C9.47256 23.5972 9.82332 23.9309 9.95078 23.9309C10.0782 23.9309 10.209 24.0095 10.2413 24.1056C10.3074 24.3019 11.9601 25.5553 12.771 26.0241C13.0622 26.1925 13.6277 26.7233 14.0276 27.2037C14.7968 28.1275 16.3517 29.1754 16.9534 29.1754C17.8123 29.1754 20.7768 32.3528 21.4551 34.0004C22.8937 37.4948 22.6786 42.3118 20.9534 45.2393C20.5662 45.8963 20.1445 46.5586 20.0162 46.711C19.6042 47.2008 18.347 48.0224 17.0337 48.6602C16.4237 48.9565 11.4612 49.1267 10.4767 48.8851ZM66.1583 48.4431C65.8185 48.3337 65.207 48.1582 64.7993 48.0533C64.3915 47.9483 63.915 47.7753 63.7403 47.6688C62.4903 46.9069 62.4282 46.8934 62.1756 47.3271C61.6612 48.2106 61.5527 48.2655 60.2831 48.2846C59.5832 48.2952 58.3137 48.3441 57.462 48.3933C56.315 48.4595 55.8932 48.4137 55.8356 48.2167C55.7928 48.0704 55.731 45.4284 55.6983 42.3455C55.6655 39.2627 55.5886 36.6808 55.5274 36.6081C55.4662 36.5354 55.507 36.2388 55.6181 35.9491L55.82 35.4224L58.7784 35.5031C60.4056 35.5474 61.8126 35.6758 61.9053 35.7885C61.9979 35.9011 62.1053 36.5637 62.144 37.2609C62.2748 39.6204 63.1576 40.9254 64.9854 41.4613C65.7268 41.6786 67.2857 41.1599 68.0029 40.4572C68.6109 39.8615 68.6291 39.8012 68.6291 38.3813C68.6291 36.9974 68.5955 36.8759 68.0031 36.1148C67.4438 35.3962 65.977 34.411 63.4227 33.0381C63.0345 32.8294 62.6771 32.602 62.6285 32.5328C62.58 32.4637 61.7461 31.7051 60.7754 30.8473C58.9464 29.2308 56.981 26.9844 56.981 26.5104C56.981 26.3609 56.9209 26.2385 56.8475 26.2385C56.7176 26.2385 56.5954 25.9472 56.0231 24.2724C55.6346 23.1355 55.6383 18.6527 56.0289 17.1525C56.4587 15.5018 56.7443 14.8288 57.4914 13.7052C58.4653 12.2408 60.2659 11.2309 62.2425 11.0404C62.8552 10.9814 63.4269 10.8814 63.5129 10.8182C63.6981 10.6822 65.8055 11.055 66.6877 11.3799C67.0275 11.505 67.8013 11.8416 68.4073 12.128C69.6282 12.705 69.965 12.6577 70.2158 11.8739L70.3852 11.3441H73.1035C75.0673 11.3441 75.8703 11.4169 75.9966 11.6063C76.21 11.9266 76.4062 19.3092 76.2685 21.8365L76.1688 23.6663L74.6491 23.7908C73.8133 23.8592 72.3675 23.979 71.4362 24.0568L69.7429 24.1984L69.6288 23.0682C69.566 22.4466 69.5139 21.5912 69.5131 21.1674C69.5103 19.8064 68.2159 18.4766 66.8938 18.4766C65.6955 18.4766 64.4169 19.3115 64.3993 20.1053C64.396 20.251 64.2979 20.552 64.1813 20.7741C63.6892 21.7106 65.1089 23.4862 67.7467 25.2335C68.1835 25.5229 68.8188 25.9462 69.1585 26.1743C69.4983 26.4024 70.1399 26.8296 70.5844 27.1238C71.0288 27.4179 71.5836 27.7874 71.8172 27.945C72.4238 28.354 74.6336 30.3148 75.1784 30.9274C75.8883 31.7257 76.924 33.2817 76.924 33.55C76.924 33.6823 77.0034 33.7906 77.1005 33.7906C77.1975 33.7906 77.2769 33.9335 77.2769 34.1081C77.2769 34.2827 77.347 34.5895 77.4326 34.7899C78.3653 36.9729 78.0412 41.6724 76.7854 44.1747C75.9234 45.8921 74.0378 47.5574 72.3353 48.1047C70.6497 48.6465 67.351 48.8272 66.1583 48.4431ZM151.578 48.4714C149.282 48.1958 148.003 47.673 146.319 46.3226C145.498 45.6639 144.342 44.3658 144.342 44.1024C144.342 44.0126 144.203 43.7561 144.033 43.5325C143.863 43.3088 143.625 42.8662 143.504 42.5489C142.5 39.9252 142.43 39.0896 142.409 29.6135C142.391 20.9587 142.446 20.097 143.116 18.6368C143.208 18.4364 143.283 18.123 143.283 17.9404C143.283 17.4526 144.282 15.7974 145.303 14.5924C146.078 13.6779 147.513 12.6458 148.666 12.1741C148.86 12.0946 149.217 11.9291 149.46 11.8062C149.703 11.6834 150.338 11.5154 150.872 11.4328C152.904 11.1186 157.634 11.362 157.858 11.7922C157.91 11.8919 158.111 11.9734 158.306 11.9734C158.753 11.9734 160.554 12.9783 161.008 13.4813C161.197 13.6904 161.427 13.8614 161.519 13.8614C161.611 13.8614 162.175 14.4515 162.771 15.1726C164.002 16.6605 164.963 18.7738 165.229 20.5744C165.447 22.058 165.451 37.511 165.233 39.0486C164.999 40.6999 163.687 43.6973 162.571 45.1304C160.452 47.8504 156.475 49.0592 151.578 48.4714ZM155.247 41.1499C156.293 40.5067 156.533 40.0158 156.672 38.2269C156.822 36.3038 156.781 22.5864 156.621 21.1053C156.499 19.9796 156.09 19.3004 155.222 18.7859C154.229 18.1973 152.726 18.6085 151.912 19.6916C151.478 20.2694 151.428 20.5203 151.315 22.7033C151.248 24.0131 151.236 28.2707 151.289 32.1647C151.396 40.0807 151.429 40.3069 152.6 41.0819C153.436 41.6358 154.416 41.661 155.247 41.1499ZM26.4597 48.1945C26.3439 48.0569 26.2722 46.755 26.2722 44.7889V41.6061L26.9553 41.4762C27.3309 41.4048 27.7418 41.1982 27.8682 41.0171C28.0498 40.7571 28.1036 38.4284 28.1238 29.9493C28.138 24.0432 28.0817 19.0456 27.9989 18.8437C27.8943 18.5889 27.6409 18.4766 27.1703 18.4766H26.4924L26.4108 15.2775C26.3658 13.5179 26.3645 11.9603 26.4078 11.8161C26.515 11.4587 36.425 11.4334 36.6104 11.79C36.678 11.9199 36.7679 18.4572 36.8102 26.3173C36.8859 40.3798 36.8929 40.6143 37.2468 40.9756C37.4446 41.1775 37.8757 41.3427 38.2046 41.3427H38.8028V44.5869C38.8028 47.4641 38.7679 47.8527 38.4939 48.0218C38.0311 48.3077 26.6917 48.4704 26.4597 48.1945H26.4597ZM219.614 48.2538C219.419 48.161 219.005 48.0785 218.693 48.0704C218.381 48.0623 217.825 47.901 217.458 47.7119C217.09 47.5228 216.591 47.2648 216.349 47.1385C214.855 46.3611 212.289 43.8424 212.289 43.1538C212.289 42.9653 212.219 42.8111 212.133 42.8111C212.048 42.8111 211.937 42.5987 211.887 42.3391C211.798 41.8789 211.497 40.8239 211.213 39.9791C211.136 39.7483 211.018 39.0875 210.951 38.5106C210.757 36.8352 210.701 20.5993 210.889 20.4614C210.98 20.3946 211.054 20.1554 211.054 19.9298C211.054 19.7043 211.128 19.3559 211.218 19.1555C211.308 18.9552 211.526 18.3432 211.703 17.7956C211.88 17.248 212.084 16.7996 212.157 16.7992C212.23 16.7987 212.289 16.6972 212.289 16.5736C212.289 16.45 212.389 16.2196 212.51 16.0617C212.631 15.9038 212.923 15.4621 213.158 15.0802C213.962 13.7751 216.647 11.8265 218.14 11.4642C219.691 11.0881 222.643 10.9171 224.093 11.1193C226.717 11.4854 226.993 11.5653 228.35 12.3491C229.968 13.2841 232.274 15.9021 232.917 17.5326C233.144 18.1095 233.408 18.7589 233.503 18.9756C233.659 19.3312 234.013 22.7886 234 23.826C233.997 24.0568 233.962 27.1633 233.922 30.7294C233.827 39.1967 233.583 40.6647 231.753 43.7795C230.485 45.9397 229.282 46.9023 226.673 47.8461C225.691 48.2012 224.876 48.3063 222.702 48.3578C221.198 48.3934 219.808 48.3466 219.614 48.2538ZM223.926 40.7521C224.216 40.5426 224.617 40.1232 224.818 39.8201C225.174 39.2818 225.183 39.0481 225.188 29.8089C225.193 20.6713 225.181 20.3255 224.836 19.6618C224.346 18.7183 223.783 18.4143 222.486 18.3913C221.596 18.3756 221.267 18.4664 220.809 18.8547C219.674 19.8166 219.682 19.7343 219.739 29.9294C219.787 38.4985 219.813 39.1852 220.121 39.7888C220.302 40.1457 220.66 40.5916 220.915 40.7797C221.564 41.2587 223.247 41.2433 223.926 40.7521ZM84.0536 48.0556C83.0703 47.9914 82.3344 47.8391 82.1564 47.6628C81.9122 47.421 81.8656 46.9131 81.8656 44.4905V41.6061L82.5486 41.4762C82.9243 41.4048 83.3252 41.2124 83.4396 41.0486C83.824 40.498 83.8353 19.21 83.4516 18.472C83.376 18.3267 83.0122 18.1495 82.6431 18.0782L81.9719 17.9485L81.9629 14.8036L81.9538 11.6587L87.0278 11.6031L92.1018 11.5474L92.1337 12.2324C92.1777 13.1769 92.1912 15.1662 92.2451 28.6025C92.2709 35.0371 92.3382 40.445 92.3948 40.6202C92.5067 40.9668 93.5439 41.5524 94.0459 41.5524C94.2178 41.5524 94.4066 41.7018 94.4655 41.8843C94.6417 42.43 94.5866 45.0837 94.3962 45.2236C94.2991 45.2949 94.2197 45.9171 94.2197 46.6061C94.2197 47.4215 94.1426 47.8899 93.9991 47.9474C93.6511 48.0868 85.8337 48.1719 84.0536 48.0556ZM112.398 44.8209V41.5524L113.06 41.5458C114.322 41.533 114.248 42.2414 114.281 29.96C114.314 17.6793 114.387 18.4197 113.107 18.1626L112.398 18.0202V14.8012C112.398 11.9195 112.43 11.57 112.707 11.466C113.207 11.278 121.979 11.2315 122.413 11.4146C122.632 11.5067 122.811 11.6993 122.811 11.8426C122.811 11.9858 122.918 12.2778 123.049 12.4914C123.281 12.8671 123.316 12.8645 124.152 12.4115C124.628 12.154 125.137 11.8688 125.284 11.7777C125.431 11.6866 126.245 11.4893 127.093 11.3394C128.365 11.1143 128.898 11.1154 130.143 11.3456C130.972 11.4989 131.692 11.7029 131.741 11.7989C131.791 11.8949 131.99 11.9734 132.182 11.9734C133.066 11.9734 135.13 13.8791 135.647 15.1738C136.76 17.9577 136.653 16.86 136.783 26.8678C136.849 31.8868 136.958 37.1497 137.026 38.5631C137.158 41.3091 137.127 41.2368 138.121 41.1411C138.86 41.0699 139.047 41.5716 139.047 43.6229C139.047 44.6627 138.968 45.5719 138.871 45.6432C138.774 45.7145 138.694 46.2699 138.694 46.8774V47.982L132.517 48.0338L126.34 48.0856V44.819V41.5524H127.042C128.28 41.5524 128.245 41.8891 128.197 30.4711C128.156 20.7532 128.14 20.3109 127.807 19.78C127.267 18.9211 126.528 18.5089 125.496 18.4919C124.404 18.474 123.884 18.8113 123.307 19.9098L122.903 20.6793L122.884 30.6439C122.874 36.1244 122.93 40.8208 123.01 41.0804C123.128 41.465 123.289 41.5524 123.877 41.5524H124.6L124.544 44.7516L124.487 47.9508L118.443 48.0201L112.398 48.0894V44.8209ZM181.051 47.0572C181.051 46.4885 180.999 45.0172 180.936 43.7878L180.821 41.5524H181.541C182.777 41.5524 182.858 41.3108 182.814 37.7923C182.792 36.1105 182.782 31.0597 182.791 26.5682C182.803 20.5913 182.751 18.3221 182.599 18.1045C182.454 17.8961 182.191 17.8453 181.722 17.9346C181.153 18.0427 181.051 18.0045 181.051 17.6819C181.051 17.4729 181.139 17.1977 181.246 17.0704C181.37 16.9228 181.399 16.4331 181.325 15.7174C181.262 15.1004 181.169 13.83 181.119 12.8941L181.027 11.1926L181.524 11.0792C182.164 10.9333 191.08 11.0868 191.299 11.2474C191.39 11.3142 191.464 11.5892 191.464 11.8585C191.464 12.456 191.942 12.7159 192.328 12.3283C192.862 11.7916 193.906 11.3412 195.434 10.9879C196.748 10.684 197.197 10.6691 198.617 10.8824C200.762 11.2043 202.012 11.8839 203.281 13.4168C204.316 14.6668 205.081 16.565 205.307 18.4461C205.367 18.9486 205.413 24.0826 205.41 29.8552C205.405 37.372 205.46 40.4319 205.603 40.6369C205.715 40.7973 206.136 40.9231 206.56 40.9231H207.318L207.377 42.3082C207.444 43.8848 207.304 47.5549 207.171 47.6971C207.123 47.749 204.462 47.8273 201.259 47.8711L195.435 47.9508L195.226 46.2725C195.111 45.3495 195.011 43.8155 195.005 42.8636L194.994 41.1329H195.678C196.054 41.1329 196.444 41.0149 196.543 40.8707C196.721 40.6118 196.853 30.4057 196.771 23.1967C196.728 19.433 196.681 19.2566 195.53 18.5291C193.81 17.4413 191.966 18.4115 191.565 20.6158C191.398 21.5349 191.265 38.8348 191.416 39.9791C191.553 41.0097 191.567 41.0298 192.258 41.1329L192.961 41.2378L192.901 44.4894C192.869 46.2778 192.83 47.7533 192.815 47.7683C192.8 47.7833 190.147 47.8621 186.919 47.9435L181.051 48.0914V47.0572ZM88.0156 8.03355C86.6622 7.99478 85.9008 7.88717 85.789 7.71888C85.4465 7.20349 84.6894 5.44709 84.6894 5.16793C84.6894 5.00986 84.5382 4.51761 84.3534 4.07404C84.1687 3.63046 83.8215 2.74832 83.582 2.11374C82.793 0.0233943 82.5451 0.225713 85.895 0.225713C89.0833 0.225713 89.2781 0.287951 89.2781 1.3067C89.2781 1.62433 89.3477 2.10107 89.4328 2.3661C89.614 2.93057 89.9629 4.55088 90.1916 5.88978C90.2802 6.40899 90.3963 7.07994 90.4495 7.38079C90.5742 8.08672 90.5064 8.10492 88.0156 8.03355ZM33.1079 7.86145C33.0496 7.79208 32.5881 7.67408 32.0825 7.59923C31.5347 7.51813 31.1099 7.33599 31.0312 7.14846C30.9586 6.9754 30.7422 6.40899 30.5503 5.88978C30.1083 4.69422 29.448 2.97193 28.8532 1.46349C28.5985 0.8174 28.3901 0.227393 28.3901 0.152359C28.3901 -0.118203 34.131 0.001384 34.4292 0.278158C34.5845 0.422382 34.7494 0.917988 34.7956 1.3795C34.8734 2.15736 35.3978 4.93472 35.8165 6.78566C35.9149 7.22071 35.9473 7.66911 35.8885 7.78212C35.7743 8.00185 33.2858 8.07285 33.1079 7.86145Z" fill="#020202"/>
</svg>
